G04 #@! TF.FileFunction,Legend,Top*
%FSLAX46Y46*%
G04 Gerber Fmt 4.6, Leading zero omitted, Abs format (unit mm)*
G04 Created by KiCad (PCBNEW 4.0.7) date Mon Mar 26 00:48:08 2018*
%MOMM*%
%LPD*%
G01*
G04 APERTURE LIST*
%ADD10C,0.100000*%
%ADD11C,0.150000*%
%ADD12C,0.120000*%
G04 APERTURE END LIST*
D10*
D11*
X31224400Y-55605600D02*
X31224400Y-55630600D01*
X35374400Y-55605600D02*
X35374400Y-55710600D01*
X35374400Y-65755600D02*
X35374400Y-65650600D01*
X31224400Y-65755600D02*
X31224400Y-65650600D01*
X31224400Y-55605600D02*
X35374400Y-55605600D01*
X31224400Y-65755600D02*
X35374400Y-65755600D01*
X31224400Y-55630600D02*
X29849400Y-55630600D01*
X43924400Y-92425600D02*
X43924400Y-92450600D01*
X48074400Y-92425600D02*
X48074400Y-92540600D01*
X48074400Y-101325600D02*
X48074400Y-101210600D01*
X43924400Y-101325600D02*
X43924400Y-101210600D01*
X43924400Y-92425600D02*
X48074400Y-92425600D01*
X43924400Y-101325600D02*
X48074400Y-101325600D01*
X43924400Y-92450600D02*
X42549400Y-92450600D01*
D12*
X45939400Y-65312600D02*
X48599400Y-65312600D01*
X45939400Y-62712600D02*
X45939400Y-65312600D01*
X48599400Y-62712600D02*
X48599400Y-65312600D01*
X45939400Y-62712600D02*
X48599400Y-62712600D01*
X45939400Y-61442600D02*
X45939400Y-60112600D01*
X45939400Y-60112600D02*
X47269400Y-60112600D01*
X49234400Y-110270600D02*
X49234400Y-105070600D01*
X18694400Y-110270600D02*
X49234400Y-110270600D01*
X16094400Y-105070600D02*
X49234400Y-105070600D01*
X18694400Y-110270600D02*
X18694400Y-107670600D01*
X18694400Y-107670600D02*
X16094400Y-107670600D01*
X16094400Y-107670600D02*
X16094400Y-105070600D01*
X17424400Y-110270600D02*
X16094400Y-110270600D01*
X16094400Y-110270600D02*
X16094400Y-108940600D01*
X16856400Y-66328600D02*
X22056400Y-66328600D01*
X16856400Y-58648600D02*
X16856400Y-66328600D01*
X22056400Y-56048600D02*
X22056400Y-66328600D01*
X16856400Y-58648600D02*
X19456400Y-58648600D01*
X19456400Y-58648600D02*
X19456400Y-56048600D01*
X19456400Y-56048600D02*
X22056400Y-56048600D01*
X16856400Y-57378600D02*
X16856400Y-56048600D01*
X16856400Y-56048600D02*
X18186400Y-56048600D01*
X18888400Y-50199600D02*
X21548400Y-50199600D01*
X18888400Y-22199600D02*
X18888400Y-50199600D01*
X21548400Y-22199600D02*
X21548400Y-50199600D01*
X18888400Y-22199600D02*
X21548400Y-22199600D01*
X18888400Y-20929600D02*
X18888400Y-19599600D01*
X18888400Y-19599600D02*
X20218400Y-19599600D01*
X46948400Y-19599600D02*
X44288400Y-19599600D01*
X46948400Y-47599600D02*
X46948400Y-19599600D01*
X44288400Y-47599600D02*
X44288400Y-19599600D01*
X46948400Y-47599600D02*
X44288400Y-47599600D01*
X46948400Y-48869600D02*
X46948400Y-50199600D01*
X46948400Y-50199600D02*
X45618400Y-50199600D01*
X21034400Y-113020600D02*
X21034400Y-115020600D01*
X18894400Y-115020600D02*
X18894400Y-113020600D01*
X21034400Y-118100600D02*
X21034400Y-120100600D01*
X18894400Y-120100600D02*
X18894400Y-118100600D01*
X23574400Y-113020600D02*
X23574400Y-115020600D01*
X21434400Y-115020600D02*
X21434400Y-113020600D01*
X23574400Y-118100600D02*
X23574400Y-120100600D01*
X21434400Y-120100600D02*
X21434400Y-118100600D01*
X26114400Y-113020600D02*
X26114400Y-115020600D01*
X23974400Y-115020600D02*
X23974400Y-113020600D01*
X26114400Y-118100600D02*
X26114400Y-120100600D01*
X23974400Y-120100600D02*
X23974400Y-118100600D01*
X28654400Y-113020600D02*
X28654400Y-115020600D01*
X26514400Y-115020600D02*
X26514400Y-113020600D01*
X28654400Y-118100600D02*
X28654400Y-120100600D01*
X26514400Y-120100600D02*
X26514400Y-118100600D01*
X31194400Y-113020600D02*
X31194400Y-115020600D01*
X29054400Y-115020600D02*
X29054400Y-113020600D01*
X31194400Y-118100600D02*
X31194400Y-120100600D01*
X29054400Y-120100600D02*
X29054400Y-118100600D01*
X33734400Y-113020600D02*
X33734400Y-115020600D01*
X31594400Y-115020600D02*
X31594400Y-113020600D01*
X33734400Y-118100600D02*
X33734400Y-120100600D01*
X31594400Y-120100600D02*
X31594400Y-118100600D01*
X36274400Y-113020600D02*
X36274400Y-115020600D01*
X34134400Y-115020600D02*
X34134400Y-113020600D01*
X36274400Y-118100600D02*
X36274400Y-120100600D01*
X34134400Y-120100600D02*
X34134400Y-118100600D01*
X38814400Y-113020600D02*
X38814400Y-115020600D01*
X36674400Y-115020600D02*
X36674400Y-113020600D01*
X38814400Y-118100600D02*
X38814400Y-120100600D01*
X36674400Y-120100600D02*
X36674400Y-118100600D01*
X41354400Y-113020600D02*
X41354400Y-115020600D01*
X39214400Y-115020600D02*
X39214400Y-113020600D01*
X41354400Y-118100600D02*
X41354400Y-120100600D01*
X39214400Y-120100600D02*
X39214400Y-118100600D01*
X43894400Y-113020600D02*
X43894400Y-115020600D01*
X41754400Y-115020600D02*
X41754400Y-113020600D01*
X43894400Y-118100600D02*
X43894400Y-120100600D01*
X41754400Y-120100600D02*
X41754400Y-118100600D01*
X46434400Y-113020600D02*
X46434400Y-115020600D01*
X44294400Y-115020600D02*
X44294400Y-113020600D01*
X46434400Y-118100600D02*
X46434400Y-120100600D01*
X44294400Y-120100600D02*
X44294400Y-118100600D01*
X48974400Y-113020600D02*
X48974400Y-115020600D01*
X46834400Y-115020600D02*
X46834400Y-113020600D01*
X48974400Y-118100600D02*
X48974400Y-120100600D01*
X46834400Y-120100600D02*
X46834400Y-118100600D01*
D11*
X18524400Y-92425600D02*
X18524400Y-92450600D01*
X22674400Y-92425600D02*
X22674400Y-92540600D01*
X22674400Y-101325600D02*
X22674400Y-101210600D01*
X18524400Y-101325600D02*
X18524400Y-101210600D01*
X18524400Y-92425600D02*
X22674400Y-92425600D01*
X18524400Y-101325600D02*
X22674400Y-101325600D01*
X18524400Y-92450600D02*
X17149400Y-92450600D01*
X18524400Y-80360600D02*
X18524400Y-80385600D01*
X22674400Y-80360600D02*
X22674400Y-80475600D01*
X22674400Y-89260600D02*
X22674400Y-89145600D01*
X18524400Y-89260600D02*
X18524400Y-89145600D01*
X18524400Y-80360600D02*
X22674400Y-80360600D01*
X18524400Y-89260600D02*
X22674400Y-89260600D01*
X18524400Y-80385600D02*
X17149400Y-80385600D01*
X18524400Y-68295600D02*
X18524400Y-68320600D01*
X22674400Y-68295600D02*
X22674400Y-68410600D01*
X22674400Y-77195600D02*
X22674400Y-77080600D01*
X18524400Y-77195600D02*
X18524400Y-77080600D01*
X18524400Y-68295600D02*
X22674400Y-68295600D01*
X18524400Y-77195600D02*
X22674400Y-77195600D01*
X18524400Y-68320600D02*
X17149400Y-68320600D01*
X31224400Y-92435600D02*
X31224400Y-92460600D01*
X35374400Y-92435600D02*
X35374400Y-92540600D01*
X35374400Y-102585600D02*
X35374400Y-102480600D01*
X31224400Y-102585600D02*
X31224400Y-102480600D01*
X31224400Y-92435600D02*
X35374400Y-92435600D01*
X31224400Y-102585600D02*
X35374400Y-102585600D01*
X31224400Y-92460600D02*
X29849400Y-92460600D01*
X31224400Y-80370600D02*
X31224400Y-80395600D01*
X35374400Y-80370600D02*
X35374400Y-80475600D01*
X35374400Y-90520600D02*
X35374400Y-90415600D01*
X31224400Y-90520600D02*
X31224400Y-90415600D01*
X31224400Y-80370600D02*
X35374400Y-80370600D01*
X31224400Y-90520600D02*
X35374400Y-90520600D01*
X31224400Y-80395600D02*
X29849400Y-80395600D01*
X43924400Y-80360600D02*
X43924400Y-80385600D01*
X48074400Y-80360600D02*
X48074400Y-80475600D01*
X48074400Y-89260600D02*
X48074400Y-89145600D01*
X43924400Y-89260600D02*
X43924400Y-89145600D01*
X43924400Y-80360600D02*
X48074400Y-80360600D01*
X43924400Y-89260600D02*
X48074400Y-89260600D01*
X43924400Y-80385600D02*
X42549400Y-80385600D01*
X31224400Y-68305600D02*
X31224400Y-68330600D01*
X35374400Y-68305600D02*
X35374400Y-68410600D01*
X35374400Y-78455600D02*
X35374400Y-78350600D01*
X31224400Y-78455600D02*
X31224400Y-78350600D01*
X31224400Y-68305600D02*
X35374400Y-68305600D01*
X31224400Y-78455600D02*
X35374400Y-78455600D01*
X31224400Y-68330600D02*
X29849400Y-68330600D01*
X43078400Y-50139600D02*
X41554400Y-53187600D01*
X22758400Y-50139600D02*
X24282400Y-53187600D01*
X24282400Y-53187600D02*
X41554400Y-53187600D01*
X43078400Y-16611600D02*
X43078400Y-50139600D01*
X22758400Y-16611600D02*
X22758400Y-50139600D01*
X36931600Y-16611600D02*
X43078400Y-16611600D01*
X28905200Y-16611600D02*
X22758400Y-16611600D01*
X28905200Y-14706600D02*
X28905200Y-16611600D01*
X36931600Y-14706600D02*
X36931600Y-16611600D01*
X28905200Y-14706600D02*
X36931600Y-14706600D01*
X43924400Y-68295600D02*
X43924400Y-68320600D01*
X48074400Y-68295600D02*
X48074400Y-68410600D01*
X48074400Y-77195600D02*
X48074400Y-77080600D01*
X43924400Y-77195600D02*
X43924400Y-77080600D01*
X43924400Y-68295600D02*
X48074400Y-68295600D01*
X43924400Y-77195600D02*
X48074400Y-77195600D01*
X43924400Y-68320600D02*
X42549400Y-68320600D01*
X32537495Y-54132981D02*
X32537495Y-54942505D01*
X32585114Y-55037743D01*
X32632733Y-55085362D01*
X32727971Y-55132981D01*
X32918448Y-55132981D01*
X33013686Y-55085362D01*
X33061305Y-55037743D01*
X33108924Y-54942505D01*
X33108924Y-54132981D01*
X33727971Y-54561552D02*
X33632733Y-54513933D01*
X33585114Y-54466314D01*
X33537495Y-54371076D01*
X33537495Y-54323457D01*
X33585114Y-54228219D01*
X33632733Y-54180600D01*
X33727971Y-54132981D01*
X33918448Y-54132981D01*
X34013686Y-54180600D01*
X34061305Y-54228219D01*
X34108924Y-54323457D01*
X34108924Y-54371076D01*
X34061305Y-54466314D01*
X34013686Y-54513933D01*
X33918448Y-54561552D01*
X33727971Y-54561552D01*
X33632733Y-54609171D01*
X33585114Y-54656790D01*
X33537495Y-54752029D01*
X33537495Y-54942505D01*
X33585114Y-55037743D01*
X33632733Y-55085362D01*
X33727971Y-55132981D01*
X33918448Y-55132981D01*
X34013686Y-55085362D01*
X34061305Y-55037743D01*
X34108924Y-54942505D01*
X34108924Y-54752029D01*
X34061305Y-54656790D01*
X34013686Y-54609171D01*
X33918448Y-54561552D01*
X45237495Y-90952981D02*
X45237495Y-91762505D01*
X45285114Y-91857743D01*
X45332733Y-91905362D01*
X45427971Y-91952981D01*
X45618448Y-91952981D01*
X45713686Y-91905362D01*
X45761305Y-91857743D01*
X45808924Y-91762505D01*
X45808924Y-90952981D01*
X46713686Y-90952981D02*
X46523209Y-90952981D01*
X46427971Y-91000600D01*
X46380352Y-91048219D01*
X46285114Y-91191076D01*
X46237495Y-91381552D01*
X46237495Y-91762505D01*
X46285114Y-91857743D01*
X46332733Y-91905362D01*
X46427971Y-91952981D01*
X46618448Y-91952981D01*
X46713686Y-91905362D01*
X46761305Y-91857743D01*
X46808924Y-91762505D01*
X46808924Y-91524410D01*
X46761305Y-91429171D01*
X46713686Y-91381552D01*
X46618448Y-91333933D01*
X46427971Y-91333933D01*
X46332733Y-91381552D01*
X46285114Y-91429171D01*
X46237495Y-91524410D01*
X46936067Y-58564981D02*
X46936067Y-59279267D01*
X46888447Y-59422124D01*
X46793209Y-59517362D01*
X46650352Y-59564981D01*
X46555114Y-59564981D01*
X47936067Y-59564981D02*
X47364638Y-59564981D01*
X47650352Y-59564981D02*
X47650352Y-58564981D01*
X47555114Y-58707838D01*
X47459876Y-58803076D01*
X47364638Y-58850695D01*
X14546781Y-108003933D02*
X15261067Y-108003933D01*
X15403924Y-108051553D01*
X15499162Y-108146791D01*
X15546781Y-108289648D01*
X15546781Y-108384886D01*
X14642019Y-107575362D02*
X14594400Y-107527743D01*
X14546781Y-107432505D01*
X14546781Y-107194409D01*
X14594400Y-107099171D01*
X14642019Y-107051552D01*
X14737257Y-107003933D01*
X14832495Y-107003933D01*
X14975352Y-107051552D01*
X15546781Y-107622981D01*
X15546781Y-107003933D01*
X19123067Y-54500981D02*
X19123067Y-55215267D01*
X19075447Y-55358124D01*
X18980209Y-55453362D01*
X18837352Y-55500981D01*
X18742114Y-55500981D01*
X19504019Y-54500981D02*
X20123067Y-54500981D01*
X19789733Y-54881933D01*
X19932591Y-54881933D01*
X20027829Y-54929552D01*
X20075448Y-54977171D01*
X20123067Y-55072410D01*
X20123067Y-55310505D01*
X20075448Y-55405743D01*
X20027829Y-55453362D01*
X19932591Y-55500981D01*
X19646876Y-55500981D01*
X19551638Y-55453362D01*
X19504019Y-55405743D01*
X19885067Y-18051981D02*
X19885067Y-18766267D01*
X19837447Y-18909124D01*
X19742209Y-19004362D01*
X19599352Y-19051981D01*
X19504114Y-19051981D01*
X20789829Y-18385314D02*
X20789829Y-19051981D01*
X20551733Y-18004362D02*
X20313638Y-18718648D01*
X20932686Y-18718648D01*
X45285067Y-50651981D02*
X45285067Y-51366267D01*
X45237447Y-51509124D01*
X45142209Y-51604362D01*
X44999352Y-51651981D01*
X44904114Y-51651981D01*
X46237448Y-50651981D02*
X45761257Y-50651981D01*
X45713638Y-51128171D01*
X45761257Y-51080552D01*
X45856495Y-51032933D01*
X46094591Y-51032933D01*
X46189829Y-51080552D01*
X46237448Y-51128171D01*
X46285067Y-51223410D01*
X46285067Y-51461505D01*
X46237448Y-51556743D01*
X46189829Y-51604362D01*
X46094591Y-51651981D01*
X45856495Y-51651981D01*
X45761257Y-51604362D01*
X45713638Y-51556743D01*
X18566781Y-114187266D02*
X18090590Y-114520600D01*
X18566781Y-114758695D02*
X17566781Y-114758695D01*
X17566781Y-114377742D01*
X17614400Y-114282504D01*
X17662019Y-114234885D01*
X17757257Y-114187266D01*
X17900114Y-114187266D01*
X17995352Y-114234885D01*
X18042971Y-114282504D01*
X18090590Y-114377742D01*
X18090590Y-114758695D01*
X18566781Y-113234885D02*
X18566781Y-113806314D01*
X18566781Y-113520600D02*
X17566781Y-113520600D01*
X17709638Y-113615838D01*
X17804876Y-113711076D01*
X17852495Y-113806314D01*
X18566781Y-119267266D02*
X18090590Y-119600600D01*
X18566781Y-119838695D02*
X17566781Y-119838695D01*
X17566781Y-119457742D01*
X17614400Y-119362504D01*
X17662019Y-119314885D01*
X17757257Y-119267266D01*
X17900114Y-119267266D01*
X17995352Y-119314885D01*
X18042971Y-119362504D01*
X18090590Y-119457742D01*
X18090590Y-119838695D01*
X17662019Y-118886314D02*
X17614400Y-118838695D01*
X17566781Y-118743457D01*
X17566781Y-118505361D01*
X17614400Y-118410123D01*
X17662019Y-118362504D01*
X17757257Y-118314885D01*
X17852495Y-118314885D01*
X17995352Y-118362504D01*
X18566781Y-118933933D01*
X18566781Y-118314885D01*
X21106781Y-114187266D02*
X20630590Y-114520600D01*
X21106781Y-114758695D02*
X20106781Y-114758695D01*
X20106781Y-114377742D01*
X20154400Y-114282504D01*
X20202019Y-114234885D01*
X20297257Y-114187266D01*
X20440114Y-114187266D01*
X20535352Y-114234885D01*
X20582971Y-114282504D01*
X20630590Y-114377742D01*
X20630590Y-114758695D01*
X20106781Y-113853933D02*
X20106781Y-113234885D01*
X20487733Y-113568219D01*
X20487733Y-113425361D01*
X20535352Y-113330123D01*
X20582971Y-113282504D01*
X20678210Y-113234885D01*
X20916305Y-113234885D01*
X21011543Y-113282504D01*
X21059162Y-113330123D01*
X21106781Y-113425361D01*
X21106781Y-113711076D01*
X21059162Y-113806314D01*
X21011543Y-113853933D01*
X21106781Y-119267266D02*
X20630590Y-119600600D01*
X21106781Y-119838695D02*
X20106781Y-119838695D01*
X20106781Y-119457742D01*
X20154400Y-119362504D01*
X20202019Y-119314885D01*
X20297257Y-119267266D01*
X20440114Y-119267266D01*
X20535352Y-119314885D01*
X20582971Y-119362504D01*
X20630590Y-119457742D01*
X20630590Y-119838695D01*
X20440114Y-118410123D02*
X21106781Y-118410123D01*
X20059162Y-118648219D02*
X20773448Y-118886314D01*
X20773448Y-118267266D01*
X23646781Y-114187266D02*
X23170590Y-114520600D01*
X23646781Y-114758695D02*
X22646781Y-114758695D01*
X22646781Y-114377742D01*
X22694400Y-114282504D01*
X22742019Y-114234885D01*
X22837257Y-114187266D01*
X22980114Y-114187266D01*
X23075352Y-114234885D01*
X23122971Y-114282504D01*
X23170590Y-114377742D01*
X23170590Y-114758695D01*
X22646781Y-113282504D02*
X22646781Y-113758695D01*
X23122971Y-113806314D01*
X23075352Y-113758695D01*
X23027733Y-113663457D01*
X23027733Y-113425361D01*
X23075352Y-113330123D01*
X23122971Y-113282504D01*
X23218210Y-113234885D01*
X23456305Y-113234885D01*
X23551543Y-113282504D01*
X23599162Y-113330123D01*
X23646781Y-113425361D01*
X23646781Y-113663457D01*
X23599162Y-113758695D01*
X23551543Y-113806314D01*
X23646781Y-119267266D02*
X23170590Y-119600600D01*
X23646781Y-119838695D02*
X22646781Y-119838695D01*
X22646781Y-119457742D01*
X22694400Y-119362504D01*
X22742019Y-119314885D01*
X22837257Y-119267266D01*
X22980114Y-119267266D01*
X23075352Y-119314885D01*
X23122971Y-119362504D01*
X23170590Y-119457742D01*
X23170590Y-119838695D01*
X22646781Y-118410123D02*
X22646781Y-118600600D01*
X22694400Y-118695838D01*
X22742019Y-118743457D01*
X22884876Y-118838695D01*
X23075352Y-118886314D01*
X23456305Y-118886314D01*
X23551543Y-118838695D01*
X23599162Y-118791076D01*
X23646781Y-118695838D01*
X23646781Y-118505361D01*
X23599162Y-118410123D01*
X23551543Y-118362504D01*
X23456305Y-118314885D01*
X23218210Y-118314885D01*
X23122971Y-118362504D01*
X23075352Y-118410123D01*
X23027733Y-118505361D01*
X23027733Y-118695838D01*
X23075352Y-118791076D01*
X23122971Y-118838695D01*
X23218210Y-118886314D01*
X26186781Y-114187266D02*
X25710590Y-114520600D01*
X26186781Y-114758695D02*
X25186781Y-114758695D01*
X25186781Y-114377742D01*
X25234400Y-114282504D01*
X25282019Y-114234885D01*
X25377257Y-114187266D01*
X25520114Y-114187266D01*
X25615352Y-114234885D01*
X25662971Y-114282504D01*
X25710590Y-114377742D01*
X25710590Y-114758695D01*
X25186781Y-113853933D02*
X25186781Y-113187266D01*
X26186781Y-113615838D01*
X26186781Y-119267266D02*
X25710590Y-119600600D01*
X26186781Y-119838695D02*
X25186781Y-119838695D01*
X25186781Y-119457742D01*
X25234400Y-119362504D01*
X25282019Y-119314885D01*
X25377257Y-119267266D01*
X25520114Y-119267266D01*
X25615352Y-119314885D01*
X25662971Y-119362504D01*
X25710590Y-119457742D01*
X25710590Y-119838695D01*
X25615352Y-118695838D02*
X25567733Y-118791076D01*
X25520114Y-118838695D01*
X25424876Y-118886314D01*
X25377257Y-118886314D01*
X25282019Y-118838695D01*
X25234400Y-118791076D01*
X25186781Y-118695838D01*
X25186781Y-118505361D01*
X25234400Y-118410123D01*
X25282019Y-118362504D01*
X25377257Y-118314885D01*
X25424876Y-118314885D01*
X25520114Y-118362504D01*
X25567733Y-118410123D01*
X25615352Y-118505361D01*
X25615352Y-118695838D01*
X25662971Y-118791076D01*
X25710590Y-118838695D01*
X25805829Y-118886314D01*
X25996305Y-118886314D01*
X26091543Y-118838695D01*
X26139162Y-118791076D01*
X26186781Y-118695838D01*
X26186781Y-118505361D01*
X26139162Y-118410123D01*
X26091543Y-118362504D01*
X25996305Y-118314885D01*
X25805829Y-118314885D01*
X25710590Y-118362504D01*
X25662971Y-118410123D01*
X25615352Y-118505361D01*
X28726781Y-114187266D02*
X28250590Y-114520600D01*
X28726781Y-114758695D02*
X27726781Y-114758695D01*
X27726781Y-114377742D01*
X27774400Y-114282504D01*
X27822019Y-114234885D01*
X27917257Y-114187266D01*
X28060114Y-114187266D01*
X28155352Y-114234885D01*
X28202971Y-114282504D01*
X28250590Y-114377742D01*
X28250590Y-114758695D01*
X28726781Y-113711076D02*
X28726781Y-113520600D01*
X28679162Y-113425361D01*
X28631543Y-113377742D01*
X28488686Y-113282504D01*
X28298210Y-113234885D01*
X27917257Y-113234885D01*
X27822019Y-113282504D01*
X27774400Y-113330123D01*
X27726781Y-113425361D01*
X27726781Y-113615838D01*
X27774400Y-113711076D01*
X27822019Y-113758695D01*
X27917257Y-113806314D01*
X28155352Y-113806314D01*
X28250590Y-113758695D01*
X28298210Y-113711076D01*
X28345829Y-113615838D01*
X28345829Y-113425361D01*
X28298210Y-113330123D01*
X28250590Y-113282504D01*
X28155352Y-113234885D01*
X28726781Y-119743457D02*
X28250590Y-120076791D01*
X28726781Y-120314886D02*
X27726781Y-120314886D01*
X27726781Y-119933933D01*
X27774400Y-119838695D01*
X27822019Y-119791076D01*
X27917257Y-119743457D01*
X28060114Y-119743457D01*
X28155352Y-119791076D01*
X28202971Y-119838695D01*
X28250590Y-119933933D01*
X28250590Y-120314886D01*
X28726781Y-118791076D02*
X28726781Y-119362505D01*
X28726781Y-119076791D02*
X27726781Y-119076791D01*
X27869638Y-119172029D01*
X27964876Y-119267267D01*
X28012495Y-119362505D01*
X27726781Y-118172029D02*
X27726781Y-118076790D01*
X27774400Y-117981552D01*
X27822019Y-117933933D01*
X27917257Y-117886314D01*
X28107733Y-117838695D01*
X28345829Y-117838695D01*
X28536305Y-117886314D01*
X28631543Y-117933933D01*
X28679162Y-117981552D01*
X28726781Y-118076790D01*
X28726781Y-118172029D01*
X28679162Y-118267267D01*
X28631543Y-118314886D01*
X28536305Y-118362505D01*
X28345829Y-118410124D01*
X28107733Y-118410124D01*
X27917257Y-118362505D01*
X27822019Y-118314886D01*
X27774400Y-118267267D01*
X27726781Y-118172029D01*
X31266781Y-114663457D02*
X30790590Y-114996791D01*
X31266781Y-115234886D02*
X30266781Y-115234886D01*
X30266781Y-114853933D01*
X30314400Y-114758695D01*
X30362019Y-114711076D01*
X30457257Y-114663457D01*
X30600114Y-114663457D01*
X30695352Y-114711076D01*
X30742971Y-114758695D01*
X30790590Y-114853933D01*
X30790590Y-115234886D01*
X31266781Y-113711076D02*
X31266781Y-114282505D01*
X31266781Y-113996791D02*
X30266781Y-113996791D01*
X30409638Y-114092029D01*
X30504876Y-114187267D01*
X30552495Y-114282505D01*
X31266781Y-112758695D02*
X31266781Y-113330124D01*
X31266781Y-113044410D02*
X30266781Y-113044410D01*
X30409638Y-113139648D01*
X30504876Y-113234886D01*
X30552495Y-113330124D01*
X31266781Y-119743457D02*
X30790590Y-120076791D01*
X31266781Y-120314886D02*
X30266781Y-120314886D01*
X30266781Y-119933933D01*
X30314400Y-119838695D01*
X30362019Y-119791076D01*
X30457257Y-119743457D01*
X30600114Y-119743457D01*
X30695352Y-119791076D01*
X30742971Y-119838695D01*
X30790590Y-119933933D01*
X30790590Y-120314886D01*
X31266781Y-118791076D02*
X31266781Y-119362505D01*
X31266781Y-119076791D02*
X30266781Y-119076791D01*
X30409638Y-119172029D01*
X30504876Y-119267267D01*
X30552495Y-119362505D01*
X30362019Y-118410124D02*
X30314400Y-118362505D01*
X30266781Y-118267267D01*
X30266781Y-118029171D01*
X30314400Y-117933933D01*
X30362019Y-117886314D01*
X30457257Y-117838695D01*
X30552495Y-117838695D01*
X30695352Y-117886314D01*
X31266781Y-118457743D01*
X31266781Y-117838695D01*
X33806781Y-114663457D02*
X33330590Y-114996791D01*
X33806781Y-115234886D02*
X32806781Y-115234886D01*
X32806781Y-114853933D01*
X32854400Y-114758695D01*
X32902019Y-114711076D01*
X32997257Y-114663457D01*
X33140114Y-114663457D01*
X33235352Y-114711076D01*
X33282971Y-114758695D01*
X33330590Y-114853933D01*
X33330590Y-115234886D01*
X33806781Y-113711076D02*
X33806781Y-114282505D01*
X33806781Y-113996791D02*
X32806781Y-113996791D01*
X32949638Y-114092029D01*
X33044876Y-114187267D01*
X33092495Y-114282505D01*
X32806781Y-113377743D02*
X32806781Y-112758695D01*
X33187733Y-113092029D01*
X33187733Y-112949171D01*
X33235352Y-112853933D01*
X33282971Y-112806314D01*
X33378210Y-112758695D01*
X33616305Y-112758695D01*
X33711543Y-112806314D01*
X33759162Y-112853933D01*
X33806781Y-112949171D01*
X33806781Y-113234886D01*
X33759162Y-113330124D01*
X33711543Y-113377743D01*
X33806781Y-119743457D02*
X33330590Y-120076791D01*
X33806781Y-120314886D02*
X32806781Y-120314886D01*
X32806781Y-119933933D01*
X32854400Y-119838695D01*
X32902019Y-119791076D01*
X32997257Y-119743457D01*
X33140114Y-119743457D01*
X33235352Y-119791076D01*
X33282971Y-119838695D01*
X33330590Y-119933933D01*
X33330590Y-120314886D01*
X33806781Y-118791076D02*
X33806781Y-119362505D01*
X33806781Y-119076791D02*
X32806781Y-119076791D01*
X32949638Y-119172029D01*
X33044876Y-119267267D01*
X33092495Y-119362505D01*
X33140114Y-117933933D02*
X33806781Y-117933933D01*
X32759162Y-118172029D02*
X33473448Y-118410124D01*
X33473448Y-117791076D01*
X36346781Y-114663457D02*
X35870590Y-114996791D01*
X36346781Y-115234886D02*
X35346781Y-115234886D01*
X35346781Y-114853933D01*
X35394400Y-114758695D01*
X35442019Y-114711076D01*
X35537257Y-114663457D01*
X35680114Y-114663457D01*
X35775352Y-114711076D01*
X35822971Y-114758695D01*
X35870590Y-114853933D01*
X35870590Y-115234886D01*
X36346781Y-113711076D02*
X36346781Y-114282505D01*
X36346781Y-113996791D02*
X35346781Y-113996791D01*
X35489638Y-114092029D01*
X35584876Y-114187267D01*
X35632495Y-114282505D01*
X35346781Y-112806314D02*
X35346781Y-113282505D01*
X35822971Y-113330124D01*
X35775352Y-113282505D01*
X35727733Y-113187267D01*
X35727733Y-112949171D01*
X35775352Y-112853933D01*
X35822971Y-112806314D01*
X35918210Y-112758695D01*
X36156305Y-112758695D01*
X36251543Y-112806314D01*
X36299162Y-112853933D01*
X36346781Y-112949171D01*
X36346781Y-113187267D01*
X36299162Y-113282505D01*
X36251543Y-113330124D01*
X36346781Y-119743457D02*
X35870590Y-120076791D01*
X36346781Y-120314886D02*
X35346781Y-120314886D01*
X35346781Y-119933933D01*
X35394400Y-119838695D01*
X35442019Y-119791076D01*
X35537257Y-119743457D01*
X35680114Y-119743457D01*
X35775352Y-119791076D01*
X35822971Y-119838695D01*
X35870590Y-119933933D01*
X35870590Y-120314886D01*
X36346781Y-118791076D02*
X36346781Y-119362505D01*
X36346781Y-119076791D02*
X35346781Y-119076791D01*
X35489638Y-119172029D01*
X35584876Y-119267267D01*
X35632495Y-119362505D01*
X35346781Y-117933933D02*
X35346781Y-118124410D01*
X35394400Y-118219648D01*
X35442019Y-118267267D01*
X35584876Y-118362505D01*
X35775352Y-118410124D01*
X36156305Y-118410124D01*
X36251543Y-118362505D01*
X36299162Y-118314886D01*
X36346781Y-118219648D01*
X36346781Y-118029171D01*
X36299162Y-117933933D01*
X36251543Y-117886314D01*
X36156305Y-117838695D01*
X35918210Y-117838695D01*
X35822971Y-117886314D01*
X35775352Y-117933933D01*
X35727733Y-118029171D01*
X35727733Y-118219648D01*
X35775352Y-118314886D01*
X35822971Y-118362505D01*
X35918210Y-118410124D01*
X38886781Y-114663457D02*
X38410590Y-114996791D01*
X38886781Y-115234886D02*
X37886781Y-115234886D01*
X37886781Y-114853933D01*
X37934400Y-114758695D01*
X37982019Y-114711076D01*
X38077257Y-114663457D01*
X38220114Y-114663457D01*
X38315352Y-114711076D01*
X38362971Y-114758695D01*
X38410590Y-114853933D01*
X38410590Y-115234886D01*
X38886781Y-113711076D02*
X38886781Y-114282505D01*
X38886781Y-113996791D02*
X37886781Y-113996791D01*
X38029638Y-114092029D01*
X38124876Y-114187267D01*
X38172495Y-114282505D01*
X37886781Y-113377743D02*
X37886781Y-112711076D01*
X38886781Y-113139648D01*
X38886781Y-119743457D02*
X38410590Y-120076791D01*
X38886781Y-120314886D02*
X37886781Y-120314886D01*
X37886781Y-119933933D01*
X37934400Y-119838695D01*
X37982019Y-119791076D01*
X38077257Y-119743457D01*
X38220114Y-119743457D01*
X38315352Y-119791076D01*
X38362971Y-119838695D01*
X38410590Y-119933933D01*
X38410590Y-120314886D01*
X38886781Y-118791076D02*
X38886781Y-119362505D01*
X38886781Y-119076791D02*
X37886781Y-119076791D01*
X38029638Y-119172029D01*
X38124876Y-119267267D01*
X38172495Y-119362505D01*
X38315352Y-118219648D02*
X38267733Y-118314886D01*
X38220114Y-118362505D01*
X38124876Y-118410124D01*
X38077257Y-118410124D01*
X37982019Y-118362505D01*
X37934400Y-118314886D01*
X37886781Y-118219648D01*
X37886781Y-118029171D01*
X37934400Y-117933933D01*
X37982019Y-117886314D01*
X38077257Y-117838695D01*
X38124876Y-117838695D01*
X38220114Y-117886314D01*
X38267733Y-117933933D01*
X38315352Y-118029171D01*
X38315352Y-118219648D01*
X38362971Y-118314886D01*
X38410590Y-118362505D01*
X38505829Y-118410124D01*
X38696305Y-118410124D01*
X38791543Y-118362505D01*
X38839162Y-118314886D01*
X38886781Y-118219648D01*
X38886781Y-118029171D01*
X38839162Y-117933933D01*
X38791543Y-117886314D01*
X38696305Y-117838695D01*
X38505829Y-117838695D01*
X38410590Y-117886314D01*
X38362971Y-117933933D01*
X38315352Y-118029171D01*
X41426781Y-114663457D02*
X40950590Y-114996791D01*
X41426781Y-115234886D02*
X40426781Y-115234886D01*
X40426781Y-114853933D01*
X40474400Y-114758695D01*
X40522019Y-114711076D01*
X40617257Y-114663457D01*
X40760114Y-114663457D01*
X40855352Y-114711076D01*
X40902971Y-114758695D01*
X40950590Y-114853933D01*
X40950590Y-115234886D01*
X41426781Y-113711076D02*
X41426781Y-114282505D01*
X41426781Y-113996791D02*
X40426781Y-113996791D01*
X40569638Y-114092029D01*
X40664876Y-114187267D01*
X40712495Y-114282505D01*
X41426781Y-113234886D02*
X41426781Y-113044410D01*
X41379162Y-112949171D01*
X41331543Y-112901552D01*
X41188686Y-112806314D01*
X40998210Y-112758695D01*
X40617257Y-112758695D01*
X40522019Y-112806314D01*
X40474400Y-112853933D01*
X40426781Y-112949171D01*
X40426781Y-113139648D01*
X40474400Y-113234886D01*
X40522019Y-113282505D01*
X40617257Y-113330124D01*
X40855352Y-113330124D01*
X40950590Y-113282505D01*
X40998210Y-113234886D01*
X41045829Y-113139648D01*
X41045829Y-112949171D01*
X40998210Y-112853933D01*
X40950590Y-112806314D01*
X40855352Y-112758695D01*
X41426781Y-119743457D02*
X40950590Y-120076791D01*
X41426781Y-120314886D02*
X40426781Y-120314886D01*
X40426781Y-119933933D01*
X40474400Y-119838695D01*
X40522019Y-119791076D01*
X40617257Y-119743457D01*
X40760114Y-119743457D01*
X40855352Y-119791076D01*
X40902971Y-119838695D01*
X40950590Y-119933933D01*
X40950590Y-120314886D01*
X40522019Y-119362505D02*
X40474400Y-119314886D01*
X40426781Y-119219648D01*
X40426781Y-118981552D01*
X40474400Y-118886314D01*
X40522019Y-118838695D01*
X40617257Y-118791076D01*
X40712495Y-118791076D01*
X40855352Y-118838695D01*
X41426781Y-119410124D01*
X41426781Y-118791076D01*
X40426781Y-118172029D02*
X40426781Y-118076790D01*
X40474400Y-117981552D01*
X40522019Y-117933933D01*
X40617257Y-117886314D01*
X40807733Y-117838695D01*
X41045829Y-117838695D01*
X41236305Y-117886314D01*
X41331543Y-117933933D01*
X41379162Y-117981552D01*
X41426781Y-118076790D01*
X41426781Y-118172029D01*
X41379162Y-118267267D01*
X41331543Y-118314886D01*
X41236305Y-118362505D01*
X41045829Y-118410124D01*
X40807733Y-118410124D01*
X40617257Y-118362505D01*
X40522019Y-118314886D01*
X40474400Y-118267267D01*
X40426781Y-118172029D01*
X43966781Y-114663457D02*
X43490590Y-114996791D01*
X43966781Y-115234886D02*
X42966781Y-115234886D01*
X42966781Y-114853933D01*
X43014400Y-114758695D01*
X43062019Y-114711076D01*
X43157257Y-114663457D01*
X43300114Y-114663457D01*
X43395352Y-114711076D01*
X43442971Y-114758695D01*
X43490590Y-114853933D01*
X43490590Y-115234886D01*
X43062019Y-114282505D02*
X43014400Y-114234886D01*
X42966781Y-114139648D01*
X42966781Y-113901552D01*
X43014400Y-113806314D01*
X43062019Y-113758695D01*
X43157257Y-113711076D01*
X43252495Y-113711076D01*
X43395352Y-113758695D01*
X43966781Y-114330124D01*
X43966781Y-113711076D01*
X43966781Y-112758695D02*
X43966781Y-113330124D01*
X43966781Y-113044410D02*
X42966781Y-113044410D01*
X43109638Y-113139648D01*
X43204876Y-113234886D01*
X43252495Y-113330124D01*
X43966781Y-119743457D02*
X43490590Y-120076791D01*
X43966781Y-120314886D02*
X42966781Y-120314886D01*
X42966781Y-119933933D01*
X43014400Y-119838695D01*
X43062019Y-119791076D01*
X43157257Y-119743457D01*
X43300114Y-119743457D01*
X43395352Y-119791076D01*
X43442971Y-119838695D01*
X43490590Y-119933933D01*
X43490590Y-120314886D01*
X43062019Y-119362505D02*
X43014400Y-119314886D01*
X42966781Y-119219648D01*
X42966781Y-118981552D01*
X43014400Y-118886314D01*
X43062019Y-118838695D01*
X43157257Y-118791076D01*
X43252495Y-118791076D01*
X43395352Y-118838695D01*
X43966781Y-119410124D01*
X43966781Y-118791076D01*
X43062019Y-118410124D02*
X43014400Y-118362505D01*
X42966781Y-118267267D01*
X42966781Y-118029171D01*
X43014400Y-117933933D01*
X43062019Y-117886314D01*
X43157257Y-117838695D01*
X43252495Y-117838695D01*
X43395352Y-117886314D01*
X43966781Y-118457743D01*
X43966781Y-117838695D01*
X46506781Y-114663457D02*
X46030590Y-114996791D01*
X46506781Y-115234886D02*
X45506781Y-115234886D01*
X45506781Y-114853933D01*
X45554400Y-114758695D01*
X45602019Y-114711076D01*
X45697257Y-114663457D01*
X45840114Y-114663457D01*
X45935352Y-114711076D01*
X45982971Y-114758695D01*
X46030590Y-114853933D01*
X46030590Y-115234886D01*
X45602019Y-114282505D02*
X45554400Y-114234886D01*
X45506781Y-114139648D01*
X45506781Y-113901552D01*
X45554400Y-113806314D01*
X45602019Y-113758695D01*
X45697257Y-113711076D01*
X45792495Y-113711076D01*
X45935352Y-113758695D01*
X46506781Y-114330124D01*
X46506781Y-113711076D01*
X45506781Y-113377743D02*
X45506781Y-112758695D01*
X45887733Y-113092029D01*
X45887733Y-112949171D01*
X45935352Y-112853933D01*
X45982971Y-112806314D01*
X46078210Y-112758695D01*
X46316305Y-112758695D01*
X46411543Y-112806314D01*
X46459162Y-112853933D01*
X46506781Y-112949171D01*
X46506781Y-113234886D01*
X46459162Y-113330124D01*
X46411543Y-113377743D01*
X46506781Y-119743457D02*
X46030590Y-120076791D01*
X46506781Y-120314886D02*
X45506781Y-120314886D01*
X45506781Y-119933933D01*
X45554400Y-119838695D01*
X45602019Y-119791076D01*
X45697257Y-119743457D01*
X45840114Y-119743457D01*
X45935352Y-119791076D01*
X45982971Y-119838695D01*
X46030590Y-119933933D01*
X46030590Y-120314886D01*
X45602019Y-119362505D02*
X45554400Y-119314886D01*
X45506781Y-119219648D01*
X45506781Y-118981552D01*
X45554400Y-118886314D01*
X45602019Y-118838695D01*
X45697257Y-118791076D01*
X45792495Y-118791076D01*
X45935352Y-118838695D01*
X46506781Y-119410124D01*
X46506781Y-118791076D01*
X45840114Y-117933933D02*
X46506781Y-117933933D01*
X45459162Y-118172029D02*
X46173448Y-118410124D01*
X46173448Y-117791076D01*
X19837495Y-90952981D02*
X19837495Y-91762505D01*
X19885114Y-91857743D01*
X19932733Y-91905362D01*
X20027971Y-91952981D01*
X20218448Y-91952981D01*
X20313686Y-91905362D01*
X20361305Y-91857743D01*
X20408924Y-91762505D01*
X20408924Y-90952981D01*
X21408924Y-91952981D02*
X20837495Y-91952981D01*
X21123209Y-91952981D02*
X21123209Y-90952981D01*
X21027971Y-91095838D01*
X20932733Y-91191076D01*
X20837495Y-91238695D01*
X19837495Y-78887981D02*
X19837495Y-79697505D01*
X19885114Y-79792743D01*
X19932733Y-79840362D01*
X20027971Y-79887981D01*
X20218448Y-79887981D01*
X20313686Y-79840362D01*
X20361305Y-79792743D01*
X20408924Y-79697505D01*
X20408924Y-78887981D01*
X20837495Y-78983219D02*
X20885114Y-78935600D01*
X20980352Y-78887981D01*
X21218448Y-78887981D01*
X21313686Y-78935600D01*
X21361305Y-78983219D01*
X21408924Y-79078457D01*
X21408924Y-79173695D01*
X21361305Y-79316552D01*
X20789876Y-79887981D01*
X21408924Y-79887981D01*
X19837495Y-66822981D02*
X19837495Y-67632505D01*
X19885114Y-67727743D01*
X19932733Y-67775362D01*
X20027971Y-67822981D01*
X20218448Y-67822981D01*
X20313686Y-67775362D01*
X20361305Y-67727743D01*
X20408924Y-67632505D01*
X20408924Y-66822981D01*
X20789876Y-66822981D02*
X21408924Y-66822981D01*
X21075590Y-67203933D01*
X21218448Y-67203933D01*
X21313686Y-67251552D01*
X21361305Y-67299171D01*
X21408924Y-67394410D01*
X21408924Y-67632505D01*
X21361305Y-67727743D01*
X21313686Y-67775362D01*
X21218448Y-67822981D01*
X20932733Y-67822981D01*
X20837495Y-67775362D01*
X20789876Y-67727743D01*
X32537495Y-90962981D02*
X32537495Y-91772505D01*
X32585114Y-91867743D01*
X32632733Y-91915362D01*
X32727971Y-91962981D01*
X32918448Y-91962981D01*
X33013686Y-91915362D01*
X33061305Y-91867743D01*
X33108924Y-91772505D01*
X33108924Y-90962981D01*
X34013686Y-91296314D02*
X34013686Y-91962981D01*
X33775590Y-90915362D02*
X33537495Y-91629648D01*
X34156543Y-91629648D01*
X32537495Y-78897981D02*
X32537495Y-79707505D01*
X32585114Y-79802743D01*
X32632733Y-79850362D01*
X32727971Y-79897981D01*
X32918448Y-79897981D01*
X33013686Y-79850362D01*
X33061305Y-79802743D01*
X33108924Y-79707505D01*
X33108924Y-78897981D01*
X34061305Y-78897981D02*
X33585114Y-78897981D01*
X33537495Y-79374171D01*
X33585114Y-79326552D01*
X33680352Y-79278933D01*
X33918448Y-79278933D01*
X34013686Y-79326552D01*
X34061305Y-79374171D01*
X34108924Y-79469410D01*
X34108924Y-79707505D01*
X34061305Y-79802743D01*
X34013686Y-79850362D01*
X33918448Y-79897981D01*
X33680352Y-79897981D01*
X33585114Y-79850362D01*
X33537495Y-79802743D01*
X45237495Y-78887981D02*
X45237495Y-79697505D01*
X45285114Y-79792743D01*
X45332733Y-79840362D01*
X45427971Y-79887981D01*
X45618448Y-79887981D01*
X45713686Y-79840362D01*
X45761305Y-79792743D01*
X45808924Y-79697505D01*
X45808924Y-78887981D01*
X46189876Y-78887981D02*
X46856543Y-78887981D01*
X46427971Y-79887981D01*
X32537495Y-66832981D02*
X32537495Y-67642505D01*
X32585114Y-67737743D01*
X32632733Y-67785362D01*
X32727971Y-67832981D01*
X32918448Y-67832981D01*
X33013686Y-67785362D01*
X33061305Y-67737743D01*
X33108924Y-67642505D01*
X33108924Y-66832981D01*
X33632733Y-67832981D02*
X33823209Y-67832981D01*
X33918448Y-67785362D01*
X33966067Y-67737743D01*
X34061305Y-67594886D01*
X34108924Y-67404410D01*
X34108924Y-67023457D01*
X34061305Y-66928219D01*
X34013686Y-66880600D01*
X33918448Y-66832981D01*
X33727971Y-66832981D01*
X33632733Y-66880600D01*
X33585114Y-66928219D01*
X33537495Y-67023457D01*
X33537495Y-67261552D01*
X33585114Y-67356790D01*
X33632733Y-67404410D01*
X33727971Y-67452029D01*
X33918448Y-67452029D01*
X34013686Y-67404410D01*
X34061305Y-67356790D01*
X34108924Y-67261552D01*
X31680305Y-19111981D02*
X31680305Y-19921505D01*
X31727924Y-20016743D01*
X31775543Y-20064362D01*
X31870781Y-20111981D01*
X32061258Y-20111981D01*
X32156496Y-20064362D01*
X32204115Y-20016743D01*
X32251734Y-19921505D01*
X32251734Y-19111981D01*
X33251734Y-20111981D02*
X32680305Y-20111981D01*
X32966019Y-20111981D02*
X32966019Y-19111981D01*
X32870781Y-19254838D01*
X32775543Y-19350076D01*
X32680305Y-19397695D01*
X33870781Y-19111981D02*
X33966020Y-19111981D01*
X34061258Y-19159600D01*
X34108877Y-19207219D01*
X34156496Y-19302457D01*
X34204115Y-19492933D01*
X34204115Y-19731029D01*
X34156496Y-19921505D01*
X34108877Y-20016743D01*
X34061258Y-20064362D01*
X33966020Y-20111981D01*
X33870781Y-20111981D01*
X33775543Y-20064362D01*
X33727924Y-20016743D01*
X33680305Y-19921505D01*
X33632686Y-19731029D01*
X33632686Y-19492933D01*
X33680305Y-19302457D01*
X33727924Y-19207219D01*
X33775543Y-19159600D01*
X33870781Y-19111981D01*
X30180305Y-22651981D02*
X30180305Y-21651981D01*
X30561258Y-21651981D01*
X30656496Y-21699600D01*
X30704115Y-21747219D01*
X30751734Y-21842457D01*
X30751734Y-21985314D01*
X30704115Y-22080552D01*
X30656496Y-22128171D01*
X30561258Y-22175790D01*
X30180305Y-22175790D01*
X31180305Y-22651981D02*
X31180305Y-21651981D01*
X31180305Y-22128171D02*
X31751734Y-22128171D01*
X31751734Y-22651981D02*
X31751734Y-21651981D01*
X32418400Y-21651981D02*
X32608877Y-21651981D01*
X32704115Y-21699600D01*
X32799353Y-21794838D01*
X32846972Y-21985314D01*
X32846972Y-22318648D01*
X32799353Y-22509124D01*
X32704115Y-22604362D01*
X32608877Y-22651981D01*
X32418400Y-22651981D01*
X32323162Y-22604362D01*
X32227924Y-22509124D01*
X32180305Y-22318648D01*
X32180305Y-21985314D01*
X32227924Y-21794838D01*
X32323162Y-21699600D01*
X32418400Y-21651981D01*
X33132686Y-21651981D02*
X33704115Y-21651981D01*
X33418400Y-22651981D02*
X33418400Y-21651981D01*
X34227924Y-21651981D02*
X34418401Y-21651981D01*
X34513639Y-21699600D01*
X34608877Y-21794838D01*
X34656496Y-21985314D01*
X34656496Y-22318648D01*
X34608877Y-22509124D01*
X34513639Y-22604362D01*
X34418401Y-22651981D01*
X34227924Y-22651981D01*
X34132686Y-22604362D01*
X34037448Y-22509124D01*
X33989829Y-22318648D01*
X33989829Y-21985314D01*
X34037448Y-21794838D01*
X34132686Y-21699600D01*
X34227924Y-21651981D01*
X35085067Y-22651981D02*
X35085067Y-21651981D01*
X35656496Y-22651981D01*
X35656496Y-21651981D01*
X44761305Y-66822981D02*
X44761305Y-67632505D01*
X44808924Y-67727743D01*
X44856543Y-67775362D01*
X44951781Y-67822981D01*
X45142258Y-67822981D01*
X45237496Y-67775362D01*
X45285115Y-67727743D01*
X45332734Y-67632505D01*
X45332734Y-66822981D01*
X46332734Y-67822981D02*
X45761305Y-67822981D01*
X46047019Y-67822981D02*
X46047019Y-66822981D01*
X45951781Y-66965838D01*
X45856543Y-67061076D01*
X45761305Y-67108695D01*
X47285115Y-67822981D02*
X46713686Y-67822981D01*
X46999400Y-67822981D02*
X46999400Y-66822981D01*
X46904162Y-66965838D01*
X46808924Y-67061076D01*
X46713686Y-67108695D01*
M02*
