G04 #@! TF.FileFunction,Soldermask,Top*
%FSLAX46Y46*%
G04 Gerber Fmt 4.6, Leading zero omitted, Abs format (unit mm)*
G04 Created by KiCad (PCBNEW 4.0.7) date Mon Mar 26 00:48:08 2018*
%MOMM*%
%LPD*%
G01*
G04 APERTURE LIST*
%ADD10C,0.100000*%
%ADD11R,1.601600X0.701600*%
%ADD12R,1.801600X1.801600*%
%ADD13O,1.801600X1.801600*%
%ADD14R,1.801600X1.001600*%
%ADD15C,2.001600*%
G04 APERTURE END LIST*
D10*
D11*
X30599400Y-56235600D03*
X30599400Y-57505600D03*
X30599400Y-58775600D03*
X30599400Y-60045600D03*
X30599400Y-61315600D03*
X30599400Y-62585600D03*
X30599400Y-63855600D03*
X30599400Y-65125600D03*
X35999400Y-65125600D03*
X35999400Y-63855600D03*
X35999400Y-62585600D03*
X35999400Y-61315600D03*
X35999400Y-60045600D03*
X35999400Y-58775600D03*
X35999400Y-57505600D03*
X35999400Y-56235600D03*
X43299400Y-93065600D03*
X43299400Y-94335600D03*
X43299400Y-95605600D03*
X43299400Y-96875600D03*
X43299400Y-98145600D03*
X43299400Y-99415600D03*
X43299400Y-100685600D03*
X48699400Y-100685600D03*
X48699400Y-99415600D03*
X48699400Y-98145600D03*
X48699400Y-96875600D03*
X48699400Y-95605600D03*
X48699400Y-94335600D03*
X48699400Y-93065600D03*
D12*
X47269400Y-61442600D03*
D13*
X47269400Y-63982600D03*
D12*
X17424400Y-108940600D03*
D13*
X17424400Y-106400600D03*
X19964400Y-108940600D03*
X19964400Y-106400600D03*
X22504400Y-108940600D03*
X22504400Y-106400600D03*
X25044400Y-108940600D03*
X25044400Y-106400600D03*
X27584400Y-108940600D03*
X27584400Y-106400600D03*
X30124400Y-108940600D03*
X30124400Y-106400600D03*
X32664400Y-108940600D03*
X32664400Y-106400600D03*
X35204400Y-108940600D03*
X35204400Y-106400600D03*
X37744400Y-108940600D03*
X37744400Y-106400600D03*
X40284400Y-108940600D03*
X40284400Y-106400600D03*
X42824400Y-108940600D03*
X42824400Y-106400600D03*
X45364400Y-108940600D03*
X45364400Y-106400600D03*
X47904400Y-108940600D03*
X47904400Y-106400600D03*
D12*
X18186400Y-57378600D03*
D13*
X20726400Y-57378600D03*
X18186400Y-59918600D03*
X20726400Y-59918600D03*
X18186400Y-62458600D03*
X20726400Y-62458600D03*
X18186400Y-64998600D03*
X20726400Y-64998600D03*
D12*
X20218400Y-20929600D03*
D13*
X20218400Y-23469600D03*
X20218400Y-26009600D03*
X20218400Y-28549600D03*
X20218400Y-31089600D03*
X20218400Y-33629600D03*
X20218400Y-36169600D03*
X20218400Y-38709600D03*
X20218400Y-41249600D03*
X20218400Y-43789600D03*
X20218400Y-46329600D03*
X20218400Y-48869600D03*
D12*
X45618400Y-48869600D03*
D13*
X45618400Y-46329600D03*
X45618400Y-43789600D03*
X45618400Y-41249600D03*
X45618400Y-38709600D03*
X45618400Y-36169600D03*
X45618400Y-33629600D03*
X45618400Y-31089600D03*
X45618400Y-28549600D03*
X45618400Y-26009600D03*
X45618400Y-23469600D03*
X45618400Y-20929600D03*
D14*
X19964400Y-115470600D03*
X19964400Y-112570600D03*
X19964400Y-120550600D03*
X19964400Y-117650600D03*
X22504400Y-115470600D03*
X22504400Y-112570600D03*
X22504400Y-120550600D03*
X22504400Y-117650600D03*
X25044400Y-115470600D03*
X25044400Y-112570600D03*
X25044400Y-120550600D03*
X25044400Y-117650600D03*
X27584400Y-115470600D03*
X27584400Y-112570600D03*
X27584400Y-120550600D03*
X27584400Y-117650600D03*
X30124400Y-115470600D03*
X30124400Y-112570600D03*
X30124400Y-120550600D03*
X30124400Y-117650600D03*
X32664400Y-115470600D03*
X32664400Y-112570600D03*
X32664400Y-120550600D03*
X32664400Y-117650600D03*
X35204400Y-115470600D03*
X35204400Y-112570600D03*
X35204400Y-120550600D03*
X35204400Y-117650600D03*
X37744400Y-115470600D03*
X37744400Y-112570600D03*
X37744400Y-120550600D03*
X37744400Y-117650600D03*
X40284400Y-115470600D03*
X40284400Y-112570600D03*
X40284400Y-120550600D03*
X40284400Y-117650600D03*
X42824400Y-115470600D03*
X42824400Y-112570600D03*
X42824400Y-120550600D03*
X42824400Y-117650600D03*
X45364400Y-115470600D03*
X45364400Y-112570600D03*
X45364400Y-120550600D03*
X45364400Y-117650600D03*
X47904400Y-115470600D03*
X47904400Y-112570600D03*
X47904400Y-120550600D03*
X47904400Y-117650600D03*
D11*
X17899400Y-93065600D03*
X17899400Y-94335600D03*
X17899400Y-95605600D03*
X17899400Y-96875600D03*
X17899400Y-98145600D03*
X17899400Y-99415600D03*
X17899400Y-100685600D03*
X23299400Y-100685600D03*
X23299400Y-99415600D03*
X23299400Y-98145600D03*
X23299400Y-96875600D03*
X23299400Y-95605600D03*
X23299400Y-94335600D03*
X23299400Y-93065600D03*
X17899400Y-81000600D03*
X17899400Y-82270600D03*
X17899400Y-83540600D03*
X17899400Y-84810600D03*
X17899400Y-86080600D03*
X17899400Y-87350600D03*
X17899400Y-88620600D03*
X23299400Y-88620600D03*
X23299400Y-87350600D03*
X23299400Y-86080600D03*
X23299400Y-84810600D03*
X23299400Y-83540600D03*
X23299400Y-82270600D03*
X23299400Y-81000600D03*
X17899400Y-68935600D03*
X17899400Y-70205600D03*
X17899400Y-71475600D03*
X17899400Y-72745600D03*
X17899400Y-74015600D03*
X17899400Y-75285600D03*
X17899400Y-76555600D03*
X23299400Y-76555600D03*
X23299400Y-75285600D03*
X23299400Y-74015600D03*
X23299400Y-72745600D03*
X23299400Y-71475600D03*
X23299400Y-70205600D03*
X23299400Y-68935600D03*
X30599400Y-93065600D03*
X30599400Y-94335600D03*
X30599400Y-95605600D03*
X30599400Y-96875600D03*
X30599400Y-98145600D03*
X30599400Y-99415600D03*
X30599400Y-100685600D03*
X30599400Y-101955600D03*
X35999400Y-101955600D03*
X35999400Y-100685600D03*
X35999400Y-99415600D03*
X35999400Y-98145600D03*
X35999400Y-96875600D03*
X35999400Y-95605600D03*
X35999400Y-94335600D03*
X35999400Y-93065600D03*
X30599400Y-81000600D03*
X30599400Y-82270600D03*
X30599400Y-83540600D03*
X30599400Y-84810600D03*
X30599400Y-86080600D03*
X30599400Y-87350600D03*
X30599400Y-88620600D03*
X30599400Y-89890600D03*
X35999400Y-89890600D03*
X35999400Y-88620600D03*
X35999400Y-87350600D03*
X35999400Y-86080600D03*
X35999400Y-84810600D03*
X35999400Y-83540600D03*
X35999400Y-82270600D03*
X35999400Y-81000600D03*
X43299400Y-81000600D03*
X43299400Y-82270600D03*
X43299400Y-83540600D03*
X43299400Y-84810600D03*
X43299400Y-86080600D03*
X43299400Y-87350600D03*
X43299400Y-88620600D03*
X48699400Y-88620600D03*
X48699400Y-87350600D03*
X48699400Y-86080600D03*
X48699400Y-84810600D03*
X48699400Y-83540600D03*
X48699400Y-82270600D03*
X48699400Y-81000600D03*
X30599400Y-68935600D03*
X30599400Y-70205600D03*
X30599400Y-71475600D03*
X30599400Y-72745600D03*
X30599400Y-74015600D03*
X30599400Y-75285600D03*
X30599400Y-76555600D03*
X30599400Y-77825600D03*
X35999400Y-77825600D03*
X35999400Y-76555600D03*
X35999400Y-75285600D03*
X35999400Y-74015600D03*
X35999400Y-72745600D03*
X35999400Y-71475600D03*
X35999400Y-70205600D03*
X35999400Y-68935600D03*
D15*
X24028400Y-20929600D03*
X24028400Y-23469600D03*
X24028400Y-26009600D03*
X24028400Y-28549600D03*
X24028400Y-31089600D03*
X24028400Y-33629600D03*
X24028400Y-36169600D03*
X24028400Y-38709600D03*
X24028400Y-41249600D03*
X24028400Y-43789600D03*
X24028400Y-46329600D03*
X24028400Y-48869600D03*
X41808400Y-20929600D03*
X41808400Y-23469600D03*
X41808400Y-26009600D03*
X41808400Y-28549600D03*
X41808400Y-31089600D03*
X41808400Y-33629600D03*
X41808400Y-36169600D03*
X41808400Y-38709600D03*
X41808400Y-41249600D03*
X41808400Y-43789600D03*
X41808400Y-46329600D03*
X41808400Y-48869600D03*
D11*
X43299400Y-68935600D03*
X43299400Y-70205600D03*
X43299400Y-71475600D03*
X43299400Y-72745600D03*
X43299400Y-74015600D03*
X43299400Y-75285600D03*
X43299400Y-76555600D03*
X48699400Y-76555600D03*
X48699400Y-75285600D03*
X48699400Y-74015600D03*
X48699400Y-72745600D03*
X48699400Y-71475600D03*
X48699400Y-70205600D03*
X48699400Y-68935600D03*
M02*
