G04 #@! TF.FileFunction,Copper,L2,Bot,Signal*
%FSLAX46Y46*%
G04 Gerber Fmt 4.6, Leading zero omitted, Abs format (unit mm)*
G04 Created by KiCad (PCBNEW 4.0.7) date Mon Mar 26 00:48:08 2018*
%MOMM*%
%LPD*%
G01*
G04 APERTURE LIST*
%ADD10C,0.100000*%
%ADD11R,1.700000X1.700000*%
%ADD12O,1.700000X1.700000*%
%ADD13C,1.900000*%
%ADD14C,0.685800*%
%ADD15C,0.304800*%
%ADD16C,0.152400*%
G04 APERTURE END LIST*
D10*
D11*
X47269400Y-61442600D03*
D12*
X47269400Y-63982600D03*
D11*
X17424400Y-108940600D03*
D12*
X17424400Y-106400600D03*
X19964400Y-108940600D03*
X19964400Y-106400600D03*
X22504400Y-108940600D03*
X22504400Y-106400600D03*
X25044400Y-108940600D03*
X25044400Y-106400600D03*
X27584400Y-108940600D03*
X27584400Y-106400600D03*
X30124400Y-108940600D03*
X30124400Y-106400600D03*
X32664400Y-108940600D03*
X32664400Y-106400600D03*
X35204400Y-108940600D03*
X35204400Y-106400600D03*
X37744400Y-108940600D03*
X37744400Y-106400600D03*
X40284400Y-108940600D03*
X40284400Y-106400600D03*
X42824400Y-108940600D03*
X42824400Y-106400600D03*
X45364400Y-108940600D03*
X45364400Y-106400600D03*
X47904400Y-108940600D03*
X47904400Y-106400600D03*
D11*
X18186400Y-57378600D03*
D12*
X20726400Y-57378600D03*
X18186400Y-59918600D03*
X20726400Y-59918600D03*
X18186400Y-62458600D03*
X20726400Y-62458600D03*
X18186400Y-64998600D03*
X20726400Y-64998600D03*
D11*
X20218400Y-20929600D03*
D12*
X20218400Y-23469600D03*
X20218400Y-26009600D03*
X20218400Y-28549600D03*
X20218400Y-31089600D03*
X20218400Y-33629600D03*
X20218400Y-36169600D03*
X20218400Y-38709600D03*
X20218400Y-41249600D03*
X20218400Y-43789600D03*
X20218400Y-46329600D03*
X20218400Y-48869600D03*
D11*
X45618400Y-48869600D03*
D12*
X45618400Y-46329600D03*
X45618400Y-43789600D03*
X45618400Y-41249600D03*
X45618400Y-38709600D03*
X45618400Y-36169600D03*
X45618400Y-33629600D03*
X45618400Y-31089600D03*
X45618400Y-28549600D03*
X45618400Y-26009600D03*
X45618400Y-23469600D03*
X45618400Y-20929600D03*
D13*
X24028400Y-20929600D03*
X24028400Y-23469600D03*
X24028400Y-26009600D03*
X24028400Y-28549600D03*
X24028400Y-31089600D03*
X24028400Y-33629600D03*
X24028400Y-36169600D03*
X24028400Y-38709600D03*
X24028400Y-41249600D03*
X24028400Y-43789600D03*
X24028400Y-46329600D03*
X24028400Y-48869600D03*
X41808400Y-20929600D03*
X41808400Y-23469600D03*
X41808400Y-26009600D03*
X41808400Y-28549600D03*
X41808400Y-31089600D03*
X41808400Y-33629600D03*
X41808400Y-36169600D03*
X41808400Y-38709600D03*
X41808400Y-41249600D03*
X41808400Y-43789600D03*
X41808400Y-46329600D03*
X41808400Y-48869600D03*
D14*
X32664400Y-114020600D03*
X34442400Y-88620600D03*
X34442400Y-76555600D03*
X34569400Y-56235600D03*
X34442400Y-66014600D03*
X34442400Y-81000600D03*
X34442400Y-93065600D03*
X19964400Y-119227600D03*
X47904400Y-119227600D03*
X34442400Y-101701600D03*
X22504400Y-114020600D03*
X25044400Y-114020600D03*
X27584400Y-114020600D03*
X30124400Y-114020600D03*
X35204400Y-114020600D03*
X37744400Y-114020600D03*
X40284400Y-114020600D03*
X42824400Y-114020600D03*
X45364400Y-114020600D03*
X47904400Y-114020600D03*
X19964400Y-114020600D03*
X24079200Y-57607200D03*
X25482802Y-65125600D03*
X18186400Y-25501600D03*
X23012400Y-91033600D03*
X19964400Y-91033600D03*
X24544702Y-100685600D03*
X19202400Y-100685600D03*
X24544702Y-68935600D03*
X19202400Y-68935600D03*
X16662400Y-68935600D03*
X24544702Y-70205600D03*
X19202400Y-70205600D03*
X24544702Y-72745600D03*
X19202400Y-72745600D03*
X16662400Y-72745600D03*
X19202400Y-74218800D03*
X24544702Y-74015600D03*
X24544702Y-81000600D03*
X19202400Y-81000600D03*
X16662400Y-81000600D03*
X24544702Y-82270600D03*
X19202400Y-82270600D03*
X24544702Y-84810600D03*
X19202400Y-84810600D03*
X16662400Y-84810600D03*
X19202400Y-86233000D03*
X24544702Y-86080600D03*
X24544702Y-93065600D03*
X19202400Y-93065600D03*
X16662400Y-93065600D03*
X24544702Y-94335600D03*
X19202400Y-94335600D03*
X24544702Y-96875600D03*
X19202400Y-96875600D03*
X16662400Y-96875600D03*
X19202400Y-98374200D03*
X24544702Y-98145600D03*
X42054098Y-99415600D03*
X47396400Y-99415600D03*
X49936400Y-99415600D03*
X42054098Y-98145600D03*
X47396400Y-98145600D03*
X42054098Y-95605600D03*
X47396400Y-95605600D03*
X49936400Y-95605600D03*
X42054098Y-94335600D03*
X47396400Y-94335600D03*
X42054098Y-87350600D03*
X47396400Y-87350600D03*
X49936400Y-87350600D03*
X42054098Y-86080600D03*
X47396400Y-86080600D03*
X42054098Y-83540600D03*
X47396400Y-83540600D03*
X49936400Y-83540600D03*
X42054122Y-81965719D03*
X47396400Y-82270600D03*
X42054097Y-75861346D03*
X47396400Y-75285600D03*
X49936400Y-75285600D03*
X42054098Y-74015600D03*
X47396400Y-74015600D03*
X40817800Y-71475600D03*
X47396400Y-71475600D03*
X49936400Y-71475600D03*
X42054098Y-70205600D03*
X47396400Y-70205600D03*
X17183100Y-41732200D03*
X38506400Y-101447600D03*
X38506400Y-77444600D03*
X38506400Y-89890600D03*
X37871400Y-76555600D03*
X37871400Y-88620600D03*
X37871400Y-100685600D03*
X37236400Y-75285600D03*
X37236400Y-87350600D03*
X37236400Y-99415600D03*
X37236400Y-99415600D03*
X45745400Y-70904100D03*
X21996400Y-97574100D03*
X19202400Y-95605600D03*
X21996400Y-99415600D03*
X19202400Y-99415600D03*
X24536400Y-83540600D03*
X24544702Y-95605600D03*
X21996400Y-85509100D03*
X19202400Y-83540600D03*
X21996400Y-87350600D03*
X19202400Y-87350600D03*
X26187400Y-86207600D03*
X44780200Y-74472800D03*
X41402000Y-76631800D03*
X39522400Y-77622400D03*
X26187400Y-79603600D03*
X35204400Y-79603600D03*
X36647100Y-79603600D03*
X39522400Y-79603600D03*
X22320799Y-79408262D03*
X24544702Y-71475600D03*
X21996400Y-73444100D03*
X19202400Y-71475600D03*
X21996400Y-75285600D03*
X19202400Y-75285600D03*
X42054098Y-96875600D03*
X25298400Y-70967600D03*
X33426400Y-88620600D03*
X33426400Y-76555600D03*
X33426400Y-81000600D03*
X32156400Y-60045600D03*
X33426400Y-68935600D03*
X33426400Y-92430600D03*
X32588200Y-77343000D03*
X32588197Y-81000600D03*
X32156400Y-58775600D03*
X32588197Y-68935600D03*
X44856400Y-76047600D03*
X41300400Y-82842100D03*
X42054098Y-72745600D03*
X41300400Y-84175600D03*
X31826200Y-69519800D03*
X28981400Y-57505600D03*
D15*
X30124400Y-114020600D02*
X32664400Y-114020600D01*
X32664400Y-114020600D02*
X33934400Y-114020600D01*
X34442400Y-90385900D02*
X34442400Y-88620600D01*
X34442400Y-81000600D02*
X34442400Y-76555600D01*
X34442400Y-66014600D02*
X34442400Y-56362600D01*
X34442400Y-56362600D02*
X34569400Y-56235600D01*
X34442400Y-93065600D02*
X34442400Y-90385900D01*
X19964400Y-119227600D02*
X19964400Y-114020600D01*
X47904400Y-119227600D02*
X47904400Y-114020600D01*
X33934400Y-114020600D02*
X35204400Y-114020600D01*
X34442400Y-101701600D02*
X33934400Y-102209600D01*
X33934400Y-102209600D02*
X33934400Y-114020600D01*
X19964400Y-114020600D02*
X22504400Y-114020600D01*
X22504400Y-114020600D02*
X25044400Y-114020600D01*
X25044400Y-114020600D02*
X27584400Y-114020600D01*
X27584400Y-114020600D02*
X30124400Y-114020600D01*
X35204400Y-114020600D02*
X37744400Y-114020600D01*
X37744400Y-114020600D02*
X40284400Y-114020600D01*
X40284400Y-114020600D02*
X42824400Y-114020600D01*
X42824400Y-114020600D02*
X45364400Y-114020600D01*
X45364400Y-114020600D02*
X47904400Y-114020600D01*
X24079200Y-57607200D02*
X25482802Y-59010802D01*
X25482802Y-59010802D02*
X25482802Y-59947204D01*
X25482802Y-59947204D02*
X25482802Y-65125600D01*
X18186400Y-57378600D02*
X18186400Y-25501600D01*
X19964400Y-91033600D02*
X23012400Y-91033600D01*
X19202400Y-100685600D02*
X24544702Y-100685600D01*
D16*
X19202400Y-68935600D02*
X24544702Y-68935600D01*
X19964400Y-108940600D02*
X18503001Y-107479201D01*
X18503001Y-107479201D02*
X18503001Y-105951531D01*
X18503001Y-105951531D02*
X14871659Y-102320189D01*
X14871659Y-102320189D02*
X14871659Y-70726341D01*
X14871659Y-70726341D02*
X16662400Y-68935600D01*
X19202400Y-70205600D02*
X24544702Y-70205600D01*
X19202400Y-72745600D02*
X24544702Y-72745600D01*
X22504400Y-108940600D02*
X21425799Y-107861999D01*
X21425799Y-107861999D02*
X21425799Y-106265669D01*
X21425799Y-106265669D02*
X18334968Y-103174838D01*
X18334968Y-103174838D02*
X16157373Y-103174837D01*
X16157373Y-103174837D02*
X15176469Y-102193933D01*
X15176469Y-102193933D02*
X15176469Y-74231531D01*
X15176469Y-74231531D02*
X16662400Y-72745600D01*
X19202400Y-74218800D02*
X24341502Y-74218800D01*
X24341502Y-74218800D02*
X24544702Y-74015600D01*
X19202400Y-81000600D02*
X24544702Y-81000600D01*
X25044400Y-108940600D02*
X23965799Y-107861999D01*
X23965799Y-107861999D02*
X23965799Y-106265669D01*
X23965799Y-106265669D02*
X20570159Y-102870029D01*
X20570159Y-102870029D02*
X16283630Y-102870028D01*
X16283630Y-102870028D02*
X15481279Y-102067677D01*
X15481279Y-102067677D02*
X15481279Y-82181721D01*
X15481279Y-82181721D02*
X16662400Y-81000600D01*
X19202400Y-82270600D02*
X24544702Y-82270600D01*
X19202400Y-84810600D02*
X24544702Y-84810600D01*
X27584400Y-108940600D02*
X26505799Y-107861999D01*
X26505799Y-107861999D02*
X26505799Y-106265669D01*
X26505799Y-106265669D02*
X22805350Y-102565220D01*
X22805350Y-102565220D02*
X16409887Y-102565219D01*
X16409887Y-102565219D02*
X15786089Y-101941421D01*
X15786089Y-101941421D02*
X15786089Y-85686911D01*
X15786089Y-85686911D02*
X16662400Y-84810600D01*
X19202400Y-86233000D02*
X24392302Y-86233000D01*
X24392302Y-86233000D02*
X24544702Y-86080600D01*
X19202400Y-93065600D02*
X24544702Y-93065600D01*
X30124400Y-108940600D02*
X29045799Y-107861999D01*
X29045799Y-106265669D02*
X25040540Y-102260410D01*
X29045799Y-107861999D02*
X29045799Y-106265669D01*
X25040540Y-102260410D02*
X16536144Y-102260410D01*
X16536144Y-102260410D02*
X16090899Y-101815165D01*
X16090899Y-101815165D02*
X16090899Y-93637101D01*
X16090899Y-93637101D02*
X16662400Y-93065600D01*
X19202400Y-94335600D02*
X24544702Y-94335600D01*
X19202400Y-96875600D02*
X24544702Y-96875600D01*
X16662400Y-101955600D02*
X16662400Y-96875600D01*
X27275730Y-101955600D02*
X16662400Y-101955600D01*
X32664400Y-108940600D02*
X31585799Y-107861999D01*
X31585799Y-107861999D02*
X31585799Y-106265669D01*
X31585799Y-106265669D02*
X27275730Y-101955600D01*
X19202400Y-98374200D02*
X24316102Y-98374200D01*
X24316102Y-98374200D02*
X24544702Y-98145600D01*
X47396400Y-99415600D02*
X42054098Y-99415600D01*
X49936400Y-101955600D02*
X49936400Y-99415600D01*
X40593070Y-101955600D02*
X49936400Y-101955600D01*
X35204400Y-108940600D02*
X36665799Y-107479201D01*
X36665799Y-107479201D02*
X36665799Y-105882871D01*
X36665799Y-105882871D02*
X40593070Y-101955600D01*
X47396400Y-98145600D02*
X42054098Y-98145600D01*
X47396400Y-95605600D02*
X42054098Y-95605600D01*
X37744400Y-108940600D02*
X39205799Y-107479201D01*
X39205799Y-107479201D02*
X39205799Y-105882871D01*
X39205799Y-105882871D02*
X42828260Y-102260410D01*
X50507901Y-96177101D02*
X49936400Y-95605600D01*
X42828260Y-102260410D02*
X50062656Y-102260410D01*
X50062656Y-102260410D02*
X50507901Y-101815165D01*
X50507901Y-101815165D02*
X50507901Y-96177101D01*
X47396400Y-94335600D02*
X42054098Y-94335600D01*
X47396400Y-87350600D02*
X42054098Y-87350600D01*
X40284400Y-108940600D02*
X41363001Y-107861999D01*
X41363001Y-107861999D02*
X41363001Y-106265669D01*
X41363001Y-106265669D02*
X45063450Y-102565220D01*
X45063450Y-102565220D02*
X50188913Y-102565219D01*
X50188913Y-102565219D02*
X50812711Y-101941421D01*
X50812711Y-101941421D02*
X50812711Y-88226911D01*
X50812711Y-88226911D02*
X49936400Y-87350600D01*
X47396400Y-86080600D02*
X42054098Y-86080600D01*
X47396400Y-83540600D02*
X42054098Y-83540600D01*
X42824400Y-108940600D02*
X44285799Y-107479201D01*
X44285799Y-107479201D02*
X44285799Y-105882871D01*
X44285799Y-105882871D02*
X47298642Y-102870028D01*
X47298642Y-102870028D02*
X50315170Y-102870028D01*
X50315170Y-102870028D02*
X51117521Y-102067677D01*
X51117521Y-102067677D02*
X51117521Y-84721721D01*
X51117521Y-84721721D02*
X49936400Y-83540600D01*
X43205400Y-82270600D02*
X42900519Y-81965719D01*
X42900519Y-81965719D02*
X42054122Y-81965719D01*
X47396400Y-82270600D02*
X43662600Y-82270600D01*
X43662600Y-82270600D02*
X43205400Y-82270600D01*
X47396400Y-75285600D02*
X42951400Y-75285600D01*
X42054097Y-75861346D02*
X42396996Y-75518447D01*
X42396996Y-75518447D02*
X42718553Y-75518447D01*
X42718553Y-75518447D02*
X42951400Y-75285600D01*
X45364400Y-108940600D02*
X46443001Y-107861999D01*
X46443001Y-107861999D02*
X46443001Y-106265669D01*
X46443001Y-106265669D02*
X49533832Y-103174838D01*
X49533832Y-103174838D02*
X50441427Y-103174837D01*
X50441427Y-103174837D02*
X51422331Y-102193933D01*
X51422331Y-102193933D02*
X51422331Y-76771531D01*
X51422331Y-76771531D02*
X49936400Y-75285600D01*
X45872400Y-74015600D02*
X45643800Y-74015600D01*
X45643800Y-74015600D02*
X45339000Y-73710800D01*
X45339000Y-73710800D02*
X43129200Y-73710800D01*
X43129200Y-73710800D02*
X42824400Y-74015600D01*
X42824400Y-74015600D02*
X42054098Y-74015600D01*
X45872400Y-74015600D02*
X45770800Y-74015600D01*
X47396400Y-74015600D02*
X45872400Y-74015600D01*
X47396400Y-71475600D02*
X47396400Y-71551800D01*
X47396400Y-71551800D02*
X47218600Y-71729600D01*
X47218600Y-71729600D02*
X44856400Y-71729600D01*
X44856400Y-71729600D02*
X44602400Y-71475600D01*
X44602400Y-71475600D02*
X42054098Y-71475600D01*
X42054098Y-71475600D02*
X40817800Y-71475600D01*
X47904400Y-108940600D02*
X51727140Y-105117860D01*
X51727140Y-105117860D02*
X51727140Y-73266340D01*
X51727140Y-73266340D02*
X49936400Y-71475600D01*
X47396400Y-70205600D02*
X42054098Y-70205600D01*
D15*
X20726400Y-57378600D02*
X19063599Y-55715799D01*
X19063599Y-55715799D02*
X19063599Y-19835759D01*
X19063599Y-19835759D02*
X19224559Y-19674799D01*
X19224559Y-19674799D02*
X40553599Y-19674799D01*
X40553599Y-19674799D02*
X41808400Y-20929600D01*
D16*
X16027400Y-42887900D02*
X17183100Y-41732200D01*
X17183100Y-41732200D02*
X17538700Y-41376600D01*
X18186400Y-62458600D02*
X16027400Y-60299600D01*
X16027400Y-60299600D02*
X16027400Y-42887900D01*
X20726400Y-62458600D02*
X22849799Y-60335201D01*
X25207001Y-37348201D02*
X24028400Y-36169600D01*
X22849799Y-60335201D02*
X22849799Y-45603201D01*
X22849799Y-45603201D02*
X23484799Y-44968201D01*
X23484799Y-44968201D02*
X24594129Y-44968201D01*
X24594129Y-44968201D02*
X25207001Y-44355329D01*
X25207001Y-44355329D02*
X25207001Y-37348201D01*
X20726400Y-59918600D02*
X21805001Y-58839999D01*
X21805001Y-58839999D02*
X21805001Y-46012999D01*
X21805001Y-46012999D02*
X24028400Y-43789600D01*
X38506400Y-89890600D02*
X38506400Y-101447600D01*
X38506400Y-77812900D02*
X38506400Y-77444600D01*
X38506400Y-77444600D02*
X38506400Y-67030600D01*
X38506400Y-67030600D02*
X40629799Y-64907201D01*
X40629799Y-64907201D02*
X40629799Y-44968201D01*
X40629799Y-44968201D02*
X41808400Y-43789600D01*
X38506400Y-89890600D02*
X38506400Y-77812900D01*
X37871400Y-76555600D02*
X37871400Y-64617600D01*
X40629799Y-44206201D02*
X40629799Y-42428201D01*
X37871400Y-64617600D02*
X40324989Y-62164011D01*
X40324989Y-62164011D02*
X40324989Y-44511011D01*
X40629799Y-42428201D02*
X41808400Y-41249600D01*
X40324989Y-44511011D02*
X40629799Y-44206201D01*
X37871400Y-76555600D02*
X37871400Y-88620600D01*
X37871400Y-100685600D02*
X37871400Y-88620600D01*
X37236400Y-75285600D02*
X37236400Y-65125600D01*
X37236400Y-65125600D02*
X37566590Y-64795410D01*
X37566590Y-64795410D02*
X37566591Y-64491343D01*
X37566591Y-64491343D02*
X40020179Y-62037755D01*
X40020179Y-62037755D02*
X40020179Y-40497821D01*
X40020179Y-40497821D02*
X41808400Y-38709600D01*
X37236400Y-87350600D02*
X37236400Y-75285600D01*
X37236400Y-99415600D02*
X37236400Y-87350600D01*
X45745400Y-70904100D02*
X41906776Y-70904100D01*
X41906776Y-70904100D02*
X41427400Y-70424724D01*
X49123601Y-33355279D02*
X46857922Y-31089600D01*
X41427400Y-70424724D02*
X41427400Y-55172082D01*
X41427400Y-55172082D02*
X49123601Y-47475881D01*
X46857922Y-31089600D02*
X45618400Y-31089600D01*
X49123601Y-47475881D02*
X49123601Y-33355279D01*
X19202400Y-95605600D02*
X18630899Y-96177101D01*
X18630899Y-96177101D02*
X18630899Y-97149921D01*
X18630899Y-97149921D02*
X19055078Y-97574100D01*
X19055078Y-97574100D02*
X21996400Y-97574100D01*
X19202400Y-99415600D02*
X21996400Y-99415600D01*
X24544702Y-95605600D02*
X25207001Y-94943301D01*
X25207001Y-94943301D02*
X25207001Y-84211201D01*
X25207001Y-84211201D02*
X24536400Y-83540600D01*
X19202400Y-83540600D02*
X18630899Y-84112101D01*
X18630899Y-84112101D02*
X18630899Y-85084921D01*
X18630899Y-85084921D02*
X19055078Y-85509100D01*
X19055078Y-85509100D02*
X21996400Y-85509100D01*
X19202400Y-87350600D02*
X21996400Y-87350600D01*
X26187400Y-79603600D02*
X26187400Y-85623400D01*
X26187400Y-86207600D02*
X26187400Y-85623400D01*
X41402000Y-76631800D02*
X41402000Y-75091876D01*
X41402000Y-75091876D02*
X41779776Y-74714100D01*
X41779776Y-74714100D02*
X44538900Y-74714100D01*
X44538900Y-74714100D02*
X44780200Y-74472800D01*
X39522400Y-77812900D02*
X39522400Y-78003400D01*
X39522400Y-78003400D02*
X39522400Y-79603600D01*
X39522400Y-77622400D02*
X39522400Y-78003400D01*
X36647100Y-79603600D02*
X35204400Y-79603600D01*
X22620761Y-79108300D02*
X22320799Y-79408262D01*
X22620761Y-79108300D02*
X25116203Y-76612858D01*
X25116203Y-76612858D02*
X25116203Y-72047101D01*
X25116203Y-72047101D02*
X24544702Y-71475600D01*
X19672300Y-73444100D02*
X18719800Y-73444100D01*
X19202400Y-71475600D02*
X18630899Y-72047101D01*
X18630899Y-72047101D02*
X18630899Y-73355199D01*
X18630899Y-73355199D02*
X18719800Y-73444100D01*
X21996400Y-73444100D02*
X19672300Y-73444100D01*
X19202400Y-75285600D02*
X21996400Y-75285600D01*
X42054098Y-96875600D02*
X41482597Y-97447101D01*
X33891222Y-100304600D02*
X25679400Y-100304600D01*
X41482597Y-97447101D02*
X41482597Y-99782326D01*
X41482597Y-99782326D02*
X38780721Y-102484202D01*
X38780721Y-102484202D02*
X36070824Y-102484202D01*
X25679400Y-100304600D02*
X25511811Y-100137011D01*
X25511811Y-71665944D02*
X25298400Y-71452533D01*
X36070824Y-102484202D02*
X33891222Y-100304600D01*
X25511811Y-100137011D02*
X25511811Y-71665944D01*
X25298400Y-71452533D02*
X25298400Y-70967600D01*
X33426400Y-90385900D02*
X33426400Y-88620600D01*
X33426400Y-77812900D02*
X33426400Y-76555600D01*
X33426400Y-81000600D02*
X33426400Y-77812900D01*
X33426400Y-68935600D02*
X33426400Y-61315600D01*
X33426400Y-61315600D02*
X32156400Y-60045600D01*
X33426400Y-92430600D02*
X33426400Y-90385900D01*
X32588197Y-77812900D02*
X32588197Y-77343003D01*
X32588197Y-77343003D02*
X32588200Y-77343000D01*
X32588197Y-81000600D02*
X32588197Y-77812900D01*
X32588197Y-67640199D02*
X31584899Y-66636901D01*
X31584899Y-66636901D02*
X31584899Y-59347101D01*
X31584899Y-59347101D02*
X32156400Y-58775600D01*
X32588197Y-68935600D02*
X32588197Y-67640199D01*
X41925924Y-81111676D02*
X41300400Y-81737200D01*
X41300400Y-81737200D02*
X41300400Y-82178476D01*
X42367200Y-81111676D02*
X44856400Y-78622476D01*
X42367200Y-81111676D02*
X41925924Y-81111676D01*
X41300400Y-82842100D02*
X41300400Y-82178476D01*
X44856400Y-78622476D02*
X44856400Y-76047600D01*
X41300400Y-84175600D02*
X40728899Y-83604099D01*
X40728899Y-83604099D02*
X40728899Y-74070799D01*
X40728899Y-74070799D02*
X42054098Y-72745600D01*
X31470595Y-67360800D02*
X29616400Y-65506605D01*
X31826200Y-67716405D02*
X31470595Y-67360800D01*
X31826200Y-69519800D02*
X31826200Y-67716405D01*
X29616400Y-65506605D02*
X29616400Y-58140600D01*
X29616400Y-58140600D02*
X28981400Y-57505600D01*
M02*
