G04 #@! TF.FileFunction,Copper,L1,Top,Signal*
%FSLAX46Y46*%
G04 Gerber Fmt 4.6, Leading zero omitted, Abs format (unit mm)*
G04 Created by KiCad (PCBNEW 4.0.7) date Mon Mar 26 00:48:08 2018*
%MOMM*%
%LPD*%
G01*
G04 APERTURE LIST*
%ADD10C,0.100000*%
%ADD11R,1.500000X0.600000*%
%ADD12R,1.700000X1.700000*%
%ADD13O,1.700000X1.700000*%
%ADD14R,1.700000X0.900000*%
%ADD15C,1.900000*%
%ADD16C,0.685800*%
%ADD17C,0.304800*%
%ADD18C,0.152400*%
G04 APERTURE END LIST*
D10*
D11*
X30599400Y-56235600D03*
X30599400Y-57505600D03*
X30599400Y-58775600D03*
X30599400Y-60045600D03*
X30599400Y-61315600D03*
X30599400Y-62585600D03*
X30599400Y-63855600D03*
X30599400Y-65125600D03*
X35999400Y-65125600D03*
X35999400Y-63855600D03*
X35999400Y-62585600D03*
X35999400Y-61315600D03*
X35999400Y-60045600D03*
X35999400Y-58775600D03*
X35999400Y-57505600D03*
X35999400Y-56235600D03*
X43299400Y-93065600D03*
X43299400Y-94335600D03*
X43299400Y-95605600D03*
X43299400Y-96875600D03*
X43299400Y-98145600D03*
X43299400Y-99415600D03*
X43299400Y-100685600D03*
X48699400Y-100685600D03*
X48699400Y-99415600D03*
X48699400Y-98145600D03*
X48699400Y-96875600D03*
X48699400Y-95605600D03*
X48699400Y-94335600D03*
X48699400Y-93065600D03*
D12*
X47269400Y-61442600D03*
D13*
X47269400Y-63982600D03*
D12*
X17424400Y-108940600D03*
D13*
X17424400Y-106400600D03*
X19964400Y-108940600D03*
X19964400Y-106400600D03*
X22504400Y-108940600D03*
X22504400Y-106400600D03*
X25044400Y-108940600D03*
X25044400Y-106400600D03*
X27584400Y-108940600D03*
X27584400Y-106400600D03*
X30124400Y-108940600D03*
X30124400Y-106400600D03*
X32664400Y-108940600D03*
X32664400Y-106400600D03*
X35204400Y-108940600D03*
X35204400Y-106400600D03*
X37744400Y-108940600D03*
X37744400Y-106400600D03*
X40284400Y-108940600D03*
X40284400Y-106400600D03*
X42824400Y-108940600D03*
X42824400Y-106400600D03*
X45364400Y-108940600D03*
X45364400Y-106400600D03*
X47904400Y-108940600D03*
X47904400Y-106400600D03*
D12*
X18186400Y-57378600D03*
D13*
X20726400Y-57378600D03*
X18186400Y-59918600D03*
X20726400Y-59918600D03*
X18186400Y-62458600D03*
X20726400Y-62458600D03*
X18186400Y-64998600D03*
X20726400Y-64998600D03*
D12*
X20218400Y-20929600D03*
D13*
X20218400Y-23469600D03*
X20218400Y-26009600D03*
X20218400Y-28549600D03*
X20218400Y-31089600D03*
X20218400Y-33629600D03*
X20218400Y-36169600D03*
X20218400Y-38709600D03*
X20218400Y-41249600D03*
X20218400Y-43789600D03*
X20218400Y-46329600D03*
X20218400Y-48869600D03*
D12*
X45618400Y-48869600D03*
D13*
X45618400Y-46329600D03*
X45618400Y-43789600D03*
X45618400Y-41249600D03*
X45618400Y-38709600D03*
X45618400Y-36169600D03*
X45618400Y-33629600D03*
X45618400Y-31089600D03*
X45618400Y-28549600D03*
X45618400Y-26009600D03*
X45618400Y-23469600D03*
X45618400Y-20929600D03*
D14*
X19964400Y-115470600D03*
X19964400Y-112570600D03*
X19964400Y-120550600D03*
X19964400Y-117650600D03*
X22504400Y-115470600D03*
X22504400Y-112570600D03*
X22504400Y-120550600D03*
X22504400Y-117650600D03*
X25044400Y-115470600D03*
X25044400Y-112570600D03*
X25044400Y-120550600D03*
X25044400Y-117650600D03*
X27584400Y-115470600D03*
X27584400Y-112570600D03*
X27584400Y-120550600D03*
X27584400Y-117650600D03*
X30124400Y-115470600D03*
X30124400Y-112570600D03*
X30124400Y-120550600D03*
X30124400Y-117650600D03*
X32664400Y-115470600D03*
X32664400Y-112570600D03*
X32664400Y-120550600D03*
X32664400Y-117650600D03*
X35204400Y-115470600D03*
X35204400Y-112570600D03*
X35204400Y-120550600D03*
X35204400Y-117650600D03*
X37744400Y-115470600D03*
X37744400Y-112570600D03*
X37744400Y-120550600D03*
X37744400Y-117650600D03*
X40284400Y-115470600D03*
X40284400Y-112570600D03*
X40284400Y-120550600D03*
X40284400Y-117650600D03*
X42824400Y-115470600D03*
X42824400Y-112570600D03*
X42824400Y-120550600D03*
X42824400Y-117650600D03*
X45364400Y-115470600D03*
X45364400Y-112570600D03*
X45364400Y-120550600D03*
X45364400Y-117650600D03*
X47904400Y-115470600D03*
X47904400Y-112570600D03*
X47904400Y-120550600D03*
X47904400Y-117650600D03*
D11*
X17899400Y-93065600D03*
X17899400Y-94335600D03*
X17899400Y-95605600D03*
X17899400Y-96875600D03*
X17899400Y-98145600D03*
X17899400Y-99415600D03*
X17899400Y-100685600D03*
X23299400Y-100685600D03*
X23299400Y-99415600D03*
X23299400Y-98145600D03*
X23299400Y-96875600D03*
X23299400Y-95605600D03*
X23299400Y-94335600D03*
X23299400Y-93065600D03*
X17899400Y-81000600D03*
X17899400Y-82270600D03*
X17899400Y-83540600D03*
X17899400Y-84810600D03*
X17899400Y-86080600D03*
X17899400Y-87350600D03*
X17899400Y-88620600D03*
X23299400Y-88620600D03*
X23299400Y-87350600D03*
X23299400Y-86080600D03*
X23299400Y-84810600D03*
X23299400Y-83540600D03*
X23299400Y-82270600D03*
X23299400Y-81000600D03*
X17899400Y-68935600D03*
X17899400Y-70205600D03*
X17899400Y-71475600D03*
X17899400Y-72745600D03*
X17899400Y-74015600D03*
X17899400Y-75285600D03*
X17899400Y-76555600D03*
X23299400Y-76555600D03*
X23299400Y-75285600D03*
X23299400Y-74015600D03*
X23299400Y-72745600D03*
X23299400Y-71475600D03*
X23299400Y-70205600D03*
X23299400Y-68935600D03*
X30599400Y-93065600D03*
X30599400Y-94335600D03*
X30599400Y-95605600D03*
X30599400Y-96875600D03*
X30599400Y-98145600D03*
X30599400Y-99415600D03*
X30599400Y-100685600D03*
X30599400Y-101955600D03*
X35999400Y-101955600D03*
X35999400Y-100685600D03*
X35999400Y-99415600D03*
X35999400Y-98145600D03*
X35999400Y-96875600D03*
X35999400Y-95605600D03*
X35999400Y-94335600D03*
X35999400Y-93065600D03*
X30599400Y-81000600D03*
X30599400Y-82270600D03*
X30599400Y-83540600D03*
X30599400Y-84810600D03*
X30599400Y-86080600D03*
X30599400Y-87350600D03*
X30599400Y-88620600D03*
X30599400Y-89890600D03*
X35999400Y-89890600D03*
X35999400Y-88620600D03*
X35999400Y-87350600D03*
X35999400Y-86080600D03*
X35999400Y-84810600D03*
X35999400Y-83540600D03*
X35999400Y-82270600D03*
X35999400Y-81000600D03*
X43299400Y-81000600D03*
X43299400Y-82270600D03*
X43299400Y-83540600D03*
X43299400Y-84810600D03*
X43299400Y-86080600D03*
X43299400Y-87350600D03*
X43299400Y-88620600D03*
X48699400Y-88620600D03*
X48699400Y-87350600D03*
X48699400Y-86080600D03*
X48699400Y-84810600D03*
X48699400Y-83540600D03*
X48699400Y-82270600D03*
X48699400Y-81000600D03*
X30599400Y-68935600D03*
X30599400Y-70205600D03*
X30599400Y-71475600D03*
X30599400Y-72745600D03*
X30599400Y-74015600D03*
X30599400Y-75285600D03*
X30599400Y-76555600D03*
X30599400Y-77825600D03*
X35999400Y-77825600D03*
X35999400Y-76555600D03*
X35999400Y-75285600D03*
X35999400Y-74015600D03*
X35999400Y-72745600D03*
X35999400Y-71475600D03*
X35999400Y-70205600D03*
X35999400Y-68935600D03*
D15*
X24028400Y-20929600D03*
X24028400Y-23469600D03*
X24028400Y-26009600D03*
X24028400Y-28549600D03*
X24028400Y-31089600D03*
X24028400Y-33629600D03*
X24028400Y-36169600D03*
X24028400Y-38709600D03*
X24028400Y-41249600D03*
X24028400Y-43789600D03*
X24028400Y-46329600D03*
X24028400Y-48869600D03*
X41808400Y-20929600D03*
X41808400Y-23469600D03*
X41808400Y-26009600D03*
X41808400Y-28549600D03*
X41808400Y-31089600D03*
X41808400Y-33629600D03*
X41808400Y-36169600D03*
X41808400Y-38709600D03*
X41808400Y-41249600D03*
X41808400Y-43789600D03*
X41808400Y-46329600D03*
X41808400Y-48869600D03*
D11*
X43299400Y-68935600D03*
X43299400Y-70205600D03*
X43299400Y-71475600D03*
X43299400Y-72745600D03*
X43299400Y-74015600D03*
X43299400Y-75285600D03*
X43299400Y-76555600D03*
X48699400Y-76555600D03*
X48699400Y-75285600D03*
X48699400Y-74015600D03*
X48699400Y-72745600D03*
X48699400Y-71475600D03*
X48699400Y-70205600D03*
X48699400Y-68935600D03*
D16*
X32664400Y-114020600D03*
X34442400Y-88620600D03*
X34442400Y-76555600D03*
X34569400Y-56235600D03*
X34442400Y-66014600D03*
X34442400Y-81000600D03*
X34442400Y-93065600D03*
X19964400Y-119227600D03*
X47904400Y-119227600D03*
X34442400Y-101701600D03*
X22504400Y-114020600D03*
X25044400Y-114020600D03*
X27584400Y-114020600D03*
X30124400Y-114020600D03*
X35204400Y-114020600D03*
X37744400Y-114020600D03*
X40284400Y-114020600D03*
X42824400Y-114020600D03*
X45364400Y-114020600D03*
X47904400Y-114020600D03*
X19964400Y-114020600D03*
X24079200Y-57607200D03*
X25482802Y-65125600D03*
X18186400Y-25501600D03*
X23012400Y-91033600D03*
X19964400Y-91033600D03*
X24544702Y-100685600D03*
X19202400Y-100685600D03*
X24544702Y-68935600D03*
X19202400Y-68935600D03*
X16662400Y-68935600D03*
X24544702Y-70205600D03*
X19202400Y-70205600D03*
X24544702Y-72745600D03*
X19202400Y-72745600D03*
X16662400Y-72745600D03*
X19202400Y-74218800D03*
X24544702Y-74015600D03*
X24544702Y-81000600D03*
X19202400Y-81000600D03*
X16662400Y-81000600D03*
X24544702Y-82270600D03*
X19202400Y-82270600D03*
X24544702Y-84810600D03*
X19202400Y-84810600D03*
X16662400Y-84810600D03*
X19202400Y-86233000D03*
X24544702Y-86080600D03*
X24544702Y-93065600D03*
X19202400Y-93065600D03*
X16662400Y-93065600D03*
X24544702Y-94335600D03*
X19202400Y-94335600D03*
X24544702Y-96875600D03*
X19202400Y-96875600D03*
X16662400Y-96875600D03*
X19202400Y-98374200D03*
X24544702Y-98145600D03*
X42054098Y-99415600D03*
X47396400Y-99415600D03*
X49936400Y-99415600D03*
X42054098Y-98145600D03*
X47396400Y-98145600D03*
X42054098Y-95605600D03*
X47396400Y-95605600D03*
X49936400Y-95605600D03*
X42054098Y-94335600D03*
X47396400Y-94335600D03*
X42054098Y-87350600D03*
X47396400Y-87350600D03*
X49936400Y-87350600D03*
X42054098Y-86080600D03*
X47396400Y-86080600D03*
X42054098Y-83540600D03*
X47396400Y-83540600D03*
X49936400Y-83540600D03*
X42054122Y-81965719D03*
X47396400Y-82270600D03*
X42054097Y-75861346D03*
X47396400Y-75285600D03*
X49936400Y-75285600D03*
X42054098Y-74015600D03*
X47396400Y-74015600D03*
X40817800Y-71475600D03*
X47396400Y-71475600D03*
X49936400Y-71475600D03*
X42054098Y-70205600D03*
X47396400Y-70205600D03*
X17183100Y-41732200D03*
X38506400Y-101447600D03*
X38506400Y-77444600D03*
X38506400Y-89890600D03*
X37871400Y-76555600D03*
X37871400Y-88620600D03*
X37871400Y-100685600D03*
X37236400Y-75285600D03*
X37236400Y-87350600D03*
X37236400Y-99415600D03*
X37236400Y-99415600D03*
X45745400Y-70904100D03*
X21996400Y-97574100D03*
X19202400Y-95605600D03*
X21996400Y-99415600D03*
X19202400Y-99415600D03*
X24536400Y-83540600D03*
X24544702Y-95605600D03*
X21996400Y-85509100D03*
X19202400Y-83540600D03*
X21996400Y-87350600D03*
X19202400Y-87350600D03*
X26187400Y-86207600D03*
X44780200Y-74472800D03*
X41402000Y-76631800D03*
X39522400Y-77622400D03*
X26187400Y-79603600D03*
X35204400Y-79603600D03*
X36647100Y-79603600D03*
X39522400Y-79603600D03*
X22320799Y-79408262D03*
X24544702Y-71475600D03*
X21996400Y-73444100D03*
X19202400Y-71475600D03*
X21996400Y-75285600D03*
X19202400Y-75285600D03*
X42054098Y-96875600D03*
X25298400Y-70967600D03*
X33426400Y-88620600D03*
X33426400Y-76555600D03*
X33426400Y-81000600D03*
X32156400Y-60045600D03*
X33426400Y-68935600D03*
X33426400Y-92430600D03*
X32588200Y-77343000D03*
X32588197Y-81000600D03*
X32156400Y-58775600D03*
X32588197Y-68935600D03*
X44856400Y-76047600D03*
X41300400Y-82842100D03*
X42054098Y-72745600D03*
X41300400Y-84175600D03*
X31826200Y-69519800D03*
X28981400Y-57505600D03*
D17*
X32664400Y-115470600D02*
X32664400Y-114020600D01*
X34442400Y-90385900D02*
X34442400Y-88620600D01*
X34442400Y-88620600D02*
X34442400Y-81000600D01*
X34442400Y-76555600D02*
X34442400Y-68287899D01*
X35941000Y-80314800D02*
X35999400Y-80373200D01*
X35999400Y-80373200D02*
X35999400Y-81000600D01*
X35941000Y-79019410D02*
X35941000Y-80314800D01*
X36042600Y-78917810D02*
X35941000Y-79019410D01*
X25283201Y-54853799D02*
X26060201Y-55630799D01*
X26060201Y-55630799D02*
X33964599Y-55630799D01*
X24028400Y-20929600D02*
X25283201Y-22184401D01*
X25283201Y-22184401D02*
X25283201Y-54853799D01*
X34569400Y-56235600D02*
X33964599Y-55630799D01*
X34569400Y-56235600D02*
X35999400Y-56235600D01*
X34442400Y-68287899D02*
X34442400Y-66014600D01*
X48699400Y-68330800D02*
X48699400Y-68681600D01*
X48699400Y-68681600D02*
X48699400Y-68935600D01*
X47269400Y-61442600D02*
X48424200Y-61442600D01*
X48424200Y-61442600D02*
X48699400Y-61717800D01*
X48699400Y-61717800D02*
X48699400Y-68681600D01*
X24028400Y-20929600D02*
X20218400Y-20929600D01*
X45561810Y-78917810D02*
X36042600Y-78917810D01*
X36042600Y-78917810D02*
X23266400Y-78917810D01*
X34442400Y-68287899D02*
X35966400Y-68287899D01*
X23342301Y-68287899D02*
X34442400Y-68287899D01*
X35966400Y-68287899D02*
X48656499Y-68287899D01*
X35999400Y-68935600D02*
X35999400Y-68320899D01*
X35999400Y-68320899D02*
X35966400Y-68287899D01*
X23299400Y-68935600D02*
X23299400Y-68330800D01*
X23299400Y-68330800D02*
X23342301Y-68287899D01*
X48656499Y-68287899D02*
X48699400Y-68330800D01*
X48699400Y-81000600D02*
X47644600Y-81000600D01*
X47644600Y-81000600D02*
X45561810Y-78917810D01*
X23299400Y-78950810D02*
X23299400Y-81000600D01*
X23266400Y-78917810D02*
X23299400Y-78950810D01*
X34442400Y-81000600D02*
X35999400Y-81000600D01*
X34442400Y-91541600D02*
X34442400Y-93065600D01*
X34442400Y-93065600D02*
X34442400Y-101701600D01*
X35999400Y-93065600D02*
X34442400Y-93065600D01*
X19964400Y-120550600D02*
X19964400Y-119227600D01*
X47904400Y-120550600D02*
X47904400Y-119227600D01*
X34442400Y-91541600D02*
X48666400Y-91541600D01*
X24218600Y-91541600D02*
X34442400Y-91541600D01*
X48666400Y-91541600D02*
X48699400Y-91574600D01*
X48699400Y-91574600D02*
X48699400Y-93065600D01*
X23299400Y-93065600D02*
X23299400Y-92460800D01*
X23299400Y-92460800D02*
X24218600Y-91541600D01*
X22504400Y-115470600D02*
X22504400Y-114020600D01*
X25044400Y-115470600D02*
X25044400Y-114020600D01*
X27584400Y-115470600D02*
X27584400Y-114020600D01*
X30124400Y-115470600D02*
X30124400Y-114020600D01*
X35204400Y-115470600D02*
X35204400Y-114020600D01*
X37744400Y-115470600D02*
X37744400Y-114020600D01*
X40284400Y-115470600D02*
X40284400Y-114020600D01*
X42824400Y-115470600D02*
X42824400Y-114020600D01*
X45364400Y-115470600D02*
X45364400Y-114020600D01*
X47904400Y-115470600D02*
X47904400Y-114020600D01*
X19964400Y-115470600D02*
X19964400Y-114020600D01*
X22504400Y-120550600D02*
X19964400Y-120550600D01*
X25044400Y-120550600D02*
X22504400Y-120550600D01*
X27584400Y-120550600D02*
X25044400Y-120550600D01*
X30124400Y-120550600D02*
X27584400Y-120550600D01*
X32664400Y-120550600D02*
X30124400Y-120550600D01*
X35204400Y-120550600D02*
X32664400Y-120550600D01*
X37744400Y-120550600D02*
X35204400Y-120550600D01*
X40284400Y-120550600D02*
X37744400Y-120550600D01*
X42824400Y-120550600D02*
X40284400Y-120550600D01*
X45364400Y-120550600D02*
X42824400Y-120550600D01*
X47904400Y-120550600D02*
X45364400Y-120550600D01*
X21759397Y-56223799D02*
X22695799Y-56223799D01*
X22695799Y-56223799D02*
X24079200Y-57607200D01*
X18186400Y-57378600D02*
X18186401Y-56223799D01*
X18186401Y-56223799D02*
X21759397Y-56223799D01*
X20218400Y-23469600D02*
X18186400Y-25501600D01*
X20218400Y-78460600D02*
X20218400Y-70390002D01*
X20218400Y-70390002D02*
X25482802Y-65125600D01*
X25482802Y-65125600D02*
X30599400Y-65125600D01*
X37109400Y-65125600D02*
X46126400Y-65125600D01*
X46126400Y-65125600D02*
X47269400Y-63982600D01*
X45618400Y-28549600D02*
X46773201Y-29704401D01*
X46773201Y-29704401D02*
X46773201Y-54306999D01*
X46773201Y-54306999D02*
X45364400Y-55715800D01*
X45364400Y-55715800D02*
X45364400Y-56870600D01*
X20218400Y-23469600D02*
X24028400Y-23469600D01*
X45364400Y-56870600D02*
X37109400Y-65125600D01*
X37109400Y-65125600D02*
X35999400Y-65125600D01*
X35999400Y-65125600D02*
X30599400Y-65125600D01*
X30599400Y-63855600D02*
X30599400Y-65125600D01*
X20218400Y-78460600D02*
X30632400Y-78460600D01*
X19199600Y-78460600D02*
X20218400Y-78460600D01*
X20218400Y-78460600D02*
X19964400Y-78714600D01*
X19964400Y-78714600D02*
X19964400Y-91033600D01*
X30632400Y-78460600D02*
X42951400Y-78460600D01*
X30632400Y-78460600D02*
X30629600Y-78460600D01*
X30629600Y-78460600D02*
X30599400Y-78430400D01*
X30599400Y-78430400D02*
X30599400Y-77825600D01*
X42951400Y-78460600D02*
X43299400Y-78112600D01*
X43299400Y-78112600D02*
X43299400Y-76555600D01*
X17899400Y-76555600D02*
X17899400Y-77160400D01*
X17899400Y-77160400D02*
X19199600Y-78460600D01*
X30599400Y-88620600D02*
X30599400Y-89890600D01*
X30599400Y-76555600D02*
X30599400Y-77825600D01*
X19964400Y-91033600D02*
X19964400Y-99923600D01*
X19964400Y-99923600D02*
X19202400Y-100685600D01*
X30632400Y-91033600D02*
X43332400Y-91033600D01*
X43332400Y-91033600D02*
X43299400Y-91000600D01*
X43299400Y-91000600D02*
X43299400Y-88620600D01*
X23012400Y-91033600D02*
X30632400Y-91033600D01*
X30599400Y-91000600D02*
X30599400Y-89890600D01*
X17899400Y-88620600D02*
X17899400Y-89225400D01*
X17899400Y-89225400D02*
X19707600Y-91033600D01*
X19707600Y-91033600D02*
X19964400Y-91033600D01*
X30599400Y-101955600D02*
X31049400Y-101955600D01*
X31049400Y-101955600D02*
X31654201Y-102560401D01*
X31654201Y-102560401D02*
X40369799Y-102560401D01*
X40369799Y-102560401D02*
X42244600Y-100685600D01*
X42244600Y-100685600D02*
X43299400Y-100685600D01*
X30599400Y-100685600D02*
X30599400Y-101955600D01*
X24544702Y-100685600D02*
X30599400Y-100685600D01*
X17899400Y-100685600D02*
X19202400Y-100685600D01*
D18*
X24544702Y-68935600D02*
X30599400Y-68935600D01*
X17899400Y-68935600D02*
X19202400Y-68935600D01*
X16662400Y-68935600D02*
X17899400Y-68935600D01*
X19964400Y-112570600D02*
X19964400Y-108940600D01*
X24544702Y-70205600D02*
X30599400Y-70205600D01*
X17899400Y-70205600D02*
X19202400Y-70205600D01*
X19964400Y-106400600D02*
X14871659Y-101307859D01*
X14871659Y-101307859D02*
X14871659Y-72783341D01*
X14871659Y-72783341D02*
X17449400Y-70205600D01*
X17449400Y-70205600D02*
X17899400Y-70205600D01*
X19964400Y-117650600D02*
X20364400Y-117650600D01*
X21043001Y-116971999D02*
X21043001Y-107479201D01*
X21043001Y-107479201D02*
X19964400Y-106400600D01*
X20364400Y-117650600D02*
X21043001Y-116971999D01*
X24544702Y-72745600D02*
X25814702Y-71475600D01*
X25814702Y-71475600D02*
X30599400Y-71475600D01*
X17899400Y-72745600D02*
X19202400Y-72745600D01*
X16662400Y-72745600D02*
X17899400Y-72745600D01*
X22504400Y-112570600D02*
X22504400Y-108940600D01*
X17899400Y-74015600D02*
X18999200Y-74015600D01*
X18999200Y-74015600D02*
X19202400Y-74218800D01*
X24544702Y-74015600D02*
X25814702Y-72745600D01*
X25814702Y-72745600D02*
X30599400Y-72745600D01*
X22504400Y-106400600D02*
X18580137Y-102476337D01*
X17449400Y-74015600D02*
X17899400Y-74015600D01*
X18580137Y-102476337D02*
X16504391Y-102476337D01*
X16504391Y-102476337D02*
X15176469Y-101148415D01*
X15176469Y-101148415D02*
X15176469Y-76288531D01*
X15176469Y-76288531D02*
X17449400Y-74015600D01*
X22504400Y-117650600D02*
X22904400Y-117650600D01*
X23583001Y-107479201D02*
X22504400Y-106400600D01*
X22904400Y-117650600D02*
X23583001Y-116971999D01*
X23583001Y-116971999D02*
X23583001Y-107479201D01*
X24544702Y-81000600D02*
X30599400Y-81000600D01*
X17899400Y-81000600D02*
X19202400Y-81000600D01*
X16662400Y-81000600D02*
X17899400Y-81000600D01*
X25044400Y-112570600D02*
X25044400Y-108940600D01*
X24544702Y-82270600D02*
X30599400Y-82270600D01*
X17899400Y-82270600D02*
X19202400Y-82270600D01*
X25044400Y-106400600D02*
X20815328Y-102171528D01*
X20815328Y-102171528D02*
X16630648Y-102171528D01*
X16630648Y-102171528D02*
X15481279Y-101022159D01*
X15481279Y-101022159D02*
X15481279Y-84238721D01*
X15481279Y-84238721D02*
X17449400Y-82270600D01*
X17449400Y-82270600D02*
X17899400Y-82270600D01*
X25044400Y-117650600D02*
X25444400Y-117650600D01*
X25444400Y-117650600D02*
X26123001Y-116971999D01*
X26123001Y-116971999D02*
X26123001Y-107479201D01*
X26123001Y-107479201D02*
X25044400Y-106400600D01*
X24544702Y-84810600D02*
X25814702Y-83540600D01*
X25814702Y-83540600D02*
X30599400Y-83540600D01*
X17899400Y-84810600D02*
X19202400Y-84810600D01*
X16662400Y-84810600D02*
X17899400Y-84810600D01*
X27584400Y-112570600D02*
X27584400Y-108940600D01*
X17899400Y-86080600D02*
X19050000Y-86080600D01*
X19050000Y-86080600D02*
X19202400Y-86233000D01*
X24544702Y-86080600D02*
X25814702Y-84810600D01*
X25814702Y-84810600D02*
X30599400Y-84810600D01*
X27584400Y-106400600D02*
X26640730Y-106400600D01*
X26640730Y-106400600D02*
X22106850Y-101866720D01*
X22106850Y-101866720D02*
X16756905Y-101866719D01*
X16756905Y-101866719D02*
X15786089Y-100895903D01*
X15786089Y-100895903D02*
X15786089Y-87743911D01*
X15786089Y-87743911D02*
X17449400Y-86080600D01*
X17449400Y-86080600D02*
X17899400Y-86080600D01*
X27584400Y-117650600D02*
X27984400Y-117650600D01*
X28663001Y-116971999D02*
X28663001Y-107479201D01*
X28663001Y-107479201D02*
X27584400Y-106400600D01*
X27984400Y-117650600D02*
X28663001Y-116971999D01*
X24544702Y-93065600D02*
X30599400Y-93065600D01*
X17899400Y-93065600D02*
X19202400Y-93065600D01*
X16662400Y-93065600D02*
X17899400Y-93065600D01*
X30124400Y-112570600D02*
X30124400Y-108940600D01*
X30124400Y-106400600D02*
X25285710Y-101561910D01*
X16090899Y-95694101D02*
X17449400Y-94335600D01*
X25285710Y-101561910D02*
X16883162Y-101561910D01*
X16883162Y-101561910D02*
X16090899Y-100769647D01*
X16090899Y-100769647D02*
X16090899Y-95694101D01*
X17449400Y-94335600D02*
X17899400Y-94335600D01*
X24544702Y-94335600D02*
X30599400Y-94335600D01*
X17899400Y-94335600D02*
X19202400Y-94335600D01*
X30124400Y-117650600D02*
X30524400Y-117650600D01*
X30524400Y-117650600D02*
X31203001Y-116971999D01*
X31203001Y-116971999D02*
X31203001Y-107479201D01*
X31203001Y-107479201D02*
X30124400Y-106400600D01*
X24544702Y-96875600D02*
X25814702Y-95605600D01*
X25814702Y-95605600D02*
X30599400Y-95605600D01*
X17899400Y-96875600D02*
X19202400Y-96875600D01*
X16662400Y-96875600D02*
X17899400Y-96875600D01*
X32664400Y-112570600D02*
X32664400Y-108940600D01*
X17899400Y-98145600D02*
X18973800Y-98145600D01*
X18973800Y-98145600D02*
X19202400Y-98374200D01*
X32664400Y-106400600D02*
X27520901Y-101257101D01*
X17449400Y-98145600D02*
X17899400Y-98145600D01*
X27520901Y-101257101D02*
X17009419Y-101257101D01*
X17009419Y-101257101D02*
X16920799Y-101168481D01*
X16920799Y-101168481D02*
X16920799Y-98674201D01*
X16920799Y-98674201D02*
X17449400Y-98145600D01*
X24544702Y-98145600D02*
X25814702Y-96875600D01*
X25814702Y-96875600D02*
X30599400Y-96875600D01*
X32664400Y-117650600D02*
X33064400Y-117650600D01*
X33064400Y-117650600D02*
X33743001Y-116971999D01*
X33743001Y-116971999D02*
X33743001Y-107479201D01*
X33743001Y-107479201D02*
X32664400Y-106400600D01*
X42054098Y-99415600D02*
X40784098Y-98145600D01*
X40784098Y-98145600D02*
X35999400Y-98145600D01*
X48699400Y-99415600D02*
X47396400Y-99415600D01*
X49936400Y-99415600D02*
X48699400Y-99415600D01*
X35204400Y-112570600D02*
X35204400Y-108940600D01*
X35204400Y-106400600D02*
X37871400Y-103733600D01*
X37871400Y-103733600D02*
X47112882Y-103733600D01*
X47112882Y-103733600D02*
X50507901Y-100338581D01*
X49601800Y-98145600D02*
X48699400Y-98145600D01*
X50507901Y-100338581D02*
X50507901Y-99051701D01*
X50507901Y-99051701D02*
X49601800Y-98145600D01*
X42054098Y-98145600D02*
X40784098Y-96875600D01*
X40784098Y-96875600D02*
X35999400Y-96875600D01*
X48699400Y-98145600D02*
X47396400Y-98145600D01*
X35204400Y-117650600D02*
X35604400Y-117650600D01*
X35604400Y-117650600D02*
X36283001Y-116971999D01*
X36283001Y-116971999D02*
X36283001Y-107479201D01*
X36283001Y-107479201D02*
X35204400Y-106400600D01*
X42054098Y-95605600D02*
X35999400Y-95605600D01*
X48699400Y-95605600D02*
X47396400Y-95605600D01*
X49936400Y-95605600D02*
X48699400Y-95605600D01*
X37744400Y-112570600D02*
X37744400Y-108940600D01*
X37744400Y-106400600D02*
X40106591Y-104038409D01*
X50812711Y-100464837D02*
X50812711Y-95546511D01*
X40106591Y-104038409D02*
X47239139Y-104038409D01*
X47239139Y-104038409D02*
X50812711Y-100464837D01*
X50812711Y-95546511D02*
X49601800Y-94335600D01*
X49601800Y-94335600D02*
X48699400Y-94335600D01*
X42054098Y-94335600D02*
X35999400Y-94335600D01*
X48699400Y-94335600D02*
X47396400Y-94335600D01*
X37744400Y-117650600D02*
X38144400Y-117650600D01*
X38144400Y-117650600D02*
X38823001Y-116971999D01*
X38823001Y-107479201D02*
X37744400Y-106400600D01*
X38823001Y-116971999D02*
X38823001Y-107479201D01*
X42054098Y-87350600D02*
X40784098Y-86080600D01*
X40784098Y-86080600D02*
X35999400Y-86080600D01*
X48699400Y-87350600D02*
X47396400Y-87350600D01*
X49936400Y-87350600D02*
X48699400Y-87350600D01*
X40284400Y-112570600D02*
X40284400Y-108940600D01*
X42054098Y-86080600D02*
X40784098Y-84810600D01*
X40784098Y-84810600D02*
X35999400Y-84810600D01*
X48699400Y-86080600D02*
X47396400Y-86080600D01*
X40284400Y-106400600D02*
X42341782Y-104343218D01*
X42341782Y-104343218D02*
X47365396Y-104343218D01*
X47365396Y-104343218D02*
X51117521Y-100591093D01*
X51117521Y-100591093D02*
X51117521Y-87596321D01*
X51117521Y-87596321D02*
X49601800Y-86080600D01*
X49601800Y-86080600D02*
X48699400Y-86080600D01*
X40284400Y-117650600D02*
X40684400Y-117650600D01*
X40684400Y-117650600D02*
X41363001Y-116971999D01*
X41363001Y-107479201D02*
X40284400Y-106400600D01*
X41363001Y-116971999D02*
X41363001Y-107479201D01*
X42054098Y-83540600D02*
X35999400Y-83540600D01*
X48699400Y-83540600D02*
X47396400Y-83540600D01*
X49936400Y-83540600D02*
X48699400Y-83540600D01*
X42824400Y-112570600D02*
X42824400Y-108940600D01*
X42054122Y-81965719D02*
X39446281Y-81965719D01*
X39446281Y-81965719D02*
X39141400Y-82270600D01*
X39141400Y-82270600D02*
X35999400Y-82270600D01*
X48699400Y-82270600D02*
X47396400Y-82270600D01*
X42824400Y-106400600D02*
X44576972Y-104648028D01*
X44576972Y-104648028D02*
X47491653Y-104648027D01*
X47491653Y-104648027D02*
X51422331Y-100717349D01*
X49601800Y-82270600D02*
X48699400Y-82270600D01*
X51422331Y-100717349D02*
X51422331Y-84091131D01*
X51422331Y-84091131D02*
X49601800Y-82270600D01*
X42824400Y-117650600D02*
X43224400Y-117650600D01*
X43224400Y-117650600D02*
X43903001Y-116971999D01*
X43903001Y-116971999D02*
X43903001Y-107479201D01*
X43903001Y-107479201D02*
X42824400Y-106400600D01*
X41368298Y-74599800D02*
X40784098Y-74015600D01*
X41368298Y-74599800D02*
X41368298Y-75175547D01*
X41368298Y-75175547D02*
X42054097Y-75861346D01*
X40784098Y-74015600D02*
X35999400Y-74015600D01*
X48699400Y-75285600D02*
X47396400Y-75285600D01*
X49936400Y-75285600D02*
X48699400Y-75285600D01*
X45364400Y-112570600D02*
X45364400Y-108940600D01*
X42054098Y-74015600D02*
X40784098Y-72745600D01*
X40784098Y-72745600D02*
X35999400Y-72745600D01*
X48699400Y-74015600D02*
X47396400Y-74015600D01*
X45364400Y-106400600D02*
X46214399Y-105550601D01*
X46214399Y-105550601D02*
X47020145Y-105550601D01*
X47020145Y-105550601D02*
X51727141Y-100843605D01*
X51727141Y-100843605D02*
X51727141Y-76140941D01*
X51727141Y-76140941D02*
X49601800Y-74015600D01*
X49601800Y-74015600D02*
X48699400Y-74015600D01*
X45364400Y-117650600D02*
X45764400Y-117650600D01*
X45764400Y-117650600D02*
X46443001Y-116971999D01*
X46443001Y-107479201D02*
X45364400Y-106400600D01*
X46443001Y-116971999D02*
X46443001Y-107479201D01*
X42054098Y-71475600D02*
X40817800Y-71475600D01*
X40817800Y-71475600D02*
X35999400Y-71475600D01*
X48699400Y-71475600D02*
X47396400Y-71475600D01*
X49936400Y-71475600D02*
X48699400Y-71475600D01*
X47904400Y-112570600D02*
X47904400Y-108940600D01*
X42054098Y-70205600D02*
X35999400Y-70205600D01*
X48699400Y-70205600D02*
X47396400Y-70205600D01*
X47904400Y-106400600D02*
X49106481Y-106400600D01*
X49601800Y-70205600D02*
X48699400Y-70205600D01*
X49106481Y-106400600D02*
X52031951Y-103475130D01*
X52031951Y-103475130D02*
X52031951Y-72635751D01*
X52031951Y-72635751D02*
X49601800Y-70205600D01*
X47904400Y-117650600D02*
X48304400Y-117650600D01*
X48304400Y-117650600D02*
X48983001Y-116971999D01*
X48983001Y-116971999D02*
X48983001Y-107479201D01*
X48983001Y-107479201D02*
X47904400Y-106400600D01*
D17*
X41808400Y-20929600D02*
X45618400Y-20929600D01*
D18*
X41808400Y-33629600D02*
X45618400Y-33629600D01*
X39578733Y-58034201D02*
X39852590Y-57760344D01*
X39852590Y-57760344D02*
X39852590Y-35585410D01*
X39852590Y-35585410D02*
X41808400Y-33629600D01*
X18186400Y-59918600D02*
X19647799Y-58457201D01*
X19647799Y-58457201D02*
X29456317Y-58457201D01*
X29456317Y-58457201D02*
X29879317Y-58034201D01*
X29879317Y-58034201D02*
X39578733Y-58034201D01*
X17538700Y-41376600D02*
X17183100Y-41732200D01*
X17538700Y-41376600D02*
X20091400Y-41376600D01*
X20091400Y-41376600D02*
X20218400Y-41249600D01*
X24028400Y-41249600D02*
X20218400Y-41249600D01*
X24028400Y-36169600D02*
X20218400Y-36169600D01*
X16967199Y-62835729D02*
X16967199Y-43180000D01*
X16459200Y-41275000D02*
X16459200Y-42672001D01*
X16459200Y-42672001D02*
X16967199Y-43180000D01*
X17365319Y-40368881D02*
X16459200Y-41275000D01*
X17365319Y-40360600D02*
X19016319Y-38709600D01*
X17365319Y-40360600D02*
X17365319Y-40368881D01*
X18186400Y-64998600D02*
X18186400Y-64054930D01*
X18186400Y-64054930D02*
X16967199Y-62835729D01*
X19016319Y-38709600D02*
X20218400Y-38709600D01*
X20218400Y-38709600D02*
X24028400Y-38709600D01*
X24028400Y-26009600D02*
X20218400Y-26009600D01*
X20218400Y-28549600D02*
X24028400Y-28549600D01*
X24028400Y-31089600D02*
X20218400Y-31089600D01*
X20218400Y-33629600D02*
X24028400Y-33629600D01*
X20218400Y-43789600D02*
X24028400Y-43789600D01*
X24028400Y-46329600D02*
X20218400Y-46329600D01*
X20218400Y-48869600D02*
X24028400Y-48869600D01*
X35999400Y-63855600D02*
X36449400Y-63855600D01*
X36449400Y-63855600D02*
X41808400Y-58496600D01*
X41808400Y-58496600D02*
X41808400Y-48869600D01*
X45618400Y-48869600D02*
X41808400Y-48869600D01*
X35999400Y-62585600D02*
X36449400Y-62585600D01*
X40629799Y-58405201D02*
X40629799Y-47508201D01*
X40629799Y-47508201D02*
X41808400Y-46329600D01*
X36449400Y-62585600D02*
X40629799Y-58405201D01*
X45618400Y-46329600D02*
X41808400Y-46329600D01*
X37693600Y-101912701D02*
X36042299Y-101912701D01*
X37693600Y-101912701D02*
X38041299Y-101912701D01*
X38041299Y-101912701D02*
X38506400Y-101447600D01*
X35999400Y-77825600D02*
X38125400Y-77825600D01*
X38125400Y-77825600D02*
X38506400Y-77444600D01*
X45618400Y-43789600D02*
X41808400Y-43789600D01*
X36012100Y-77812900D02*
X35999400Y-77825600D01*
X36042299Y-101912701D02*
X35999400Y-101955600D01*
X35999400Y-89890600D02*
X38506400Y-89890600D01*
X45618400Y-41249600D02*
X41808400Y-41249600D01*
X35999400Y-76555600D02*
X37871400Y-76555600D01*
X37871400Y-88620600D02*
X35999400Y-88620600D01*
X35999400Y-100685600D02*
X37871400Y-100685600D01*
X45618400Y-38709600D02*
X41808400Y-38709600D01*
X37236400Y-75285600D02*
X35999400Y-75285600D01*
X37236400Y-87350600D02*
X35999400Y-87350600D01*
X35999400Y-99415600D02*
X37236400Y-99415600D01*
X40157400Y-57886600D02*
X40157400Y-37820600D01*
X40157400Y-37820600D02*
X41808400Y-36169600D01*
X37469799Y-60574201D02*
X40157400Y-57886600D01*
X30599400Y-61315600D02*
X31732222Y-61315600D01*
X31732222Y-61315600D02*
X32473621Y-60574201D01*
X32473621Y-60574201D02*
X37469799Y-60574201D01*
X45618400Y-36169600D02*
X41808400Y-36169600D01*
X45618400Y-31089600D02*
X41808400Y-31089600D01*
X43299400Y-75285600D02*
X43749400Y-75285600D01*
X43749400Y-75285600D02*
X44284899Y-75821099D01*
X44284899Y-75821099D02*
X44284899Y-76321921D01*
X44284899Y-76321921D02*
X44582079Y-76619101D01*
X44582079Y-76619101D02*
X45130721Y-76619101D01*
X45130721Y-76619101D02*
X45745400Y-76004422D01*
X45745400Y-76004422D02*
X45745400Y-70904100D01*
X45618400Y-26009600D02*
X41808400Y-26009600D01*
X41808400Y-23469600D02*
X45618400Y-23469600D01*
X21996400Y-97574100D02*
X23180300Y-97574100D01*
X23180300Y-97574100D02*
X23299400Y-97693200D01*
X23299400Y-97693200D02*
X23299400Y-98145600D01*
X17899400Y-95605600D02*
X19202400Y-95605600D01*
X21996400Y-99415600D02*
X23299400Y-99415600D01*
X17899400Y-99415600D02*
X19202400Y-99415600D01*
X23299400Y-100685600D02*
X22397000Y-100685600D01*
X22397000Y-100685600D02*
X21424899Y-99713499D01*
X21424899Y-99713499D02*
X21424899Y-97030101D01*
X21424899Y-97030101D02*
X22849400Y-95605600D01*
X22849400Y-95605600D02*
X23299400Y-95605600D01*
X24536400Y-83540600D02*
X23299400Y-83540600D01*
X23490882Y-96875600D02*
X24544702Y-95821780D01*
X24544702Y-95821780D02*
X24544702Y-95605600D01*
X23299400Y-96875600D02*
X23490882Y-96875600D01*
X23299400Y-94335600D02*
X22849400Y-94335600D01*
X22849400Y-94335600D02*
X22320799Y-93806999D01*
X22320799Y-93806999D02*
X22320799Y-90051601D01*
X22320799Y-90051601D02*
X23299400Y-89073000D01*
X23299400Y-89073000D02*
X23299400Y-88620600D01*
X21996400Y-85509100D02*
X22567900Y-86080600D01*
X22567900Y-86080600D02*
X23299400Y-86080600D01*
X17899400Y-83540600D02*
X19202400Y-83540600D01*
X21996400Y-87350600D02*
X23299400Y-87350600D01*
X17899400Y-87350600D02*
X19202400Y-87350600D01*
X26083311Y-86207600D02*
X26187400Y-86207600D01*
X43299400Y-74015600D02*
X44323000Y-74015600D01*
X44323000Y-74015600D02*
X44780200Y-74472800D01*
X41046400Y-77563298D02*
X41046400Y-76987400D01*
X41046400Y-76987400D02*
X41402000Y-76631800D01*
X41046400Y-77563298D02*
X39581502Y-77563298D01*
X39581502Y-77563298D02*
X39522400Y-77622400D01*
X26083311Y-86207600D02*
X25598378Y-86207600D01*
X21849078Y-84810600D02*
X23299400Y-84810600D01*
X25598378Y-86207600D02*
X25153877Y-86652101D01*
X25153877Y-86652101D02*
X22293579Y-86652101D01*
X22293579Y-86652101D02*
X21424899Y-85783421D01*
X21424899Y-85783421D02*
X21424899Y-85234779D01*
X21424899Y-85234779D02*
X21849078Y-84810600D01*
X35204400Y-79603600D02*
X26187400Y-79603600D01*
X39522400Y-79603600D02*
X36647100Y-79603600D01*
X43299400Y-74015600D02*
X43749400Y-74015600D01*
X24544702Y-71475600D02*
X24544702Y-71960533D01*
X24544702Y-71960533D02*
X24390236Y-72114999D01*
X24390236Y-72114999D02*
X23477601Y-72114999D01*
X23477601Y-72114999D02*
X23299400Y-72293200D01*
X23299400Y-72293200D02*
X23299400Y-72745600D01*
X23299400Y-82270600D02*
X22849400Y-82270600D01*
X22849400Y-82270600D02*
X22320799Y-81741999D01*
X22320799Y-81741999D02*
X22320799Y-79408262D01*
X21996400Y-73444100D02*
X23180300Y-73444100D01*
X23180300Y-73444100D02*
X23299400Y-73563200D01*
X23299400Y-73563200D02*
X23299400Y-74015600D01*
X17899400Y-71475600D02*
X19202400Y-71475600D01*
X21996400Y-75285600D02*
X23299400Y-75285600D01*
X17899400Y-75285600D02*
X19202400Y-75285600D01*
X23299400Y-76555600D02*
X22420578Y-76555600D01*
X22420578Y-76555600D02*
X21424899Y-75559921D01*
X21424899Y-75559921D02*
X21424899Y-72900101D01*
X21424899Y-72900101D02*
X22849400Y-71475600D01*
X22849400Y-71475600D02*
X23299400Y-71475600D01*
X42054098Y-96875600D02*
X42054098Y-96659420D01*
X42054098Y-96659420D02*
X43107918Y-95605600D01*
X43107918Y-95605600D02*
X43299400Y-95605600D01*
X23299400Y-70205600D02*
X23299400Y-70658000D01*
X23299400Y-70658000D02*
X23545499Y-70904099D01*
X23545499Y-70904099D02*
X25234899Y-70904099D01*
X25234899Y-70904099D02*
X25298400Y-70967600D01*
X33426400Y-90385900D02*
X33426400Y-88620600D01*
X33426400Y-88620600D02*
X33426400Y-81000600D01*
X33426400Y-77812900D02*
X33426400Y-76555600D01*
X33426400Y-76555600D02*
X33426400Y-68935600D01*
X32156400Y-60045600D02*
X30599400Y-60045600D01*
X31049400Y-98145600D02*
X33426400Y-95768600D01*
X33426400Y-95768600D02*
X33426400Y-92430600D01*
X30599400Y-98145600D02*
X31049400Y-98145600D01*
X32588200Y-77343000D02*
X32588200Y-76858067D01*
X32588200Y-76858067D02*
X32588197Y-76858064D01*
X32588197Y-76858064D02*
X32588197Y-76555600D01*
X32588197Y-76555600D02*
X32588197Y-68935600D01*
X32588197Y-84541803D02*
X32588197Y-81000600D01*
X32156400Y-58775600D02*
X30599400Y-58775600D01*
X30599400Y-86080600D02*
X31049400Y-86080600D01*
X31049400Y-86080600D02*
X32588197Y-84541803D01*
X46824899Y-93383101D02*
X46507398Y-93065600D01*
X46507398Y-93065600D02*
X43299400Y-93065600D01*
X48699400Y-96875600D02*
X47820578Y-96875600D01*
X47820578Y-96875600D02*
X46824899Y-95879921D01*
X46824899Y-95879921D02*
X46824899Y-93383101D01*
X43749400Y-93065600D02*
X43299400Y-93065600D01*
X48699400Y-100685600D02*
X47797000Y-100685600D01*
X46126400Y-94335600D02*
X43299400Y-94335600D01*
X47797000Y-100685600D02*
X46380400Y-99269000D01*
X46380400Y-99269000D02*
X46380400Y-94589600D01*
X46380400Y-94589600D02*
X46126400Y-94335600D01*
X43749400Y-94335600D02*
X43299400Y-94335600D01*
X44856400Y-76047600D02*
X45440590Y-75463410D01*
X45440590Y-75463410D02*
X45440590Y-72059790D01*
X45440590Y-72059790D02*
X45237400Y-71856600D01*
X45237400Y-71856600D02*
X44638400Y-71856600D01*
X44638400Y-71856600D02*
X43749400Y-72745600D01*
X43749400Y-72745600D02*
X43299400Y-72745600D01*
X43299400Y-87350600D02*
X43749400Y-87350600D01*
X43749400Y-87350600D02*
X44278001Y-86821999D01*
X44278001Y-86821999D02*
X44278001Y-83057719D01*
X44278001Y-83057719D02*
X44062382Y-82842100D01*
X44062382Y-82842100D02*
X41300400Y-82842100D01*
X48699400Y-88620600D02*
X47797000Y-88620600D01*
X47797000Y-88620600D02*
X46456590Y-87280190D01*
X46456590Y-87280190D02*
X46456590Y-82600790D01*
X46456590Y-82600790D02*
X46126400Y-82270600D01*
X46126400Y-82270600D02*
X43299400Y-82270600D01*
X46761400Y-81000600D02*
X43299400Y-81000600D01*
X46761400Y-83775000D02*
X46761400Y-81000600D01*
X48699400Y-84810600D02*
X47797000Y-84810600D01*
X47797000Y-84810600D02*
X46761400Y-83775000D01*
X43299400Y-84810600D02*
X43299400Y-83540600D01*
X42054098Y-72745600D02*
X42054098Y-72260667D01*
X43299400Y-71928000D02*
X43299400Y-71475600D01*
X42054098Y-72260667D02*
X42097766Y-72216999D01*
X42097766Y-72216999D02*
X43010401Y-72216999D01*
X43010401Y-72216999D02*
X43299400Y-71928000D01*
X43299400Y-86080600D02*
X43107918Y-86080600D01*
X43107918Y-86080600D02*
X41300400Y-84273082D01*
X41300400Y-84273082D02*
X41300400Y-84175600D01*
X32016697Y-70205600D02*
X32016697Y-70161415D01*
X32016697Y-70161415D02*
X31826200Y-69970918D01*
X31826200Y-69970918D02*
X31826200Y-69519800D01*
X28981400Y-57505600D02*
X30599400Y-57505600D01*
X30599400Y-74015600D02*
X31049400Y-74015600D01*
X31049400Y-74015600D02*
X32016697Y-73048303D01*
X32016697Y-73048303D02*
X32016697Y-70205600D01*
X48699400Y-76555600D02*
X47820578Y-76555600D01*
X47820578Y-76555600D02*
X46456590Y-75191612D01*
X46456590Y-75191612D02*
X46456590Y-70205600D01*
X46456590Y-70205600D02*
X43299400Y-70205600D01*
X46761400Y-68935600D02*
X43299400Y-68935600D01*
X46761400Y-71710000D02*
X46761400Y-68935600D01*
X48699400Y-72745600D02*
X47797000Y-72745600D01*
X47797000Y-72745600D02*
X46761400Y-71710000D01*
X42899920Y-98145600D02*
X43299400Y-98145600D01*
M02*
