M48
;DRILL file {KiCad 4.0.7} date Mon Mar 26 00:48:36 2018
;FORMAT={-:-/ absolute / inch / decimal}
FMAT,2
INCH,TZ
T1C0.013
T2C0.039
T3C0.040
%
G90
G05
M72
T1
X0.656Y-2.714
X0.656Y-2.864
X0.656Y-3.189
X0.656Y-3.339
X0.656Y-3.664
X0.656Y-3.814
X0.6765Y-1.643
X0.716Y-1.004
X0.756Y-2.714
X0.756Y-2.764
X0.756Y-2.814
X0.756Y-2.864
X0.756Y-2.922
X0.756Y-2.964
X0.756Y-3.189
X0.756Y-3.239
X0.756Y-3.289
X0.756Y-3.339
X0.756Y-3.395
X0.756Y-3.439
X0.756Y-3.664
X0.756Y-3.714
X0.756Y-3.764
X0.756Y-3.814
X0.756Y-3.873
X0.756Y-3.914
X0.756Y-3.964
X0.786Y-3.584
X0.786Y-4.489
X0.786Y-4.694
X0.866Y-2.8915
X0.866Y-2.964
X0.866Y-3.3665
X0.866Y-3.439
X0.866Y-3.8415
X0.866Y-3.914
X0.8788Y-3.1263
X0.886Y-4.489
X0.906Y-3.584
X0.948Y-2.268
X0.966Y-3.289
X0.9663Y-2.714
X0.9663Y-2.764
X0.9663Y-2.814
X0.9663Y-2.864
X0.9663Y-2.914
X0.9663Y-3.189
X0.9663Y-3.239
X0.9663Y-3.339
X0.9663Y-3.389
X0.9663Y-3.664
X0.9663Y-3.714
X0.9663Y-3.764
X0.9663Y-3.814
X0.9663Y-3.864
X0.9663Y-3.964
X0.986Y-4.489
X0.996Y-2.794
X1.0033Y-2.564
X1.031Y-3.134
X1.031Y-3.394
X1.086Y-4.489
X1.141Y-2.264
X1.186Y-4.489
X1.253Y-2.737
X1.266Y-2.314
X1.266Y-2.364
X1.283Y-2.714
X1.283Y-3.189
X1.283Y-3.045
X1.286Y-4.489
X1.316Y-2.714
X1.316Y-3.014
X1.316Y-3.189
X1.316Y-3.489
X1.316Y-3.639
X1.356Y-2.599
X1.356Y-3.014
X1.356Y-3.189
X1.356Y-3.489
X1.356Y-3.664
X1.356Y-4.004
X1.361Y-2.214
X1.386Y-3.134
X1.386Y-4.489
X1.4428Y-3.134
X1.466Y-2.964
X1.466Y-3.439
X1.466Y-3.914
X1.466Y-3.914
X1.486Y-4.489
X1.491Y-3.014
X1.491Y-3.489
X1.491Y-3.964
X1.516Y-3.049
X1.516Y-3.539
X1.516Y-3.994
X1.556Y-3.056
X1.556Y-3.134
X1.586Y-4.489
X1.607Y-2.814
X1.626Y-3.2615
X1.626Y-3.314
X1.63Y-3.017
X1.6557Y-2.9867
X1.6557Y-2.764
X1.6557Y-2.864
X1.6557Y-2.914
X1.6557Y-3.289
X1.6557Y-3.389
X1.6557Y-3.439
X1.6557Y-3.714
X1.6557Y-3.764
X1.6557Y-3.814
X1.6557Y-3.864
X1.6557Y-3.914
X1.6557Y-3.227
X1.686Y-4.489
X1.763Y-2.932
X1.766Y-2.994
X1.786Y-4.489
X1.801Y-2.7915
X1.866Y-2.764
X1.866Y-2.814
X1.866Y-2.914
X1.866Y-2.964
X1.866Y-3.239
X1.866Y-3.289
X1.866Y-3.389
X1.866Y-3.439
X1.866Y-3.714
X1.866Y-3.764
X1.866Y-3.864
X1.866Y-3.914
X1.886Y-4.489
X1.886Y-4.694
X1.966Y-2.814
X1.966Y-2.964
X1.966Y-3.289
X1.966Y-3.439
X1.966Y-3.764
X1.966Y-3.914
T2
X0.686Y-4.189
X0.686Y-4.289
X0.716Y-2.259
X0.716Y-2.359
X0.716Y-2.459
X0.716Y-2.559
X0.786Y-4.189
X0.786Y-4.289
X0.796Y-0.824
X0.796Y-0.924
X0.796Y-1.024
X0.796Y-1.124
X0.796Y-1.224
X0.796Y-1.324
X0.796Y-1.424
X0.796Y-1.524
X0.796Y-1.624
X0.796Y-1.724
X0.796Y-1.824
X0.796Y-1.924
X0.816Y-2.259
X0.816Y-2.359
X0.816Y-2.459
X0.816Y-2.559
X0.886Y-4.189
X0.886Y-4.289
X0.986Y-4.189
X0.986Y-4.289
X1.086Y-4.189
X1.086Y-4.289
X1.186Y-4.189
X1.186Y-4.289
X1.286Y-4.189
X1.286Y-4.289
X1.386Y-4.189
X1.386Y-4.289
X1.486Y-4.189
X1.486Y-4.289
X1.586Y-4.189
X1.586Y-4.289
X1.686Y-4.189
X1.686Y-4.289
X1.786Y-4.189
X1.786Y-4.289
X1.796Y-0.824
X1.796Y-0.924
X1.796Y-1.024
X1.796Y-1.124
X1.796Y-1.224
X1.796Y-1.324
X1.796Y-1.424
X1.796Y-1.524
X1.796Y-1.624
X1.796Y-1.724
X1.796Y-1.824
X1.796Y-1.924
X1.861Y-2.419
X1.861Y-2.519
X1.886Y-4.189
X1.886Y-4.289
T3
X0.946Y-0.824
X0.946Y-0.924
X0.946Y-1.024
X0.946Y-1.124
X0.946Y-1.224
X0.946Y-1.324
X0.946Y-1.424
X0.946Y-1.524
X0.946Y-1.624
X0.946Y-1.724
X0.946Y-1.824
X0.946Y-1.924
X1.646Y-0.824
X1.646Y-0.924
X1.646Y-1.024
X1.646Y-1.124
X1.646Y-1.224
X1.646Y-1.324
X1.646Y-1.424
X1.646Y-1.524
X1.646Y-1.624
X1.646Y-1.724
X1.646Y-1.824
X1.646Y-1.924
T0
M30
