solid Graduation Plan
facet normal -0.6087614290088003 -0.7933533402911743 -0.0
  outer loop
    vertex 1034.5330966025438 1824.004456991896 4.999999999999999
    vertex 1033.3940093060178 1824.8785094161847 1.9999999999999998
    vertex 1034.5330966025438 1824.004456991896 1.9999999999999998
  endloop
endfacet
facet normal -0.6087614290088003 -0.7933533402911743 -0.0
  outer loop
    vertex 1033.3940093060178 1824.8785094161847 1.9999999999999998
    vertex 1034.5330966025438 1824.004456991896 4.999999999999999
    vertex 1033.3940093060178 1824.8785094161847 4.999999999999999
  endloop
endfacet
facet normal 0.6087614290088003 -0.7933533402911743 0.0
  outer loop
    vertex 1027.894009306018 1824.8785094161847 4.999999999999999
    vertex 1026.754922009492 1824.004456991896 1.9999999999999998
    vertex 1027.894009306018 1824.8785094161847 1.9999999999999998
  endloop
endfacet
facet normal 0.6087614290088003 -0.7933533402911743 0.0
  outer loop
    vertex 1026.754922009492 1824.004456991896 1.9999999999999998
    vertex 1027.894009306018 1824.8785094161847 4.999999999999999
    vertex 1026.754922009492 1824.004456991896 4.999999999999999
  endloop
endfacet
facet normal 0.38268343236514535 -0.9238795325112638 0.0
  outer loop
    vertex 1029.220504557954 1825.42796173996 4.999999999999999
    vertex 1027.894009306018 1824.8785094161847 1.9999999999999998
    vertex 1029.220504557954 1825.42796173996 1.9999999999999998
  endloop
endfacet
facet normal 0.38268343236514535 -0.9238795325112638 0.0
  outer loop
    vertex 1027.894009306018 1824.8785094161847 1.9999999999999998
    vertex 1029.220504557954 1825.42796173996 4.999999999999999
    vertex 1027.894009306018 1824.8785094161847 4.999999999999999
  endloop
endfacet
facet normal 0.1305261922199587 -0.9914448613738227 0.0
  outer loop
    vertex 1030.6440093060178 1825.61536969537 4.999999999999999
    vertex 1029.220504557954 1825.42796173996 1.9999999999999998
    vertex 1030.6440093060178 1825.61536969537 1.9999999999999998
  endloop
endfacet
facet normal 0.1305261922199587 -0.9914448613738227 0.0
  outer loop
    vertex 1029.220504557954 1825.42796173996 1.9999999999999998
    vertex 1030.6440093060178 1825.61536969537 4.999999999999999
    vertex 1029.220504557954 1825.42796173996 4.999999999999999
  endloop
endfacet
facet normal -0.7933533402912208 -0.6087614290087395 -0.0
  outer loop
    vertex 1034.5330966025438 1824.004456991896 4.999999999999999
    vertex 1035.4071490268323 1822.86536969537 1.9999999999999998
    vertex 1035.4071490268323 1822.86536969537 4.999999999999999
  endloop
endfacet
facet normal -0.7933533402912208 -0.6087614290087395 -0.0
  outer loop
    vertex 1035.4071490268323 1822.86536969537 1.9999999999999998
    vertex 1034.5330966025438 1824.004456991896 4.999999999999999
    vertex 1034.5330966025438 1824.004456991896 1.9999999999999998
  endloop
endfacet
facet normal -0.38268343236514535 -0.9238795325112638 -0.0
  outer loop
    vertex 1033.3940093060178 1824.8785094161847 4.999999999999999
    vertex 1032.0675140540816 1825.42796173996 1.9999999999999998
    vertex 1033.3940093060178 1824.8785094161847 1.9999999999999998
  endloop
endfacet
facet normal -0.38268343236514535 -0.9238795325112638 -0.0
  outer loop
    vertex 1032.0675140540816 1825.42796173996 1.9999999999999998
    vertex 1033.3940093060178 1824.8785094161847 4.999999999999999
    vertex 1032.0675140540816 1825.42796173996 4.999999999999999
  endloop
endfacet
facet normal 0.0 0.0 1.0
  outer loop
    vertex 1025.6440093060178 1811.4551156575255 4.999999999999999
    vertex 1025.144009306018 1820.1153696953702 4.999999999999999
    vertex 1023.5729414941522 1813.0443018835047 4.999999999999999
  endloop
endfacet
facet normal 0.0 0.0 1.0
  outer loop
    vertex 1025.144009306018 1820.1153696953702 4.999999999999999
    vertex 1025.6440093060178 1811.4551156575255 4.999999999999999
    vertex 1025.3314172614282 1818.6918649473066 4.999999999999999
  endloop
endfacet
facet normal 0.0 0.0 1.0
  outer loop
    vertex 1025.3314172614282 1818.6918649473066 4.999999999999999
    vertex 1025.6440093060178 1811.4551156575255 4.999999999999999
    vertex 1025.8808695852035 1817.3653696953704 4.999999999999999
  endloop
endfacet
facet normal 0.0 0.0 1.0
  outer loop
    vertex 1025.8808695852035 1817.3653696953704 4.999999999999999
    vertex 1025.6440093060178 1811.4551156575255 4.999999999999999
    vertex 1028.0558188549926 1810.4561114324792 4.999999999999999
  endloop
endfacet
facet normal 0.0 0.0 1.0
  outer loop
    vertex 1025.8808695852035 1817.3653696953704 4.999999999999999
    vertex 1028.0558188549926 1810.4561114324792 4.999999999999999
    vertex 1026.754922009492 1816.2262823988444 4.999999999999999
  endloop
endfacet
facet normal 0.0 0.0 1.0
  outer loop
    vertex 1026.754922009492 1816.2262823988444 4.999999999999999
    vertex 1028.0558188549926 1810.4561114324792 4.999999999999999
    vertex 1027.894009306018 1815.352229974556 4.999999999999999
  endloop
endfacet
facet normal 0.0 0.0 1.0
  outer loop
    vertex 1027.894009306018 1815.352229974556 4.999999999999999
    vertex 1028.0558188549926 1810.4561114324792 4.999999999999999
    vertex 1029.220504557954 1814.8027776507804 4.999999999999999
  endloop
endfacet
facet normal 0.0 0.0 1.0
  outer loop
    vertex 1029.220504557954 1814.8027776507804 4.999999999999999
    vertex 1028.0558188549926 1810.4561114324792 4.999999999999999
    vertex 1030.6440093060178 1810.1153696953704 4.999999999999999
  endloop
endfacet
facet normal 0.0 0.0 1.0
  outer loop
    vertex 1029.220504557954 1814.8027776507804 4.999999999999999
    vertex 1030.6440093060178 1810.1153696953704 4.999999999999999
    vertex 1030.6440093060178 1814.6153696953704 4.999999999999999
  endloop
endfacet
facet normal 0.0 0.0 1.0
  outer loop
    vertex 1030.6440093060178 1814.6153696953704 4.999999999999999
    vertex 1030.6440093060178 1810.1153696953704 4.999999999999999
    vertex 1033.232199757043 1810.4561114324792 4.999999999999999
  endloop
endfacet
facet normal 0.0 0.0 1.0
  outer loop
    vertex 1030.6440093060178 1814.6153696953704 4.999999999999999
    vertex 1033.232199757043 1810.4561114324792 4.999999999999999
    vertex 1032.0675140540816 1814.8027776507804 4.999999999999999
  endloop
endfacet
facet normal 0.0 0.0 1.0
  outer loop
    vertex 1032.0675140540816 1814.8027776507804 4.999999999999999
    vertex 1033.232199757043 1810.4561114324792 4.999999999999999
    vertex 1033.3940093060178 1815.352229974556 4.999999999999999
  endloop
endfacet
facet normal 0.0 0.0 1.0
  outer loop
    vertex 1033.3940093060178 1815.352229974556 4.999999999999999
    vertex 1033.232199757043 1810.4561114324792 4.999999999999999
    vertex 1035.6440093060178 1811.4551156575255 4.999999999999999
  endloop
endfacet
facet normal 0.0 0.0 1.0
  outer loop
    vertex 1033.3940093060178 1815.352229974556 4.999999999999999
    vertex 1035.6440093060178 1811.4551156575255 4.999999999999999
    vertex 1034.5330966025438 1816.2262823988444 4.999999999999999
  endloop
endfacet
facet normal 0.0 0.0 1.0
  outer loop
    vertex 1034.5330966025438 1816.2262823988444 4.999999999999999
    vertex 1035.6440093060178 1811.4551156575255 4.999999999999999
    vertex 1035.4071490268323 1817.3653696953702 4.999999999999999
  endloop
endfacet
facet normal 0.0 0.0 1.0
  outer loop
    vertex 1035.4071490268323 1817.3653696953702 4.999999999999999
    vertex 1035.6440093060178 1811.4551156575255 4.999999999999999
    vertex 1035.9566013506076 1818.6918649473066 4.999999999999999
  endloop
endfacet
facet normal 0.0 0.0 1.0
  outer loop
    vertex 1035.9566013506076 1818.6918649473066 4.999999999999999
    vertex 1035.6440093060178 1811.4551156575255 4.999999999999999
    vertex 1037.7150771178833 1813.0443018835047 4.999999999999999
  endloop
endfacet
facet normal 0.0 0.0 1.0
  outer loop
    vertex 1035.9566013506076 1818.6918649473066 4.999999999999999
    vertex 1037.7150771178833 1813.0443018835047 4.999999999999999
    vertex 1036.1440093060178 1820.1153696953702 4.999999999999999
  endloop
endfacet
facet normal 0.0 0.0 1.0
  outer loop
    vertex 1020.9847510431271 1817.527179244345 4.999999999999999
    vertex 1020.6440093060178 1847.2153696953703 4.999999999999999
    vertex 1020.6440093060178 1820.1153696953702 4.999999999999999
  endloop
endfacet
facet normal 0.0 0.0 1.0
  outer loop
    vertex 1020.6440093060178 1847.2153696953703 4.999999999999999
    vertex 1020.9847510431271 1817.527179244345 4.999999999999999
    vertex 1040.644009306018 1847.2153696953703 4.999999999999999
  endloop
endfacet
facet normal 0.0 0.0 1.0
  outer loop
    vertex 1040.644009306018 1847.2153696953703 4.999999999999999
    vertex 1020.9847510431271 1817.527179244345 4.999999999999999
    vertex 1025.8808695852035 1822.8653696953704 4.999999999999999
  endloop
endfacet
facet normal 0.0 0.0 1.0
  outer loop
    vertex 1025.8808695852035 1822.8653696953704 4.999999999999999
    vertex 1020.9847510431271 1817.527179244345 4.999999999999999
    vertex 1021.9837552681734 1815.1153696953702 4.999999999999999
  endloop
endfacet
facet normal 0.0 0.0 1.0
  outer loop
    vertex 1025.8808695852035 1822.8653696953704 4.999999999999999
    vertex 1021.9837552681734 1815.1153696953702 4.999999999999999
    vertex 1025.3314172614282 1821.538874443434 4.999999999999999
  endloop
endfacet
facet normal 0.0 0.0 1.0
  outer loop
    vertex 1025.3314172614282 1821.538874443434 4.999999999999999
    vertex 1021.9837552681734 1815.1153696953702 4.999999999999999
    vertex 1023.5729414941522 1813.0443018835047 4.999999999999999
  endloop
endfacet
facet normal 0.0 0.0 1.0
  outer loop
    vertex 1025.3314172614282 1821.538874443434 4.999999999999999
    vertex 1023.5729414941522 1813.0443018835047 4.999999999999999
    vertex 1025.144009306018 1820.1153696953702 4.999999999999999
  endloop
endfacet
facet normal 0.0 0.0 1.0
  outer loop
    vertex 1040.644009306018 1847.2153696953703 4.999999999999999
    vertex 1025.8808695852035 1822.8653696953704 4.999999999999999
    vertex 1026.754922009492 1824.004456991896 4.999999999999999
  endloop
endfacet
facet normal 0.0 0.0 1.0
  outer loop
    vertex 1040.644009306018 1847.2153696953703 4.999999999999999
    vertex 1026.754922009492 1824.004456991896 4.999999999999999
    vertex 1027.894009306018 1824.8785094161847 4.999999999999999
  endloop
endfacet
facet normal 0.0 0.0 1.0
  outer loop
    vertex 1040.644009306018 1847.2153696953703 4.999999999999999
    vertex 1027.894009306018 1824.8785094161847 4.999999999999999
    vertex 1029.220504557954 1825.42796173996 4.999999999999999
  endloop
endfacet
facet normal 0.0 0.0 1.0
  outer loop
    vertex 1040.644009306018 1847.2153696953703 4.999999999999999
    vertex 1029.220504557954 1825.42796173996 4.999999999999999
    vertex 1030.6440093060178 1825.61536969537 4.999999999999999
  endloop
endfacet
facet normal 0.0 0.0 1.0
  outer loop
    vertex 1040.644009306018 1847.2153696953703 4.999999999999999
    vertex 1030.6440093060178 1825.61536969537 4.999999999999999
    vertex 1032.0675140540816 1825.42796173996 4.999999999999999
  endloop
endfacet
facet normal 0.0 0.0 1.0
  outer loop
    vertex 1040.644009306018 1847.2153696953703 4.999999999999999
    vertex 1032.0675140540816 1825.42796173996 4.999999999999999
    vertex 1033.3940093060178 1824.8785094161847 4.999999999999999
  endloop
endfacet
facet normal 0.0 0.0 1.0
  outer loop
    vertex 1040.644009306018 1847.2153696953703 4.999999999999999
    vertex 1033.3940093060178 1824.8785094161847 4.999999999999999
    vertex 1034.5330966025438 1824.004456991896 4.999999999999999
  endloop
endfacet
facet normal 0.0 0.0 1.0
  outer loop
    vertex 1040.644009306018 1847.2153696953703 4.999999999999999
    vertex 1034.5330966025438 1824.004456991896 4.999999999999999
    vertex 1035.4071490268323 1822.86536969537 4.999999999999999
  endloop
endfacet
facet normal 0.0 0.0 1.0
  outer loop
    vertex 1040.644009306018 1847.2153696953703 4.999999999999999
    vertex 1035.4071490268323 1822.86536969537 4.999999999999999
    vertex 1035.9566013506076 1821.538874443434 4.999999999999999
  endloop
endfacet
facet normal 0.0 0.0 1.0
  outer loop
    vertex 1040.644009306018 1847.2153696953703 4.999999999999999
    vertex 1035.9566013506076 1821.538874443434 4.999999999999999
    vertex 1036.1440093060178 1820.1153696953702 4.999999999999999
  endloop
endfacet
facet normal 0.0 0.0 1.0
  outer loop
    vertex 1040.644009306018 1847.2153696953703 4.999999999999999
    vertex 1036.1440093060178 1820.1153696953702 4.999999999999999
    vertex 1037.7150771178833 1813.0443018835047 4.999999999999999
  endloop
endfacet
facet normal 0.0 0.0 1.0
  outer loop
    vertex 1040.644009306018 1847.2153696953703 4.999999999999999
    vertex 1037.7150771178833 1813.0443018835047 4.999999999999999
    vertex 1039.3042633438622 1815.1153696953702 4.999999999999999
  endloop
endfacet
facet normal 0.0 0.0 1.0
  outer loop
    vertex 1040.644009306018 1847.2153696953703 4.999999999999999
    vertex 1039.3042633438622 1815.1153696953702 4.999999999999999
    vertex 1040.3032675689085 1817.527179244345 4.999999999999999
  endloop
endfacet
facet normal 0.0 0.0 1.0
  outer loop
    vertex 1040.644009306018 1847.2153696953703 4.999999999999999
    vertex 1040.3032675689085 1817.527179244345 4.999999999999999
    vertex 1040.644009306018 1820.1153696953702 4.999999999999999
  endloop
endfacet
facet normal -0.9238795325113083 -0.3826834323650381 -0.0
  outer loop
    vertex 1035.4071490268323 1822.86536969537 4.999999999999999
    vertex 1035.9566013506076 1821.538874443434 1.9999999999999998
    vertex 1035.9566013506076 1821.538874443434 4.999999999999999
  endloop
endfacet
facet normal -0.9238795325113083 -0.3826834323650381 -0.0
  outer loop
    vertex 1035.9566013506076 1821.538874443434 1.9999999999999998
    vertex 1035.4071490268323 1822.86536969537 4.999999999999999
    vertex 1035.4071490268323 1822.86536969537 1.9999999999999998
  endloop
endfacet
facet normal -0.9914448613738044 -0.13052619222009854 -0.0
  outer loop
    vertex 1035.9566013506076 1821.538874443434 4.999999999999999
    vertex 1036.1440093060178 1820.1153696953702 1.9999999999999998
    vertex 1036.1440093060178 1820.1153696953702 4.999999999999999
  endloop
endfacet
facet normal -0.9914448613738044 -0.13052619222009854 -0.0
  outer loop
    vertex 1036.1440093060178 1820.1153696953702 1.9999999999999998
    vertex 1035.9566013506076 1821.538874443434 4.999999999999999
    vertex 1035.9566013506076 1821.538874443434 1.9999999999999998
  endloop
endfacet
facet normal -0.9914448613738044 0.13052619222009854 0.0
  outer loop
    vertex 1036.1440093060178 1820.1153696953702 4.999999999999999
    vertex 1035.9566013506076 1818.6918649473066 1.9999999999999998
    vertex 1035.9566013506076 1818.6918649473066 4.999999999999999
  endloop
endfacet
facet normal -0.9914448613738044 0.13052619222009854 0.0
  outer loop
    vertex 1035.9566013506076 1818.6918649473066 1.9999999999999998
    vertex 1036.1440093060178 1820.1153696953702 4.999999999999999
    vertex 1036.1440093060178 1820.1153696953702 1.9999999999999998
  endloop
endfacet
facet normal -0.923879532511345 0.38268343236494917 0.0
  outer loop
    vertex 1035.9566013506076 1818.6918649473066 4.999999999999999
    vertex 1035.4071490268323 1817.3653696953702 1.9999999999999998
    vertex 1035.4071490268323 1817.3653696953702 4.999999999999999
  endloop
endfacet
facet normal -0.923879532511345 0.38268343236494917 0.0
  outer loop
    vertex 1035.4071490268323 1817.3653696953702 1.9999999999999998
    vertex 1035.9566013506076 1818.6918649473066 4.999999999999999
    vertex 1035.9566013506076 1818.6918649473066 1.9999999999999998
  endloop
endfacet
facet normal -0.7933533402911276 0.6087614290088609 0.0
  outer loop
    vertex 1035.4071490268323 1817.3653696953702 4.999999999999999
    vertex 1034.5330966025438 1816.2262823988444 1.9999999999999998
    vertex 1034.5330966025438 1816.2262823988444 4.999999999999999
  endloop
endfacet
facet normal -0.7933533402911276 0.6087614290088609 0.0
  outer loop
    vertex 1034.5330966025438 1816.2262823988444 1.9999999999999998
    vertex 1035.4071490268323 1817.3653696953702 4.999999999999999
    vertex 1035.4071490268323 1817.3653696953702 1.9999999999999998
  endloop
endfacet
facet normal -0.6087614290088003 0.7933533402911743 0.0
  outer loop
    vertex 1033.3940093060178 1815.352229974556 4.999999999999999
    vertex 1034.5330966025438 1816.2262823988444 1.9999999999999998
    vertex 1033.3940093060178 1815.352229974556 1.9999999999999998
  endloop
endfacet
facet normal -0.6087614290088003 0.7933533402911743 0.0
  outer loop
    vertex 1034.5330966025438 1816.2262823988444 1.9999999999999998
    vertex 1033.3940093060178 1815.352229974556 4.999999999999999
    vertex 1034.5330966025438 1816.2262823988444 4.999999999999999
  endloop
endfacet
facet normal -0.38268343236514535 0.9238795325112638 0.0
  outer loop
    vertex 1032.0675140540816 1814.8027776507804 4.999999999999999
    vertex 1033.3940093060178 1815.352229974556 1.9999999999999998
    vertex 1032.0675140540816 1814.8027776507804 1.9999999999999998
  endloop
endfacet
facet normal -0.38268343236514535 0.9238795325112638 0.0
  outer loop
    vertex 1033.3940093060178 1815.352229974556 1.9999999999999998
    vertex 1032.0675140540816 1814.8027776507804 4.999999999999999
    vertex 1033.3940093060178 1815.352229974556 4.999999999999999
  endloop
endfacet
facet normal -0.1305261922199587 0.9914448613738227 0.0
  outer loop
    vertex 1030.6440093060178 1814.6153696953704 4.999999999999999
    vertex 1032.0675140540816 1814.8027776507804 1.9999999999999998
    vertex 1030.6440093060178 1814.6153696953704 1.9999999999999998
  endloop
endfacet
facet normal -0.1305261922199587 0.9914448613738227 0.0
  outer loop
    vertex 1032.0675140540816 1814.8027776507804 1.9999999999999998
    vertex 1030.6440093060178 1814.6153696953704 4.999999999999999
    vertex 1032.0675140540816 1814.8027776507804 4.999999999999999
  endloop
endfacet
facet normal 0.1305261922199587 0.9914448613738227 0.0
  outer loop
    vertex 1029.220504557954 1814.8027776507804 4.999999999999999
    vertex 1030.6440093060178 1814.6153696953704 1.9999999999999998
    vertex 1029.220504557954 1814.8027776507804 1.9999999999999998
  endloop
endfacet
facet normal 0.1305261922199587 0.9914448613738227 0.0
  outer loop
    vertex 1030.6440093060178 1814.6153696953704 1.9999999999999998
    vertex 1029.220504557954 1814.8027776507804 4.999999999999999
    vertex 1030.6440093060178 1814.6153696953704 4.999999999999999
  endloop
endfacet
facet normal 0.38268343236514535 0.9238795325112638 0.0
  outer loop
    vertex 1027.894009306018 1815.352229974556 4.999999999999999
    vertex 1029.220504557954 1814.8027776507804 1.9999999999999998
    vertex 1027.894009306018 1815.352229974556 1.9999999999999998
  endloop
endfacet
facet normal 0.38268343236514535 0.9238795325112638 0.0
  outer loop
    vertex 1029.220504557954 1814.8027776507804 1.9999999999999998
    vertex 1027.894009306018 1815.352229974556 4.999999999999999
    vertex 1029.220504557954 1814.8027776507804 4.999999999999999
  endloop
endfacet
facet normal 0.6087614290088003 0.7933533402911743 0.0
  outer loop
    vertex 1026.754922009492 1816.2262823988444 4.999999999999999
    vertex 1027.894009306018 1815.352229974556 1.9999999999999998
    vertex 1026.754922009492 1816.2262823988444 1.9999999999999998
  endloop
endfacet
facet normal 0.6087614290088003 0.7933533402911743 0.0
  outer loop
    vertex 1027.894009306018 1815.352229974556 1.9999999999999998
    vertex 1026.754922009492 1816.2262823988444 4.999999999999999
    vertex 1027.894009306018 1815.352229974556 4.999999999999999
  endloop
endfacet
facet normal 0.7933533402912208 0.6087614290087395 0.0
  outer loop
    vertex 1025.8808695852035 1817.3653696953704 1.9999999999999998
    vertex 1026.754922009492 1816.2262823988444 4.999999999999999
    vertex 1026.754922009492 1816.2262823988444 1.9999999999999998
  endloop
endfacet
facet normal 0.7933533402912208 0.6087614290087395 0.0
  outer loop
    vertex 1026.754922009492 1816.2262823988444 4.999999999999999
    vertex 1025.8808695852035 1817.3653696953704 1.9999999999999998
    vertex 1025.8808695852035 1817.3653696953704 4.999999999999999
  endloop
endfacet
facet normal 0.9238795325113083 0.3826834323650381 0.0
  outer loop
    vertex 1025.3314172614282 1818.6918649473066 1.9999999999999998
    vertex 1025.8808695852035 1817.3653696953704 4.999999999999999
    vertex 1025.8808695852035 1817.3653696953704 1.9999999999999998
  endloop
endfacet
facet normal 0.9238795325113083 0.3826834323650381 0.0
  outer loop
    vertex 1025.8808695852035 1817.3653696953704 4.999999999999999
    vertex 1025.3314172614282 1818.6918649473066 1.9999999999999998
    vertex 1025.3314172614282 1818.6918649473066 4.999999999999999
  endloop
endfacet
facet normal 0.9914448613738044 0.13052619222009854 0.0
  outer loop
    vertex 1025.144009306018 1820.1153696953702 1.9999999999999998
    vertex 1025.3314172614282 1818.6918649473066 4.999999999999999
    vertex 1025.3314172614282 1818.6918649473066 1.9999999999999998
  endloop
endfacet
facet normal 0.9914448613738044 0.13052619222009854 0.0
  outer loop
    vertex 1025.3314172614282 1818.6918649473066 4.999999999999999
    vertex 1025.144009306018 1820.1153696953702 1.9999999999999998
    vertex 1025.144009306018 1820.1153696953702 4.999999999999999
  endloop
endfacet
facet normal 0.9914448613738044 -0.13052619222009854 0.0
  outer loop
    vertex 1025.3314172614282 1821.538874443434 1.9999999999999998
    vertex 1025.144009306018 1820.1153696953702 4.999999999999999
    vertex 1025.144009306018 1820.1153696953702 1.9999999999999998
  endloop
endfacet
facet normal 0.9914448613738044 -0.13052619222009854 0.0
  outer loop
    vertex 1025.144009306018 1820.1153696953702 4.999999999999999
    vertex 1025.3314172614282 1821.538874443434 1.9999999999999998
    vertex 1025.3314172614282 1821.538874443434 4.999999999999999
  endloop
endfacet
facet normal 0.923879532511345 -0.38268343236494917 0.0
  outer loop
    vertex 1025.8808695852035 1822.8653696953704 1.9999999999999998
    vertex 1025.3314172614282 1821.538874443434 4.999999999999999
    vertex 1025.3314172614282 1821.538874443434 1.9999999999999998
  endloop
endfacet
facet normal 0.923879532511345 -0.38268343236494917 0.0
  outer loop
    vertex 1025.3314172614282 1821.538874443434 4.999999999999999
    vertex 1025.8808695852035 1822.8653696953704 1.9999999999999998
    vertex 1025.8808695852035 1822.8653696953704 4.999999999999999
  endloop
endfacet
facet normal 0.7933533402911276 -0.6087614290088609 0.0
  outer loop
    vertex 1026.754922009492 1824.004456991896 1.9999999999999998
    vertex 1025.8808695852035 1822.8653696953704 4.999999999999999
    vertex 1025.8808695852035 1822.8653696953704 1.9999999999999998
  endloop
endfacet
facet normal 0.7933533402911276 -0.6087614290088609 0.0
  outer loop
    vertex 1025.8808695852035 1822.8653696953704 4.999999999999999
    vertex 1026.754922009492 1824.004456991896 1.9999999999999998
    vertex 1026.754922009492 1824.004456991896 4.999999999999999
  endloop
endfacet
facet normal 0.7933533402912708 -0.608761429008674 0.0
  outer loop
    vertex 1039.3042633438622 1815.1153696953702 0.0
    vertex 1037.7150771178833 1813.0443018835047 4.999999999999999
    vertex 1037.7150771178833 1813.0443018835047 0.0
  endloop
endfacet
facet normal 0.7933533402912708 -0.608761429008674 0.0
  outer loop
    vertex 1037.7150771178833 1813.0443018835047 4.999999999999999
    vertex 1039.3042633438622 1815.1153696953702 0.0
    vertex 1039.3042633438622 1815.1153696953702 4.999999999999999
  endloop
endfacet
facet normal 0.6087614290087177 -0.7933533402912377 0.0
  outer loop
    vertex 1037.7150771178833 1813.0443018835047 4.999999999999999
    vertex 1035.6440093060178 1811.4551156575255 0.0
    vertex 1037.7150771178833 1813.0443018835047 0.0
  endloop
endfacet
facet normal 0.6087614290087177 -0.7933533402912377 0.0
  outer loop
    vertex 1035.6440093060178 1811.4551156575255 0.0
    vertex 1037.7150771178833 1813.0443018835047 4.999999999999999
    vertex 1035.6440093060178 1811.4551156575255 4.999999999999999
  endloop
endfacet
facet normal 0.3826834323650976 -0.9238795325112836 0.0
  outer loop
    vertex 1035.6440093060178 1811.4551156575255 4.999999999999999
    vertex 1033.232199757043 1810.4561114324792 0.0
    vertex 1035.6440093060178 1811.4551156575255 0.0
  endloop
endfacet
facet normal 0.3826834323650976 -0.9238795325112836 0.0
  outer loop
    vertex 1033.232199757043 1810.4561114324792 0.0
    vertex 1035.6440093060178 1811.4551156575255 4.999999999999999
    vertex 1033.232199757043 1810.4561114324792 4.999999999999999
  endloop
endfacet
facet normal -0.13052619221992245 -0.9914448613738276 -0.0
  outer loop
    vertex 1030.6440093060178 1810.1153696953704 4.999999999999999
    vertex 1028.0558188549926 1810.4561114324792 0.0
    vertex 1030.6440093060178 1810.1153696953704 0.0
  endloop
endfacet
facet normal -0.13052619221992245 -0.9914448613738276 -0.0
  outer loop
    vertex 1028.0558188549926 1810.4561114324792 0.0
    vertex 1030.6440093060178 1810.1153696953704 4.999999999999999
    vertex 1028.0558188549926 1810.4561114324792 4.999999999999999
  endloop
endfacet
facet normal -0.3826834323650732 -0.9238795325112937 -0.0
  outer loop
    vertex 1028.0558188549926 1810.4561114324792 4.999999999999999
    vertex 1025.6440093060178 1811.4551156575255 0.0
    vertex 1028.0558188549926 1810.4561114324792 0.0
  endloop
endfacet
facet normal -0.3826834323650732 -0.9238795325112937 -0.0
  outer loop
    vertex 1025.6440093060178 1811.4551156575255 0.0
    vertex 1028.0558188549926 1810.4561114324792 4.999999999999999
    vertex 1025.6440093060178 1811.4551156575255 4.999999999999999
  endloop
endfacet
facet normal -0.608761429008751 -0.793353340291212 -0.0
  outer loop
    vertex 1025.6440093060178 1811.4551156575255 4.999999999999999
    vertex 1023.5729414941522 1813.0443018835047 0.0
    vertex 1025.6440093060178 1811.4551156575255 0.0
  endloop
endfacet
facet normal -0.608761429008751 -0.793353340291212 -0.0
  outer loop
    vertex 1023.5729414941522 1813.0443018835047 0.0
    vertex 1025.6440093060178 1811.4551156575255 4.999999999999999
    vertex 1023.5729414941522 1813.0443018835047 4.999999999999999
  endloop
endfacet
facet normal -0.7933533402912708 -0.608761429008674 -0.0
  outer loop
    vertex 1021.9837552681734 1815.1153696953702 4.999999999999999
    vertex 1023.5729414941522 1813.0443018835047 0.0
    vertex 1023.5729414941522 1813.0443018835047 4.999999999999999
  endloop
endfacet
facet normal -0.7933533402912708 -0.608761429008674 -0.0
  outer loop
    vertex 1023.5729414941522 1813.0443018835047 0.0
    vertex 1021.9837552681734 1815.1153696953702 4.999999999999999
    vertex 1021.9837552681734 1815.1153696953702 0.0
  endloop
endfacet
facet normal -0.9238795325112735 -0.38268343236512214 -0.0
  outer loop
    vertex 1020.9847510431271 1817.527179244345 4.999999999999999
    vertex 1021.9837552681734 1815.1153696953702 0.0
    vertex 1021.9837552681734 1815.1153696953702 4.999999999999999
  endloop
endfacet
facet normal -0.9238795325112735 -0.38268343236512214 -0.0
  outer loop
    vertex 1021.9837552681734 1815.1153696953702 0.0
    vertex 1020.9847510431271 1817.527179244345 4.999999999999999
    vertex 1020.9847510431271 1817.527179244345 0.0
  endloop
endfacet
facet normal -0.13052619221992676 -0.9914448613738269 -0.0
  outer loop
    vertex 1031.7439902477036 1824.2205544570986 1.9999999999999998
    vertex 1030.6440093060178 1824.36536969537 0.0
    vertex 1031.7439902477036 1824.2205544570986 0.0
  endloop
endfacet
facet normal -0.13052619221992676 -0.9914448613738269 -0.0
  outer loop
    vertex 1030.6440093060178 1824.36536969537 0.0
    vertex 1031.7439902477036 1824.2205544570986 1.9999999999999998
    vertex 1030.6440093060178 1824.36536969537 1.9999999999999998
  endloop
endfacet
facet normal 0.13052619221992676 -0.9914448613738269 0.0
  outer loop
    vertex 1030.6440093060178 1824.36536969537 1.9999999999999998
    vertex 1029.544028364332 1824.2205544570986 0.0
    vertex 1030.6440093060178 1824.36536969537 0.0
  endloop
endfacet
facet normal 0.13052619221992676 -0.9914448613738269 0.0
  outer loop
    vertex 1029.544028364332 1824.2205544570986 0.0
    vertex 1030.6440093060178 1824.36536969537 1.9999999999999998
    vertex 1029.544028364332 1824.2205544570986 1.9999999999999998
  endloop
endfacet
facet normal -0.9914448613738107 -0.1305261922200494 -0.0
  outer loop
    vertex 1020.6440093060178 1820.1153696953702 4.999999999999999
    vertex 1020.9847510431271 1817.527179244345 0.0
    vertex 1020.9847510431271 1817.527179244345 4.999999999999999
  endloop
endfacet
facet normal -0.9914448613738107 -0.1305261922200494 -0.0
  outer loop
    vertex 1020.9847510431271 1817.527179244345 0.0
    vertex 1020.6440093060178 1820.1153696953702 4.999999999999999
    vertex 1020.6440093060178 1820.1153696953702 0.0
  endloop
endfacet
facet normal -1.0 0.0 0.0
  outer loop
    vertex 1020.6440093060178 1847.2153696953703 4.999999999999999
    vertex 1020.6440093060178 1820.1153696953702 0.0
    vertex 1020.6440093060178 1820.1153696953702 4.999999999999999
  endloop
endfacet
facet normal -1.0 0.0 0.0
  outer loop
    vertex 1020.6440093060178 1820.1153696953702 0.0
    vertex 1020.6440093060178 1847.2153696953703 4.999999999999999
    vertex 1020.6440093060178 1847.2153696953703 0.0
  endloop
endfacet
facet normal -0.0 1.0 0.0
  outer loop
    vertex 1020.6440093060178 1847.2153696953703 4.999999999999999
    vertex 1040.644009306018 1847.2153696953703 0.0
    vertex 1020.6440093060178 1847.2153696953703 0.0
  endloop
endfacet
facet normal -0.0 1.0 0.0
  outer loop
    vertex 1040.644009306018 1847.2153696953703 0.0
    vertex 1020.6440093060178 1847.2153696953703 4.999999999999999
    vertex 1040.644009306018 1847.2153696953703 4.999999999999999
  endloop
endfacet
facet normal 1.0 0.0 0.0
  outer loop
    vertex 1040.644009306018 1847.2153696953703 0.0
    vertex 1040.644009306018 1820.1153696953702 4.999999999999999
    vertex 1040.644009306018 1820.1153696953702 0.0
  endloop
endfacet
facet normal 1.0 0.0 0.0
  outer loop
    vertex 1040.644009306018 1820.1153696953702 4.999999999999999
    vertex 1040.644009306018 1847.2153696953703 0.0
    vertex 1040.644009306018 1847.2153696953703 4.999999999999999
  endloop
endfacet
facet normal 0.13052619221992245 -0.9914448613738276 0.0
  outer loop
    vertex 1033.232199757043 1810.4561114324792 4.999999999999999
    vertex 1030.6440093060178 1810.1153696953704 0.0
    vertex 1033.232199757043 1810.4561114324792 0.0
  endloop
endfacet
facet normal 0.13052619221992245 -0.9914448613738276 0.0
  outer loop
    vertex 1030.6440093060178 1810.1153696953704 0.0
    vertex 1033.232199757043 1810.4561114324792 4.999999999999999
    vertex 1030.6440093060178 1810.1153696953704 4.999999999999999
  endloop
endfacet
facet normal 0.7933533402913003 -0.6087614290086358 0.0
  outer loop
    vertex 1027.6388054859751 1823.120573515413 0.0
    vertex 1026.963401339934 1822.2403696953702 1.9999999999999998
    vertex 1026.963401339934 1822.2403696953702 0.0
  endloop
endfacet
facet normal 0.7933533402913003 -0.6087614290086358 0.0
  outer loop
    vertex 1026.963401339934 1822.2403696953702 1.9999999999999998
    vertex 1027.6388054859751 1823.120573515413 0.0
    vertex 1027.6388054859751 1823.120573515413 1.9999999999999998
  endloop
endfacet
facet normal 0.9238795325112872 -0.3826834323650887 0.0
  outer loop
    vertex 1026.963401339934 1822.2403696953702 0.0
    vertex 1026.5388245442894 1821.2153506370557 1.9999999999999998
    vertex 1026.5388245442894 1821.2153506370557 0.0
  endloop
endfacet
facet normal 0.9238795325112872 -0.3826834323650887 0.0
  outer loop
    vertex 1026.5388245442894 1821.2153506370557 1.9999999999999998
    vertex 1026.963401339934 1822.2403696953702 0.0
    vertex 1026.963401339934 1822.2403696953702 1.9999999999999998
  endloop
endfacet
facet normal 0.9914448613738107 -0.1305261922200494 0.0
  outer loop
    vertex 1040.644009306018 1820.1153696953702 0.0
    vertex 1040.3032675689085 1817.527179244345 4.999999999999999
    vertex 1040.3032675689085 1817.527179244345 0.0
  endloop
endfacet
facet normal 0.9914448613738107 -0.1305261922200494 0.0
  outer loop
    vertex 1040.3032675689085 1817.527179244345 4.999999999999999
    vertex 1040.644009306018 1820.1153696953702 0.0
    vertex 1040.644009306018 1820.1153696953702 4.999999999999999
  endloop
endfacet
facet normal 0.9238795325112735 -0.38268343236512214 0.0
  outer loop
    vertex 1040.3032675689085 1817.527179244345 0.0
    vertex 1039.3042633438622 1815.1153696953702 4.999999999999999
    vertex 1039.3042633438622 1815.1153696953702 0.0
  endloop
endfacet
facet normal 0.9238795325112735 -0.38268343236512214 0.0
  outer loop
    vertex 1039.3042633438622 1815.1153696953702 4.999999999999999
    vertex 1040.3032675689085 1817.527179244345 0.0
    vertex 1040.3032675689085 1817.527179244345 4.999999999999999
  endloop
endfacet
facet normal 0.3826834323651463 -0.9238795325112635 0.0
  outer loop
    vertex 1029.544028364332 1824.2205544570986 1.9999999999999998
    vertex 1028.519009306018 1823.795977661454 0.0
    vertex 1029.544028364332 1824.2205544570986 0.0
  endloop
endfacet
facet normal 0.3826834323651463 -0.9238795325112635 0.0
  outer loop
    vertex 1028.519009306018 1823.795977661454 0.0
    vertex 1029.544028364332 1824.2205544570986 1.9999999999999998
    vertex 1028.519009306018 1823.795977661454 1.9999999999999998
  endloop
endfacet
facet normal 0.608761429008612 -0.7933533402913185 0.0
  outer loop
    vertex 1028.519009306018 1823.795977661454 1.9999999999999998
    vertex 1027.6388054859751 1823.120573515413 0.0
    vertex 1028.519009306018 1823.795977661454 0.0
  endloop
endfacet
facet normal 0.608761429008612 -0.7933533402913185 0.0
  outer loop
    vertex 1027.6388054859751 1823.120573515413 0.0
    vertex 1028.519009306018 1823.795977661454 1.9999999999999998
    vertex 1027.6388054859751 1823.120573515413 1.9999999999999998
  endloop
endfacet
facet normal 0.991444861373803 -0.1305261922201077 0.0
  outer loop
    vertex 1026.5388245442894 1821.2153506370557 0.0
    vertex 1026.394009306018 1820.1153696953702 1.9999999999999998
    vertex 1026.394009306018 1820.1153696953702 0.0
  endloop
endfacet
facet normal 0.991444861373803 -0.1305261922201077 0.0
  outer loop
    vertex 1026.394009306018 1820.1153696953702 1.9999999999999998
    vertex 1026.5388245442894 1821.2153506370557 0.0
    vertex 1026.5388245442894 1821.2153506370557 1.9999999999999998
  endloop
endfacet
facet normal 0.991444861373803 0.1305261922201077 0.0
  outer loop
    vertex 1026.394009306018 1820.1153696953702 0.0
    vertex 1026.5388245442894 1819.0153887536846 1.9999999999999998
    vertex 1026.5388245442894 1819.0153887536846 0.0
  endloop
endfacet
facet normal 0.991444861373803 0.1305261922201077 0.0
  outer loop
    vertex 1026.5388245442894 1819.0153887536846 1.9999999999999998
    vertex 1026.394009306018 1820.1153696953702 0.0
    vertex 1026.394009306018 1820.1153696953702 1.9999999999999998
  endloop
endfacet
facet normal 0.9238795325112872 0.3826834323650887 0.0
  outer loop
    vertex 1026.5388245442894 1819.0153887536846 0.0
    vertex 1026.963401339934 1817.9903696953704 1.9999999999999998
    vertex 1026.963401339934 1817.9903696953704 0.0
  endloop
endfacet
facet normal 0.9238795325112872 0.3826834323650887 0.0
  outer loop
    vertex 1026.963401339934 1817.9903696953704 1.9999999999999998
    vertex 1026.5388245442894 1819.0153887536846 0.0
    vertex 1026.5388245442894 1819.0153887536846 1.9999999999999998
  endloop
endfacet
facet normal 0.7933533402913003 0.6087614290086358 0.0
  outer loop
    vertex 1026.963401339934 1817.9903696953704 0.0
    vertex 1027.6388054859751 1817.1101658753273 1.9999999999999998
    vertex 1027.6388054859751 1817.1101658753273 0.0
  endloop
endfacet
facet normal 0.7933533402913003 0.6087614290086358 0.0
  outer loop
    vertex 1027.6388054859751 1817.1101658753273 1.9999999999999998
    vertex 1026.963401339934 1817.9903696953704 0.0
    vertex 1026.963401339934 1817.9903696953704 1.9999999999999998
  endloop
endfacet
facet normal 0.6087614290086906 0.7933533402912583 0.0
  outer loop
    vertex 1027.6388054859751 1817.1101658753273 1.9999999999999998
    vertex 1028.5190093060178 1816.4347617292865 0.0
    vertex 1027.6388054859751 1817.1101658753273 0.0
  endloop
endfacet
facet normal 0.6087614290086906 0.7933533402912583 0.0
  outer loop
    vertex 1028.5190093060178 1816.4347617292865 0.0
    vertex 1027.6388054859751 1817.1101658753273 1.9999999999999998
    vertex 1028.5190093060178 1816.4347617292865 1.9999999999999998
  endloop
endfacet
facet normal 0.3826834323650887 0.9238795325112872 0.0
  outer loop
    vertex 1028.5190093060178 1816.4347617292865 1.9999999999999998
    vertex 1029.544028364332 1816.0101849336418 0.0
    vertex 1028.5190093060178 1816.4347617292865 0.0
  endloop
endfacet
facet normal 0.3826834323650887 0.9238795325112872 0.0
  outer loop
    vertex 1029.544028364332 1816.0101849336418 0.0
    vertex 1028.5190093060178 1816.4347617292865 1.9999999999999998
    vertex 1029.544028364332 1816.0101849336418 1.9999999999999998
  endloop
endfacet
facet normal 0.13052619221992676 0.9914448613738269 0.0
  outer loop
    vertex 1029.544028364332 1816.0101849336418 1.9999999999999998
    vertex 1030.6440093060178 1815.8653696953704 0.0
    vertex 1029.544028364332 1816.0101849336418 0.0
  endloop
endfacet
facet normal 0.13052619221992676 0.9914448613738269 0.0
  outer loop
    vertex 1030.6440093060178 1815.8653696953704 0.0
    vertex 1029.544028364332 1816.0101849336418 1.9999999999999998
    vertex 1030.6440093060178 1815.8653696953704 1.9999999999999998
  endloop
endfacet
facet normal -0.13052619221992676 0.9914448613738269 0.0
  outer loop
    vertex 1030.6440093060178 1815.8653696953704 1.9999999999999998
    vertex 1031.7439902477036 1816.0101849336418 0.0
    vertex 1030.6440093060178 1815.8653696953704 0.0
  endloop
endfacet
facet normal -0.13052619221992676 0.9914448613738269 0.0
  outer loop
    vertex 1031.7439902477036 1816.0101849336418 0.0
    vertex 1030.6440093060178 1815.8653696953704 1.9999999999999998
    vertex 1031.7439902477036 1816.0101849336418 1.9999999999999998
  endloop
endfacet
facet normal -0.3826834323651463 0.9238795325112635 0.0
  outer loop
    vertex 1031.7439902477036 1816.0101849336418 1.9999999999999998
    vertex 1032.7690093060178 1816.4347617292865 0.0
    vertex 1031.7439902477036 1816.0101849336418 0.0
  endloop
endfacet
facet normal -0.3826834323651463 0.9238795325112635 0.0
  outer loop
    vertex 1032.7690093060178 1816.4347617292865 0.0
    vertex 1031.7439902477036 1816.0101849336418 1.9999999999999998
    vertex 1032.7690093060178 1816.4347617292865 1.9999999999999998
  endloop
endfacet
facet normal -0.608761429008612 0.7933533402913185 0.0
  outer loop
    vertex 1032.7690093060178 1816.4347617292865 1.9999999999999998
    vertex 1033.6492131260604 1817.1101658753273 0.0
    vertex 1032.7690093060178 1816.4347617292865 0.0
  endloop
endfacet
facet normal -0.608761429008612 0.7933533402913185 0.0
  outer loop
    vertex 1033.6492131260604 1817.1101658753273 0.0
    vertex 1032.7690093060178 1816.4347617292865 1.9999999999999998
    vertex 1033.6492131260604 1817.1101658753273 1.9999999999999998
  endloop
endfacet
facet normal -0.7933533402913003 0.6087614290086358 0.0
  outer loop
    vertex 1034.3246172721015 1817.9903696953704 1.9999999999999998
    vertex 1033.6492131260604 1817.1101658753273 0.0
    vertex 1033.6492131260604 1817.1101658753273 1.9999999999999998
  endloop
endfacet
facet normal -0.7933533402913003 0.6087614290086358 0.0
  outer loop
    vertex 1033.6492131260604 1817.1101658753273 0.0
    vertex 1034.3246172721015 1817.9903696953704 1.9999999999999998
    vertex 1034.3246172721015 1817.9903696953704 0.0
  endloop
endfacet
facet normal -0.9238795325112872 0.3826834323650887 0.0
  outer loop
    vertex 1034.7491940677462 1819.0153887536846 1.9999999999999998
    vertex 1034.3246172721015 1817.9903696953704 0.0
    vertex 1034.3246172721015 1817.9903696953704 1.9999999999999998
  endloop
endfacet
facet normal -0.9238795325112872 0.3826834323650887 0.0
  outer loop
    vertex 1034.3246172721015 1817.9903696953704 0.0
    vertex 1034.7491940677462 1819.0153887536846 1.9999999999999998
    vertex 1034.7491940677462 1819.0153887536846 0.0
  endloop
endfacet
facet normal -0.991444861373803 0.1305261922201077 0.0
  outer loop
    vertex 1034.8940093060178 1820.1153696953702 1.9999999999999998
    vertex 1034.7491940677462 1819.0153887536846 0.0
    vertex 1034.7491940677462 1819.0153887536846 1.9999999999999998
  endloop
endfacet
facet normal -0.991444861373803 0.1305261922201077 0.0
  outer loop
    vertex 1034.7491940677462 1819.0153887536846 0.0
    vertex 1034.8940093060178 1820.1153696953702 1.9999999999999998
    vertex 1034.8940093060178 1820.1153696953702 0.0
  endloop
endfacet
facet normal -0.991444861373803 -0.1305261922201077 -0.0
  outer loop
    vertex 1034.7491940677462 1821.2153506370557 1.9999999999999998
    vertex 1034.8940093060178 1820.1153696953702 0.0
    vertex 1034.8940093060178 1820.1153696953702 1.9999999999999998
  endloop
endfacet
facet normal -0.991444861373803 -0.1305261922201077 -0.0
  outer loop
    vertex 1034.8940093060178 1820.1153696953702 0.0
    vertex 1034.7491940677462 1821.2153506370557 1.9999999999999998
    vertex 1034.7491940677462 1821.2153506370557 0.0
  endloop
endfacet
facet normal -0.9238795325112872 -0.3826834323650887 -0.0
  outer loop
    vertex 1034.3246172721015 1822.2403696953702 1.9999999999999998
    vertex 1034.7491940677462 1821.2153506370557 0.0
    vertex 1034.7491940677462 1821.2153506370557 1.9999999999999998
  endloop
endfacet
facet normal -0.9238795325112872 -0.3826834323650887 -0.0
  outer loop
    vertex 1034.7491940677462 1821.2153506370557 0.0
    vertex 1034.3246172721015 1822.2403696953702 1.9999999999999998
    vertex 1034.3246172721015 1822.2403696953702 0.0
  endloop
endfacet
facet normal -0.7933533402913003 -0.6087614290086358 -0.0
  outer loop
    vertex 1033.6492131260604 1823.120573515413 1.9999999999999998
    vertex 1034.3246172721015 1822.2403696953702 0.0
    vertex 1034.3246172721015 1822.2403696953702 1.9999999999999998
  endloop
endfacet
facet normal -0.7933533402913003 -0.6087614290086358 -0.0
  outer loop
    vertex 1034.3246172721015 1822.2403696953702 0.0
    vertex 1033.6492131260604 1823.120573515413 1.9999999999999998
    vertex 1033.6492131260604 1823.120573515413 0.0
  endloop
endfacet
facet normal -0.6087614290086906 -0.7933533402912583 -0.0
  outer loop
    vertex 1033.6492131260604 1823.120573515413 1.9999999999999998
    vertex 1032.7690093060178 1823.795977661454 0.0
    vertex 1033.6492131260604 1823.120573515413 0.0
  endloop
endfacet
facet normal -0.6087614290086906 -0.7933533402912583 -0.0
  outer loop
    vertex 1032.7690093060178 1823.795977661454 0.0
    vertex 1033.6492131260604 1823.120573515413 1.9999999999999998
    vertex 1032.7690093060178 1823.795977661454 1.9999999999999998
  endloop
endfacet
facet normal -0.3826834323650887 -0.9238795325112872 -0.0
  outer loop
    vertex 1032.7690093060178 1823.795977661454 1.9999999999999998
    vertex 1031.7439902477036 1824.2205544570986 0.0
    vertex 1032.7690093060178 1823.795977661454 0.0
  endloop
endfacet
facet normal -0.3826834323650887 -0.9238795325112872 -0.0
  outer loop
    vertex 1031.7439902477036 1824.2205544570986 0.0
    vertex 1032.7690093060178 1823.795977661454 1.9999999999999998
    vertex 1031.7439902477036 1824.2205544570986 1.9999999999999998
  endloop
endfacet
facet normal -0.1305261922199587 -0.9914448613738227 -0.0
  outer loop
    vertex 1032.0675140540816 1825.42796173996 4.999999999999999
    vertex 1030.6440093060178 1825.61536969537 1.9999999999999998
    vertex 1032.0675140540816 1825.42796173996 1.9999999999999998
  endloop
endfacet
facet normal -0.1305261922199587 -0.9914448613738227 -0.0
  outer loop
    vertex 1030.6440093060178 1825.61536969537 1.9999999999999998
    vertex 1032.0675140540816 1825.42796173996 4.999999999999999
    vertex 1030.6440093060178 1825.61536969537 4.999999999999999
  endloop
endfacet
facet normal 0.0 0.0 -1.0
  outer loop
    vertex 1040.644009306018 1847.2153696953703 0.0
    vertex 1020.6440093060178 1820.1153696953702 0.0
    vertex 1020.6440093060178 1847.2153696953703 0.0
  endloop
endfacet
facet normal 0.0 0.0 -1.0
  outer loop
    vertex 1020.6440093060178 1820.1153696953702 0.0
    vertex 1040.644009306018 1847.2153696953703 0.0
    vertex 1020.9847510431271 1817.527179244345 0.0
  endloop
endfacet
facet normal 0.0 0.0 -1.0
  outer loop
    vertex 1020.9847510431271 1817.527179244345 0.0
    vertex 1040.644009306018 1847.2153696953703 0.0
    vertex 1021.9837552681734 1815.1153696953702 0.0
  endloop
endfacet
facet normal 0.0 0.0 -1.0
  outer loop
    vertex 1021.9837552681734 1815.1153696953702 0.0
    vertex 1040.644009306018 1847.2153696953703 0.0
    vertex 1026.963401339934 1822.2403696953702 0.0
  endloop
endfacet
facet normal 0.0 0.0 -1.0
  outer loop
    vertex 1021.9837552681734 1815.1153696953702 0.0
    vertex 1026.963401339934 1822.2403696953702 0.0
    vertex 1026.5388245442894 1821.2153506370557 0.0
  endloop
endfacet
facet normal 0.0 0.0 -1.0
  outer loop
    vertex 1021.9837552681734 1815.1153696953702 0.0
    vertex 1026.5388245442894 1821.2153506370557 0.0
    vertex 1023.5729414941522 1813.0443018835047 0.0
  endloop
endfacet
facet normal 0.0 0.0 -1.0
  outer loop
    vertex 1023.5729414941522 1813.0443018835047 0.0
    vertex 1026.5388245442894 1821.2153506370557 0.0
    vertex 1026.394009306018 1820.1153696953702 0.0
  endloop
endfacet
facet normal 0.0 0.0 -1.0
  outer loop
    vertex 1023.5729414941522 1813.0443018835047 0.0
    vertex 1026.394009306018 1820.1153696953702 0.0
    vertex 1025.6440093060178 1811.4551156575255 0.0
  endloop
endfacet
facet normal 0.0 0.0 -1.0
  outer loop
    vertex 1026.963401339934 1822.2403696953702 0.0
    vertex 1040.644009306018 1847.2153696953703 0.0
    vertex 1027.6388054859751 1823.120573515413 0.0
  endloop
endfacet
facet normal 0.0 0.0 -1.0
  outer loop
    vertex 1027.6388054859751 1823.120573515413 0.0
    vertex 1040.644009306018 1847.2153696953703 0.0
    vertex 1028.519009306018 1823.795977661454 0.0
  endloop
endfacet
facet normal 0.0 0.0 -1.0
  outer loop
    vertex 1028.519009306018 1823.795977661454 0.0
    vertex 1040.644009306018 1847.2153696953703 0.0
    vertex 1029.544028364332 1824.2205544570986 0.0
  endloop
endfacet
facet normal 0.0 0.0 -1.0
  outer loop
    vertex 1029.544028364332 1824.2205544570986 0.0
    vertex 1040.644009306018 1847.2153696953703 0.0
    vertex 1030.6440093060178 1824.36536969537 0.0
  endloop
endfacet
facet normal 0.0 0.0 -1.0
  outer loop
    vertex 1030.6440093060178 1824.36536969537 0.0
    vertex 1040.644009306018 1847.2153696953703 0.0
    vertex 1031.7439902477036 1824.2205544570986 0.0
  endloop
endfacet
facet normal 0.0 0.0 -1.0
  outer loop
    vertex 1031.7439902477036 1824.2205544570986 0.0
    vertex 1040.644009306018 1847.2153696953703 0.0
    vertex 1032.7690093060178 1823.795977661454 0.0
  endloop
endfacet
facet normal 0.0 0.0 -1.0
  outer loop
    vertex 1032.7690093060178 1823.795977661454 0.0
    vertex 1040.644009306018 1847.2153696953703 0.0
    vertex 1033.6492131260604 1823.120573515413 0.0
  endloop
endfacet
facet normal 0.0 0.0 -1.0
  outer loop
    vertex 1033.6492131260604 1823.120573515413 0.0
    vertex 1040.644009306018 1847.2153696953703 0.0
    vertex 1034.3246172721015 1822.2403696953702 0.0
  endloop
endfacet
facet normal 0.0 0.0 -1.0
  outer loop
    vertex 1034.3246172721015 1822.2403696953702 0.0
    vertex 1040.644009306018 1847.2153696953703 0.0
    vertex 1034.7491940677462 1821.2153506370557 0.0
  endloop
endfacet
facet normal 0.0 0.0 -1.0
  outer loop
    vertex 1034.7491940677462 1821.2153506370557 0.0
    vertex 1040.644009306018 1847.2153696953703 0.0
    vertex 1034.8940093060178 1820.1153696953702 0.0
  endloop
endfacet
facet normal 0.0 0.0 -1.0
  outer loop
    vertex 1034.8940093060178 1820.1153696953702 0.0
    vertex 1040.644009306018 1847.2153696953703 0.0
    vertex 1035.6440093060178 1811.4551156575255 0.0
  endloop
endfacet
facet normal 0.0 0.0 -1.0
  outer loop
    vertex 1035.6440093060178 1811.4551156575255 0.0
    vertex 1040.644009306018 1847.2153696953703 0.0
    vertex 1037.7150771178833 1813.0443018835047 0.0
  endloop
endfacet
facet normal 0.0 0.0 -1.0
  outer loop
    vertex 1037.7150771178833 1813.0443018835047 0.0
    vertex 1040.644009306018 1847.2153696953703 0.0
    vertex 1039.3042633438622 1815.1153696953702 0.0
  endloop
endfacet
facet normal 0.0 0.0 -1.0
  outer loop
    vertex 1039.3042633438622 1815.1153696953702 0.0
    vertex 1040.644009306018 1847.2153696953703 0.0
    vertex 1040.3032675689085 1817.527179244345 0.0
  endloop
endfacet
facet normal 0.0 0.0 -1.0
  outer loop
    vertex 1040.3032675689085 1817.527179244345 0.0
    vertex 1040.644009306018 1847.2153696953703 0.0
    vertex 1040.644009306018 1820.1153696953702 0.0
  endloop
endfacet
facet normal 0.0 0.0 -1.0
  outer loop
    vertex 1025.6440093060178 1811.4551156575255 0.0
    vertex 1026.5388245442894 1819.0153887536846 0.0
    vertex 1028.0558188549926 1810.4561114324792 0.0
  endloop
endfacet
facet normal 0.0 0.0 -1.0
  outer loop
    vertex 1026.5388245442894 1819.0153887536846 0.0
    vertex 1025.6440093060178 1811.4551156575255 0.0
    vertex 1026.394009306018 1820.1153696953702 0.0
  endloop
endfacet
facet normal 0.0 0.0 -1.0
  outer loop
    vertex 1028.0558188549926 1810.4561114324792 0.0
    vertex 1026.5388245442894 1819.0153887536846 0.0
    vertex 1026.963401339934 1817.9903696953704 0.0
  endloop
endfacet
facet normal 0.0 0.0 -1.0
  outer loop
    vertex 1028.0558188549926 1810.4561114324792 0.0
    vertex 1026.963401339934 1817.9903696953704 0.0
    vertex 1027.6388054859751 1817.1101658753273 0.0
  endloop
endfacet
facet normal 0.0 0.0 -1.0
  outer loop
    vertex 1028.0558188549926 1810.4561114324792 0.0
    vertex 1027.6388054859751 1817.1101658753273 0.0
    vertex 1028.5190093060178 1816.4347617292865 0.0
  endloop
endfacet
facet normal 0.0 0.0 -1.0
  outer loop
    vertex 1028.0558188549926 1810.4561114324792 0.0
    vertex 1028.5190093060178 1816.4347617292865 0.0
    vertex 1030.6440093060178 1810.1153696953704 0.0
  endloop
endfacet
facet normal 0.0 0.0 -1.0
  outer loop
    vertex 1030.6440093060178 1810.1153696953704 0.0
    vertex 1028.5190093060178 1816.4347617292865 0.0
    vertex 1029.544028364332 1816.0101849336418 0.0
  endloop
endfacet
facet normal 0.0 0.0 -1.0
  outer loop
    vertex 1030.6440093060178 1810.1153696953704 0.0
    vertex 1029.544028364332 1816.0101849336418 0.0
    vertex 1030.6440093060178 1815.8653696953704 0.0
  endloop
endfacet
facet normal 0.0 0.0 -1.0
  outer loop
    vertex 1030.6440093060178 1810.1153696953704 0.0
    vertex 1030.6440093060178 1815.8653696953704 0.0
    vertex 1031.7439902477036 1816.0101849336418 0.0
  endloop
endfacet
facet normal 0.0 0.0 -1.0
  outer loop
    vertex 1030.6440093060178 1810.1153696953704 0.0
    vertex 1031.7439902477036 1816.0101849336418 0.0
    vertex 1033.232199757043 1810.4561114324792 0.0
  endloop
endfacet
facet normal 0.0 0.0 -1.0
  outer loop
    vertex 1033.232199757043 1810.4561114324792 0.0
    vertex 1031.7439902477036 1816.0101849336418 0.0
    vertex 1032.7690093060178 1816.4347617292865 0.0
  endloop
endfacet
facet normal 0.0 0.0 -1.0
  outer loop
    vertex 1033.232199757043 1810.4561114324792 0.0
    vertex 1032.7690093060178 1816.4347617292865 0.0
    vertex 1033.6492131260604 1817.1101658753273 0.0
  endloop
endfacet
facet normal 0.0 0.0 -1.0
  outer loop
    vertex 1033.232199757043 1810.4561114324792 0.0
    vertex 1033.6492131260604 1817.1101658753273 0.0
    vertex 1035.6440093060178 1811.4551156575255 0.0
  endloop
endfacet
facet normal 0.0 0.0 -1.0
  outer loop
    vertex 1035.6440093060178 1811.4551156575255 0.0
    vertex 1033.6492131260604 1817.1101658753273 0.0
    vertex 1034.3246172721015 1817.9903696953704 0.0
  endloop
endfacet
facet normal 0.0 0.0 -1.0
  outer loop
    vertex 1035.6440093060178 1811.4551156575255 0.0
    vertex 1034.3246172721015 1817.9903696953704 0.0
    vertex 1034.7491940677462 1819.0153887536846 0.0
  endloop
endfacet
facet normal 0.0 0.0 -1.0
  outer loop
    vertex 1035.6440093060178 1811.4551156575255 0.0
    vertex 1034.7491940677462 1819.0153887536846 0.0
    vertex 1034.8940093060178 1820.1153696953702 0.0
  endloop
endfacet
facet normal -0.0 -0.0 1.0
  outer loop
    vertex 1025.3314172614282 1818.6918649473066 1.9999999999999998
    vertex 1025.3314172614282 1821.538874443434 1.9999999999999998
    vertex 1025.144009306018 1820.1153696953702 1.9999999999999998
  endloop
endfacet
facet normal -0.0 -0.0 1.0
  outer loop
    vertex 1025.3314172614282 1821.538874443434 1.9999999999999998
    vertex 1025.3314172614282 1818.6918649473066 1.9999999999999998
    vertex 1025.8808695852035 1817.3653696953704 1.9999999999999998
  endloop
endfacet
facet normal -0.0 -0.0 1.0
  outer loop
    vertex 1025.3314172614282 1821.538874443434 1.9999999999999998
    vertex 1025.8808695852035 1817.3653696953704 1.9999999999999998
    vertex 1025.8808695852035 1822.8653696953704 1.9999999999999998
  endloop
endfacet
facet normal -0.0 -0.0 1.0
  outer loop
    vertex 1025.8808695852035 1822.8653696953704 1.9999999999999998
    vertex 1025.8808695852035 1817.3653696953704 1.9999999999999998
    vertex 1026.754922009492 1816.2262823988444 1.9999999999999998
  endloop
endfacet
facet normal -0.0 -0.0 1.0
  outer loop
    vertex 1025.8808695852035 1822.8653696953704 1.9999999999999998
    vertex 1026.754922009492 1816.2262823988444 1.9999999999999998
    vertex 1026.394009306018 1820.1153696953702 1.9999999999999998
  endloop
endfacet
facet normal -0.0 -0.0 1.0
  outer loop
    vertex 1026.394009306018 1820.1153696953702 1.9999999999999998
    vertex 1026.754922009492 1816.2262823988444 1.9999999999999998
    vertex 1026.5388245442894 1819.0153887536846 1.9999999999999998
  endloop
endfacet
facet normal -0.0 -0.0 1.0
  outer loop
    vertex 1026.5388245442894 1819.0153887536846 1.9999999999999998
    vertex 1026.754922009492 1816.2262823988444 1.9999999999999998
    vertex 1026.963401339934 1817.9903696953704 1.9999999999999998
  endloop
endfacet
facet normal -0.0 -0.0 1.0
  outer loop
    vertex 1026.963401339934 1817.9903696953704 1.9999999999999998
    vertex 1026.754922009492 1816.2262823988444 1.9999999999999998
    vertex 1027.894009306018 1815.352229974556 1.9999999999999998
  endloop
endfacet
facet normal -0.0 -0.0 1.0
  outer loop
    vertex 1026.963401339934 1817.9903696953704 1.9999999999999998
    vertex 1027.894009306018 1815.352229974556 1.9999999999999998
    vertex 1027.6388054859751 1817.1101658753273 1.9999999999999998
  endloop
endfacet
facet normal -0.0 -0.0 1.0
  outer loop
    vertex 1027.6388054859751 1817.1101658753273 1.9999999999999998
    vertex 1027.894009306018 1815.352229974556 1.9999999999999998
    vertex 1028.5190093060178 1816.4347617292865 1.9999999999999998
  endloop
endfacet
facet normal -0.0 -0.0 1.0
  outer loop
    vertex 1028.5190093060178 1816.4347617292865 1.9999999999999998
    vertex 1027.894009306018 1815.352229974556 1.9999999999999998
    vertex 1029.220504557954 1814.8027776507804 1.9999999999999998
  endloop
endfacet
facet normal -0.0 -0.0 1.0
  outer loop
    vertex 1028.5190093060178 1816.4347617292865 1.9999999999999998
    vertex 1029.220504557954 1814.8027776507804 1.9999999999999998
    vertex 1029.544028364332 1816.0101849336418 1.9999999999999998
  endloop
endfacet
facet normal -0.0 -0.0 1.0
  outer loop
    vertex 1029.544028364332 1816.0101849336418 1.9999999999999998
    vertex 1029.220504557954 1814.8027776507804 1.9999999999999998
    vertex 1030.6440093060178 1814.6153696953704 1.9999999999999998
  endloop
endfacet
facet normal -0.0 -0.0 1.0
  outer loop
    vertex 1029.544028364332 1816.0101849336418 1.9999999999999998
    vertex 1030.6440093060178 1814.6153696953704 1.9999999999999998
    vertex 1030.6440093060178 1815.8653696953704 1.9999999999999998
  endloop
endfacet
facet normal -0.0 -0.0 1.0
  outer loop
    vertex 1030.6440093060178 1815.8653696953704 1.9999999999999998
    vertex 1030.6440093060178 1814.6153696953704 1.9999999999999998
    vertex 1032.0675140540816 1814.8027776507804 1.9999999999999998
  endloop
endfacet
facet normal -0.0 -0.0 1.0
  outer loop
    vertex 1030.6440093060178 1815.8653696953704 1.9999999999999998
    vertex 1032.0675140540816 1814.8027776507804 1.9999999999999998
    vertex 1031.7439902477036 1816.0101849336418 1.9999999999999998
  endloop
endfacet
facet normal -0.0 -0.0 1.0
  outer loop
    vertex 1031.7439902477036 1816.0101849336418 1.9999999999999998
    vertex 1032.0675140540816 1814.8027776507804 1.9999999999999998
    vertex 1032.7690093060178 1816.4347617292865 1.9999999999999998
  endloop
endfacet
facet normal -0.0 -0.0 1.0
  outer loop
    vertex 1032.7690093060178 1816.4347617292865 1.9999999999999998
    vertex 1032.0675140540816 1814.8027776507804 1.9999999999999998
    vertex 1033.3940093060178 1815.352229974556 1.9999999999999998
  endloop
endfacet
facet normal -0.0 -0.0 1.0
  outer loop
    vertex 1032.7690093060178 1816.4347617292865 1.9999999999999998
    vertex 1033.3940093060178 1815.352229974556 1.9999999999999998
    vertex 1033.6492131260604 1817.1101658753273 1.9999999999999998
  endloop
endfacet
facet normal -0.0 -0.0 1.0
  outer loop
    vertex 1033.6492131260604 1817.1101658753273 1.9999999999999998
    vertex 1033.3940093060178 1815.352229974556 1.9999999999999998
    vertex 1034.5330966025438 1816.2262823988444 1.9999999999999998
  endloop
endfacet
facet normal -0.0 -0.0 1.0
  outer loop
    vertex 1033.6492131260604 1817.1101658753273 1.9999999999999998
    vertex 1034.5330966025438 1816.2262823988444 1.9999999999999998
    vertex 1034.3246172721015 1817.9903696953704 1.9999999999999998
  endloop
endfacet
facet normal -0.0 -0.0 1.0
  outer loop
    vertex 1034.3246172721015 1817.9903696953704 1.9999999999999998
    vertex 1034.5330966025438 1816.2262823988444 1.9999999999999998
    vertex 1034.7491940677462 1819.0153887536846 1.9999999999999998
  endloop
endfacet
facet normal -0.0 -0.0 1.0
  outer loop
    vertex 1034.7491940677462 1819.0153887536846 1.9999999999999998
    vertex 1034.5330966025438 1816.2262823988444 1.9999999999999998
    vertex 1035.4071490268323 1817.3653696953702 1.9999999999999998
  endloop
endfacet
facet normal -0.0 -0.0 1.0
  outer loop
    vertex 1034.7491940677462 1819.0153887536846 1.9999999999999998
    vertex 1035.4071490268323 1817.3653696953702 1.9999999999999998
    vertex 1034.8940093060178 1820.1153696953702 1.9999999999999998
  endloop
endfacet
facet normal -0.0 -0.0 1.0
  outer loop
    vertex 1026.394009306018 1820.1153696953702 1.9999999999999998
    vertex 1026.754922009492 1824.004456991896 1.9999999999999998
    vertex 1025.8808695852035 1822.8653696953704 1.9999999999999998
  endloop
endfacet
facet normal -0.0 -0.0 1.0
  outer loop
    vertex 1026.754922009492 1824.004456991896 1.9999999999999998
    vertex 1026.394009306018 1820.1153696953702 1.9999999999999998
    vertex 1026.5388245442894 1821.2153506370557 1.9999999999999998
  endloop
endfacet
facet normal -0.0 -0.0 1.0
  outer loop
    vertex 1026.754922009492 1824.004456991896 1.9999999999999998
    vertex 1026.5388245442894 1821.2153506370557 1.9999999999999998
    vertex 1026.963401339934 1822.2403696953702 1.9999999999999998
  endloop
endfacet
facet normal -0.0 -0.0 1.0
  outer loop
    vertex 1026.754922009492 1824.004456991896 1.9999999999999998
    vertex 1026.963401339934 1822.2403696953702 1.9999999999999998
    vertex 1027.894009306018 1824.8785094161847 1.9999999999999998
  endloop
endfacet
facet normal -0.0 -0.0 1.0
  outer loop
    vertex 1027.894009306018 1824.8785094161847 1.9999999999999998
    vertex 1026.963401339934 1822.2403696953702 1.9999999999999998
    vertex 1027.6388054859751 1823.120573515413 1.9999999999999998
  endloop
endfacet
facet normal -0.0 -0.0 1.0
  outer loop
    vertex 1027.894009306018 1824.8785094161847 1.9999999999999998
    vertex 1027.6388054859751 1823.120573515413 1.9999999999999998
    vertex 1028.519009306018 1823.795977661454 1.9999999999999998
  endloop
endfacet
facet normal -0.0 -0.0 1.0
  outer loop
    vertex 1027.894009306018 1824.8785094161847 1.9999999999999998
    vertex 1028.519009306018 1823.795977661454 1.9999999999999998
    vertex 1029.220504557954 1825.42796173996 1.9999999999999998
  endloop
endfacet
facet normal -0.0 -0.0 1.0
  outer loop
    vertex 1029.220504557954 1825.42796173996 1.9999999999999998
    vertex 1028.519009306018 1823.795977661454 1.9999999999999998
    vertex 1029.544028364332 1824.2205544570986 1.9999999999999998
  endloop
endfacet
facet normal -0.0 -0.0 1.0
  outer loop
    vertex 1029.220504557954 1825.42796173996 1.9999999999999998
    vertex 1029.544028364332 1824.2205544570986 1.9999999999999998
    vertex 1030.6440093060178 1825.61536969537 1.9999999999999998
  endloop
endfacet
facet normal -0.0 -0.0 1.0
  outer loop
    vertex 1030.6440093060178 1825.61536969537 1.9999999999999998
    vertex 1029.544028364332 1824.2205544570986 1.9999999999999998
    vertex 1030.6440093060178 1824.36536969537 1.9999999999999998
  endloop
endfacet
facet normal -0.0 -0.0 1.0
  outer loop
    vertex 1030.6440093060178 1825.61536969537 1.9999999999999998
    vertex 1030.6440093060178 1824.36536969537 1.9999999999999998
    vertex 1031.7439902477036 1824.2205544570986 1.9999999999999998
  endloop
endfacet
facet normal -0.0 -0.0 1.0
  outer loop
    vertex 1030.6440093060178 1825.61536969537 1.9999999999999998
    vertex 1031.7439902477036 1824.2205544570986 1.9999999999999998
    vertex 1032.0675140540816 1825.42796173996 1.9999999999999998
  endloop
endfacet
facet normal -0.0 -0.0 1.0
  outer loop
    vertex 1032.0675140540816 1825.42796173996 1.9999999999999998
    vertex 1031.7439902477036 1824.2205544570986 1.9999999999999998
    vertex 1032.7690093060178 1823.795977661454 1.9999999999999998
  endloop
endfacet
facet normal -0.0 -0.0 1.0
  outer loop
    vertex 1032.0675140540816 1825.42796173996 1.9999999999999998
    vertex 1032.7690093060178 1823.795977661454 1.9999999999999998
    vertex 1033.3940093060178 1824.8785094161847 1.9999999999999998
  endloop
endfacet
facet normal -0.0 -0.0 1.0
  outer loop
    vertex 1033.3940093060178 1824.8785094161847 1.9999999999999998
    vertex 1032.7690093060178 1823.795977661454 1.9999999999999998
    vertex 1033.6492131260604 1823.120573515413 1.9999999999999998
  endloop
endfacet
facet normal -0.0 -0.0 1.0
  outer loop
    vertex 1033.3940093060178 1824.8785094161847 1.9999999999999998
    vertex 1033.6492131260604 1823.120573515413 1.9999999999999998
    vertex 1034.5330966025438 1824.004456991896 1.9999999999999998
  endloop
endfacet
facet normal -0.0 -0.0 1.0
  outer loop
    vertex 1034.5330966025438 1824.004456991896 1.9999999999999998
    vertex 1033.6492131260604 1823.120573515413 1.9999999999999998
    vertex 1034.3246172721015 1822.2403696953702 1.9999999999999998
  endloop
endfacet
facet normal -0.0 -0.0 1.0
  outer loop
    vertex 1034.5330966025438 1824.004456991896 1.9999999999999998
    vertex 1034.3246172721015 1822.2403696953702 1.9999999999999998
    vertex 1034.7491940677462 1821.2153506370557 1.9999999999999998
  endloop
endfacet
facet normal -0.0 -0.0 1.0
  outer loop
    vertex 1034.5330966025438 1824.004456991896 1.9999999999999998
    vertex 1034.7491940677462 1821.2153506370557 1.9999999999999998
    vertex 1035.4071490268323 1822.86536969537 1.9999999999999998
  endloop
endfacet
facet normal -0.0 -0.0 1.0
  outer loop
    vertex 1035.4071490268323 1822.86536969537 1.9999999999999998
    vertex 1034.7491940677462 1821.2153506370557 1.9999999999999998
    vertex 1034.8940093060178 1820.1153696953702 1.9999999999999998
  endloop
endfacet
facet normal -0.0 -0.0 1.0
  outer loop
    vertex 1035.4071490268323 1822.86536969537 1.9999999999999998
    vertex 1034.8940093060178 1820.1153696953702 1.9999999999999998
    vertex 1035.4071490268323 1817.3653696953702 1.9999999999999998
  endloop
endfacet
facet normal -0.0 -0.0 1.0
  outer loop
    vertex 1035.4071490268323 1822.86536969537 1.9999999999999998
    vertex 1035.4071490268323 1817.3653696953702 1.9999999999999998
    vertex 1035.9566013506076 1818.6918649473066 1.9999999999999998
  endloop
endfacet
facet normal -0.0 -0.0 1.0
  outer loop
    vertex 1035.4071490268323 1822.86536969537 1.9999999999999998
    vertex 1035.9566013506076 1818.6918649473066 1.9999999999999998
    vertex 1035.9566013506076 1821.538874443434 1.9999999999999998
  endloop
endfacet
facet normal -0.0 -0.0 1.0
  outer loop
    vertex 1035.9566013506076 1821.538874443434 1.9999999999999998
    vertex 1035.9566013506076 1818.6918649473066 1.9999999999999998
    vertex 1036.1440093060178 1820.1153696953702 1.9999999999999998
  endloop
endfacet
endsolid Graduation Plan
