solid Graduation Plan
facet normal 0.0 0.7933533402910848 -0.6087614290089167
  outer loop
    vertex 1234.0512033518671 1835.4547095235907 69.06066017178065
    vertex 1236.0512033518673 1835.2163315896937 68.75000000000084
    vertex 1234.0512033518671 1835.2163315896937 68.75000000000084
  endloop
endfacet
facet normal 0.0 0.7933533402910848 -0.6087614290089167
  outer loop
    vertex 1236.0512033518673 1835.2163315896937 68.75000000000084
    vertex 1234.0512033518671 1835.4547095235907 69.06066017178065
    vertex 1236.0512033518673 1835.4547095235907 69.06066017178065
  endloop
endfacet
facet normal 2.709620646785378e-15 1.3249512942566003e-15 1.0
  outer loop
    vertex 1244.0512033518673 1826.5153696953705 183.00000000000082
    vertex 1234.0512033518671 1846.5153696953703 183.00000000000082
    vertex 1234.0512033518671 1826.5153696953705 183.00000000000082
  endloop
endfacet
facet normal 2.709620646785378e-15 1.3249512942566003e-15 1.0
  outer loop
    vertex 1234.0512033518671 1846.5153696953703 183.00000000000082
    vertex 1244.0512033518673 1826.5153696953705 183.00000000000082
    vertex 1244.0512033518673 1846.5153696953703 183.00000000000082
  endloop
endfacet
facet normal -1.0 0.0 0.0
  outer loop
    vertex 1234.0512033518671 1846.5153696953703 183.00000000000082
    vertex 1234.0512033518671 1826.5153696953705 68.00000000000082
    vertex 1234.0512033518671 1826.5153696953705 183.00000000000082
  endloop
endfacet
facet normal -1.0 0.0 0.0
  outer loop
    vertex 1234.0512033518671 1826.5153696953705 68.00000000000082
    vertex 1234.0512033518671 1846.5153696953703 183.00000000000082
    vertex 1234.0512033518671 1826.85611143248 65.41180954897564
  endloop
endfacet
facet normal -1.0 0.0 0.0
  outer loop
    vertex 1234.0512033518671 1826.85611143248 65.41180954897564
    vertex 1234.0512033518671 1846.5153696953703 183.00000000000082
    vertex 1234.0512033518671 1827.8551156575263 63.000000000000874
  endloop
endfacet
facet normal -1.0 0.0 0.0
  outer loop
    vertex 1234.0512033518671 1827.8551156575263 63.000000000000874
    vertex 1234.0512033518671 1846.5153696953703 183.00000000000082
    vertex 1234.0512033518671 1829.4443018835052 60.92893218813542
  endloop
endfacet
facet normal -1.0 0.0 0.0
  outer loop
    vertex 1234.0512033518671 1829.4443018835052 60.92893218813542
    vertex 1234.0512033518671 1846.5153696953703 183.00000000000082
    vertex 1234.0512033518671 1831.5153696953705 59.339745962156535
  endloop
endfacet
facet normal -1.0 0.0 0.0
  outer loop
    vertex 1234.0512033518671 1831.5153696953705 59.339745962156535
    vertex 1234.0512033518671 1846.5153696953703 183.00000000000082
    vertex 1234.0512033518671 1833.927179244345 58.340741737110235
  endloop
endfacet
facet normal -1.0 0.0 0.0
  outer loop
    vertex 1234.0512033518671 1833.927179244345 58.340741737110235
    vertex 1234.0512033518671 1846.5153696953703 183.00000000000082
    vertex 1234.0512033518671 1835.0153696953705 68.00000000000082
  endloop
endfacet
facet normal -1.0 0.0 0.0
  outer loop
    vertex 1234.0512033518671 1835.0153696953705 68.00000000000082
    vertex 1234.0512033518671 1846.5153696953703 183.00000000000082
    vertex 1234.0512033518671 1835.0664809559369 68.38822856765461
  endloop
endfacet
facet normal -1.0 0.0 0.0
  outer loop
    vertex 1234.0512033518671 1835.0664809559369 68.38822856765461
    vertex 1234.0512033518671 1846.5153696953703 183.00000000000082
    vertex 1234.0512033518671 1835.2163315896937 68.75000000000084
  endloop
endfacet
facet normal -1.0 0.0 0.0
  outer loop
    vertex 1234.0512033518671 1835.2163315896937 68.75000000000084
    vertex 1234.0512033518671 1846.5153696953703 183.00000000000082
    vertex 1234.0512033518671 1835.4547095235907 69.06066017178065
  endloop
endfacet
facet normal -1.0 0.0 0.0
  outer loop
    vertex 1234.0512033518671 1835.4547095235907 69.06066017178065
    vertex 1234.0512033518671 1846.5153696953703 183.00000000000082
    vertex 1234.0512033518671 1835.7653696953707 69.2990381056775
  endloop
endfacet
facet normal -1.0 0.0 0.0
  outer loop
    vertex 1234.0512033518671 1835.7653696953707 69.2990381056775
    vertex 1234.0512033518671 1846.5153696953703 183.00000000000082
    vertex 1234.0512033518671 1836.1271411277166 69.44888873943445
  endloop
endfacet
facet normal -1.0 0.0 0.0
  outer loop
    vertex 1234.0512033518671 1836.1271411277166 69.44888873943445
    vertex 1234.0512033518671 1846.5153696953703 183.00000000000082
    vertex 1234.0512033518671 1836.5153696953705 69.50000000000084
  endloop
endfacet
facet normal -1.0 0.0 0.0
  outer loop
    vertex 1234.0512033518671 1836.5153696953705 69.50000000000084
    vertex 1234.0512033518671 1846.5153696953703 183.00000000000082
    vertex 1234.0512033518671 1836.9035982630244 69.44888873943445
  endloop
endfacet
facet normal -1.0 0.0 0.0
  outer loop
    vertex 1234.0512033518671 1836.9035982630244 69.44888873943445
    vertex 1234.0512033518671 1846.5153696953703 183.00000000000082
    vertex 1234.0512033518671 1837.2653696953707 69.2990381056775
  endloop
endfacet
facet normal -1.0 0.0 0.0
  outer loop
    vertex 1234.0512033518671 1837.2653696953707 69.2990381056775
    vertex 1234.0512033518671 1846.5153696953703 183.00000000000082
    vertex 1234.0512033518671 1837.5760298671503 69.06066017178065
  endloop
endfacet
facet normal -1.0 0.0 0.0
  outer loop
    vertex 1234.0512033518671 1837.5760298671503 69.06066017178065
    vertex 1234.0512033518671 1846.5153696953703 183.00000000000082
    vertex 1234.0512033518671 1837.8144078010473 68.75000000000084
  endloop
endfacet
facet normal -1.0 0.0 0.0
  outer loop
    vertex 1234.0512033518671 1837.8144078010473 68.75000000000084
    vertex 1234.0512033518671 1846.5153696953703 183.00000000000082
    vertex 1234.0512033518671 1837.9642584348042 68.38822856765461
  endloop
endfacet
facet normal -1.0 0.0 0.0
  outer loop
    vertex 1234.0512033518671 1837.9642584348042 68.38822856765461
    vertex 1234.0512033518671 1846.5153696953703 183.00000000000082
    vertex 1234.0512033518671 1838.0153696953705 68.00000000000082
  endloop
endfacet
facet normal -1.0 0.0 0.0
  outer loop
    vertex 1234.0512033518671 1838.0153696953705 68.00000000000082
    vertex 1234.0512033518671 1846.5153696953703 183.00000000000082
    vertex 1234.0512033518671 1839.103560146396 58.34074173711025
  endloop
endfacet
facet normal -1.0 0.0 0.0
  outer loop
    vertex 1234.0512033518671 1839.103560146396 58.34074173711025
    vertex 1234.0512033518671 1846.5153696953703 183.00000000000082
    vertex 1234.0512033518671 1841.5153696953705 59.339745962156535
  endloop
endfacet
facet normal -1.0 0.0 0.0
  outer loop
    vertex 1234.0512033518671 1841.5153696953705 59.339745962156535
    vertex 1234.0512033518671 1846.5153696953703 183.00000000000082
    vertex 1234.0512033518671 1843.5864375072358 60.928932188135434
  endloop
endfacet
facet normal -1.0 0.0 0.0
  outer loop
    vertex 1234.0512033518671 1843.5864375072358 60.928932188135434
    vertex 1234.0512033518671 1846.5153696953703 183.00000000000082
    vertex 1234.0512033518671 1845.1756237332147 63.000000000000874
  endloop
endfacet
facet normal -1.0 0.0 0.0
  outer loop
    vertex 1234.0512033518671 1845.1756237332147 63.000000000000874
    vertex 1234.0512033518671 1846.5153696953703 183.00000000000082
    vertex 1234.0512033518671 1846.174627958261 65.41180954897565
  endloop
endfacet
facet normal -1.0 0.0 0.0
  outer loop
    vertex 1234.0512033518671 1846.174627958261 65.41180954897565
    vertex 1234.0512033518671 1846.5153696953703 183.00000000000082
    vertex 1234.0512033518671 1846.5153696953703 68.00000000000082
  endloop
endfacet
facet normal -1.0 0.0 0.0
  outer loop
    vertex 1234.0512033518671 1833.927179244345 58.340741737110235
    vertex 1234.0512033518671 1835.0664809559369 67.61177143234703
    vertex 1234.0512033518671 1836.5153696953705 58.00000000000093
  endloop
endfacet
facet normal -1.0 0.0 0.0
  outer loop
    vertex 1234.0512033518671 1835.0664809559369 67.61177143234703
    vertex 1234.0512033518671 1833.927179244345 58.340741737110235
    vertex 1234.0512033518671 1835.0153696953705 68.00000000000082
  endloop
endfacet
facet normal -1.0 0.0 0.0
  outer loop
    vertex 1234.0512033518671 1836.5153696953705 58.00000000000093
    vertex 1234.0512033518671 1835.0664809559369 67.61177143234703
    vertex 1234.0512033518671 1835.2163315896937 67.25000000000081
  endloop
endfacet
facet normal -1.0 0.0 0.0
  outer loop
    vertex 1234.0512033518671 1836.5153696953705 58.00000000000093
    vertex 1234.0512033518671 1835.2163315896937 67.25000000000081
    vertex 1234.0512033518671 1835.4547095235907 66.939339828221
  endloop
endfacet
facet normal -1.0 0.0 0.0
  outer loop
    vertex 1234.0512033518671 1836.5153696953705 58.00000000000093
    vertex 1234.0512033518671 1835.4547095235907 66.939339828221
    vertex 1234.0512033518671 1835.7653696953703 66.70096189432415
  endloop
endfacet
facet normal -1.0 0.0 0.0
  outer loop
    vertex 1234.0512033518671 1836.5153696953705 58.00000000000093
    vertex 1234.0512033518671 1835.7653696953703 66.70096189432415
    vertex 1234.0512033518671 1836.1271411277166 66.5511112605672
  endloop
endfacet
facet normal -1.0 0.0 0.0
  outer loop
    vertex 1234.0512033518671 1836.5153696953705 58.00000000000093
    vertex 1234.0512033518671 1836.1271411277166 66.5511112605672
    vertex 1234.0512033518671 1836.5153696953705 66.50000000000081
  endloop
endfacet
facet normal -1.0 0.0 0.0
  outer loop
    vertex 1234.0512033518671 1836.5153696953705 58.00000000000093
    vertex 1234.0512033518671 1836.5153696953705 66.50000000000081
    vertex 1234.0512033518671 1836.9035982630244 66.5511112605672
  endloop
endfacet
facet normal -1.0 0.0 0.0
  outer loop
    vertex 1234.0512033518671 1836.5153696953705 58.00000000000093
    vertex 1234.0512033518671 1836.9035982630244 66.5511112605672
    vertex 1234.0512033518671 1839.103560146396 58.34074173711025
  endloop
endfacet
facet normal -1.0 0.0 0.0
  outer loop
    vertex 1234.0512033518671 1839.103560146396 58.34074173711025
    vertex 1234.0512033518671 1836.9035982630244 66.5511112605672
    vertex 1234.0512033518671 1837.2653696953703 66.70096189432415
  endloop
endfacet
facet normal -1.0 0.0 0.0
  outer loop
    vertex 1234.0512033518671 1839.103560146396 58.34074173711025
    vertex 1234.0512033518671 1837.2653696953703 66.70096189432415
    vertex 1234.0512033518671 1837.5760298671503 66.939339828221
  endloop
endfacet
facet normal -1.0 0.0 0.0
  outer loop
    vertex 1234.0512033518671 1839.103560146396 58.34074173711025
    vertex 1234.0512033518671 1837.5760298671503 66.939339828221
    vertex 1234.0512033518671 1837.8144078010473 67.25000000000081
  endloop
endfacet
facet normal -1.0 0.0 0.0
  outer loop
    vertex 1234.0512033518671 1839.103560146396 58.34074173711025
    vertex 1234.0512033518671 1837.8144078010473 67.25000000000081
    vertex 1234.0512033518671 1837.9642584348042 67.61177143234703
  endloop
endfacet
facet normal -1.0 0.0 0.0
  outer loop
    vertex 1234.0512033518671 1839.103560146396 58.34074173711025
    vertex 1234.0512033518671 1837.9642584348042 67.61177143234703
    vertex 1234.0512033518671 1838.0153696953705 68.00000000000082
  endloop
endfacet
facet normal 1.0 0.0 0.0
  outer loop
    vertex 1244.0512033518673 1833.927179244345 58.340741737110235
    vertex 1244.0512033518673 1833.5153696953705 68.00000000000082
    vertex 1244.0512033518673 1831.5153696953705 59.339745962156535
  endloop
endfacet
facet normal 1.0 0.0 0.0
  outer loop
    vertex 1244.0512033518673 1833.5153696953705 68.00000000000082
    vertex 1244.0512033518673 1833.927179244345 58.340741737110235
    vertex 1244.0512033518673 1833.617592216503 67.22354286469324
  endloop
endfacet
facet normal 1.0 0.0 0.0
  outer loop
    vertex 1244.0512033518673 1833.617592216503 67.22354286469324
    vertex 1244.0512033518673 1833.927179244345 58.340741737110235
    vertex 1244.0512033518673 1833.917293484017 66.50000000000081
  endloop
endfacet
facet normal 1.0 0.0 0.0
  outer loop
    vertex 1244.0512033518673 1833.917293484017 66.50000000000081
    vertex 1244.0512033518673 1833.927179244345 58.340741737110235
    vertex 1244.0512033518673 1834.394049351811 65.87867965644115
  endloop
endfacet
facet normal 1.0 0.0 0.0
  outer loop
    vertex 1244.0512033518673 1834.394049351811 65.87867965644115
    vertex 1244.0512033518673 1833.927179244345 58.340741737110235
    vertex 1244.0512033518673 1836.5153696953705 58.00000000000093
  endloop
endfacet
facet normal 1.0 0.0 0.0
  outer loop
    vertex 1244.0512033518673 1834.394049351811 65.87867965644115
    vertex 1244.0512033518673 1836.5153696953705 58.00000000000093
    vertex 1244.0512033518673 1835.0153696953705 65.40192378864748
  endloop
endfacet
facet normal 1.0 0.0 0.0
  outer loop
    vertex 1244.0512033518673 1835.0153696953705 65.40192378864748
    vertex 1244.0512033518673 1836.5153696953705 58.00000000000093
    vertex 1244.0512033518673 1835.738912560063 65.10222252113358
  endloop
endfacet
facet normal 1.0 0.0 0.0
  outer loop
    vertex 1244.0512033518673 1835.738912560063 65.10222252113358
    vertex 1244.0512033518673 1836.5153696953705 58.00000000000093
    vertex 1244.0512033518673 1836.5153696953705 65.00000000000078
  endloop
endfacet
facet normal 1.0 0.0 0.0
  outer loop
    vertex 1244.0512033518673 1836.5153696953705 65.00000000000078
    vertex 1244.0512033518673 1836.5153696953705 58.00000000000093
    vertex 1244.0512033518673 1839.103560146396 58.34074173711025
  endloop
endfacet
facet normal 1.0 0.0 0.0
  outer loop
    vertex 1244.0512033518673 1836.5153696953705 65.00000000000078
    vertex 1244.0512033518673 1839.103560146396 58.34074173711025
    vertex 1244.0512033518673 1837.2918268306778 65.10222252113358
  endloop
endfacet
facet normal 1.0 0.0 0.0
  outer loop
    vertex 1244.0512033518673 1837.2918268306778 65.10222252113358
    vertex 1244.0512033518673 1839.103560146396 58.34074173711025
    vertex 1244.0512033518673 1838.0153696953705 65.40192378864748
  endloop
endfacet
facet normal 1.0 0.0 0.0
  outer loop
    vertex 1244.0512033518673 1838.0153696953705 65.40192378864748
    vertex 1244.0512033518673 1839.103560146396 58.34074173711025
    vertex 1244.0512033518673 1838.63669003893 65.87867965644115
  endloop
endfacet
facet normal 1.0 0.0 0.0
  outer loop
    vertex 1244.0512033518673 1838.63669003893 65.87867965644115
    vertex 1244.0512033518673 1839.103560146396 58.34074173711025
    vertex 1244.0512033518673 1839.113445906724 66.50000000000081
  endloop
endfacet
facet normal 1.0 0.0 0.0
  outer loop
    vertex 1244.0512033518673 1839.113445906724 66.50000000000081
    vertex 1244.0512033518673 1839.103560146396 58.34074173711025
    vertex 1244.0512033518673 1841.5153696953705 59.339745962156535
  endloop
endfacet
facet normal 1.0 0.0 0.0
  outer loop
    vertex 1244.0512033518673 1839.113445906724 66.50000000000081
    vertex 1244.0512033518673 1841.5153696953705 59.339745962156535
    vertex 1244.0512033518673 1839.4131471742378 67.22354286469326
  endloop
endfacet
facet normal 1.0 0.0 0.0
  outer loop
    vertex 1244.0512033518673 1839.4131471742378 67.22354286469326
    vertex 1244.0512033518673 1841.5153696953705 59.339745962156535
    vertex 1244.0512033518673 1839.5153696953705 68.00000000000082
  endloop
endfacet
facet normal 1.0 0.0 0.0
  outer loop
    vertex 1244.0512033518673 1826.85611143248 65.41180954897564
    vertex 1244.0512033518673 1826.5153696953705 183.00000000000082
    vertex 1244.0512033518673 1826.5153696953705 68.00000000000082
  endloop
endfacet
facet normal 1.0 0.0 0.0
  outer loop
    vertex 1244.0512033518673 1826.5153696953705 183.00000000000082
    vertex 1244.0512033518673 1826.85611143248 65.41180954897564
    vertex 1244.0512033518673 1846.5153696953703 183.00000000000082
  endloop
endfacet
facet normal 1.0 0.0 0.0
  outer loop
    vertex 1244.0512033518673 1846.5153696953703 183.00000000000082
    vertex 1244.0512033518673 1826.85611143248 65.41180954897564
    vertex 1244.0512033518673 1827.8551156575263 63.000000000000874
  endloop
endfacet
facet normal 1.0 0.0 0.0
  outer loop
    vertex 1244.0512033518673 1846.5153696953703 183.00000000000082
    vertex 1244.0512033518673 1827.8551156575263 63.000000000000874
    vertex 1244.0512033518673 1829.4443018835052 60.92893218813542
  endloop
endfacet
facet normal 1.0 0.0 0.0
  outer loop
    vertex 1244.0512033518673 1846.5153696953703 183.00000000000082
    vertex 1244.0512033518673 1829.4443018835052 60.92893218813542
    vertex 1244.0512033518673 1831.5153696953705 59.339745962156535
  endloop
endfacet
facet normal 1.0 0.0 0.0
  outer loop
    vertex 1244.0512033518673 1846.5153696953703 183.00000000000082
    vertex 1244.0512033518673 1831.5153696953705 59.339745962156535
    vertex 1244.0512033518673 1833.5153696953705 68.00000000000082
  endloop
endfacet
facet normal 1.0 0.0 0.0
  outer loop
    vertex 1244.0512033518673 1846.5153696953703 183.00000000000082
    vertex 1244.0512033518673 1833.5153696953705 68.00000000000082
    vertex 1244.0512033518673 1833.617592216503 68.77645713530839
  endloop
endfacet
facet normal 1.0 0.0 0.0
  outer loop
    vertex 1244.0512033518673 1846.5153696953703 183.00000000000082
    vertex 1244.0512033518673 1833.617592216503 68.77645713530839
    vertex 1244.0512033518673 1833.917293484017 69.50000000000084
  endloop
endfacet
facet normal 1.0 0.0 0.0
  outer loop
    vertex 1244.0512033518673 1846.5153696953703 183.00000000000082
    vertex 1244.0512033518673 1833.917293484017 69.50000000000084
    vertex 1244.0512033518673 1834.394049351811 70.1213203435605
  endloop
endfacet
facet normal 1.0 0.0 0.0
  outer loop
    vertex 1244.0512033518673 1846.5153696953703 183.00000000000082
    vertex 1244.0512033518673 1834.394049351811 70.1213203435605
    vertex 1244.0512033518673 1835.0153696953705 70.59807621135417
  endloop
endfacet
facet normal 1.0 0.0 0.0
  outer loop
    vertex 1244.0512033518673 1846.5153696953703 183.00000000000082
    vertex 1244.0512033518673 1835.0153696953705 70.59807621135417
    vertex 1244.0512033518673 1835.738912560063 70.89777747886806
  endloop
endfacet
facet normal 1.0 0.0 0.0
  outer loop
    vertex 1244.0512033518673 1846.5153696953703 183.00000000000082
    vertex 1244.0512033518673 1835.738912560063 70.89777747886806
    vertex 1244.0512033518673 1836.5153696953705 71.00000000000087
  endloop
endfacet
facet normal 1.0 0.0 0.0
  outer loop
    vertex 1244.0512033518673 1846.5153696953703 183.00000000000082
    vertex 1244.0512033518673 1836.5153696953705 71.00000000000087
    vertex 1244.0512033518673 1837.2918268306778 70.89777747886806
  endloop
endfacet
facet normal 1.0 0.0 0.0
  outer loop
    vertex 1244.0512033518673 1846.5153696953703 183.00000000000082
    vertex 1244.0512033518673 1837.2918268306778 70.89777747886806
    vertex 1244.0512033518673 1838.0153696953705 70.59807621135417
  endloop
endfacet
facet normal 1.0 0.0 0.0
  outer loop
    vertex 1244.0512033518673 1846.5153696953703 183.00000000000082
    vertex 1244.0512033518673 1838.0153696953705 70.59807621135417
    vertex 1244.0512033518673 1838.63669003893 70.1213203435605
  endloop
endfacet
facet normal 1.0 0.0 0.0
  outer loop
    vertex 1244.0512033518673 1846.5153696953703 183.00000000000082
    vertex 1244.0512033518673 1838.63669003893 70.1213203435605
    vertex 1244.0512033518673 1839.113445906724 69.50000000000084
  endloop
endfacet
facet normal 1.0 0.0 0.0
  outer loop
    vertex 1244.0512033518673 1846.5153696953703 183.00000000000082
    vertex 1244.0512033518673 1839.113445906724 69.50000000000084
    vertex 1244.0512033518673 1839.4131471742378 68.77645713530839
  endloop
endfacet
facet normal 1.0 0.0 0.0
  outer loop
    vertex 1244.0512033518673 1846.5153696953703 183.00000000000082
    vertex 1244.0512033518673 1839.4131471742378 68.77645713530839
    vertex 1244.0512033518673 1839.5153696953705 68.00000000000082
  endloop
endfacet
facet normal 1.0 0.0 0.0
  outer loop
    vertex 1244.0512033518673 1846.5153696953703 183.00000000000082
    vertex 1244.0512033518673 1839.5153696953705 68.00000000000082
    vertex 1244.0512033518673 1841.5153696953705 59.339745962156535
  endloop
endfacet
facet normal 1.0 0.0 0.0
  outer loop
    vertex 1244.0512033518673 1846.5153696953703 183.00000000000082
    vertex 1244.0512033518673 1841.5153696953705 59.339745962156535
    vertex 1244.0512033518673 1843.5864375072358 60.928932188135434
  endloop
endfacet
facet normal 1.0 0.0 0.0
  outer loop
    vertex 1244.0512033518673 1846.5153696953703 183.00000000000082
    vertex 1244.0512033518673 1843.5864375072358 60.928932188135434
    vertex 1244.0512033518673 1845.1756237332147 63.000000000000874
  endloop
endfacet
facet normal 1.0 0.0 0.0
  outer loop
    vertex 1244.0512033518673 1846.5153696953703 183.00000000000082
    vertex 1244.0512033518673 1845.1756237332147 63.000000000000874
    vertex 1244.0512033518673 1846.174627958261 65.41180954897565
  endloop
endfacet
facet normal 1.0 0.0 0.0
  outer loop
    vertex 1244.0512033518673 1846.5153696953703 183.00000000000082
    vertex 1244.0512033518673 1846.174627958261 65.41180954897565
    vertex 1244.0512033518673 1846.5153696953703 68.00000000000082
  endloop
endfacet
facet normal 0.0 -0.38268343236502184 0.9238795325113149
  outer loop
    vertex 1244.0512033518673 1837.2918268306778 65.10222252113358
    vertex 1236.0512033518673 1838.0153696953705 65.40192378864748
    vertex 1236.0512033518673 1837.2918268306778 65.10222252113358
  endloop
endfacet
facet normal 0.0 -0.38268343236502184 0.9238795325113149
  outer loop
    vertex 1236.0512033518673 1838.0153696953705 65.40192378864748
    vertex 1244.0512033518673 1837.2918268306778 65.10222252113358
    vertex 1244.0512033518673 1838.0153696953705 65.40192378864748
  endloop
endfacet
facet normal 0.0 -0.9238795325113027 -0.38268343236505115
  outer loop
    vertex 1244.0512033518673 1839.113445906724 69.50000000000084
    vertex 1236.0512033518673 1839.4131471742378 68.77645713530839
    vertex 1244.0512033518673 1839.4131471742378 68.77645713530839
  endloop
endfacet
facet normal 0.0 -0.9238795325113027 -0.38268343236505115
  outer loop
    vertex 1236.0512033518673 1839.4131471742378 68.77645713530839
    vertex 1244.0512033518673 1839.113445906724 69.50000000000084
    vertex 1236.0512033518673 1839.113445906724 69.50000000000084
  endloop
endfacet
facet normal 0.0 0.9238795325113007 0.38268343236505625
  outer loop
    vertex 1236.0512033518673 1833.617592216503 67.22354286469324
    vertex 1244.0512033518673 1833.917293484017 66.50000000000081
    vertex 1236.0512033518673 1833.917293484017 66.50000000000081
  endloop
endfacet
facet normal 0.0 0.9238795325113007 0.38268343236505625
  outer loop
    vertex 1244.0512033518673 1833.917293484017 66.50000000000081
    vertex 1236.0512033518673 1833.617592216503 67.22354286469324
    vertex 1244.0512033518673 1833.617592216503 67.22354286469324
  endloop
endfacet
facet normal -0.0 -0.793353340291212 -0.608761429008751
  outer loop
    vertex 1244.0512033518673 1827.8551156575263 63.000000000000874
    vertex 1234.0512033518671 1829.4443018835052 60.92893218813542
    vertex 1244.0512033518673 1829.4443018835052 60.92893218813542
  endloop
endfacet
facet normal -0.0 -0.793353340291212 -0.608761429008751
  outer loop
    vertex 1234.0512033518671 1829.4443018835052 60.92893218813542
    vertex 1244.0512033518673 1827.8551156575263 63.000000000000874
    vertex 1234.0512033518671 1827.8551156575263 63.000000000000874
  endloop
endfacet
facet normal 0.0 0.6087614290089816 0.793353340291035
  outer loop
    vertex 1236.0512033518673 1835.4547095235907 66.939339828221
    vertex 1234.0512033518671 1835.7653696953703 66.70096189432415
    vertex 1234.0512033518671 1835.4547095235907 66.939339828221
  endloop
endfacet
facet normal 0.0 0.6087614290089816 0.793353340291035
  outer loop
    vertex 1234.0512033518671 1835.7653696953703 66.70096189432415
    vertex 1236.0512033518673 1835.4547095235907 66.939339828221
    vertex 1236.0512033518673 1835.7653696953703 66.70096189432415
  endloop
endfacet
facet normal -0.0 -0.9238795325113007 -0.38268343236505625
  outer loop
    vertex 1236.0512033518673 1837.8144078010473 68.75000000000084
    vertex 1234.0512033518671 1837.9642584348042 68.38822856765461
    vertex 1236.0512033518673 1837.9642584348042 68.38822856765461
  endloop
endfacet
facet normal -0.0 -0.9238795325113007 -0.38268343236505625
  outer loop
    vertex 1234.0512033518671 1837.9642584348042 68.38822856765461
    vertex 1236.0512033518673 1837.8144078010473 68.75000000000084
    vertex 1234.0512033518671 1837.8144078010473 68.75000000000084
  endloop
endfacet
facet normal 0.0 0.13052619222000825 0.9914448613738162
  outer loop
    vertex 1236.0512033518673 1836.1271411277166 66.5511112605672
    vertex 1234.0512033518671 1836.5153696953705 66.50000000000081
    vertex 1234.0512033518671 1836.1271411277166 66.5511112605672
  endloop
endfacet
facet normal 0.0 0.13052619222000825 0.9914448613738162
  outer loop
    vertex 1234.0512033518671 1836.5153696953705 66.50000000000081
    vertex 1236.0512033518673 1836.1271411277166 66.5511112605672
    vertex 1236.0512033518673 1836.5153696953705 66.50000000000081
  endloop
endfacet
facet normal -0.0 -0.6087614290089816 -0.793353340291035
  outer loop
    vertex 1236.0512033518673 1837.5760298671503 69.06066017178065
    vertex 1234.0512033518671 1837.2653696953707 69.2990381056775
    vertex 1234.0512033518671 1837.5760298671503 69.06066017178065
  endloop
endfacet
facet normal -0.0 -0.6087614290089816 -0.793353340291035
  outer loop
    vertex 1234.0512033518671 1837.2653696953707 69.2990381056775
    vertex 1236.0512033518673 1837.5760298671503 69.06066017178065
    vertex 1236.0512033518673 1837.2653696953707 69.2990381056775
  endloop
endfacet
facet normal -0.0 -0.13052619222000825 -0.9914448613738162
  outer loop
    vertex 1236.0512033518673 1836.9035982630244 69.44888873943445
    vertex 1234.0512033518671 1836.5153696953705 69.50000000000084
    vertex 1234.0512033518671 1836.9035982630244 69.44888873943445
  endloop
endfacet
facet normal -0.0 -0.13052619222000825 -0.9914448613738162
  outer loop
    vertex 1234.0512033518671 1836.5153696953705 69.50000000000084
    vertex 1236.0512033518673 1836.9035982630244 69.44888873943445
    vertex 1236.0512033518673 1836.5153696953705 69.50000000000084
  endloop
endfacet
facet normal -0.0 -0.38268343236511476 -0.9238795325112766
  outer loop
    vertex 1244.0512033518673 1833.927179244345 58.340741737110235
    vertex 1234.0512033518671 1831.5153696953705 59.339745962156535
    vertex 1234.0512033518671 1833.927179244345 58.340741737110235
  endloop
endfacet
facet normal -0.0 -0.38268343236511476 -0.9238795325112766
  outer loop
    vertex 1234.0512033518671 1831.5153696953705 59.339745962156535
    vertex 1244.0512033518673 1833.927179244345 58.340741737110235
    vertex 1244.0512033518673 1831.5153696953705 59.339745962156535
  endloop
endfacet
facet normal -0.0 -0.9914448613738098 -0.13052619222005724
  outer loop
    vertex 1244.0512033518673 1826.5153696953705 68.00000000000082
    vertex 1234.0512033518671 1826.85611143248 65.41180954897564
    vertex 1244.0512033518673 1826.85611143248 65.41180954897564
  endloop
endfacet
facet normal -0.0 -0.9914448613738098 -0.13052619222005724
  outer loop
    vertex 1234.0512033518671 1826.85611143248 65.41180954897564
    vertex 1244.0512033518673 1826.5153696953705 68.00000000000082
    vertex 1234.0512033518671 1826.5153696953705 68.00000000000082
  endloop
endfacet
facet normal 0.0 0.7933533402910848 0.6087614290089167
  outer loop
    vertex 1234.0512033518671 1835.2163315896937 67.25000000000081
    vertex 1236.0512033518673 1835.4547095235907 66.939339828221
    vertex 1234.0512033518671 1835.4547095235907 66.939339828221
  endloop
endfacet
facet normal 0.0 0.7933533402910848 0.6087614290089167
  outer loop
    vertex 1236.0512033518673 1835.4547095235907 66.939339828221
    vertex 1234.0512033518671 1835.2163315896937 67.25000000000081
    vertex 1236.0512033518673 1835.2163315896937 67.25000000000081
  endloop
endfacet
facet normal 0.0 0.7933533402910848 -0.6087614290089167
  outer loop
    vertex 1236.0512033518673 1834.394049351811 70.1213203435605
    vertex 1244.0512033518673 1833.917293484017 69.50000000000084
    vertex 1236.0512033518673 1833.917293484017 69.50000000000084
  endloop
endfacet
facet normal 0.0 0.7933533402910848 -0.6087614290089167
  outer loop
    vertex 1244.0512033518673 1833.917293484017 69.50000000000084
    vertex 1236.0512033518673 1834.394049351811 70.1213203435605
    vertex 1244.0512033518673 1834.394049351811 70.1213203435605
  endloop
endfacet
facet normal 0.0 -0.7933533402910848 0.6087614290089167
  outer loop
    vertex 1236.0512033518673 1837.8144078010473 67.25000000000081
    vertex 1234.0512033518671 1837.5760298671503 66.939339828221
    vertex 1236.0512033518673 1837.5760298671503 66.939339828221
  endloop
endfacet
facet normal 0.0 -0.7933533402910848 0.6087614290089167
  outer loop
    vertex 1234.0512033518671 1837.5760298671503 66.939339828221
    vertex 1236.0512033518673 1837.8144078010473 67.25000000000081
    vertex 1234.0512033518671 1837.8144078010473 67.25000000000081
  endloop
endfacet
facet normal 0.0 0.9914448613738343 0.13052619221987194
  outer loop
    vertex 1236.0512033518673 1833.5153696953705 68.00000000000082
    vertex 1244.0512033518673 1833.617592216503 67.22354286469324
    vertex 1236.0512033518673 1833.617592216503 67.22354286469324
  endloop
endfacet
facet normal 0.0 0.9914448613738343 0.13052619221987194
  outer loop
    vertex 1244.0512033518673 1833.617592216503 67.22354286469324
    vertex 1236.0512033518673 1833.5153696953705 68.00000000000082
    vertex 1244.0512033518673 1833.5153696953705 68.00000000000082
  endloop
endfacet
facet normal 0.0 -0.9914448613738339 0.1305261922198738
  outer loop
    vertex 1244.0512033518673 1839.5153696953705 68.00000000000082
    vertex 1236.0512033518673 1839.4131471742378 67.22354286469326
    vertex 1244.0512033518673 1839.4131471742378 67.22354286469326
  endloop
endfacet
facet normal 0.0 -0.9914448613738339 0.1305261922198738
  outer loop
    vertex 1236.0512033518673 1839.4131471742378 67.22354286469326
    vertex 1244.0512033518673 1839.5153696953705 68.00000000000082
    vertex 1236.0512033518673 1839.5153696953705 68.00000000000082
  endloop
endfacet
facet normal 0.0 0.9914448613738343 -0.13052619221987194
  outer loop
    vertex 1234.0512033518671 1835.0664809559369 68.38822856765461
    vertex 1236.0512033518673 1835.0153696953705 68.00000000000082
    vertex 1234.0512033518671 1835.0153696953705 68.00000000000082
  endloop
endfacet
facet normal 0.0 0.9914448613738343 -0.13052619221987194
  outer loop
    vertex 1236.0512033518673 1835.0153696953705 68.00000000000082
    vertex 1234.0512033518671 1835.0664809559369 68.38822856765461
    vertex 1236.0512033518673 1835.0664809559369 68.38822856765461
  endloop
endfacet
facet normal 0.0 0.9914448613738096 -0.1305261922200578
  outer loop
    vertex 1234.0512033518671 1846.5153696953703 68.00000000000082
    vertex 1244.0512033518673 1846.174627958261 65.41180954897565
    vertex 1234.0512033518671 1846.174627958261 65.41180954897565
  endloop
endfacet
facet normal 0.0 0.9914448613738096 -0.1305261922200578
  outer loop
    vertex 1244.0512033518673 1846.174627958261 65.41180954897565
    vertex 1234.0512033518671 1846.5153696953703 68.00000000000082
    vertex 1244.0512033518673 1846.5153696953703 68.00000000000082
  endloop
endfacet
facet normal 0.0 0.6087614290087545 -0.7933533402912094
  outer loop
    vertex 1244.0512033518673 1843.5864375072358 60.928932188135434
    vertex 1234.0512033518671 1841.5153696953705 59.339745962156535
    vertex 1234.0512033518671 1843.5864375072358 60.928932188135434
  endloop
endfacet
facet normal 0.0 0.6087614290087545 -0.7933533402912094
  outer loop
    vertex 1234.0512033518671 1841.5153696953705 59.339745962156535
    vertex 1244.0512033518673 1843.5864375072358 60.928932188135434
    vertex 1244.0512033518673 1841.5153696953705 59.339745962156535
  endloop
endfacet
facet normal 0.0 -0.6087614290085364 0.7933533402913766
  outer loop
    vertex 1236.0512033518673 1837.2653696953703 66.70096189432415
    vertex 1234.0512033518671 1837.5760298671503 66.939339828221
    vertex 1234.0512033518671 1837.2653696953703 66.70096189432415
  endloop
endfacet
facet normal 0.0 -0.6087614290085364 0.7933533402913766
  outer loop
    vertex 1234.0512033518671 1837.5760298671503 66.939339828221
    vertex 1236.0512033518673 1837.2653696953703 66.70096189432415
    vertex 1236.0512033518673 1837.5760298671503 66.939339828221
  endloop
endfacet
facet normal 0.0 -0.9238795325113007 0.38268343236505625
  outer loop
    vertex 1236.0512033518673 1837.9642584348042 67.61177143234703
    vertex 1234.0512033518671 1837.8144078010473 67.25000000000081
    vertex 1236.0512033518673 1837.8144078010473 67.25000000000081
  endloop
endfacet
facet normal 0.0 -0.9238795325113007 0.38268343236505625
  outer loop
    vertex 1234.0512033518671 1837.8144078010473 67.25000000000081
    vertex 1236.0512033518673 1837.9642584348042 67.61177143234703
    vertex 1234.0512033518671 1837.9642584348042 67.61177143234703
  endloop
endfacet
facet normal 0.0 0.7933533402912103 -0.6087614290087531
  outer loop
    vertex 1234.0512033518671 1845.1756237332147 63.000000000000874
    vertex 1244.0512033518673 1843.5864375072358 60.928932188135434
    vertex 1234.0512033518671 1843.5864375072358 60.928932188135434
  endloop
endfacet
facet normal 0.0 0.7933533402912103 -0.6087614290087531
  outer loop
    vertex 1244.0512033518673 1843.5864375072358 60.928932188135434
    vertex 1234.0512033518671 1845.1756237332147 63.000000000000874
    vertex 1244.0512033518673 1845.1756237332147 63.000000000000874
  endloop
endfacet
facet normal 0.0 0.9238795325113007 -0.38268343236505625
  outer loop
    vertex 1234.0512033518671 1835.2163315896937 68.75000000000084
    vertex 1236.0512033518673 1835.0664809559369 68.38822856765461
    vertex 1234.0512033518671 1835.0664809559369 68.38822856765461
  endloop
endfacet
facet normal 0.0 0.9238795325113007 -0.38268343236505625
  outer loop
    vertex 1236.0512033518673 1835.0664809559369 68.38822856765461
    vertex 1234.0512033518671 1835.2163315896937 68.75000000000084
    vertex 1236.0512033518673 1835.2163315896937 68.75000000000084
  endloop
endfacet
facet normal -0.0 -0.6087614290087517 -0.7933533402912114
  outer loop
    vertex 1244.0512033518673 1831.5153696953705 59.339745962156535
    vertex 1234.0512033518671 1829.4443018835052 60.92893218813542
    vertex 1234.0512033518671 1831.5153696953705 59.339745962156535
  endloop
endfacet
facet normal -0.0 -0.6087614290087517 -0.7933533402912114
  outer loop
    vertex 1234.0512033518671 1829.4443018835052 60.92893218813542
    vertex 1244.0512033518673 1831.5153696953705 59.339745962156535
    vertex 1244.0512033518673 1829.4443018835052 60.92893218813542
  endloop
endfacet
facet normal 0.0 0.13052619222000825 -0.9914448613738162
  outer loop
    vertex 1236.0512033518673 1836.5153696953705 69.50000000000084
    vertex 1234.0512033518671 1836.1271411277166 69.44888873943445
    vertex 1234.0512033518671 1836.5153696953705 69.50000000000084
  endloop
endfacet
facet normal 0.0 0.13052619222000825 -0.9914448613738162
  outer loop
    vertex 1234.0512033518671 1836.1271411277166 69.44888873943445
    vertex 1236.0512033518673 1836.5153696953705 69.50000000000084
    vertex 1236.0512033518673 1836.1271411277166 69.44888873943445
  endloop
endfacet
facet normal -0.0 -0.9914448613738343 -0.13052619221987194
  outer loop
    vertex 1236.0512033518673 1837.9642584348042 68.38822856765461
    vertex 1234.0512033518671 1838.0153696953705 68.00000000000082
    vertex 1236.0512033518673 1838.0153696953705 68.00000000000082
  endloop
endfacet
facet normal -0.0 -0.9914448613738343 -0.13052619221987194
  outer loop
    vertex 1234.0512033518671 1838.0153696953705 68.00000000000082
    vertex 1236.0512033518673 1837.9642584348042 68.38822856765461
    vertex 1234.0512033518671 1837.9642584348042 68.38822856765461
  endloop
endfacet
facet normal 0.0 0.38268343236536 -0.9238795325111748
  outer loop
    vertex 1236.0512033518673 1836.1271411277166 69.44888873943445
    vertex 1234.0512033518671 1835.7653696953707 69.2990381056775
    vertex 1234.0512033518671 1836.1271411277166 69.44888873943445
  endloop
endfacet
facet normal 0.0 0.38268343236536 -0.9238795325111748
  outer loop
    vertex 1234.0512033518671 1835.7653696953707 69.2990381056775
    vertex 1236.0512033518673 1836.1271411277166 69.44888873943445
    vertex 1236.0512033518673 1835.7653696953707 69.2990381056775
  endloop
endfacet
facet normal 0.0 0.3826834323650341 0.9238795325113098
  outer loop
    vertex 1236.0512033518673 1835.7653696953703 66.70096189432415
    vertex 1234.0512033518671 1836.1271411277166 66.5511112605672
    vertex 1234.0512033518671 1835.7653696953703 66.70096189432415
  endloop
endfacet
facet normal 0.0 0.3826834323650341 0.9238795325113098
  outer loop
    vertex 1234.0512033518671 1836.1271411277166 66.5511112605672
    vertex 1236.0512033518673 1835.7653696953703 66.70096189432415
    vertex 1236.0512033518673 1836.1271411277166 66.5511112605672
  endloop
endfacet
facet normal 0.0 0.6087614290085364 -0.7933533402913766
  outer loop
    vertex 1236.0512033518673 1835.7653696953707 69.2990381056775
    vertex 1234.0512033518671 1835.4547095235907 69.06066017178065
    vertex 1234.0512033518671 1835.7653696953707 69.2990381056775
  endloop
endfacet
facet normal 0.0 0.6087614290085364 -0.7933533402913766
  outer loop
    vertex 1234.0512033518671 1835.4547095235907 69.06066017178065
    vertex 1236.0512033518673 1835.7653696953707 69.2990381056775
    vertex 1236.0512033518673 1835.4547095235907 69.06066017178065
  endloop
endfacet
facet normal 1.0 0.0 0.0
  outer loop
    vertex 1236.0512033518673 1835.0153696953705 65.40192378864748
    vertex 1236.0512033518673 1835.0664809559369 67.61177143234703
    vertex 1236.0512033518673 1835.0153696953705 68.00000000000082
  endloop
endfacet
facet normal 1.0 0.0 0.0
  outer loop
    vertex 1236.0512033518673 1835.0664809559369 67.61177143234703
    vertex 1236.0512033518673 1835.0153696953705 65.40192378864748
    vertex 1236.0512033518673 1835.738912560063 65.10222252113358
  endloop
endfacet
facet normal 1.0 0.0 0.0
  outer loop
    vertex 1236.0512033518673 1835.0664809559369 67.61177143234703
    vertex 1236.0512033518673 1835.738912560063 65.10222252113358
    vertex 1236.0512033518673 1835.2163315896937 67.25000000000081
  endloop
endfacet
facet normal 1.0 0.0 0.0
  outer loop
    vertex 1236.0512033518673 1835.2163315896937 67.25000000000081
    vertex 1236.0512033518673 1835.738912560063 65.10222252113358
    vertex 1236.0512033518673 1835.4547095235907 66.939339828221
  endloop
endfacet
facet normal 1.0 0.0 0.0
  outer loop
    vertex 1236.0512033518673 1835.4547095235907 66.939339828221
    vertex 1236.0512033518673 1835.738912560063 65.10222252113358
    vertex 1236.0512033518673 1835.7653696953703 66.70096189432415
  endloop
endfacet
facet normal 1.0 0.0 0.0
  outer loop
    vertex 1236.0512033518673 1835.7653696953703 66.70096189432415
    vertex 1236.0512033518673 1835.738912560063 65.10222252113358
    vertex 1236.0512033518673 1836.5153696953705 65.00000000000078
  endloop
endfacet
facet normal 1.0 0.0 0.0
  outer loop
    vertex 1236.0512033518673 1835.7653696953703 66.70096189432415
    vertex 1236.0512033518673 1836.5153696953705 65.00000000000078
    vertex 1236.0512033518673 1836.1271411277166 66.5511112605672
  endloop
endfacet
facet normal 1.0 0.0 0.0
  outer loop
    vertex 1236.0512033518673 1836.1271411277166 66.5511112605672
    vertex 1236.0512033518673 1836.5153696953705 65.00000000000078
    vertex 1236.0512033518673 1836.5153696953705 66.50000000000081
  endloop
endfacet
facet normal 1.0 0.0 0.0
  outer loop
    vertex 1236.0512033518673 1836.5153696953705 66.50000000000081
    vertex 1236.0512033518673 1836.5153696953705 65.00000000000078
    vertex 1236.0512033518673 1837.2918268306778 65.10222252113358
  endloop
endfacet
facet normal 1.0 0.0 0.0
  outer loop
    vertex 1236.0512033518673 1836.5153696953705 66.50000000000081
    vertex 1236.0512033518673 1837.2918268306778 65.10222252113358
    vertex 1236.0512033518673 1836.9035982630244 66.5511112605672
  endloop
endfacet
facet normal 1.0 0.0 0.0
  outer loop
    vertex 1236.0512033518673 1836.9035982630244 66.5511112605672
    vertex 1236.0512033518673 1837.2918268306778 65.10222252113358
    vertex 1236.0512033518673 1837.2653696953703 66.70096189432415
  endloop
endfacet
facet normal 1.0 0.0 0.0
  outer loop
    vertex 1236.0512033518673 1837.2653696953703 66.70096189432415
    vertex 1236.0512033518673 1837.2918268306778 65.10222252113358
    vertex 1236.0512033518673 1837.5760298671503 66.939339828221
  endloop
endfacet
facet normal 1.0 0.0 0.0
  outer loop
    vertex 1236.0512033518673 1837.5760298671503 66.939339828221
    vertex 1236.0512033518673 1837.2918268306778 65.10222252113358
    vertex 1236.0512033518673 1838.0153696953705 65.40192378864748
  endloop
endfacet
facet normal 1.0 0.0 0.0
  outer loop
    vertex 1236.0512033518673 1837.5760298671503 66.939339828221
    vertex 1236.0512033518673 1838.0153696953705 65.40192378864748
    vertex 1236.0512033518673 1837.8144078010473 67.25000000000081
  endloop
endfacet
facet normal 1.0 0.0 0.0
  outer loop
    vertex 1236.0512033518673 1837.8144078010473 67.25000000000081
    vertex 1236.0512033518673 1838.0153696953705 65.40192378864748
    vertex 1236.0512033518673 1837.9642584348042 67.61177143234703
  endloop
endfacet
facet normal 1.0 0.0 0.0
  outer loop
    vertex 1236.0512033518673 1837.9642584348042 67.61177143234703
    vertex 1236.0512033518673 1838.0153696953705 65.40192378864748
    vertex 1236.0512033518673 1838.0153696953705 68.00000000000082
  endloop
endfacet
facet normal 1.0 0.0 0.0
  outer loop
    vertex 1236.0512033518673 1838.0153696953705 68.00000000000082
    vertex 1236.0512033518673 1838.0153696953705 65.40192378864748
    vertex 1236.0512033518673 1838.63669003893 65.87867965644115
  endloop
endfacet
facet normal 1.0 0.0 0.0
  outer loop
    vertex 1236.0512033518673 1838.0153696953705 68.00000000000082
    vertex 1236.0512033518673 1838.63669003893 65.87867965644115
    vertex 1236.0512033518673 1838.0153696953705 70.59807621135417
  endloop
endfacet
facet normal 1.0 0.0 0.0
  outer loop
    vertex 1236.0512033518673 1838.0153696953705 70.59807621135417
    vertex 1236.0512033518673 1838.63669003893 65.87867965644115
    vertex 1236.0512033518673 1838.63669003893 70.1213203435605
  endloop
endfacet
facet normal 1.0 0.0 0.0
  outer loop
    vertex 1236.0512033518673 1838.63669003893 70.1213203435605
    vertex 1236.0512033518673 1838.63669003893 65.87867965644115
    vertex 1236.0512033518673 1839.113445906724 66.50000000000081
  endloop
endfacet
facet normal 1.0 0.0 0.0
  outer loop
    vertex 1236.0512033518673 1838.63669003893 70.1213203435605
    vertex 1236.0512033518673 1839.113445906724 66.50000000000081
    vertex 1236.0512033518673 1839.113445906724 69.50000000000084
  endloop
endfacet
facet normal 1.0 0.0 0.0
  outer loop
    vertex 1236.0512033518673 1839.113445906724 69.50000000000084
    vertex 1236.0512033518673 1839.113445906724 66.50000000000081
    vertex 1236.0512033518673 1839.4131471742378 67.22354286469326
  endloop
endfacet
facet normal 1.0 0.0 0.0
  outer loop
    vertex 1236.0512033518673 1839.113445906724 69.50000000000084
    vertex 1236.0512033518673 1839.4131471742378 67.22354286469326
    vertex 1236.0512033518673 1839.4131471742378 68.77645713530839
  endloop
endfacet
facet normal 1.0 0.0 0.0
  outer loop
    vertex 1236.0512033518673 1839.4131471742378 68.77645713530839
    vertex 1236.0512033518673 1839.4131471742378 67.22354286469326
    vertex 1236.0512033518673 1839.5153696953705 68.00000000000082
  endloop
endfacet
facet normal 1.0 0.0 0.0
  outer loop
    vertex 1236.0512033518673 1833.617592216503 67.22354286469324
    vertex 1236.0512033518673 1833.617592216503 68.77645713530839
    vertex 1236.0512033518673 1833.5153696953705 68.00000000000082
  endloop
endfacet
facet normal 1.0 0.0 0.0
  outer loop
    vertex 1236.0512033518673 1833.617592216503 68.77645713530839
    vertex 1236.0512033518673 1833.617592216503 67.22354286469324
    vertex 1236.0512033518673 1833.917293484017 66.50000000000081
  endloop
endfacet
facet normal 1.0 0.0 0.0
  outer loop
    vertex 1236.0512033518673 1833.617592216503 68.77645713530839
    vertex 1236.0512033518673 1833.917293484017 66.50000000000081
    vertex 1236.0512033518673 1833.917293484017 69.50000000000084
  endloop
endfacet
facet normal 1.0 0.0 0.0
  outer loop
    vertex 1236.0512033518673 1833.917293484017 69.50000000000084
    vertex 1236.0512033518673 1833.917293484017 66.50000000000081
    vertex 1236.0512033518673 1834.394049351811 65.87867965644115
  endloop
endfacet
facet normal 1.0 0.0 0.0
  outer loop
    vertex 1236.0512033518673 1833.917293484017 69.50000000000084
    vertex 1236.0512033518673 1834.394049351811 65.87867965644115
    vertex 1236.0512033518673 1834.394049351811 70.1213203435605
  endloop
endfacet
facet normal 1.0 0.0 0.0
  outer loop
    vertex 1236.0512033518673 1834.394049351811 70.1213203435605
    vertex 1236.0512033518673 1834.394049351811 65.87867965644115
    vertex 1236.0512033518673 1835.0153696953705 65.40192378864748
  endloop
endfacet
facet normal 1.0 0.0 0.0
  outer loop
    vertex 1236.0512033518673 1834.394049351811 70.1213203435605
    vertex 1236.0512033518673 1835.0153696953705 65.40192378864748
    vertex 1236.0512033518673 1835.0153696953705 70.59807621135417
  endloop
endfacet
facet normal 1.0 0.0 0.0
  outer loop
    vertex 1236.0512033518673 1835.0153696953705 70.59807621135417
    vertex 1236.0512033518673 1835.0153696953705 65.40192378864748
    vertex 1236.0512033518673 1835.0153696953705 68.00000000000082
  endloop
endfacet
facet normal 1.0 0.0 0.0
  outer loop
    vertex 1236.0512033518673 1835.0153696953705 70.59807621135417
    vertex 1236.0512033518673 1835.0153696953705 68.00000000000082
    vertex 1236.0512033518673 1835.0664809559369 68.38822856765461
  endloop
endfacet
facet normal 1.0 0.0 0.0
  outer loop
    vertex 1236.0512033518673 1835.0153696953705 70.59807621135417
    vertex 1236.0512033518673 1835.0664809559369 68.38822856765461
    vertex 1236.0512033518673 1835.738912560063 70.89777747886806
  endloop
endfacet
facet normal 1.0 0.0 0.0
  outer loop
    vertex 1236.0512033518673 1835.738912560063 70.89777747886806
    vertex 1236.0512033518673 1835.0664809559369 68.38822856765461
    vertex 1236.0512033518673 1835.2163315896937 68.75000000000084
  endloop
endfacet
facet normal 1.0 0.0 0.0
  outer loop
    vertex 1236.0512033518673 1835.738912560063 70.89777747886806
    vertex 1236.0512033518673 1835.2163315896937 68.75000000000084
    vertex 1236.0512033518673 1835.4547095235907 69.06066017178065
  endloop
endfacet
facet normal 1.0 0.0 0.0
  outer loop
    vertex 1236.0512033518673 1835.738912560063 70.89777747886806
    vertex 1236.0512033518673 1835.4547095235907 69.06066017178065
    vertex 1236.0512033518673 1835.7653696953707 69.2990381056775
  endloop
endfacet
facet normal 1.0 0.0 0.0
  outer loop
    vertex 1236.0512033518673 1835.738912560063 70.89777747886806
    vertex 1236.0512033518673 1835.7653696953707 69.2990381056775
    vertex 1236.0512033518673 1836.5153696953705 71.00000000000087
  endloop
endfacet
facet normal 1.0 0.0 0.0
  outer loop
    vertex 1236.0512033518673 1836.5153696953705 71.00000000000087
    vertex 1236.0512033518673 1835.7653696953707 69.2990381056775
    vertex 1236.0512033518673 1836.1271411277166 69.44888873943445
  endloop
endfacet
facet normal 1.0 0.0 0.0
  outer loop
    vertex 1236.0512033518673 1836.5153696953705 71.00000000000087
    vertex 1236.0512033518673 1836.1271411277166 69.44888873943445
    vertex 1236.0512033518673 1836.5153696953705 69.50000000000084
  endloop
endfacet
facet normal 1.0 0.0 0.0
  outer loop
    vertex 1236.0512033518673 1836.5153696953705 71.00000000000087
    vertex 1236.0512033518673 1836.5153696953705 69.50000000000084
    vertex 1236.0512033518673 1836.9035982630244 69.44888873943445
  endloop
endfacet
facet normal 1.0 0.0 0.0
  outer loop
    vertex 1236.0512033518673 1836.5153696953705 71.00000000000087
    vertex 1236.0512033518673 1836.9035982630244 69.44888873943445
    vertex 1236.0512033518673 1837.2918268306778 70.89777747886806
  endloop
endfacet
facet normal 1.0 0.0 0.0
  outer loop
    vertex 1236.0512033518673 1837.2918268306778 70.89777747886806
    vertex 1236.0512033518673 1836.9035982630244 69.44888873943445
    vertex 1236.0512033518673 1837.2653696953707 69.2990381056775
  endloop
endfacet
facet normal 1.0 0.0 0.0
  outer loop
    vertex 1236.0512033518673 1837.2918268306778 70.89777747886806
    vertex 1236.0512033518673 1837.2653696953707 69.2990381056775
    vertex 1236.0512033518673 1837.5760298671503 69.06066017178065
  endloop
endfacet
facet normal 1.0 0.0 0.0
  outer loop
    vertex 1236.0512033518673 1837.2918268306778 70.89777747886806
    vertex 1236.0512033518673 1837.5760298671503 69.06066017178065
    vertex 1236.0512033518673 1838.0153696953705 70.59807621135417
  endloop
endfacet
facet normal 1.0 0.0 0.0
  outer loop
    vertex 1236.0512033518673 1838.0153696953705 70.59807621135417
    vertex 1236.0512033518673 1837.5760298671503 69.06066017178065
    vertex 1236.0512033518673 1837.8144078010473 68.75000000000084
  endloop
endfacet
facet normal 1.0 0.0 0.0
  outer loop
    vertex 1236.0512033518673 1838.0153696953705 70.59807621135417
    vertex 1236.0512033518673 1837.8144078010473 68.75000000000084
    vertex 1236.0512033518673 1837.9642584348042 68.38822856765461
  endloop
endfacet
facet normal 1.0 0.0 0.0
  outer loop
    vertex 1236.0512033518673 1838.0153696953705 70.59807621135417
    vertex 1236.0512033518673 1837.9642584348042 68.38822856765461
    vertex 1236.0512033518673 1838.0153696953705 68.00000000000082
  endloop
endfacet
facet normal 0.0 -0.38268343236536 0.9238795325111748
  outer loop
    vertex 1236.0512033518673 1836.9035982630244 66.5511112605672
    vertex 1234.0512033518671 1837.2653696953703 66.70096189432415
    vertex 1234.0512033518671 1836.9035982630244 66.5511112605672
  endloop
endfacet
facet normal 0.0 -0.38268343236536 0.9238795325111748
  outer loop
    vertex 1234.0512033518671 1837.2653696953703 66.70096189432415
    vertex 1236.0512033518673 1836.9035982630244 66.5511112605672
    vertex 1236.0512033518673 1837.2653696953703 66.70096189432415
  endloop
endfacet
facet normal 0.0 -1.0 0.0
  outer loop
    vertex 1244.0512033518673 1826.5153696953705 183.00000000000082
    vertex 1234.0512033518671 1826.5153696953705 68.00000000000082
    vertex 1244.0512033518673 1826.5153696953705 68.00000000000082
  endloop
endfacet
facet normal 0.0 -1.0 0.0
  outer loop
    vertex 1234.0512033518671 1826.5153696953705 68.00000000000082
    vertex 1244.0512033518673 1826.5153696953705 183.00000000000082
    vertex 1234.0512033518671 1826.5153696953705 183.00000000000082
  endloop
endfacet
facet normal -0.0 -0.3826834323650341 -0.9238795325113098
  outer loop
    vertex 1236.0512033518673 1837.2653696953707 69.2990381056775
    vertex 1234.0512033518671 1836.9035982630244 69.44888873943445
    vertex 1234.0512033518671 1837.2653696953707 69.2990381056775
  endloop
endfacet
facet normal -0.0 -0.3826834323650341 -0.9238795325113098
  outer loop
    vertex 1234.0512033518671 1836.9035982630244 69.44888873943445
    vertex 1236.0512033518673 1837.2653696953707 69.2990381056775
    vertex 1236.0512033518673 1836.9035982630244 69.44888873943445
  endloop
endfacet
facet normal 0.0 -0.9914448613738343 0.13052619221987194
  outer loop
    vertex 1236.0512033518673 1838.0153696953705 68.00000000000082
    vertex 1234.0512033518671 1837.9642584348042 67.61177143234703
    vertex 1236.0512033518673 1837.9642584348042 67.61177143234703
  endloop
endfacet
facet normal 0.0 -0.9914448613738343 0.13052619221987194
  outer loop
    vertex 1234.0512033518671 1837.9642584348042 67.61177143234703
    vertex 1236.0512033518673 1838.0153696953705 68.00000000000082
    vertex 1234.0512033518671 1838.0153696953705 68.00000000000082
  endloop
endfacet
facet normal 0.0 -0.13052619222000825 0.9914448613738162
  outer loop
    vertex 1236.0512033518673 1836.5153696953705 66.50000000000081
    vertex 1234.0512033518671 1836.9035982630244 66.5511112605672
    vertex 1234.0512033518671 1836.5153696953705 66.50000000000081
  endloop
endfacet
facet normal 0.0 -0.13052619222000825 0.9914448613738162
  outer loop
    vertex 1234.0512033518671 1836.9035982630244 66.5511112605672
    vertex 1236.0512033518673 1836.5153696953705 66.50000000000081
    vertex 1236.0512033518673 1836.9035982630244 66.5511112605672
  endloop
endfacet
facet normal 0.0 1.0 0.0
  outer loop
    vertex 1234.0512033518671 1846.5153696953703 183.00000000000082
    vertex 1244.0512033518673 1846.5153696953703 68.00000000000082
    vertex 1234.0512033518671 1846.5153696953703 68.00000000000082
  endloop
endfacet
facet normal 0.0 1.0 0.0
  outer loop
    vertex 1244.0512033518673 1846.5153696953703 68.00000000000082
    vertex 1234.0512033518671 1846.5153696953703 183.00000000000082
    vertex 1244.0512033518673 1846.5153696953703 183.00000000000082
  endloop
endfacet
facet normal 0.0 0.9914448613738343 0.13052619221987194
  outer loop
    vertex 1234.0512033518671 1835.0153696953705 68.00000000000082
    vertex 1236.0512033518673 1835.0664809559369 67.61177143234703
    vertex 1234.0512033518671 1835.0664809559369 67.61177143234703
  endloop
endfacet
facet normal 0.0 0.9914448613738343 0.13052619221987194
  outer loop
    vertex 1236.0512033518673 1835.0664809559369 67.61177143234703
    vertex 1234.0512033518671 1835.0153696953705 68.00000000000082
    vertex 1236.0512033518673 1835.0153696953705 68.00000000000082
  endloop
endfacet
facet normal 0.0 0.13052619222004516 -0.9914448613738113
  outer loop
    vertex 1244.0512033518673 1839.103560146396 58.34074173711025
    vertex 1234.0512033518671 1836.5153696953705 58.00000000000093
    vertex 1234.0512033518671 1839.103560146396 58.34074173711025
  endloop
endfacet
facet normal 0.0 0.13052619222004516 -0.9914448613738113
  outer loop
    vertex 1234.0512033518671 1836.5153696953705 58.00000000000093
    vertex 1244.0512033518673 1839.103560146396 58.34074173711025
    vertex 1244.0512033518673 1836.5153696953705 58.00000000000093
  endloop
endfacet
facet normal 0.0 0.9238795325113007 0.38268343236505625
  outer loop
    vertex 1234.0512033518671 1835.0664809559369 67.61177143234703
    vertex 1236.0512033518673 1835.2163315896937 67.25000000000081
    vertex 1234.0512033518671 1835.2163315896937 67.25000000000081
  endloop
endfacet
facet normal 0.0 0.9238795325113007 0.38268343236505625
  outer loop
    vertex 1236.0512033518673 1835.2163315896937 67.25000000000081
    vertex 1234.0512033518671 1835.0664809559369 67.61177143234703
    vertex 1236.0512033518673 1835.0664809559369 67.61177143234703
  endloop
endfacet
facet normal -0.0 -0.13052619222004092 -0.9914448613738118
  outer loop
    vertex 1244.0512033518673 1836.5153696953705 58.00000000000093
    vertex 1234.0512033518671 1833.927179244345 58.340741737110235
    vertex 1234.0512033518671 1836.5153696953705 58.00000000000093
  endloop
endfacet
facet normal -0.0 -0.13052619222004092 -0.9914448613738118
  outer loop
    vertex 1234.0512033518671 1833.927179244345 58.340741737110235
    vertex 1244.0512033518673 1836.5153696953705 58.00000000000093
    vertex 1244.0512033518673 1833.927179244345 58.340741737110235
  endloop
endfacet
facet normal -0.0 -0.9238795325112824 -0.3826834323651008
  outer loop
    vertex 1244.0512033518673 1826.85611143248 65.41180954897564
    vertex 1234.0512033518671 1827.8551156575263 63.000000000000874
    vertex 1244.0512033518673 1827.8551156575263 63.000000000000874
  endloop
endfacet
facet normal -0.0 -0.9238795325112824 -0.3826834323651008
  outer loop
    vertex 1234.0512033518671 1827.8551156575263 63.000000000000874
    vertex 1244.0512033518673 1826.85611143248 65.41180954897564
    vertex 1234.0512033518671 1826.85611143248 65.41180954897564
  endloop
endfacet
facet normal -0.0 -0.7933533402910848 -0.6087614290089167
  outer loop
    vertex 1236.0512033518673 1837.5760298671503 69.06066017178065
    vertex 1234.0512033518671 1837.8144078010473 68.75000000000084
    vertex 1236.0512033518673 1837.8144078010473 68.75000000000084
  endloop
endfacet
facet normal -0.0 -0.7933533402910848 -0.6087614290089167
  outer loop
    vertex 1234.0512033518671 1837.8144078010473 68.75000000000084
    vertex 1236.0512033518673 1837.5760298671503 69.06066017178065
    vertex 1234.0512033518671 1837.5760298671503 69.06066017178065
  endloop
endfacet
facet normal 0.0 0.13052619222008208 0.9914448613738066
  outer loop
    vertex 1244.0512033518673 1835.738912560063 65.10222252113358
    vertex 1236.0512033518673 1836.5153696953705 65.00000000000078
    vertex 1236.0512033518673 1835.738912560063 65.10222252113358
  endloop
endfacet
facet normal 0.0 0.13052619222008208 0.9914448613738066
  outer loop
    vertex 1236.0512033518673 1836.5153696953705 65.00000000000078
    vertex 1244.0512033518673 1835.738912560063 65.10222252113358
    vertex 1244.0512033518673 1836.5153696953705 65.00000000000078
  endloop
endfacet
facet normal 0.0 -0.9914448613738339 -0.1305261922198738
  outer loop
    vertex 1244.0512033518673 1839.4131471742378 68.77645713530839
    vertex 1236.0512033518673 1839.5153696953705 68.00000000000082
    vertex 1244.0512033518673 1839.5153696953705 68.00000000000082
  endloop
endfacet
facet normal 0.0 -0.9914448613738339 -0.1305261922198738
  outer loop
    vertex 1236.0512033518673 1839.5153696953705 68.00000000000082
    vertex 1244.0512033518673 1839.4131471742378 68.77645713530839
    vertex 1236.0512033518673 1839.4131471742378 68.77645713530839
  endloop
endfacet
facet normal 0.0 0.13052619222008208 -0.9914448613738066
  outer loop
    vertex 1244.0512033518673 1836.5153696953705 71.00000000000087
    vertex 1236.0512033518673 1835.738912560063 70.89777747886806
    vertex 1236.0512033518673 1836.5153696953705 71.00000000000087
  endloop
endfacet
facet normal 0.0 0.13052619222008208 -0.9914448613738066
  outer loop
    vertex 1236.0512033518673 1835.738912560063 70.89777747886806
    vertex 1244.0512033518673 1836.5153696953705 71.00000000000087
    vertex 1244.0512033518673 1835.738912560063 70.89777747886806
  endloop
endfacet
facet normal 0.0 -0.608761429008759 0.7933533402912057
  outer loop
    vertex 1244.0512033518673 1838.0153696953705 65.40192378864748
    vertex 1236.0512033518673 1838.63669003893 65.87867965644115
    vertex 1236.0512033518673 1838.0153696953705 65.40192378864748
  endloop
endfacet
facet normal 0.0 -0.608761429008759 0.7933533402912057
  outer loop
    vertex 1236.0512033518673 1838.63669003893 65.87867965644115
    vertex 1244.0512033518673 1838.0153696953705 65.40192378864748
    vertex 1244.0512033518673 1838.63669003893 65.87867965644115
  endloop
endfacet
facet normal 0.0 -0.13052619222008208 -0.9914448613738066
  outer loop
    vertex 1244.0512033518673 1837.2918268306778 70.89777747886806
    vertex 1236.0512033518673 1836.5153696953705 71.00000000000087
    vertex 1236.0512033518673 1837.2918268306778 70.89777747886806
  endloop
endfacet
facet normal 0.0 -0.13052619222008208 -0.9914448613738066
  outer loop
    vertex 1236.0512033518673 1836.5153696953705 71.00000000000087
    vertex 1244.0512033518673 1837.2918268306778 70.89777747886806
    vertex 1244.0512033518673 1836.5153696953705 71.00000000000087
  endloop
endfacet
facet normal 0.0 0.608761429008759 -0.7933533402912057
  outer loop
    vertex 1244.0512033518673 1835.0153696953705 70.59807621135417
    vertex 1236.0512033518673 1834.394049351811 70.1213203435605
    vertex 1236.0512033518673 1835.0153696953705 70.59807621135417
  endloop
endfacet
facet normal 0.0 0.608761429008759 -0.7933533402912057
  outer loop
    vertex 1236.0512033518673 1834.394049351811 70.1213203435605
    vertex 1244.0512033518673 1835.0153696953705 70.59807621135417
    vertex 1244.0512033518673 1834.394049351811 70.1213203435605
  endloop
endfacet
facet normal 0.0 0.38268343236502184 0.9238795325113149
  outer loop
    vertex 1244.0512033518673 1835.0153696953705 65.40192378864748
    vertex 1236.0512033518673 1835.738912560063 65.10222252113358
    vertex 1236.0512033518673 1835.0153696953705 65.40192378864748
  endloop
endfacet
facet normal 0.0 0.38268343236502184 0.9238795325113149
  outer loop
    vertex 1236.0512033518673 1835.738912560063 65.10222252113358
    vertex 1244.0512033518673 1835.0153696953705 65.40192378864748
    vertex 1244.0512033518673 1835.738912560063 65.10222252113358
  endloop
endfacet
facet normal 0.0 0.9914448613738339 -0.1305261922198738
  outer loop
    vertex 1236.0512033518673 1833.617592216503 68.77645713530839
    vertex 1244.0512033518673 1833.5153696953705 68.00000000000082
    vertex 1236.0512033518673 1833.5153696953705 68.00000000000082
  endloop
endfacet
facet normal 0.0 0.9914448613738339 -0.1305261922198738
  outer loop
    vertex 1244.0512033518673 1833.5153696953705 68.00000000000082
    vertex 1236.0512033518673 1833.617592216503 68.77645713530839
    vertex 1244.0512033518673 1833.617592216503 68.77645713530839
  endloop
endfacet
facet normal 0.0 0.9238795325113027 -0.38268343236505115
  outer loop
    vertex 1236.0512033518673 1833.917293484017 69.50000000000084
    vertex 1244.0512033518673 1833.617592216503 68.77645713530839
    vertex 1236.0512033518673 1833.617592216503 68.77645713530839
  endloop
endfacet
facet normal 0.0 0.9238795325113027 -0.38268343236505115
  outer loop
    vertex 1244.0512033518673 1833.617592216503 68.77645713530839
    vertex 1236.0512033518673 1833.917293484017 69.50000000000084
    vertex 1244.0512033518673 1833.917293484017 69.50000000000084
  endloop
endfacet
facet normal 0.0 -0.7933533402910848 0.6087614290089167
  outer loop
    vertex 1244.0512033518673 1839.113445906724 66.50000000000081
    vertex 1236.0512033518673 1838.63669003893 65.87867965644115
    vertex 1244.0512033518673 1838.63669003893 65.87867965644115
  endloop
endfacet
facet normal 0.0 -0.7933533402910848 0.6087614290089167
  outer loop
    vertex 1236.0512033518673 1838.63669003893 65.87867965644115
    vertex 1244.0512033518673 1839.113445906724 66.50000000000081
    vertex 1236.0512033518673 1839.113445906724 66.50000000000081
  endloop
endfacet
facet normal 0.0 0.38268343236502184 -0.9238795325113149
  outer loop
    vertex 1244.0512033518673 1835.738912560063 70.89777747886806
    vertex 1236.0512033518673 1835.0153696953705 70.59807621135417
    vertex 1236.0512033518673 1835.738912560063 70.89777747886806
  endloop
endfacet
facet normal 0.0 0.38268343236502184 -0.9238795325113149
  outer loop
    vertex 1236.0512033518673 1835.0153696953705 70.59807621135417
    vertex 1244.0512033518673 1835.738912560063 70.89777747886806
    vertex 1244.0512033518673 1835.0153696953705 70.59807621135417
  endloop
endfacet
facet normal 0.0 0.7933533402910848 0.6087614290089167
  outer loop
    vertex 1236.0512033518673 1833.917293484017 66.50000000000081
    vertex 1244.0512033518673 1834.394049351811 65.87867965644115
    vertex 1236.0512033518673 1834.394049351811 65.87867965644115
  endloop
endfacet
facet normal 0.0 0.7933533402910848 0.6087614290089167
  outer loop
    vertex 1244.0512033518673 1834.394049351811 65.87867965644115
    vertex 1236.0512033518673 1833.917293484017 66.50000000000081
    vertex 1244.0512033518673 1833.917293484017 66.50000000000081
  endloop
endfacet
facet normal 0.0 -0.38268343236502184 -0.9238795325113149
  outer loop
    vertex 1244.0512033518673 1838.0153696953705 70.59807621135417
    vertex 1236.0512033518673 1837.2918268306778 70.89777747886806
    vertex 1236.0512033518673 1838.0153696953705 70.59807621135417
  endloop
endfacet
facet normal 0.0 -0.38268343236502184 -0.9238795325113149
  outer loop
    vertex 1236.0512033518673 1837.2918268306778 70.89777747886806
    vertex 1244.0512033518673 1838.0153696953705 70.59807621135417
    vertex 1244.0512033518673 1837.2918268306778 70.89777747886806
  endloop
endfacet
facet normal 0.0 -0.7933533402910848 -0.6087614290089167
  outer loop
    vertex 1244.0512033518673 1838.63669003893 70.1213203435605
    vertex 1236.0512033518673 1839.113445906724 69.50000000000084
    vertex 1244.0512033518673 1839.113445906724 69.50000000000084
  endloop
endfacet
facet normal 0.0 -0.7933533402910848 -0.6087614290089167
  outer loop
    vertex 1236.0512033518673 1839.113445906724 69.50000000000084
    vertex 1244.0512033518673 1838.63669003893 70.1213203435605
    vertex 1236.0512033518673 1838.63669003893 70.1213203435605
  endloop
endfacet
facet normal 0.0 -0.608761429008759 -0.7933533402912057
  outer loop
    vertex 1244.0512033518673 1838.63669003893 70.1213203435605
    vertex 1236.0512033518673 1838.0153696953705 70.59807621135417
    vertex 1236.0512033518673 1838.63669003893 70.1213203435605
  endloop
endfacet
facet normal 0.0 -0.608761429008759 -0.7933533402912057
  outer loop
    vertex 1236.0512033518673 1838.0153696953705 70.59807621135417
    vertex 1244.0512033518673 1838.63669003893 70.1213203435605
    vertex 1244.0512033518673 1838.0153696953705 70.59807621135417
  endloop
endfacet
facet normal 0.0 -0.13052619222008208 0.9914448613738066
  outer loop
    vertex 1244.0512033518673 1836.5153696953705 65.00000000000078
    vertex 1236.0512033518673 1837.2918268306778 65.10222252113358
    vertex 1236.0512033518673 1836.5153696953705 65.00000000000078
  endloop
endfacet
facet normal 0.0 -0.13052619222008208 0.9914448613738066
  outer loop
    vertex 1236.0512033518673 1837.2918268306778 65.10222252113358
    vertex 1244.0512033518673 1836.5153696953705 65.00000000000078
    vertex 1244.0512033518673 1837.2918268306778 65.10222252113358
  endloop
endfacet
facet normal 0.0 0.608761429008759 0.7933533402912057
  outer loop
    vertex 1244.0512033518673 1834.394049351811 65.87867965644115
    vertex 1236.0512033518673 1835.0153696953705 65.40192378864748
    vertex 1236.0512033518673 1834.394049351811 65.87867965644115
  endloop
endfacet
facet normal 0.0 0.608761429008759 0.7933533402912057
  outer loop
    vertex 1236.0512033518673 1835.0153696953705 65.40192378864748
    vertex 1244.0512033518673 1834.394049351811 65.87867965644115
    vertex 1244.0512033518673 1835.0153696953705 65.40192378864748
  endloop
endfacet
facet normal 0.0 -0.9238795325113027 0.38268343236505115
  outer loop
    vertex 1244.0512033518673 1839.4131471742378 67.22354286469326
    vertex 1236.0512033518673 1839.113445906724 66.50000000000081
    vertex 1244.0512033518673 1839.113445906724 66.50000000000081
  endloop
endfacet
facet normal 0.0 -0.9238795325113027 0.38268343236505115
  outer loop
    vertex 1236.0512033518673 1839.113445906724 66.50000000000081
    vertex 1244.0512033518673 1839.4131471742378 67.22354286469326
    vertex 1236.0512033518673 1839.4131471742378 67.22354286469326
  endloop
endfacet
facet normal 0.0 0.38268343236511104 -0.9238795325112781
  outer loop
    vertex 1244.0512033518673 1841.5153696953705 59.339745962156535
    vertex 1234.0512033518671 1839.103560146396 58.34074173711025
    vertex 1234.0512033518671 1841.5153696953705 59.339745962156535
  endloop
endfacet
facet normal 0.0 0.38268343236511104 -0.9238795325112781
  outer loop
    vertex 1234.0512033518671 1839.103560146396 58.34074173711025
    vertex 1244.0512033518673 1841.5153696953705 59.339745962156535
    vertex 1244.0512033518673 1839.103560146396 58.34074173711025
  endloop
endfacet
facet normal 0.0 0.9238795325112831 -0.3826834323650992
  outer loop
    vertex 1234.0512033518671 1846.174627958261 65.41180954897565
    vertex 1244.0512033518673 1845.1756237332147 63.000000000000874
    vertex 1234.0512033518671 1845.1756237332147 63.000000000000874
  endloop
endfacet
facet normal 0.0 0.9238795325112831 -0.3826834323650992
  outer loop
    vertex 1244.0512033518673 1845.1756237332147 63.000000000000874
    vertex 1234.0512033518671 1846.174627958261 65.41180954897565
    vertex 1244.0512033518673 1846.174627958261 65.41180954897565
  endloop
endfacet
endsolid Graduation Plan
