G04 #@! TF.FileFunction,Legend,Top*
%FSLAX46Y46*%
G04 Gerber Fmt 4.6, Leading zero omitted, Abs format (unit mm)*
G04 Created by KiCad (PCBNEW 4.0.7) date Wed Feb 14 16:44:24 2018*
%MOMM*%
%LPD*%
G01*
G04 APERTURE LIST*
%ADD10C,0.100000*%
%ADD11C,0.150000*%
%ADD12C,0.120000*%
G04 APERTURE END LIST*
D10*
D11*
X68223219Y-38824377D02*
X68198219Y-38824377D01*
X68223219Y-42974377D02*
X68108219Y-42974377D01*
X59323219Y-42974377D02*
X59438219Y-42974377D01*
X59323219Y-38824377D02*
X59438219Y-38824377D01*
X68223219Y-38824377D02*
X68223219Y-42974377D01*
X59323219Y-38824377D02*
X59323219Y-42974377D01*
X68198219Y-38824377D02*
X68198219Y-37449377D01*
X68223219Y-97244377D02*
X68198219Y-97244377D01*
X68223219Y-101394377D02*
X68108219Y-101394377D01*
X59323219Y-101394377D02*
X59438219Y-101394377D01*
X59323219Y-97244377D02*
X59438219Y-97244377D01*
X68223219Y-97244377D02*
X68223219Y-101394377D01*
X59323219Y-97244377D02*
X59323219Y-101394377D01*
X68198219Y-97244377D02*
X68198219Y-95869377D01*
D12*
X57483219Y-157164377D02*
X57483219Y-151964377D01*
X26943219Y-157164377D02*
X57483219Y-157164377D01*
X24343219Y-151964377D02*
X57483219Y-151964377D01*
X26943219Y-157164377D02*
X26943219Y-154564377D01*
X26943219Y-154564377D02*
X24343219Y-154564377D01*
X24343219Y-154564377D02*
X24343219Y-151964377D01*
X25673219Y-157164377D02*
X24343219Y-157164377D01*
X24343219Y-157164377D02*
X24343219Y-155834377D01*
D11*
X68223219Y-77559377D02*
X68198219Y-77559377D01*
X68223219Y-81709377D02*
X68108219Y-81709377D01*
X59323219Y-81709377D02*
X59438219Y-81709377D01*
X59323219Y-77559377D02*
X59438219Y-77559377D01*
X68223219Y-77559377D02*
X68223219Y-81709377D01*
X59323219Y-77559377D02*
X59323219Y-81709377D01*
X68198219Y-77559377D02*
X68198219Y-76184377D01*
X68223219Y-136774377D02*
X68198219Y-136774377D01*
X68223219Y-140924377D02*
X68108219Y-140924377D01*
X59323219Y-140924377D02*
X59438219Y-140924377D01*
X59323219Y-136774377D02*
X59438219Y-136774377D01*
X68223219Y-136774377D02*
X68223219Y-140924377D01*
X59323219Y-136774377D02*
X59323219Y-140924377D01*
X68198219Y-136774377D02*
X68198219Y-135399377D01*
X68223219Y-116929377D02*
X68198219Y-116929377D01*
X68223219Y-121079377D02*
X68108219Y-121079377D01*
X59323219Y-121079377D02*
X59438219Y-121079377D01*
X59323219Y-116929377D02*
X59438219Y-116929377D01*
X68223219Y-116929377D02*
X68223219Y-121079377D01*
X59323219Y-116929377D02*
X59323219Y-121079377D01*
X68198219Y-116929377D02*
X68198219Y-115554377D01*
D12*
X43763219Y-139073477D02*
X42833219Y-139073477D01*
X40603219Y-139073477D02*
X41533219Y-139073477D01*
X40603219Y-139073477D02*
X40603219Y-142233477D01*
X43763219Y-139073477D02*
X43763219Y-140533477D01*
X56463219Y-139073477D02*
X55533219Y-139073477D01*
X53303219Y-139073477D02*
X54233219Y-139073477D01*
X53303219Y-139073477D02*
X53303219Y-142233477D01*
X56463219Y-139073477D02*
X56463219Y-140533477D01*
X47823219Y-135703477D02*
X47823219Y-133803477D01*
X47823219Y-133803477D02*
X43123219Y-133803477D01*
X47823219Y-135703477D02*
X43123219Y-135703477D01*
X37698219Y-19524377D02*
X37698219Y-17824377D01*
X37648219Y-17824377D02*
X33598219Y-17824377D01*
X37648219Y-19524377D02*
X33598219Y-19524377D01*
X28888219Y-25444377D02*
X28888219Y-27144377D01*
X28938219Y-27144377D02*
X32988219Y-27144377D01*
X28938219Y-25444377D02*
X32988219Y-25444377D01*
X30043219Y-135703477D02*
X30043219Y-133803477D01*
X30043219Y-133803477D02*
X25343219Y-133803477D01*
X30043219Y-135703477D02*
X25343219Y-135703477D01*
X26268219Y-19524377D02*
X26268219Y-17824377D01*
X26218219Y-17824377D02*
X22168219Y-17824377D01*
X26218219Y-19524377D02*
X22168219Y-19524377D01*
X38933219Y-135703477D02*
X38933219Y-133803477D01*
X38933219Y-133803477D02*
X34233219Y-133803477D01*
X38933219Y-135703477D02*
X34233219Y-135703477D01*
X26348219Y-17824377D02*
X26348219Y-19524377D01*
X26398219Y-19524377D02*
X30448219Y-19524377D01*
X26398219Y-17824377D02*
X30448219Y-17824377D01*
X56713219Y-135703477D02*
X56713219Y-133803477D01*
X56713219Y-133803477D02*
X52013219Y-133803477D01*
X56713219Y-135703477D02*
X52013219Y-135703477D01*
X37778219Y-17824377D02*
X37778219Y-19524377D01*
X37828219Y-19524377D02*
X41878219Y-19524377D01*
X37828219Y-17824377D02*
X41878219Y-17824377D01*
X30043219Y-116144377D02*
X30043219Y-114244377D01*
X30043219Y-114244377D02*
X25343219Y-114244377D01*
X30043219Y-116144377D02*
X25343219Y-116144377D01*
X28808219Y-22064377D02*
X28808219Y-20364377D01*
X28758219Y-20364377D02*
X24708219Y-20364377D01*
X28758219Y-22064377D02*
X24708219Y-22064377D01*
X38933219Y-116144377D02*
X38933219Y-114244377D01*
X38933219Y-114244377D02*
X34233219Y-114244377D01*
X38933219Y-116144377D02*
X34233219Y-116144377D01*
X28888219Y-20364377D02*
X28888219Y-22064377D01*
X28938219Y-22064377D02*
X32988219Y-22064377D01*
X28938219Y-20364377D02*
X32988219Y-20364377D01*
X47823219Y-116144377D02*
X47823219Y-114244377D01*
X47823219Y-114244377D02*
X43123219Y-114244377D01*
X47823219Y-116144377D02*
X43123219Y-116144377D01*
X40238219Y-22064377D02*
X40238219Y-20364377D01*
X40188219Y-20364377D02*
X36138219Y-20364377D01*
X40188219Y-22064377D02*
X36138219Y-22064377D01*
X56713219Y-116144377D02*
X56713219Y-114244377D01*
X56713219Y-114244377D02*
X52013219Y-114244377D01*
X56713219Y-116144377D02*
X52013219Y-116144377D01*
X40318219Y-20364377D02*
X40318219Y-22064377D01*
X40368219Y-22064377D02*
X44418219Y-22064377D01*
X40368219Y-20364377D02*
X44418219Y-20364377D01*
X30043219Y-96459377D02*
X30043219Y-94559377D01*
X30043219Y-94559377D02*
X25343219Y-94559377D01*
X30043219Y-96459377D02*
X25343219Y-96459377D01*
X26268219Y-24604377D02*
X26268219Y-22904377D01*
X26218219Y-22904377D02*
X22168219Y-22904377D01*
X26218219Y-24604377D02*
X22168219Y-24604377D01*
X38933219Y-96459377D02*
X38933219Y-94559377D01*
X38933219Y-94559377D02*
X34233219Y-94559377D01*
X38933219Y-96459377D02*
X34233219Y-96459377D01*
X26348219Y-22904377D02*
X26348219Y-24604377D01*
X26398219Y-24604377D02*
X30448219Y-24604377D01*
X26398219Y-22904377D02*
X30448219Y-22904377D01*
X47823219Y-96459377D02*
X47823219Y-94559377D01*
X47823219Y-94559377D02*
X43123219Y-94559377D01*
X47823219Y-96459377D02*
X43123219Y-96459377D01*
X37698219Y-24604377D02*
X37698219Y-22904377D01*
X37648219Y-22904377D02*
X33598219Y-22904377D01*
X37648219Y-24604377D02*
X33598219Y-24604377D01*
X56713219Y-96459377D02*
X56713219Y-94559377D01*
X56713219Y-94559377D02*
X52013219Y-94559377D01*
X56713219Y-96459377D02*
X52013219Y-96459377D01*
X37778219Y-22904377D02*
X37778219Y-24604377D01*
X37828219Y-24604377D02*
X41878219Y-24604377D01*
X37828219Y-22904377D02*
X41878219Y-22904377D01*
X30043219Y-76774377D02*
X30043219Y-74874377D01*
X30043219Y-74874377D02*
X25343219Y-74874377D01*
X30043219Y-76774377D02*
X25343219Y-76774377D01*
X28808219Y-27144377D02*
X28808219Y-25444377D01*
X28758219Y-25444377D02*
X24708219Y-25444377D01*
X28758219Y-27144377D02*
X24708219Y-27144377D01*
X38933219Y-76774377D02*
X38933219Y-74874377D01*
X38933219Y-74874377D02*
X34233219Y-74874377D01*
X38933219Y-76774377D02*
X34233219Y-76774377D01*
X47823219Y-76774377D02*
X47823219Y-74874377D01*
X47823219Y-74874377D02*
X43123219Y-74874377D01*
X47823219Y-76774377D02*
X43123219Y-76774377D01*
X40238219Y-27144377D02*
X40238219Y-25444377D01*
X40188219Y-25444377D02*
X36138219Y-25444377D01*
X40188219Y-27144377D02*
X36138219Y-27144377D01*
X56713219Y-76774377D02*
X56713219Y-74874377D01*
X56713219Y-74874377D02*
X52013219Y-74874377D01*
X56713219Y-76774377D02*
X52013219Y-76774377D01*
X40318219Y-25444377D02*
X40318219Y-27144377D01*
X40368219Y-27144377D02*
X44418219Y-27144377D01*
X40368219Y-25444377D02*
X44418219Y-25444377D01*
X30043219Y-57724377D02*
X30043219Y-55824377D01*
X30043219Y-55824377D02*
X25343219Y-55824377D01*
X30043219Y-57724377D02*
X25343219Y-57724377D01*
X26268219Y-29684377D02*
X26268219Y-27984377D01*
X26218219Y-27984377D02*
X22168219Y-27984377D01*
X26218219Y-29684377D02*
X22168219Y-29684377D01*
X38933219Y-57724377D02*
X38933219Y-55824377D01*
X38933219Y-55824377D02*
X34233219Y-55824377D01*
X38933219Y-57724377D02*
X34233219Y-57724377D01*
X26348219Y-27984377D02*
X26348219Y-29684377D01*
X26398219Y-29684377D02*
X30448219Y-29684377D01*
X26398219Y-27984377D02*
X30448219Y-27984377D01*
X47823219Y-57724377D02*
X47823219Y-55824377D01*
X47823219Y-55824377D02*
X43123219Y-55824377D01*
X47823219Y-57724377D02*
X43123219Y-57724377D01*
X37698219Y-29684377D02*
X37698219Y-27984377D01*
X37648219Y-27984377D02*
X33598219Y-27984377D01*
X37648219Y-29684377D02*
X33598219Y-29684377D01*
X56713219Y-57724377D02*
X56713219Y-55824377D01*
X56713219Y-55824377D02*
X52013219Y-55824377D01*
X56713219Y-57724377D02*
X52013219Y-57724377D01*
X37778219Y-27984377D02*
X37778219Y-29684377D01*
X37828219Y-29684377D02*
X41878219Y-29684377D01*
X37828219Y-27984377D02*
X41878219Y-27984377D01*
X30043219Y-38039377D02*
X30043219Y-36139377D01*
X30043219Y-36139377D02*
X25343219Y-36139377D01*
X30043219Y-38039377D02*
X25343219Y-38039377D01*
X28808219Y-32224377D02*
X28808219Y-30524377D01*
X28758219Y-30524377D02*
X24708219Y-30524377D01*
X28758219Y-32224377D02*
X24708219Y-32224377D01*
X38933219Y-38039377D02*
X38933219Y-36139377D01*
X38933219Y-36139377D02*
X34233219Y-36139377D01*
X38933219Y-38039377D02*
X34233219Y-38039377D01*
X28888219Y-30524377D02*
X28888219Y-32224377D01*
X28938219Y-32224377D02*
X32988219Y-32224377D01*
X28938219Y-30524377D02*
X32988219Y-30524377D01*
X47823219Y-38039377D02*
X47823219Y-36139377D01*
X47823219Y-36139377D02*
X43123219Y-36139377D01*
X47823219Y-38039377D02*
X43123219Y-38039377D01*
X40238219Y-32224377D02*
X40238219Y-30524377D01*
X40188219Y-30524377D02*
X36138219Y-30524377D01*
X40188219Y-32224377D02*
X36138219Y-32224377D01*
X56713219Y-38039377D02*
X56713219Y-36139377D01*
X56713219Y-36139377D02*
X52013219Y-36139377D01*
X56713219Y-38039377D02*
X52013219Y-38039377D01*
X40318219Y-30524377D02*
X40318219Y-32224377D01*
X40368219Y-32224377D02*
X44418219Y-32224377D01*
X40368219Y-30524377D02*
X44418219Y-30524377D01*
X64348219Y-23814377D02*
X67008219Y-23814377D01*
X64348219Y-21214377D02*
X64348219Y-23814377D01*
X67008219Y-21214377D02*
X67008219Y-23814377D01*
X64348219Y-21214377D02*
X67008219Y-21214377D01*
X64348219Y-19944377D02*
X64348219Y-18614377D01*
X64348219Y-18614377D02*
X65678219Y-18614377D01*
X25983219Y-139073477D02*
X25053219Y-139073477D01*
X22823219Y-139073477D02*
X23753219Y-139073477D01*
X22823219Y-139073477D02*
X22823219Y-142233477D01*
X25983219Y-139073477D02*
X25983219Y-140533477D01*
X29793219Y-139073477D02*
X28863219Y-139073477D01*
X26633219Y-139073477D02*
X27563219Y-139073477D01*
X26633219Y-139073477D02*
X26633219Y-142233477D01*
X29793219Y-139073477D02*
X29793219Y-140533477D01*
X34873219Y-139073477D02*
X33943219Y-139073477D01*
X31713219Y-139073477D02*
X32643219Y-139073477D01*
X31713219Y-139073477D02*
X31713219Y-142233477D01*
X34873219Y-139073477D02*
X34873219Y-140533477D01*
X38683219Y-139073477D02*
X37753219Y-139073477D01*
X35523219Y-139073477D02*
X36453219Y-139073477D01*
X35523219Y-139073477D02*
X35523219Y-142233477D01*
X38683219Y-139073477D02*
X38683219Y-140533477D01*
X47573219Y-139073477D02*
X46643219Y-139073477D01*
X44413219Y-139073477D02*
X45343219Y-139073477D01*
X44413219Y-139073477D02*
X44413219Y-142233477D01*
X47573219Y-139073477D02*
X47573219Y-140533477D01*
X52653219Y-139073477D02*
X51723219Y-139073477D01*
X49493219Y-139073477D02*
X50423219Y-139073477D01*
X49493219Y-139073477D02*
X49493219Y-142233477D01*
X52653219Y-139073477D02*
X52653219Y-140533477D01*
X25983219Y-119514377D02*
X25053219Y-119514377D01*
X22823219Y-119514377D02*
X23753219Y-119514377D01*
X22823219Y-119514377D02*
X22823219Y-122674377D01*
X25983219Y-119514377D02*
X25983219Y-120974377D01*
X29793219Y-119514377D02*
X28863219Y-119514377D01*
X26633219Y-119514377D02*
X27563219Y-119514377D01*
X26633219Y-119514377D02*
X26633219Y-122674377D01*
X29793219Y-119514377D02*
X29793219Y-120974377D01*
X34873219Y-119514377D02*
X33943219Y-119514377D01*
X31713219Y-119514377D02*
X32643219Y-119514377D01*
X31713219Y-119514377D02*
X31713219Y-122674377D01*
X34873219Y-119514377D02*
X34873219Y-120974377D01*
X38683219Y-119514377D02*
X37753219Y-119514377D01*
X35523219Y-119514377D02*
X36453219Y-119514377D01*
X35523219Y-119514377D02*
X35523219Y-122674377D01*
X38683219Y-119514377D02*
X38683219Y-120974377D01*
X43763219Y-119514377D02*
X42833219Y-119514377D01*
X40603219Y-119514377D02*
X41533219Y-119514377D01*
X40603219Y-119514377D02*
X40603219Y-122674377D01*
X43763219Y-119514377D02*
X43763219Y-120974377D01*
X47573219Y-119514377D02*
X46643219Y-119514377D01*
X44413219Y-119514377D02*
X45343219Y-119514377D01*
X44413219Y-119514377D02*
X44413219Y-122674377D01*
X47573219Y-119514377D02*
X47573219Y-120974377D01*
X52653219Y-119514377D02*
X51723219Y-119514377D01*
X49493219Y-119514377D02*
X50423219Y-119514377D01*
X49493219Y-119514377D02*
X49493219Y-122674377D01*
X52653219Y-119514377D02*
X52653219Y-120974377D01*
X56463219Y-119514377D02*
X55533219Y-119514377D01*
X53303219Y-119514377D02*
X54233219Y-119514377D01*
X53303219Y-119514377D02*
X53303219Y-122674377D01*
X56463219Y-119514377D02*
X56463219Y-120974377D01*
X25983219Y-99829377D02*
X25053219Y-99829377D01*
X22823219Y-99829377D02*
X23753219Y-99829377D01*
X22823219Y-99829377D02*
X22823219Y-102989377D01*
X25983219Y-99829377D02*
X25983219Y-101289377D01*
X29793219Y-99829377D02*
X28863219Y-99829377D01*
X26633219Y-99829377D02*
X27563219Y-99829377D01*
X26633219Y-99829377D02*
X26633219Y-102989377D01*
X29793219Y-99829377D02*
X29793219Y-101289377D01*
X34873219Y-99829377D02*
X33943219Y-99829377D01*
X31713219Y-99829377D02*
X32643219Y-99829377D01*
X31713219Y-99829377D02*
X31713219Y-102989377D01*
X34873219Y-99829377D02*
X34873219Y-101289377D01*
X38683219Y-99829377D02*
X37753219Y-99829377D01*
X35523219Y-99829377D02*
X36453219Y-99829377D01*
X35523219Y-99829377D02*
X35523219Y-102989377D01*
X38683219Y-99829377D02*
X38683219Y-101289377D01*
X43763219Y-99829377D02*
X42833219Y-99829377D01*
X40603219Y-99829377D02*
X41533219Y-99829377D01*
X40603219Y-99829377D02*
X40603219Y-102989377D01*
X43763219Y-99829377D02*
X43763219Y-101289377D01*
X47573219Y-99829377D02*
X46643219Y-99829377D01*
X44413219Y-99829377D02*
X45343219Y-99829377D01*
X44413219Y-99829377D02*
X44413219Y-102989377D01*
X47573219Y-99829377D02*
X47573219Y-101289377D01*
X52653219Y-99829377D02*
X51723219Y-99829377D01*
X49493219Y-99829377D02*
X50423219Y-99829377D01*
X49493219Y-99829377D02*
X49493219Y-102989377D01*
X52653219Y-99829377D02*
X52653219Y-101289377D01*
X56463219Y-99829377D02*
X55533219Y-99829377D01*
X53303219Y-99829377D02*
X54233219Y-99829377D01*
X53303219Y-99829377D02*
X53303219Y-102989377D01*
X56463219Y-99829377D02*
X56463219Y-101289377D01*
X25983219Y-80144377D02*
X25053219Y-80144377D01*
X22823219Y-80144377D02*
X23753219Y-80144377D01*
X22823219Y-80144377D02*
X22823219Y-83304377D01*
X25983219Y-80144377D02*
X25983219Y-81604377D01*
X29793219Y-80144377D02*
X28863219Y-80144377D01*
X26633219Y-80144377D02*
X27563219Y-80144377D01*
X26633219Y-80144377D02*
X26633219Y-83304377D01*
X29793219Y-80144377D02*
X29793219Y-81604377D01*
X34873219Y-80144377D02*
X33943219Y-80144377D01*
X31713219Y-80144377D02*
X32643219Y-80144377D01*
X31713219Y-80144377D02*
X31713219Y-83304377D01*
X34873219Y-80144377D02*
X34873219Y-81604377D01*
X38683219Y-80144377D02*
X37753219Y-80144377D01*
X35523219Y-80144377D02*
X36453219Y-80144377D01*
X35523219Y-80144377D02*
X35523219Y-83304377D01*
X38683219Y-80144377D02*
X38683219Y-81604377D01*
X43763219Y-80144377D02*
X42833219Y-80144377D01*
X40603219Y-80144377D02*
X41533219Y-80144377D01*
X40603219Y-80144377D02*
X40603219Y-83304377D01*
X43763219Y-80144377D02*
X43763219Y-81604377D01*
X47573219Y-80144377D02*
X46643219Y-80144377D01*
X44413219Y-80144377D02*
X45343219Y-80144377D01*
X44413219Y-80144377D02*
X44413219Y-83304377D01*
X47573219Y-80144377D02*
X47573219Y-81604377D01*
X52653219Y-80144377D02*
X51723219Y-80144377D01*
X49493219Y-80144377D02*
X50423219Y-80144377D01*
X49493219Y-80144377D02*
X49493219Y-83304377D01*
X52653219Y-80144377D02*
X52653219Y-81604377D01*
X56463219Y-80144377D02*
X55533219Y-80144377D01*
X53303219Y-80144377D02*
X54233219Y-80144377D01*
X53303219Y-80144377D02*
X53303219Y-83304377D01*
X56463219Y-80144377D02*
X56463219Y-81604377D01*
X25983219Y-61094377D02*
X25053219Y-61094377D01*
X22823219Y-61094377D02*
X23753219Y-61094377D01*
X22823219Y-61094377D02*
X22823219Y-64254377D01*
X25983219Y-61094377D02*
X25983219Y-62554377D01*
X29793219Y-61094377D02*
X28863219Y-61094377D01*
X26633219Y-61094377D02*
X27563219Y-61094377D01*
X26633219Y-61094377D02*
X26633219Y-64254377D01*
X29793219Y-61094377D02*
X29793219Y-62554377D01*
X34873219Y-61094377D02*
X33943219Y-61094377D01*
X31713219Y-61094377D02*
X32643219Y-61094377D01*
X31713219Y-61094377D02*
X31713219Y-64254377D01*
X34873219Y-61094377D02*
X34873219Y-62554377D01*
X38683219Y-61094377D02*
X37753219Y-61094377D01*
X35523219Y-61094377D02*
X36453219Y-61094377D01*
X35523219Y-61094377D02*
X35523219Y-64254377D01*
X38683219Y-61094377D02*
X38683219Y-62554377D01*
X43763219Y-61094377D02*
X42833219Y-61094377D01*
X40603219Y-61094377D02*
X41533219Y-61094377D01*
X40603219Y-61094377D02*
X40603219Y-64254377D01*
X43763219Y-61094377D02*
X43763219Y-62554377D01*
X47573219Y-61094377D02*
X46643219Y-61094377D01*
X44413219Y-61094377D02*
X45343219Y-61094377D01*
X44413219Y-61094377D02*
X44413219Y-64254377D01*
X47573219Y-61094377D02*
X47573219Y-62554377D01*
X52653219Y-61094377D02*
X51723219Y-61094377D01*
X49493219Y-61094377D02*
X50423219Y-61094377D01*
X49493219Y-61094377D02*
X49493219Y-64254377D01*
X52653219Y-61094377D02*
X52653219Y-62554377D01*
X56463219Y-61094377D02*
X55533219Y-61094377D01*
X53303219Y-61094377D02*
X54233219Y-61094377D01*
X53303219Y-61094377D02*
X53303219Y-64254377D01*
X56463219Y-61094377D02*
X56463219Y-62554377D01*
X25983219Y-41409377D02*
X25053219Y-41409377D01*
X22823219Y-41409377D02*
X23753219Y-41409377D01*
X22823219Y-41409377D02*
X22823219Y-44569377D01*
X25983219Y-41409377D02*
X25983219Y-42869377D01*
X29793219Y-41409377D02*
X28863219Y-41409377D01*
X26633219Y-41409377D02*
X27563219Y-41409377D01*
X26633219Y-41409377D02*
X26633219Y-44569377D01*
X29793219Y-41409377D02*
X29793219Y-42869377D01*
X34873219Y-41409377D02*
X33943219Y-41409377D01*
X31713219Y-41409377D02*
X32643219Y-41409377D01*
X31713219Y-41409377D02*
X31713219Y-44569377D01*
X34873219Y-41409377D02*
X34873219Y-42869377D01*
X38683219Y-41409377D02*
X37753219Y-41409377D01*
X35523219Y-41409377D02*
X36453219Y-41409377D01*
X35523219Y-41409377D02*
X35523219Y-44569377D01*
X38683219Y-41409377D02*
X38683219Y-42869377D01*
X43763219Y-41409377D02*
X42833219Y-41409377D01*
X40603219Y-41409377D02*
X41533219Y-41409377D01*
X40603219Y-41409377D02*
X40603219Y-44569377D01*
X43763219Y-41409377D02*
X43763219Y-42869377D01*
X47573219Y-41409377D02*
X46643219Y-41409377D01*
X44413219Y-41409377D02*
X45343219Y-41409377D01*
X44413219Y-41409377D02*
X44413219Y-44569377D01*
X47573219Y-41409377D02*
X47573219Y-42869377D01*
X52653219Y-41409377D02*
X51723219Y-41409377D01*
X49493219Y-41409377D02*
X50423219Y-41409377D01*
X49493219Y-41409377D02*
X49493219Y-44569377D01*
X52653219Y-41409377D02*
X52653219Y-42869377D01*
X56463219Y-41409377D02*
X55533219Y-41409377D01*
X53303219Y-41409377D02*
X54233219Y-41409377D01*
X53303219Y-41409377D02*
X53303219Y-44569377D01*
X56463219Y-41409377D02*
X56463219Y-42869377D01*
X62543219Y-21214377D02*
G75*
G03X62543219Y-21214377I-1310000J0D01*
G01*
X61233219Y-19904377D02*
X61233219Y-19774377D01*
X62543219Y-26929377D02*
G75*
G03X62543219Y-26929377I-1310000J0D01*
G01*
X61233219Y-25619377D02*
X61233219Y-25489377D01*
X23333219Y-148453477D02*
X23333219Y-146453477D01*
X25473219Y-146453477D02*
X25473219Y-148453477D01*
X27143219Y-148453477D02*
X27143219Y-146453477D01*
X29283219Y-146453477D02*
X29283219Y-148453477D01*
X32223219Y-148453477D02*
X32223219Y-146453477D01*
X34363219Y-146453477D02*
X34363219Y-148453477D01*
X36033219Y-148453477D02*
X36033219Y-146453477D01*
X38173219Y-146453477D02*
X38173219Y-148453477D01*
X41113219Y-148453477D02*
X41113219Y-146453477D01*
X43253219Y-146453477D02*
X43253219Y-148453477D01*
X44923219Y-148453477D02*
X44923219Y-146453477D01*
X47063219Y-146453477D02*
X47063219Y-148453477D01*
X50003219Y-148453477D02*
X50003219Y-146453477D01*
X52143219Y-146453477D02*
X52143219Y-148453477D01*
X53813219Y-148453477D02*
X53813219Y-146453477D01*
X55953219Y-146453477D02*
X55953219Y-148453477D01*
X23333219Y-128894377D02*
X23333219Y-126894377D01*
X25473219Y-126894377D02*
X25473219Y-128894377D01*
X27143219Y-128894377D02*
X27143219Y-126894377D01*
X29283219Y-126894377D02*
X29283219Y-128894377D01*
X32223219Y-128894377D02*
X32223219Y-126894377D01*
X34363219Y-126894377D02*
X34363219Y-128894377D01*
X36033219Y-128894377D02*
X36033219Y-126894377D01*
X38173219Y-126894377D02*
X38173219Y-128894377D01*
X41113219Y-128894377D02*
X41113219Y-126894377D01*
X43253219Y-126894377D02*
X43253219Y-128894377D01*
X44923219Y-128894377D02*
X44923219Y-126894377D01*
X47063219Y-126894377D02*
X47063219Y-128894377D01*
X50003219Y-128894377D02*
X50003219Y-126894377D01*
X52143219Y-126894377D02*
X52143219Y-128894377D01*
X53813219Y-128894377D02*
X53813219Y-126894377D01*
X55953219Y-126894377D02*
X55953219Y-128894377D01*
X23333219Y-109209377D02*
X23333219Y-107209377D01*
X25473219Y-107209377D02*
X25473219Y-109209377D01*
X27143219Y-109209377D02*
X27143219Y-107209377D01*
X29283219Y-107209377D02*
X29283219Y-109209377D01*
X32223219Y-109209377D02*
X32223219Y-107209377D01*
X34363219Y-107209377D02*
X34363219Y-109209377D01*
X36033219Y-109209377D02*
X36033219Y-107209377D01*
X38173219Y-107209377D02*
X38173219Y-109209377D01*
X41113219Y-109209377D02*
X41113219Y-107209377D01*
X43253219Y-107209377D02*
X43253219Y-109209377D01*
X44923219Y-109209377D02*
X44923219Y-107209377D01*
X47063219Y-107209377D02*
X47063219Y-109209377D01*
X50003219Y-109209377D02*
X50003219Y-107209377D01*
X52143219Y-107209377D02*
X52143219Y-109209377D01*
X53813219Y-109209377D02*
X53813219Y-107209377D01*
X55953219Y-107209377D02*
X55953219Y-109209377D01*
X23333219Y-89524377D02*
X23333219Y-87524377D01*
X25473219Y-87524377D02*
X25473219Y-89524377D01*
X27143219Y-89524377D02*
X27143219Y-87524377D01*
X29283219Y-87524377D02*
X29283219Y-89524377D01*
X32223219Y-89524377D02*
X32223219Y-87524377D01*
X34363219Y-87524377D02*
X34363219Y-89524377D01*
X36033219Y-89524377D02*
X36033219Y-87524377D01*
X38173219Y-87524377D02*
X38173219Y-89524377D01*
X41113219Y-89524377D02*
X41113219Y-87524377D01*
X43253219Y-87524377D02*
X43253219Y-89524377D01*
X44923219Y-89524377D02*
X44923219Y-87524377D01*
X47063219Y-87524377D02*
X47063219Y-89524377D01*
X50003219Y-89524377D02*
X50003219Y-87524377D01*
X52143219Y-87524377D02*
X52143219Y-89524377D01*
X53813219Y-89524377D02*
X53813219Y-87524377D01*
X55953219Y-87524377D02*
X55953219Y-89524377D01*
X23333219Y-70474377D02*
X23333219Y-68474377D01*
X25473219Y-68474377D02*
X25473219Y-70474377D01*
X27143219Y-70474377D02*
X27143219Y-68474377D01*
X29283219Y-68474377D02*
X29283219Y-70474377D01*
X32223219Y-70474377D02*
X32223219Y-68474377D01*
X34363219Y-68474377D02*
X34363219Y-70474377D01*
X36033219Y-70474377D02*
X36033219Y-68474377D01*
X38173219Y-68474377D02*
X38173219Y-70474377D01*
X41113219Y-70474377D02*
X41113219Y-68474377D01*
X43253219Y-68474377D02*
X43253219Y-70474377D01*
X44923219Y-70474377D02*
X44923219Y-68474377D01*
X47063219Y-68474377D02*
X47063219Y-70474377D01*
X50003219Y-70474377D02*
X50003219Y-68474377D01*
X52143219Y-68474377D02*
X52143219Y-70474377D01*
X53813219Y-70474377D02*
X53813219Y-68474377D01*
X55953219Y-68474377D02*
X55953219Y-70474377D01*
X23333219Y-50789377D02*
X23333219Y-48789377D01*
X25473219Y-48789377D02*
X25473219Y-50789377D01*
X27143219Y-50789377D02*
X27143219Y-48789377D01*
X29283219Y-48789377D02*
X29283219Y-50789377D01*
X32223219Y-50789377D02*
X32223219Y-48789377D01*
X34363219Y-48789377D02*
X34363219Y-50789377D01*
X36033219Y-50789377D02*
X36033219Y-48789377D01*
X38173219Y-48789377D02*
X38173219Y-50789377D01*
X41113219Y-50789377D02*
X41113219Y-48789377D01*
X43253219Y-48789377D02*
X43253219Y-50789377D01*
X44923219Y-50789377D02*
X44923219Y-48789377D01*
X47063219Y-48789377D02*
X47063219Y-50789377D01*
X50003219Y-50789377D02*
X50003219Y-48789377D01*
X52143219Y-48789377D02*
X52143219Y-50789377D01*
X53813219Y-50789377D02*
X53813219Y-48789377D01*
X55953219Y-48789377D02*
X55953219Y-50789377D01*
D11*
X68223219Y-58509377D02*
X68198219Y-58509377D01*
X68223219Y-62659377D02*
X68108219Y-62659377D01*
X59323219Y-62659377D02*
X59438219Y-62659377D01*
X59323219Y-58509377D02*
X59438219Y-58509377D01*
X68223219Y-58509377D02*
X68223219Y-62659377D01*
X59323219Y-58509377D02*
X59323219Y-62659377D01*
X68198219Y-58509377D02*
X68198219Y-57134377D01*
M02*
