G04 #@! TF.FileFunction,Copper,L2,Bot,Signal*
%FSLAX46Y46*%
G04 Gerber Fmt 4.6, Leading zero omitted, Abs format (unit mm)*
G04 Created by KiCad (PCBNEW 4.0.7) date Wed Feb 14 16:44:24 2018*
%MOMM*%
%LPD*%
G01*
G04 APERTURE LIST*
%ADD10C,0.100000*%
%ADD11R,1.700000X1.700000*%
%ADD12O,1.700000X1.700000*%
%ADD13C,1.600000*%
%ADD14O,1.600000X1.600000*%
%ADD15C,0.685800*%
%ADD16C,0.304800*%
%ADD17C,0.152400*%
G04 APERTURE END LIST*
D10*
D11*
X25673219Y-155834377D03*
D12*
X25673219Y-153294377D03*
X28213219Y-155834377D03*
X28213219Y-153294377D03*
X30753219Y-155834377D03*
X30753219Y-153294377D03*
X33293219Y-155834377D03*
X33293219Y-153294377D03*
X35833219Y-155834377D03*
X35833219Y-153294377D03*
X38373219Y-155834377D03*
X38373219Y-153294377D03*
X40913219Y-155834377D03*
X40913219Y-153294377D03*
X43453219Y-155834377D03*
X43453219Y-153294377D03*
X45993219Y-155834377D03*
X45993219Y-153294377D03*
X48533219Y-155834377D03*
X48533219Y-153294377D03*
X51073219Y-155834377D03*
X51073219Y-153294377D03*
X53613219Y-155834377D03*
X53613219Y-153294377D03*
X56153219Y-155834377D03*
X56153219Y-153294377D03*
D11*
X65678219Y-19944377D03*
D12*
X65678219Y-22484377D03*
D13*
X61233219Y-21214377D03*
D14*
X61233219Y-18674377D03*
D13*
X61233219Y-26929377D03*
D14*
X61233219Y-24389377D03*
D15*
X63138219Y-33914377D03*
X63138219Y-52329377D03*
X64408219Y-40264377D03*
X63773219Y-59949377D03*
X61868219Y-72649377D03*
X62318219Y-132974377D03*
X63859831Y-118917765D03*
X62503219Y-113289377D03*
X63773219Y-98684377D03*
X53613219Y-134879377D03*
X44723219Y-134879377D03*
X35833219Y-134879377D03*
X26943219Y-134879377D03*
X63773219Y-78999377D03*
X61233219Y-89794377D03*
X26943219Y-115194377D03*
X35833219Y-115194377D03*
X44723219Y-115194377D03*
X53613219Y-115194377D03*
X26943219Y-95509377D03*
X35833219Y-95509377D03*
X44723219Y-95509377D03*
X53613219Y-95509377D03*
X26943219Y-75824377D03*
X35833219Y-75824377D03*
X44723219Y-75824377D03*
X53613219Y-75824377D03*
X53613219Y-56774377D03*
X44723219Y-56774377D03*
X35833219Y-56774377D03*
X26943219Y-56774377D03*
X26943219Y-37089377D03*
X35833219Y-37089377D03*
X44723219Y-37089377D03*
X53613219Y-37089377D03*
X30118219Y-137419377D03*
X63773219Y-137419377D03*
X38373219Y-137419377D03*
X61233219Y-137419377D03*
X47898219Y-138054377D03*
X62503219Y-139959377D03*
X29483219Y-117099377D03*
X63773219Y-117734377D03*
X38373219Y-117734377D03*
X61233219Y-117734377D03*
X62503219Y-120274377D03*
X47898219Y-118369377D03*
X29483219Y-98049377D03*
X58058219Y-97414377D03*
X39008219Y-98049377D03*
X61233219Y-98049377D03*
X47898219Y-99954377D03*
X62503219Y-100589377D03*
X57423219Y-77729377D03*
X30753219Y-77729377D03*
X61233219Y-78364377D03*
X39643219Y-78999377D03*
X62503219Y-80904377D03*
X47898219Y-80269377D03*
X63773219Y-56139377D03*
X30753219Y-58679377D03*
X39643219Y-59314377D03*
X61233219Y-59314377D03*
X47898219Y-60584377D03*
X62503219Y-61854377D03*
X63773219Y-36454377D03*
X30118219Y-38994377D03*
X39643219Y-40264377D03*
X61233219Y-39629377D03*
X62503219Y-42169377D03*
X47898219Y-40899377D03*
X56153219Y-41534377D03*
X59963219Y-41534377D03*
X63773219Y-138257580D03*
X64712472Y-146689830D03*
X63697019Y-145826777D03*
X64408219Y-139324377D03*
X67583219Y-117734377D03*
X67583219Y-120274377D03*
X67583219Y-98049377D03*
X66440219Y-100563977D03*
X67659419Y-99649577D03*
X67507019Y-103459577D03*
X67583219Y-78364377D03*
X66897419Y-74503577D03*
X69031019Y-74478177D03*
X67507019Y-83799977D03*
X66897419Y-70388777D03*
X68726219Y-71150777D03*
X67583219Y-59314377D03*
X66745019Y-61549577D03*
X69183419Y-61701977D03*
X67507019Y-64749977D03*
X67659419Y-39451577D03*
X67659419Y-44937977D03*
X61233219Y-131704377D03*
X59328219Y-50424377D03*
X61868219Y-50424377D03*
X65043219Y-139959377D03*
X65043219Y-120274377D03*
X59328219Y-112019377D03*
X65043219Y-100589377D03*
X59328219Y-92334377D03*
X65043219Y-80904377D03*
X65043219Y-70744377D03*
X65043219Y-54869377D03*
X65043219Y-61854377D03*
X59328219Y-134244377D03*
X58693219Y-114559377D03*
X62503219Y-92334377D03*
X58058219Y-56774377D03*
X60598219Y-53599377D03*
X59963219Y-28834377D03*
X58693219Y-110114377D03*
X59963219Y-130434377D03*
X62503219Y-88524377D03*
X63773219Y-84714377D03*
X62503219Y-98049377D03*
X63773219Y-68839377D03*
X62503219Y-75189377D03*
X31388219Y-132974377D03*
X28848219Y-18039377D03*
X19958219Y-18674377D03*
X35198219Y-18674377D03*
X49168219Y-132339377D03*
X40278219Y-18674377D03*
X31388219Y-113289377D03*
X31388219Y-20579377D03*
X23040407Y-21307189D03*
X37738219Y-21214377D03*
X49168219Y-112654377D03*
X42818219Y-21214377D03*
X31388219Y-92969377D03*
X28848219Y-23119377D03*
X20593219Y-23754377D03*
X35198219Y-23754377D03*
X49168219Y-92334377D03*
X40278219Y-23754377D03*
X31388219Y-25659377D03*
X31388219Y-73919377D03*
X37738219Y-26294377D03*
X22498219Y-26294377D03*
X49803219Y-73284377D03*
X42818219Y-26294377D03*
X31388219Y-54234377D03*
X28848219Y-28834377D03*
X35198219Y-28834377D03*
X40913219Y-55504377D03*
X49168219Y-52964377D03*
X40278219Y-28834377D03*
D16*
X63138219Y-52329377D02*
X63138219Y-45979377D01*
X64408219Y-44709377D02*
X63138219Y-45979377D01*
X64408219Y-40264377D02*
X64408219Y-44709377D01*
X63138219Y-63759377D02*
X63773219Y-63124377D01*
X63773219Y-63124377D02*
X63773219Y-59949377D01*
X63074720Y-71442876D02*
X63074720Y-63759377D01*
D17*
X63074720Y-63759377D02*
X63138219Y-63759377D01*
D16*
X63138219Y-33914377D02*
X63138219Y-22484377D01*
X63138219Y-22484377D02*
X65678219Y-19944377D01*
X61868219Y-72649377D02*
X63074720Y-71442876D01*
X63859831Y-118917765D02*
X63859831Y-131432765D01*
X63859831Y-131432765D02*
X62318219Y-132974377D01*
X63773219Y-98684377D02*
X63773219Y-112019377D01*
X63773219Y-112019377D02*
X62503219Y-113289377D01*
X44723219Y-134879377D02*
X53613219Y-134879377D01*
X35833219Y-134879377D02*
X44723219Y-134879377D01*
X26943219Y-134879377D02*
X35833219Y-134879377D01*
X63773219Y-82174377D02*
X63773219Y-78999377D01*
X61233219Y-84714377D02*
X63773219Y-82174377D01*
X61233219Y-89794377D02*
X61233219Y-84714377D01*
X35833219Y-115194377D02*
X26943219Y-115194377D01*
X44723219Y-115194377D02*
X35833219Y-115194377D01*
X53613219Y-115194377D02*
X44723219Y-115194377D01*
X35833219Y-95509377D02*
X26943219Y-95509377D01*
X44723219Y-95509377D02*
X35833219Y-95509377D01*
X53613219Y-95509377D02*
X44723219Y-95509377D01*
X35833219Y-75824377D02*
X26943219Y-75824377D01*
X44723219Y-75824377D02*
X35833219Y-75824377D01*
X53613219Y-75824377D02*
X44723219Y-75824377D01*
X44723219Y-56774377D02*
X53613219Y-56774377D01*
X35833219Y-56774377D02*
X44723219Y-56774377D01*
X26943219Y-56774377D02*
X35833219Y-56774377D01*
X35833219Y-37089377D02*
X26943219Y-37089377D01*
X44723219Y-37089377D02*
X35833219Y-37089377D01*
X53613219Y-37089377D02*
X44723219Y-37089377D01*
D17*
X63138219Y-137419377D02*
X62566718Y-136847876D01*
X62566718Y-136847876D02*
X30689720Y-136847876D01*
X30689720Y-136847876D02*
X30118219Y-137419377D01*
X63773219Y-137419377D02*
X63138219Y-137419377D01*
X61233219Y-137419377D02*
X38373219Y-137419377D01*
X62503219Y-139959377D02*
X49803219Y-139959377D01*
X49803219Y-139959377D02*
X47898219Y-138054377D01*
X63138219Y-117734377D02*
X62503219Y-117099377D01*
X62503219Y-117099377D02*
X29483219Y-117099377D01*
X63773219Y-117734377D02*
X63138219Y-117734377D01*
X58693219Y-117734377D02*
X38373219Y-117734377D01*
X61233219Y-117734377D02*
X58693219Y-117734377D01*
X47898219Y-118369377D02*
X49803219Y-120274377D01*
X49803219Y-120274377D02*
X62503219Y-120274377D01*
X58058219Y-97414377D02*
X30118219Y-97414377D01*
X30118219Y-97414377D02*
X29483219Y-98049377D01*
X61233219Y-98049377D02*
X39008219Y-98049377D01*
X62503219Y-100589377D02*
X48533219Y-100589377D01*
X48533219Y-100589377D02*
X47898219Y-99954377D01*
X30753219Y-77729377D02*
X57423219Y-77729377D01*
X61233219Y-78364377D02*
X40278219Y-78364377D01*
X40278219Y-78364377D02*
X39643219Y-78999377D01*
X48533219Y-80904377D02*
X62503219Y-80904377D01*
X47898219Y-80269377D02*
X48533219Y-80904377D01*
X60598219Y-56139377D02*
X63773219Y-56139377D01*
X58058219Y-58679377D02*
X60598219Y-56139377D01*
X30753219Y-58679377D02*
X58058219Y-58679377D01*
X61233219Y-59314377D02*
X39643219Y-59314377D01*
X49168219Y-61854377D02*
X47898219Y-60584377D01*
X62503219Y-61854377D02*
X49168219Y-61854377D01*
X60598219Y-36454377D02*
X63773219Y-36454377D01*
X58058219Y-38994377D02*
X60598219Y-36454377D01*
X30118219Y-38994377D02*
X58058219Y-38994377D01*
X60598219Y-40264377D02*
X39643219Y-40264377D01*
X61233219Y-39629377D02*
X60598219Y-40264377D01*
X49168219Y-42169377D02*
X62503219Y-42169377D01*
X47898219Y-40899377D02*
X49168219Y-42169377D01*
X59963219Y-41534377D02*
X56153219Y-41534377D01*
X63773219Y-138257580D02*
X63138219Y-138892580D01*
X63138219Y-138892580D02*
X63138219Y-140594377D01*
X63138219Y-140594377D02*
X28213219Y-140594377D01*
X28213219Y-140594377D02*
X28213219Y-152092296D01*
X28213219Y-152092296D02*
X28213219Y-153294377D01*
X63697019Y-145826777D02*
X63849419Y-145826777D01*
X63849419Y-145826777D02*
X64712472Y-146689830D01*
X63349041Y-141229377D02*
X30753219Y-141229377D01*
X64408219Y-139324377D02*
X64408219Y-140170199D01*
X64408219Y-140170199D02*
X63349041Y-141229377D01*
X30753219Y-153294377D02*
X30753219Y-141229377D01*
X67583219Y-117734377D02*
X65678219Y-119639377D01*
X65678219Y-119639377D02*
X65678219Y-131704377D01*
X65678219Y-131704377D02*
X66948219Y-132974377D01*
X66948219Y-132974377D02*
X66948219Y-138900199D01*
X66948219Y-138900199D02*
X63984041Y-141864377D01*
X63984041Y-141864377D02*
X33293219Y-141864377D01*
X33293219Y-141864377D02*
X33293219Y-153294377D01*
X67583219Y-120274377D02*
X66313219Y-120274377D01*
X63780107Y-142499377D02*
X35833219Y-142499377D01*
X66313219Y-120274377D02*
X66313219Y-131069377D01*
X66313219Y-131069377D02*
X67583219Y-132339377D01*
X67583219Y-138696265D02*
X63780107Y-142499377D01*
X67583219Y-132339377D02*
X67583219Y-138696265D01*
X35833219Y-142499377D02*
X35833219Y-153294377D01*
X67583219Y-98049377D02*
X65779819Y-99852777D01*
X68154720Y-132275878D02*
X68154720Y-138555830D01*
X65779819Y-99852777D02*
X65779819Y-115085155D01*
X65779819Y-115085155D02*
X68154720Y-117460056D01*
X68154720Y-117460056D02*
X68154720Y-120548698D01*
X66948219Y-120909377D02*
X66618029Y-121239567D01*
X68154720Y-120548698D02*
X67794041Y-120909377D01*
X67794041Y-120909377D02*
X66948219Y-120909377D01*
X66618029Y-121239567D02*
X66618029Y-130739187D01*
X66618029Y-130739187D02*
X68154720Y-132275878D01*
X68154720Y-138555830D02*
X63906363Y-142804187D01*
X63906363Y-142804187D02*
X38373219Y-142804187D01*
X38373219Y-142804187D02*
X38373219Y-153294377D01*
X67659419Y-99649577D02*
X66745019Y-100563977D01*
X66745019Y-100563977D02*
X66440219Y-100563977D01*
X40913219Y-143159777D02*
X40964000Y-143108996D01*
X40964000Y-143108996D02*
X64032620Y-143108996D01*
X64032620Y-143108996D02*
X68459530Y-138682086D01*
X68459530Y-138682086D02*
X68459530Y-104412088D01*
X68459530Y-104412088D02*
X67507019Y-103459577D01*
X40913219Y-143769377D02*
X40913219Y-143159777D01*
X40913219Y-143159777D02*
X40963999Y-143108997D01*
X40913219Y-153294377D02*
X40913219Y-143769377D01*
X43453219Y-153294377D02*
X43453219Y-143439187D01*
X43453219Y-143439187D02*
X64133495Y-143439187D01*
X64133495Y-143439187D02*
X68764340Y-138808342D01*
X68764340Y-138808342D02*
X68764340Y-96792098D01*
X65678219Y-93705977D02*
X65678219Y-80269377D01*
X68764340Y-96792098D02*
X65678219Y-93705977D01*
X65678219Y-80269377D02*
X67583219Y-78364377D01*
X69031019Y-74478177D02*
X66922819Y-74478177D01*
X66922819Y-74478177D02*
X66897419Y-74503577D01*
X46018619Y-143743997D02*
X64259752Y-143743996D01*
X64259752Y-143743996D02*
X69069150Y-138934598D01*
X69069150Y-138934598D02*
X69069150Y-85362108D01*
X69069150Y-85362108D02*
X67507019Y-83799977D01*
X46018619Y-144607577D02*
X46018619Y-143743997D01*
X46018619Y-144912377D02*
X46018619Y-144607577D01*
X45993219Y-145039377D02*
X45993219Y-144937777D01*
X45993219Y-144937777D02*
X46018619Y-144912377D01*
X45993219Y-153294377D02*
X45993219Y-145039377D01*
X68726219Y-71150777D02*
X67964219Y-70388777D01*
X67964219Y-70388777D02*
X66897419Y-70388777D01*
X48533219Y-153294377D02*
X48533219Y-144226577D01*
X65983019Y-60914577D02*
X67583219Y-59314377D01*
X48533219Y-144226577D02*
X48710991Y-144048805D01*
X48710991Y-144048805D02*
X64386009Y-144048805D01*
X64386009Y-144048805D02*
X69373960Y-139060854D01*
X69373960Y-139060854D02*
X69373960Y-78046918D01*
X65983019Y-74655977D02*
X65983019Y-60914577D01*
X69373960Y-78046918D02*
X65983019Y-74655977D01*
X69183419Y-61701977D02*
X66897419Y-61701977D01*
X66897419Y-61701977D02*
X66745019Y-61549577D01*
X51073219Y-153294377D02*
X51073219Y-146309377D01*
X51073219Y-145801377D02*
X51047819Y-145775977D01*
X51073219Y-146309377D02*
X51073219Y-145801377D01*
X51047819Y-145775977D02*
X51047819Y-144455177D01*
X69678770Y-66921728D02*
X67507019Y-64749977D01*
X69678770Y-139187110D02*
X69678770Y-66921728D01*
X64410703Y-144455177D02*
X69678770Y-139187110D01*
X51047819Y-144455177D02*
X64410703Y-144455177D01*
X66440219Y-46614377D02*
X66440219Y-40670777D01*
X66440219Y-40670777D02*
X67659419Y-39451577D01*
X69983580Y-50157738D02*
X66440219Y-46614377D01*
X69983580Y-139313366D02*
X69983580Y-50157738D01*
X53613219Y-144759987D02*
X64536960Y-144759986D01*
X64536960Y-144759986D02*
X69983580Y-139313366D01*
X53613219Y-147045977D02*
X53613219Y-146944377D01*
X53613219Y-153294377D02*
X53613219Y-147045977D01*
X53613219Y-147045977D02*
X53613219Y-144759987D01*
X70288390Y-139439622D02*
X70288390Y-47566948D01*
X70288390Y-47566948D02*
X67659419Y-44937977D01*
X56153219Y-145293377D02*
X56381801Y-145064795D01*
X56381801Y-145064795D02*
X64663217Y-145064795D01*
X64663217Y-145064795D02*
X70288390Y-139439622D01*
X56153219Y-147579377D02*
X56153219Y-145293377D01*
X56153219Y-153294377D02*
X56153219Y-147579377D01*
D16*
X66313219Y-138689377D02*
X65043219Y-137419377D01*
X65043219Y-139959377D02*
X66313219Y-138689377D01*
X65043219Y-137419377D02*
X61233219Y-133609377D01*
X61233219Y-133609377D02*
X61233219Y-131704377D01*
X64408219Y-92334377D02*
X64408219Y-96779377D01*
X65043219Y-100589377D02*
X65043219Y-97414377D01*
X65043219Y-97414377D02*
X64408219Y-96779377D01*
X61868219Y-50424377D02*
X59328219Y-50424377D01*
X64408219Y-91699377D02*
X64408219Y-92334377D01*
X63773219Y-91064377D02*
X64408219Y-91699377D01*
X61868219Y-91064377D02*
X63773219Y-91064377D01*
X59328219Y-92334377D02*
X60598219Y-92334377D01*
X60598219Y-92334377D02*
X61868219Y-91064377D01*
X59328219Y-112019377D02*
X65043219Y-117734377D01*
X65043219Y-117734377D02*
X65043219Y-120274377D01*
X65043219Y-70744377D02*
X65043219Y-80904377D01*
X65043219Y-61854377D02*
X65043219Y-54869377D01*
D17*
X59328219Y-133609377D02*
X59328219Y-134244377D01*
X58693219Y-113924377D02*
X58693219Y-114559377D01*
X62503219Y-92969377D02*
X62503219Y-92334377D01*
X59963219Y-53599377D02*
X58058219Y-55504377D01*
X58058219Y-55504377D02*
X58058219Y-56774377D01*
X60598219Y-53599377D02*
X59963219Y-53599377D01*
X58693219Y-26929377D02*
X58693219Y-27564377D01*
X58693219Y-27564377D02*
X59963219Y-28834377D01*
X61233219Y-24389377D02*
X58693219Y-26929377D01*
X58693219Y-113924377D02*
X58693219Y-110114377D01*
X59328219Y-133609377D02*
X59328219Y-131069377D01*
X59328219Y-131069377D02*
X59963219Y-130434377D01*
X62503219Y-88524377D02*
X62503219Y-85984377D01*
X62503219Y-98049377D02*
X62503219Y-92969377D01*
X62503219Y-85984377D02*
X63773219Y-84714377D01*
X63773219Y-73919377D02*
X63773219Y-68839377D01*
X62503219Y-75189377D02*
X63773219Y-73919377D01*
X30753219Y-132339377D02*
X31388219Y-132974377D01*
X16783219Y-132339377D02*
X30753219Y-132339377D01*
X16148219Y-131704377D02*
X16783219Y-132339377D01*
X16148219Y-131069377D02*
X16148219Y-131704377D01*
D16*
X16148219Y-21214377D02*
X16148219Y-131069377D01*
X16148219Y-18039377D02*
X16148219Y-21214377D01*
D17*
X28848219Y-18039377D02*
X16148219Y-18039377D01*
X35198219Y-18674377D02*
X19958219Y-18674377D01*
X48533219Y-131704377D02*
X49168219Y-132339377D01*
X17418219Y-131704377D02*
X48533219Y-131704377D01*
X16783219Y-131069377D02*
X17418219Y-131704377D01*
D16*
X16783219Y-21214377D02*
X16783219Y-131069377D01*
X16783219Y-19309377D02*
X16783219Y-21214377D01*
D17*
X18257153Y-19309377D02*
X16783219Y-19309377D01*
X38373219Y-19309377D02*
X18257153Y-19309377D01*
X39008219Y-18674377D02*
X38373219Y-19309377D01*
X40278219Y-18674377D02*
X39008219Y-18674377D01*
X30753219Y-112654377D02*
X31388219Y-113289377D01*
X18053219Y-112654377D02*
X30753219Y-112654377D01*
X17418219Y-112019377D02*
X18053219Y-112654377D01*
D16*
X17418219Y-23754377D02*
X17418219Y-112019377D01*
X17418219Y-20579377D02*
X17418219Y-23754377D01*
D17*
X31388219Y-20579377D02*
X17418219Y-20579377D01*
X37738219Y-21214377D02*
X23133219Y-21214377D01*
X23133219Y-21214377D02*
X23040407Y-21307189D01*
X49168219Y-112019377D02*
X49168219Y-112654377D01*
X18688219Y-112019377D02*
X49168219Y-112019377D01*
X18053219Y-111384377D02*
X18688219Y-112019377D01*
D16*
X18053219Y-24389377D02*
X18053219Y-111384377D01*
X18053219Y-23754377D02*
X18053219Y-24389377D01*
X18053219Y-21908003D02*
X18053219Y-23754377D01*
D17*
X18082532Y-21878690D02*
X18053219Y-21908003D01*
X42183219Y-21849377D02*
X23344041Y-21849377D01*
X23344041Y-21849377D02*
X23314728Y-21878690D01*
X23314728Y-21878690D02*
X18082532Y-21878690D01*
X42818219Y-21214377D02*
X42183219Y-21849377D01*
X18688219Y-92969377D02*
X31388219Y-92969377D01*
D16*
X18688219Y-25659377D02*
X18688219Y-92969377D01*
X18688219Y-23119377D02*
X18688219Y-25659377D01*
D17*
X28848219Y-23119377D02*
X18688219Y-23119377D01*
X35198219Y-23754377D02*
X20593219Y-23754377D01*
X19323219Y-92334377D02*
X49168219Y-92334377D01*
D16*
X19323219Y-25659377D02*
X19323219Y-92334377D01*
X19323219Y-24389377D02*
X19323219Y-25659377D01*
D17*
X26943219Y-24389377D02*
X19323219Y-24389377D01*
X39643219Y-24389377D02*
X26943219Y-24389377D01*
X40278219Y-23754377D02*
X39643219Y-24389377D01*
D16*
X19958219Y-44074377D02*
X19958219Y-73919377D01*
D17*
X31388219Y-25659377D02*
X19958219Y-25659377D01*
D16*
X19958219Y-25659377D02*
X19958219Y-44074377D01*
D17*
X19958219Y-73919377D02*
X31388219Y-73919377D01*
X37738219Y-26294377D02*
X22498219Y-26294377D01*
X20593219Y-73284377D02*
X49803219Y-73284377D01*
D16*
X20593219Y-44074377D02*
X20593219Y-73284377D01*
X20593219Y-26929377D02*
X20593219Y-44074377D01*
D17*
X42183219Y-26929377D02*
X20593219Y-26929377D01*
X42818219Y-26294377D02*
X42183219Y-26929377D01*
X21863219Y-54234377D02*
X31388219Y-54234377D01*
D16*
X21863219Y-28834377D02*
X21863219Y-54234377D01*
D17*
X28848219Y-28834377D02*
X21863219Y-28834377D01*
X40913219Y-53599377D02*
X40913219Y-55504377D01*
X35198219Y-28834377D02*
X34563219Y-29469377D01*
X34563219Y-29469377D02*
X22498219Y-29469377D01*
D16*
X22498219Y-29469377D02*
X22498219Y-53599377D01*
D17*
X22498219Y-53599377D02*
X40913219Y-53599377D01*
X23133219Y-52964377D02*
X49168219Y-52964377D01*
D16*
X23133219Y-30104377D02*
X23133219Y-52964377D01*
D17*
X39008219Y-30104377D02*
X23133219Y-30104377D01*
X40278219Y-28834377D02*
X39008219Y-30104377D01*
M02*
