G04 #@! TF.FileFunction,Legend,Bot*
%FSLAX46Y46*%
G04 Gerber Fmt 4.6, Leading zero omitted, Abs format (unit mm)*
G04 Created by KiCad (PCBNEW 4.0.7) date Wed Feb 14 16:44:24 2018*
%MOMM*%
%LPD*%
G01*
G04 APERTURE LIST*
%ADD10C,0.100000*%
%ADD11C,0.762000*%
%ADD12C,0.300000*%
%ADD13C,0.200000*%
%ADD14C,2.032000*%
G04 APERTURE END LIST*
D10*
D11*
X32766000Y-66802000D02*
X27686000Y-66802000D01*
D12*
X56557143Y-64662857D02*
X56342857Y-64734286D01*
X56271429Y-64805714D01*
X56200000Y-64948571D01*
X56200000Y-65162857D01*
X56271429Y-65305714D01*
X56342857Y-65377143D01*
X56485715Y-65448571D01*
X57057143Y-65448571D01*
X57057143Y-63948571D01*
X56557143Y-63948571D01*
X56414286Y-64020000D01*
X56342857Y-64091429D01*
X56271429Y-64234286D01*
X56271429Y-64377143D01*
X56342857Y-64520000D01*
X56414286Y-64591429D01*
X56557143Y-64662857D01*
X57057143Y-64662857D01*
X55557143Y-63948571D02*
X55557143Y-65162857D01*
X55485715Y-65305714D01*
X55414286Y-65377143D01*
X55271429Y-65448571D01*
X54985715Y-65448571D01*
X54842857Y-65377143D01*
X54771429Y-65305714D01*
X54700000Y-65162857D01*
X54700000Y-63948571D01*
X52914286Y-65377143D02*
X52700000Y-65448571D01*
X52342857Y-65448571D01*
X52200000Y-65377143D01*
X52128571Y-65305714D01*
X52057143Y-65162857D01*
X52057143Y-65020000D01*
X52128571Y-64877143D01*
X52200000Y-64805714D01*
X52342857Y-64734286D01*
X52628571Y-64662857D01*
X52771429Y-64591429D01*
X52842857Y-64520000D01*
X52914286Y-64377143D01*
X52914286Y-64234286D01*
X52842857Y-64091429D01*
X52771429Y-64020000D01*
X52628571Y-63948571D01*
X52271429Y-63948571D01*
X52057143Y-64020000D01*
X51414286Y-65448571D02*
X51414286Y-64448571D01*
X51414286Y-64591429D02*
X51342858Y-64520000D01*
X51200000Y-64448571D01*
X50985715Y-64448571D01*
X50842858Y-64520000D01*
X50771429Y-64662857D01*
X50771429Y-65448571D01*
X50771429Y-64662857D02*
X50700000Y-64520000D01*
X50557143Y-64448571D01*
X50342858Y-64448571D01*
X50200000Y-64520000D01*
X50128572Y-64662857D01*
X50128572Y-65448571D01*
X48771429Y-65448571D02*
X48771429Y-64662857D01*
X48842858Y-64520000D01*
X48985715Y-64448571D01*
X49271429Y-64448571D01*
X49414286Y-64520000D01*
X48771429Y-65377143D02*
X48914286Y-65448571D01*
X49271429Y-65448571D01*
X49414286Y-65377143D01*
X49485715Y-65234286D01*
X49485715Y-65091429D01*
X49414286Y-64948571D01*
X49271429Y-64877143D01*
X48914286Y-64877143D01*
X48771429Y-64805714D01*
X48057143Y-65448571D02*
X48057143Y-64448571D01*
X48057143Y-64734286D02*
X47985715Y-64591429D01*
X47914286Y-64520000D01*
X47771429Y-64448571D01*
X47628572Y-64448571D01*
X47342858Y-64448571D02*
X46771429Y-64448571D01*
X47128572Y-63948571D02*
X47128572Y-65234286D01*
X47057144Y-65377143D01*
X46914286Y-65448571D01*
X46771429Y-65448571D01*
X44414286Y-65448571D02*
X45128572Y-65448571D01*
X45128572Y-63948571D01*
X43914286Y-65448571D02*
X43914286Y-64448571D01*
X43914286Y-63948571D02*
X43985715Y-64020000D01*
X43914286Y-64091429D01*
X43842858Y-64020000D01*
X43914286Y-63948571D01*
X43914286Y-64091429D01*
X42557143Y-64448571D02*
X42557143Y-65662857D01*
X42628572Y-65805714D01*
X42700000Y-65877143D01*
X42842857Y-65948571D01*
X43057143Y-65948571D01*
X43200000Y-65877143D01*
X42557143Y-65377143D02*
X42700000Y-65448571D01*
X42985714Y-65448571D01*
X43128572Y-65377143D01*
X43200000Y-65305714D01*
X43271429Y-65162857D01*
X43271429Y-64734286D01*
X43200000Y-64591429D01*
X43128572Y-64520000D01*
X42985714Y-64448571D01*
X42700000Y-64448571D01*
X42557143Y-64520000D01*
X41842857Y-65448571D02*
X41842857Y-63948571D01*
X41200000Y-65448571D02*
X41200000Y-64662857D01*
X41271429Y-64520000D01*
X41414286Y-64448571D01*
X41628571Y-64448571D01*
X41771429Y-64520000D01*
X41842857Y-64591429D01*
X40700000Y-64448571D02*
X40128571Y-64448571D01*
X40485714Y-63948571D02*
X40485714Y-65234286D01*
X40414286Y-65377143D01*
X40271428Y-65448571D01*
X40128571Y-65448571D01*
X39628571Y-65448571D02*
X39628571Y-64448571D01*
X39628571Y-63948571D02*
X39700000Y-64020000D01*
X39628571Y-64091429D01*
X39557143Y-64020000D01*
X39628571Y-63948571D01*
X39628571Y-64091429D01*
X38914285Y-64448571D02*
X38914285Y-65448571D01*
X38914285Y-64591429D02*
X38842857Y-64520000D01*
X38699999Y-64448571D01*
X38485714Y-64448571D01*
X38342857Y-64520000D01*
X38271428Y-64662857D01*
X38271428Y-65448571D01*
X36914285Y-64448571D02*
X36914285Y-65662857D01*
X36985714Y-65805714D01*
X37057142Y-65877143D01*
X37199999Y-65948571D01*
X37414285Y-65948571D01*
X37557142Y-65877143D01*
X36914285Y-65377143D02*
X37057142Y-65448571D01*
X37342856Y-65448571D01*
X37485714Y-65377143D01*
X37557142Y-65305714D01*
X37628571Y-65162857D01*
X37628571Y-64734286D01*
X37557142Y-64591429D01*
X37485714Y-64520000D01*
X37342856Y-64448571D01*
X37057142Y-64448571D01*
X36914285Y-64520000D01*
X34342856Y-65448571D02*
X35057142Y-65448571D01*
X35057142Y-63948571D01*
X33199999Y-65448571D02*
X33199999Y-64662857D01*
X33271428Y-64520000D01*
X33414285Y-64448571D01*
X33699999Y-64448571D01*
X33842856Y-64520000D01*
X33199999Y-65377143D02*
X33342856Y-65448571D01*
X33699999Y-65448571D01*
X33842856Y-65377143D01*
X33914285Y-65234286D01*
X33914285Y-65091429D01*
X33842856Y-64948571D01*
X33699999Y-64877143D01*
X33342856Y-64877143D01*
X33199999Y-64805714D01*
X32485713Y-65448571D02*
X32485713Y-63948571D01*
X32485713Y-64520000D02*
X32342856Y-64448571D01*
X32057142Y-64448571D01*
X31914285Y-64520000D01*
X31842856Y-64591429D01*
X31771427Y-64734286D01*
X31771427Y-65162857D01*
X31842856Y-65305714D01*
X31914285Y-65377143D01*
X32057142Y-65448571D01*
X32342856Y-65448571D01*
X32485713Y-65377143D01*
D13*
X28956000Y-63500000D02*
X26416000Y-70104000D01*
X26416000Y-63500000D02*
X28956000Y-70104000D01*
X30988000Y-65278000D02*
X24384000Y-68326000D01*
X30988000Y-68072000D02*
X24384000Y-65532000D01*
X27686000Y-66802000D02*
X30988000Y-68072000D01*
X27686000Y-66802000D02*
X30988000Y-65278000D01*
X27686000Y-66802000D02*
X28956000Y-63500000D01*
X27686000Y-66802000D02*
X26416000Y-63500000D01*
X22606000Y-66802000D02*
X27686000Y-66802000D01*
X27686000Y-61722000D02*
X27686000Y-71882000D01*
X24130000Y-63246000D02*
X31242000Y-70358000D01*
X31242000Y-63246000D02*
X24130000Y-70358000D01*
X24130000Y-63246000D02*
X27686000Y-66802000D01*
X27686000Y-66802000D02*
X31242000Y-63246000D01*
X27686000Y-66802000D02*
X27686000Y-61722000D01*
D14*
X28321000Y-66802000D02*
G75*
G03X28321000Y-66802000I-635000J0D01*
G01*
D11*
X57658000Y-66802000D02*
X32893000Y-66802000D01*
D12*
X41769647Y-44742948D02*
X41769647Y-43242948D01*
X41412504Y-43242948D01*
X41198219Y-43314377D01*
X41055361Y-43457234D01*
X40983933Y-43600091D01*
X40912504Y-43885806D01*
X40912504Y-44100091D01*
X40983933Y-44385806D01*
X41055361Y-44528663D01*
X41198219Y-44671520D01*
X41412504Y-44742948D01*
X41769647Y-44742948D01*
X39698219Y-44671520D02*
X39841076Y-44742948D01*
X40126790Y-44742948D01*
X40269647Y-44671520D01*
X40341076Y-44528663D01*
X40341076Y-43957234D01*
X40269647Y-43814377D01*
X40126790Y-43742948D01*
X39841076Y-43742948D01*
X39698219Y-43814377D01*
X39626790Y-43957234D01*
X39626790Y-44100091D01*
X40341076Y-44242948D01*
X39055362Y-44671520D02*
X38912505Y-44742948D01*
X38626790Y-44742948D01*
X38483933Y-44671520D01*
X38412505Y-44528663D01*
X38412505Y-44457234D01*
X38483933Y-44314377D01*
X38626790Y-44242948D01*
X38841076Y-44242948D01*
X38983933Y-44171520D01*
X39055362Y-44028663D01*
X39055362Y-43957234D01*
X38983933Y-43814377D01*
X38841076Y-43742948D01*
X38626790Y-43742948D01*
X38483933Y-43814377D01*
X37769647Y-44742948D02*
X37769647Y-43742948D01*
X37769647Y-43242948D02*
X37841076Y-43314377D01*
X37769647Y-43385806D01*
X37698219Y-43314377D01*
X37769647Y-43242948D01*
X37769647Y-43385806D01*
X36412504Y-43742948D02*
X36412504Y-44957234D01*
X36483933Y-45100091D01*
X36555361Y-45171520D01*
X36698218Y-45242948D01*
X36912504Y-45242948D01*
X37055361Y-45171520D01*
X36412504Y-44671520D02*
X36555361Y-44742948D01*
X36841075Y-44742948D01*
X36983933Y-44671520D01*
X37055361Y-44600091D01*
X37126790Y-44457234D01*
X37126790Y-44028663D01*
X37055361Y-43885806D01*
X36983933Y-43814377D01*
X36841075Y-43742948D01*
X36555361Y-43742948D01*
X36412504Y-43814377D01*
X35698218Y-43742948D02*
X35698218Y-44742948D01*
X35698218Y-43885806D02*
X35626790Y-43814377D01*
X35483932Y-43742948D01*
X35269647Y-43742948D01*
X35126790Y-43814377D01*
X35055361Y-43957234D01*
X35055361Y-44742948D01*
X33769647Y-44671520D02*
X33912504Y-44742948D01*
X34198218Y-44742948D01*
X34341075Y-44671520D01*
X34412504Y-44528663D01*
X34412504Y-43957234D01*
X34341075Y-43814377D01*
X34198218Y-43742948D01*
X33912504Y-43742948D01*
X33769647Y-43814377D01*
X33698218Y-43957234D01*
X33698218Y-44100091D01*
X34412504Y-44242948D01*
X32412504Y-44742948D02*
X32412504Y-43242948D01*
X32412504Y-44671520D02*
X32555361Y-44742948D01*
X32841075Y-44742948D01*
X32983933Y-44671520D01*
X33055361Y-44600091D01*
X33126790Y-44457234D01*
X33126790Y-44028663D01*
X33055361Y-43885806D01*
X32983933Y-43814377D01*
X32841075Y-43742948D01*
X32555361Y-43742948D01*
X32412504Y-43814377D01*
X30055361Y-43957234D02*
X29841075Y-44028663D01*
X29769647Y-44100091D01*
X29698218Y-44242948D01*
X29698218Y-44457234D01*
X29769647Y-44600091D01*
X29841075Y-44671520D01*
X29983933Y-44742948D01*
X30555361Y-44742948D01*
X30555361Y-43242948D01*
X30055361Y-43242948D01*
X29912504Y-43314377D01*
X29841075Y-43385806D01*
X29769647Y-43528663D01*
X29769647Y-43671520D01*
X29841075Y-43814377D01*
X29912504Y-43885806D01*
X30055361Y-43957234D01*
X30555361Y-43957234D01*
X29198218Y-43742948D02*
X28841075Y-44742948D01*
X28483933Y-43742948D02*
X28841075Y-44742948D01*
X28983933Y-45100091D01*
X29055361Y-45171520D01*
X29198218Y-45242948D01*
X42412505Y-46864377D02*
X41698219Y-46864377D01*
X42555362Y-47292948D02*
X42055362Y-45792948D01*
X41555362Y-47292948D01*
X41055362Y-46292948D02*
X41055362Y-47292948D01*
X41055362Y-46435806D02*
X40983934Y-46364377D01*
X40841076Y-46292948D01*
X40626791Y-46292948D01*
X40483934Y-46364377D01*
X40412505Y-46507234D01*
X40412505Y-47292948D01*
X39912505Y-46292948D02*
X39341076Y-46292948D01*
X39698219Y-45792948D02*
X39698219Y-47078663D01*
X39626791Y-47221520D01*
X39483933Y-47292948D01*
X39341076Y-47292948D01*
X38626790Y-47292948D02*
X38769648Y-47221520D01*
X38841076Y-47150091D01*
X38912505Y-47007234D01*
X38912505Y-46578663D01*
X38841076Y-46435806D01*
X38769648Y-46364377D01*
X38626790Y-46292948D01*
X38412505Y-46292948D01*
X38269648Y-46364377D01*
X38198219Y-46435806D01*
X38126790Y-46578663D01*
X38126790Y-47007234D01*
X38198219Y-47150091D01*
X38269648Y-47221520D01*
X38412505Y-47292948D01*
X38626790Y-47292948D01*
X37483933Y-46292948D02*
X37483933Y-47292948D01*
X37483933Y-46435806D02*
X37412505Y-46364377D01*
X37269647Y-46292948D01*
X37055362Y-46292948D01*
X36912505Y-46364377D01*
X36841076Y-46507234D01*
X36841076Y-47292948D01*
X34983933Y-47292948D02*
X34983933Y-45792948D01*
X34412505Y-45792948D01*
X34269647Y-45864377D01*
X34198219Y-45935806D01*
X34126790Y-46078663D01*
X34126790Y-46292948D01*
X34198219Y-46435806D01*
X34269647Y-46507234D01*
X34412505Y-46578663D01*
X34983933Y-46578663D01*
X32841076Y-47292948D02*
X32841076Y-46507234D01*
X32912505Y-46364377D01*
X33055362Y-46292948D01*
X33341076Y-46292948D01*
X33483933Y-46364377D01*
X32841076Y-47221520D02*
X32983933Y-47292948D01*
X33341076Y-47292948D01*
X33483933Y-47221520D01*
X33555362Y-47078663D01*
X33555362Y-46935806D01*
X33483933Y-46792948D01*
X33341076Y-46721520D01*
X32983933Y-46721520D01*
X32841076Y-46650091D01*
X31483933Y-46292948D02*
X31483933Y-47792948D01*
X31483933Y-47221520D02*
X31626790Y-47292948D01*
X31912504Y-47292948D01*
X32055362Y-47221520D01*
X32126790Y-47150091D01*
X32198219Y-47007234D01*
X32198219Y-46578663D01*
X32126790Y-46435806D01*
X32055362Y-46364377D01*
X31912504Y-46292948D01*
X31626790Y-46292948D01*
X31483933Y-46364377D01*
X30126790Y-46292948D02*
X30126790Y-47292948D01*
X30769647Y-46292948D02*
X30769647Y-47078663D01*
X30698219Y-47221520D01*
X30555361Y-47292948D01*
X30341076Y-47292948D01*
X30198219Y-47221520D01*
X30126790Y-47150091D01*
X29412504Y-47292948D02*
X29412504Y-46292948D01*
X29412504Y-45792948D02*
X29483933Y-45864377D01*
X29412504Y-45935806D01*
X29341076Y-45864377D01*
X29412504Y-45792948D01*
X29412504Y-45935806D01*
X28698218Y-46292948D02*
X28698218Y-47292948D01*
X28698218Y-46435806D02*
X28626790Y-46364377D01*
X28483932Y-46292948D01*
X28269647Y-46292948D01*
X28126790Y-46364377D01*
X28055361Y-46507234D01*
X28055361Y-47292948D01*
X41448217Y-49842948D02*
X42305360Y-49842948D01*
X41876788Y-49842948D02*
X41876788Y-48342948D01*
X42019645Y-48557234D01*
X42162503Y-48700091D01*
X42305360Y-48771520D01*
X40876789Y-48485806D02*
X40805360Y-48414377D01*
X40662503Y-48342948D01*
X40305360Y-48342948D01*
X40162503Y-48414377D01*
X40091074Y-48485806D01*
X40019646Y-48628663D01*
X40019646Y-48771520D01*
X40091074Y-48985806D01*
X40948217Y-49842948D01*
X40019646Y-49842948D01*
X37733932Y-49057234D02*
X38233932Y-49057234D01*
X38233932Y-49842948D02*
X38233932Y-48342948D01*
X37519646Y-48342948D01*
X36376790Y-49771520D02*
X36519647Y-49842948D01*
X36805361Y-49842948D01*
X36948218Y-49771520D01*
X37019647Y-49628663D01*
X37019647Y-49057234D01*
X36948218Y-48914377D01*
X36805361Y-48842948D01*
X36519647Y-48842948D01*
X36376790Y-48914377D01*
X36305361Y-49057234D01*
X36305361Y-49200091D01*
X37019647Y-49342948D01*
X35662504Y-49842948D02*
X35662504Y-48342948D01*
X35662504Y-48914377D02*
X35519647Y-48842948D01*
X35233933Y-48842948D01*
X35091076Y-48914377D01*
X35019647Y-48985806D01*
X34948218Y-49128663D01*
X34948218Y-49557234D01*
X35019647Y-49700091D01*
X35091076Y-49771520D01*
X35233933Y-49842948D01*
X35519647Y-49842948D01*
X35662504Y-49771520D01*
X33233933Y-48485806D02*
X33162504Y-48414377D01*
X33019647Y-48342948D01*
X32662504Y-48342948D01*
X32519647Y-48414377D01*
X32448218Y-48485806D01*
X32376790Y-48628663D01*
X32376790Y-48771520D01*
X32448218Y-48985806D01*
X33305361Y-49842948D01*
X32376790Y-49842948D01*
X31448219Y-48342948D02*
X31305362Y-48342948D01*
X31162505Y-48414377D01*
X31091076Y-48485806D01*
X31019647Y-48628663D01*
X30948219Y-48914377D01*
X30948219Y-49271520D01*
X31019647Y-49557234D01*
X31091076Y-49700091D01*
X31162505Y-49771520D01*
X31305362Y-49842948D01*
X31448219Y-49842948D01*
X31591076Y-49771520D01*
X31662505Y-49700091D01*
X31733933Y-49557234D01*
X31805362Y-49271520D01*
X31805362Y-48914377D01*
X31733933Y-48628663D01*
X31662505Y-48485806D01*
X31591076Y-48414377D01*
X31448219Y-48342948D01*
X29519648Y-49842948D02*
X30376791Y-49842948D01*
X29948219Y-49842948D02*
X29948219Y-48342948D01*
X30091076Y-48557234D01*
X30233934Y-48700091D01*
X30376791Y-48771520D01*
X28662505Y-48985806D02*
X28805363Y-48914377D01*
X28876791Y-48842948D01*
X28948220Y-48700091D01*
X28948220Y-48628663D01*
X28876791Y-48485806D01*
X28805363Y-48414377D01*
X28662505Y-48342948D01*
X28376791Y-48342948D01*
X28233934Y-48414377D01*
X28162505Y-48485806D01*
X28091077Y-48628663D01*
X28091077Y-48700091D01*
X28162505Y-48842948D01*
X28233934Y-48914377D01*
X28376791Y-48985806D01*
X28662505Y-48985806D01*
X28805363Y-49057234D01*
X28876791Y-49128663D01*
X28948220Y-49271520D01*
X28948220Y-49557234D01*
X28876791Y-49700091D01*
X28805363Y-49771520D01*
X28662505Y-49842948D01*
X28376791Y-49842948D01*
X28233934Y-49771520D01*
X28162505Y-49700091D01*
X28091077Y-49557234D01*
X28091077Y-49271520D01*
X28162505Y-49128663D01*
X28233934Y-49057234D01*
X28376791Y-48985806D01*
M02*
