G04 #@! TF.FileFunction,Soldermask,Top*
%FSLAX46Y46*%
G04 Gerber Fmt 4.6, Leading zero omitted, Abs format (unit mm)*
G04 Created by KiCad (PCBNEW 4.0.7) date Wed Feb 14 16:44:24 2018*
%MOMM*%
%LPD*%
G01*
G04 APERTURE LIST*
%ADD10C,0.100000*%
%ADD11R,0.701600X1.601600*%
%ADD12R,1.801600X1.801600*%
%ADD13O,1.801600X1.801600*%
%ADD14R,0.901600X2.001600*%
%ADD15R,2.101600X1.801600*%
%ADD16R,1.601600X1.601600*%
%ADD17C,1.701600*%
%ADD18O,1.701600X1.701600*%
%ADD19R,1.801600X2.101600*%
G04 APERTURE END LIST*
D10*
D11*
X67583219Y-38199377D03*
X66313219Y-38199377D03*
X65043219Y-38199377D03*
X63773219Y-38199377D03*
X62503219Y-38199377D03*
X61233219Y-38199377D03*
X59963219Y-38199377D03*
X59963219Y-43599377D03*
X61233219Y-43599377D03*
X62503219Y-43599377D03*
X63773219Y-43599377D03*
X65043219Y-43599377D03*
X66313219Y-43599377D03*
X67583219Y-43599377D03*
X67583219Y-96619377D03*
X66313219Y-96619377D03*
X65043219Y-96619377D03*
X63773219Y-96619377D03*
X62503219Y-96619377D03*
X61233219Y-96619377D03*
X59963219Y-96619377D03*
X59963219Y-102019377D03*
X61233219Y-102019377D03*
X62503219Y-102019377D03*
X63773219Y-102019377D03*
X65043219Y-102019377D03*
X66313219Y-102019377D03*
X67583219Y-102019377D03*
D12*
X25673219Y-155834377D03*
D13*
X25673219Y-153294377D03*
X28213219Y-155834377D03*
X28213219Y-153294377D03*
X30753219Y-155834377D03*
X30753219Y-153294377D03*
X33293219Y-155834377D03*
X33293219Y-153294377D03*
X35833219Y-155834377D03*
X35833219Y-153294377D03*
X38373219Y-155834377D03*
X38373219Y-153294377D03*
X40913219Y-155834377D03*
X40913219Y-153294377D03*
X43453219Y-155834377D03*
X43453219Y-153294377D03*
X45993219Y-155834377D03*
X45993219Y-153294377D03*
X48533219Y-155834377D03*
X48533219Y-153294377D03*
X51073219Y-155834377D03*
X51073219Y-153294377D03*
X53613219Y-155834377D03*
X53613219Y-153294377D03*
X56153219Y-155834377D03*
X56153219Y-153294377D03*
D11*
X67583219Y-76934377D03*
X66313219Y-76934377D03*
X65043219Y-76934377D03*
X63773219Y-76934377D03*
X62503219Y-76934377D03*
X61233219Y-76934377D03*
X59963219Y-76934377D03*
X59963219Y-82334377D03*
X61233219Y-82334377D03*
X62503219Y-82334377D03*
X63773219Y-82334377D03*
X65043219Y-82334377D03*
X66313219Y-82334377D03*
X67583219Y-82334377D03*
X67583219Y-136149377D03*
X66313219Y-136149377D03*
X65043219Y-136149377D03*
X63773219Y-136149377D03*
X62503219Y-136149377D03*
X61233219Y-136149377D03*
X59963219Y-136149377D03*
X59963219Y-141549377D03*
X61233219Y-141549377D03*
X62503219Y-141549377D03*
X63773219Y-141549377D03*
X65043219Y-141549377D03*
X66313219Y-141549377D03*
X67583219Y-141549377D03*
X67583219Y-116304377D03*
X66313219Y-116304377D03*
X65043219Y-116304377D03*
X63773219Y-116304377D03*
X62503219Y-116304377D03*
X61233219Y-116304377D03*
X59963219Y-116304377D03*
X59963219Y-121704377D03*
X61233219Y-121704377D03*
X62503219Y-121704377D03*
X63773219Y-121704377D03*
X65043219Y-121704377D03*
X66313219Y-121704377D03*
X67583219Y-121704377D03*
D14*
X41233219Y-141333477D03*
X43133219Y-141333477D03*
X42183219Y-138333477D03*
X53933219Y-141333477D03*
X55833219Y-141333477D03*
X54883219Y-138333477D03*
D15*
X46723219Y-134753477D03*
X42723219Y-134753477D03*
D16*
X33548219Y-18674377D03*
X36848219Y-18674377D03*
X33038219Y-26294377D03*
X29738219Y-26294377D03*
D15*
X28943219Y-134753477D03*
X24943219Y-134753477D03*
D16*
X22118219Y-18674377D03*
X25418219Y-18674377D03*
D15*
X37833219Y-134753477D03*
X33833219Y-134753477D03*
D16*
X30498219Y-18674377D03*
X27198219Y-18674377D03*
D15*
X55613219Y-134753477D03*
X51613219Y-134753477D03*
D16*
X41928219Y-18674377D03*
X38628219Y-18674377D03*
D15*
X28943219Y-115194377D03*
X24943219Y-115194377D03*
D16*
X24658219Y-21214377D03*
X27958219Y-21214377D03*
D15*
X37833219Y-115194377D03*
X33833219Y-115194377D03*
D16*
X33038219Y-21214377D03*
X29738219Y-21214377D03*
D15*
X46723219Y-115194377D03*
X42723219Y-115194377D03*
D16*
X36088219Y-21214377D03*
X39388219Y-21214377D03*
D15*
X55613219Y-115194377D03*
X51613219Y-115194377D03*
D16*
X44468219Y-21214377D03*
X41168219Y-21214377D03*
D15*
X28943219Y-95509377D03*
X24943219Y-95509377D03*
D16*
X22118219Y-23754377D03*
X25418219Y-23754377D03*
D15*
X37833219Y-95509377D03*
X33833219Y-95509377D03*
D16*
X30498219Y-23754377D03*
X27198219Y-23754377D03*
D15*
X46723219Y-95509377D03*
X42723219Y-95509377D03*
D16*
X33548219Y-23754377D03*
X36848219Y-23754377D03*
D15*
X55613219Y-95509377D03*
X51613219Y-95509377D03*
D16*
X41928219Y-23754377D03*
X38628219Y-23754377D03*
D15*
X28943219Y-75824377D03*
X24943219Y-75824377D03*
D16*
X24658219Y-26294377D03*
X27958219Y-26294377D03*
D15*
X37833219Y-75824377D03*
X33833219Y-75824377D03*
X46723219Y-75824377D03*
X42723219Y-75824377D03*
D16*
X36088219Y-26294377D03*
X39388219Y-26294377D03*
D15*
X55613219Y-75824377D03*
X51613219Y-75824377D03*
D16*
X44468219Y-26294377D03*
X41168219Y-26294377D03*
D15*
X28943219Y-56774377D03*
X24943219Y-56774377D03*
D16*
X22118219Y-28834377D03*
X25418219Y-28834377D03*
D15*
X37833219Y-56774377D03*
X33833219Y-56774377D03*
D16*
X30498219Y-28834377D03*
X27198219Y-28834377D03*
D15*
X46723219Y-56774377D03*
X42723219Y-56774377D03*
D16*
X33548219Y-28834377D03*
X36848219Y-28834377D03*
D15*
X55613219Y-56774377D03*
X51613219Y-56774377D03*
D16*
X41928219Y-28834377D03*
X38628219Y-28834377D03*
D15*
X28943219Y-37089377D03*
X24943219Y-37089377D03*
D16*
X24658219Y-31374377D03*
X27958219Y-31374377D03*
D15*
X37833219Y-37089377D03*
X33833219Y-37089377D03*
D16*
X33038219Y-31374377D03*
X29738219Y-31374377D03*
D15*
X46723219Y-37089377D03*
X42723219Y-37089377D03*
D16*
X36088219Y-31374377D03*
X39388219Y-31374377D03*
D15*
X55613219Y-37089377D03*
X51613219Y-37089377D03*
D16*
X44468219Y-31374377D03*
X41168219Y-31374377D03*
D12*
X65678219Y-19944377D03*
D13*
X65678219Y-22484377D03*
D14*
X23453219Y-141333477D03*
X25353219Y-141333477D03*
X24403219Y-138333477D03*
X27263219Y-141333477D03*
X29163219Y-141333477D03*
X28213219Y-138333477D03*
X32343219Y-141333477D03*
X34243219Y-141333477D03*
X33293219Y-138333477D03*
X36153219Y-141333477D03*
X38053219Y-141333477D03*
X37103219Y-138333477D03*
X45043219Y-141333477D03*
X46943219Y-141333477D03*
X45993219Y-138333477D03*
X50123219Y-141333477D03*
X52023219Y-141333477D03*
X51073219Y-138333477D03*
X23453219Y-121774377D03*
X25353219Y-121774377D03*
X24403219Y-118774377D03*
X27263219Y-121774377D03*
X29163219Y-121774377D03*
X28213219Y-118774377D03*
X32343219Y-121774377D03*
X34243219Y-121774377D03*
X33293219Y-118774377D03*
X36153219Y-121774377D03*
X38053219Y-121774377D03*
X37103219Y-118774377D03*
X41233219Y-121774377D03*
X43133219Y-121774377D03*
X42183219Y-118774377D03*
X45043219Y-121774377D03*
X46943219Y-121774377D03*
X45993219Y-118774377D03*
X50123219Y-121774377D03*
X52023219Y-121774377D03*
X51073219Y-118774377D03*
X53933219Y-121774377D03*
X55833219Y-121774377D03*
X54883219Y-118774377D03*
X23453219Y-102089377D03*
X25353219Y-102089377D03*
X24403219Y-99089377D03*
X27263219Y-102089377D03*
X29163219Y-102089377D03*
X28213219Y-99089377D03*
X32343219Y-102089377D03*
X34243219Y-102089377D03*
X33293219Y-99089377D03*
X36153219Y-102089377D03*
X38053219Y-102089377D03*
X37103219Y-99089377D03*
X41233219Y-102089377D03*
X43133219Y-102089377D03*
X42183219Y-99089377D03*
X45043219Y-102089377D03*
X46943219Y-102089377D03*
X45993219Y-99089377D03*
X50123219Y-102089377D03*
X52023219Y-102089377D03*
X51073219Y-99089377D03*
X53933219Y-102089377D03*
X55833219Y-102089377D03*
X54883219Y-99089377D03*
X23453219Y-82404377D03*
X25353219Y-82404377D03*
X24403219Y-79404377D03*
X27263219Y-82404377D03*
X29163219Y-82404377D03*
X28213219Y-79404377D03*
X32343219Y-82404377D03*
X34243219Y-82404377D03*
X33293219Y-79404377D03*
X36153219Y-82404377D03*
X38053219Y-82404377D03*
X37103219Y-79404377D03*
X41233219Y-82404377D03*
X43133219Y-82404377D03*
X42183219Y-79404377D03*
X45043219Y-82404377D03*
X46943219Y-82404377D03*
X45993219Y-79404377D03*
X50123219Y-82404377D03*
X52023219Y-82404377D03*
X51073219Y-79404377D03*
X53933219Y-82404377D03*
X55833219Y-82404377D03*
X54883219Y-79404377D03*
X23453219Y-63354377D03*
X25353219Y-63354377D03*
X24403219Y-60354377D03*
X27263219Y-63354377D03*
X29163219Y-63354377D03*
X28213219Y-60354377D03*
X32343219Y-63354377D03*
X34243219Y-63354377D03*
X33293219Y-60354377D03*
X36153219Y-63354377D03*
X38053219Y-63354377D03*
X37103219Y-60354377D03*
X41233219Y-63354377D03*
X43133219Y-63354377D03*
X42183219Y-60354377D03*
X45043219Y-63354377D03*
X46943219Y-63354377D03*
X45993219Y-60354377D03*
X50123219Y-63354377D03*
X52023219Y-63354377D03*
X51073219Y-60354377D03*
X53933219Y-63354377D03*
X55833219Y-63354377D03*
X54883219Y-60354377D03*
X23453219Y-43669377D03*
X25353219Y-43669377D03*
X24403219Y-40669377D03*
X27263219Y-43669377D03*
X29163219Y-43669377D03*
X28213219Y-40669377D03*
X32343219Y-43669377D03*
X34243219Y-43669377D03*
X33293219Y-40669377D03*
X36153219Y-43669377D03*
X38053219Y-43669377D03*
X37103219Y-40669377D03*
X41233219Y-43669377D03*
X43133219Y-43669377D03*
X42183219Y-40669377D03*
X45043219Y-43669377D03*
X46943219Y-43669377D03*
X45993219Y-40669377D03*
X50123219Y-43669377D03*
X52023219Y-43669377D03*
X51073219Y-40669377D03*
X53933219Y-43669377D03*
X55833219Y-43669377D03*
X54883219Y-40669377D03*
D17*
X61233219Y-21214377D03*
D18*
X61233219Y-18674377D03*
D17*
X61233219Y-26929377D03*
D18*
X61233219Y-24389377D03*
D19*
X24403219Y-145453477D03*
X24403219Y-149453477D03*
X28213219Y-145453477D03*
X28213219Y-149453477D03*
X33293219Y-145453477D03*
X33293219Y-149453477D03*
X37103219Y-145453477D03*
X37103219Y-149453477D03*
X42183219Y-145453477D03*
X42183219Y-149453477D03*
X45993219Y-145453477D03*
X45993219Y-149453477D03*
X51073219Y-145453477D03*
X51073219Y-149453477D03*
X54883219Y-145453477D03*
X54883219Y-149453477D03*
X24403219Y-125894377D03*
X24403219Y-129894377D03*
X28213219Y-125894377D03*
X28213219Y-129894377D03*
X33293219Y-125894377D03*
X33293219Y-129894377D03*
X37103219Y-125894377D03*
X37103219Y-129894377D03*
X42183219Y-125894377D03*
X42183219Y-129894377D03*
X45993219Y-125894377D03*
X45993219Y-129894377D03*
X51073219Y-125894377D03*
X51073219Y-129894377D03*
X54883219Y-125894377D03*
X54883219Y-129894377D03*
X24403219Y-106209377D03*
X24403219Y-110209377D03*
X28213219Y-106209377D03*
X28213219Y-110209377D03*
X33293219Y-106209377D03*
X33293219Y-110209377D03*
X37103219Y-106209377D03*
X37103219Y-110209377D03*
X42183219Y-106209377D03*
X42183219Y-110209377D03*
X45993219Y-106209377D03*
X45993219Y-110209377D03*
X51073219Y-106209377D03*
X51073219Y-110209377D03*
X54883219Y-106209377D03*
X54883219Y-110209377D03*
X24403219Y-86524377D03*
X24403219Y-90524377D03*
X28213219Y-86524377D03*
X28213219Y-90524377D03*
X33293219Y-86524377D03*
X33293219Y-90524377D03*
X37103219Y-86524377D03*
X37103219Y-90524377D03*
X42183219Y-86524377D03*
X42183219Y-90524377D03*
X45993219Y-86524377D03*
X45993219Y-90524377D03*
X51073219Y-86524377D03*
X51073219Y-90524377D03*
X54883219Y-86524377D03*
X54883219Y-90524377D03*
X24403219Y-67474377D03*
X24403219Y-71474377D03*
X28213219Y-67474377D03*
X28213219Y-71474377D03*
X33293219Y-67474377D03*
X33293219Y-71474377D03*
X37103219Y-67474377D03*
X37103219Y-71474377D03*
X42183219Y-67474377D03*
X42183219Y-71474377D03*
X45993219Y-67474377D03*
X45993219Y-71474377D03*
X51073219Y-67474377D03*
X51073219Y-71474377D03*
X54883219Y-67474377D03*
X54883219Y-71474377D03*
X24403219Y-47789377D03*
X24403219Y-51789377D03*
X28213219Y-47789377D03*
X28213219Y-51789377D03*
X33293219Y-47789377D03*
X33293219Y-51789377D03*
X37103219Y-47789377D03*
X37103219Y-51789377D03*
X42183219Y-47789377D03*
X42183219Y-51789377D03*
X45993219Y-47789377D03*
X45993219Y-51789377D03*
X51073219Y-47789377D03*
X51073219Y-51789377D03*
X54883219Y-47789377D03*
X54883219Y-51789377D03*
D11*
X67583219Y-57884377D03*
X66313219Y-57884377D03*
X65043219Y-57884377D03*
X63773219Y-57884377D03*
X62503219Y-57884377D03*
X61233219Y-57884377D03*
X59963219Y-57884377D03*
X59963219Y-63284377D03*
X61233219Y-63284377D03*
X62503219Y-63284377D03*
X63773219Y-63284377D03*
X65043219Y-63284377D03*
X66313219Y-63284377D03*
X67583219Y-63284377D03*
M02*
