M48
;DRILL file {KiCad 4.0.7} date Wed Feb 14 16:41:45 2018
;FORMAT={-:-/ absolute / inch / decimal}
FMAT,2
INCH,TZ
T1C0.013
T2C0.031
T3C0.039
%
G90
G05
M72
T1
X0.7858Y-0.7352
X0.8108Y-0.9352
X0.8858Y-1.0352
X0.9071Y-0.8389
X1.0608Y-1.4602
X1.0608Y-2.2352
X1.0608Y-2.9852
X1.0608Y-3.7602
X1.0608Y-4.5352
X1.0608Y-5.3102
X1.1358Y-0.7102
X1.1358Y-0.9102
X1.1358Y-1.1352
X1.1608Y-3.8602
X1.1608Y-4.6102
X1.1858Y-1.5352
X1.1858Y-5.4102
X1.2108Y-2.3102
X1.2108Y-3.0602
X1.2358Y-0.8102
X1.2358Y-1.0102
X1.2358Y-2.1352
X1.2358Y-2.9102
X1.2358Y-3.6602
X1.2358Y-4.4602
X1.2358Y-5.2352
X1.3858Y-0.7352
X1.3858Y-0.9352
X1.3858Y-1.1352
X1.4108Y-1.4602
X1.4108Y-2.2352
X1.4108Y-2.9852
X1.4108Y-3.7602
X1.4108Y-4.5352
X1.4108Y-5.3102
X1.4858Y-0.8352
X1.4858Y-1.0352
X1.5108Y-4.6352
X1.5108Y-5.4102
X1.5358Y-3.8602
X1.5608Y-1.5852
X1.5608Y-2.3352
X1.5608Y-3.1102
X1.5858Y-0.7352
X1.5858Y-0.9352
X1.5858Y-1.1352
X1.6108Y-2.1852
X1.6858Y-0.8352
X1.6858Y-1.0352
X1.7608Y-1.4602
X1.7608Y-2.2352
X1.7608Y-2.9852
X1.7608Y-3.7602
X1.7608Y-4.5352
X1.7608Y-5.3102
X1.8858Y-1.6102
X1.8858Y-2.3852
X1.8858Y-3.1602
X1.8858Y-3.9352
X1.8858Y-4.6602
X1.8858Y-5.4352
X1.9358Y-2.0852
X1.9358Y-3.6352
X1.9358Y-4.4352
X1.9358Y-5.2102
X1.9608Y-2.8852
X2.1108Y-1.4602
X2.1108Y-2.2352
X2.1108Y-2.9852
X2.1108Y-3.7602
X2.1108Y-4.5352
X2.1108Y-5.3102
X2.2108Y-1.6352
X2.2608Y-3.0602
X2.2858Y-2.2352
X2.2858Y-3.8352
X2.3108Y-4.3352
X2.3108Y-4.5102
X2.3358Y-1.9852
X2.3358Y-3.6352
X2.3358Y-4.4102
X2.3358Y-5.2852
X2.3608Y-1.1352
X2.3608Y-1.6352
X2.3608Y-5.1352
X2.3858Y-2.1102
X2.4108Y-1.5602
X2.4108Y-2.3352
X2.4108Y-3.0852
X2.4108Y-3.5352
X2.4108Y-3.8602
X2.4108Y-4.6352
X2.4108Y-5.1852
X2.4108Y-5.4102
X2.4358Y-1.9852
X2.4358Y-2.8602
X2.4535Y-5.2352
X2.4608Y-1.6602
X2.4608Y-2.4352
X2.4608Y-2.9602
X2.4608Y-3.1852
X2.4608Y-3.4852
X2.4608Y-3.6352
X2.4608Y-3.8602
X2.4608Y-3.9602
X2.4608Y-4.4602
X2.4608Y-4.7352
X2.4608Y-5.5102
X2.4858Y-1.3352
X2.4858Y-2.0602
X2.5078Y-5.7412
X2.5108Y-1.4352
X2.5108Y-2.2102
X2.5108Y-2.3602
X2.5108Y-2.7102
X2.5108Y-3.1102
X2.5108Y-3.3352
X2.5108Y-3.8852
X2.5108Y-4.6352
X2.5108Y-5.4102
X2.5108Y-5.4432
X2.5142Y-4.6818
X2.5358Y-1.5852
X2.5358Y-5.4852
X2.5477Y-5.7752
X2.5608Y-2.1602
X2.5608Y-2.4352
X2.5608Y-2.7852
X2.5608Y-3.1852
X2.5608Y-3.9602
X2.5608Y-4.7352
X2.5608Y-5.5102
X2.6158Y-3.9592
X2.6278Y-2.4232
X2.6338Y-2.7712
X2.6338Y-2.9332
X2.6578Y-2.5492
X2.6578Y-3.2992
X2.6578Y-4.0732
X2.6608Y-2.3352
X2.6608Y-3.0852
X2.6608Y-3.8602
X2.6608Y-4.6352
X2.6608Y-4.7352
X2.6638Y-1.5532
X2.6638Y-1.7692
X2.6638Y-3.9232
X2.7058Y-2.8012
X2.7178Y-2.9322
X2.7238Y-2.4292
T2
X2.4108Y-0.7352
X2.4108Y-0.8352
X2.4108Y-0.9602
X2.4108Y-1.0602
T3
X1.0108Y-6.0352
X1.0108Y-6.1352
X1.1108Y-6.0352
X1.1108Y-6.1352
X1.2108Y-6.0352
X1.2108Y-6.1352
X1.3108Y-6.0352
X1.3108Y-6.1352
X1.4108Y-6.0352
X1.4108Y-6.1352
X1.5108Y-6.0352
X1.5108Y-6.1352
X1.6108Y-6.0352
X1.6108Y-6.1352
X1.7108Y-6.0352
X1.7108Y-6.1352
X1.8108Y-6.0352
X1.8108Y-6.1352
X1.9108Y-6.0352
X1.9108Y-6.1352
X2.0108Y-6.0352
X2.0108Y-6.1352
X2.1108Y-6.0352
X2.1108Y-6.1352
X2.2108Y-6.0352
X2.2108Y-6.1352
X2.5858Y-0.7852
X2.5858Y-0.8852
T0
M30
