G04 #@! TF.FileFunction,Copper,L1,Top,Signal*
%FSLAX46Y46*%
G04 Gerber Fmt 4.6, Leading zero omitted, Abs format (unit mm)*
G04 Created by KiCad (PCBNEW 4.0.7) date Wed Feb 14 16:44:24 2018*
%MOMM*%
%LPD*%
G01*
G04 APERTURE LIST*
%ADD10C,0.100000*%
%ADD11R,0.600000X1.500000*%
%ADD12R,1.700000X1.700000*%
%ADD13O,1.700000X1.700000*%
%ADD14R,0.800000X1.900000*%
%ADD15R,2.000000X1.700000*%
%ADD16R,1.500000X1.500000*%
%ADD17C,1.600000*%
%ADD18O,1.600000X1.600000*%
%ADD19R,1.700000X2.000000*%
%ADD20C,0.685800*%
%ADD21C,0.152400*%
%ADD22C,0.304800*%
G04 APERTURE END LIST*
D10*
D11*
X67583219Y-38199377D03*
X66313219Y-38199377D03*
X65043219Y-38199377D03*
X63773219Y-38199377D03*
X62503219Y-38199377D03*
X61233219Y-38199377D03*
X59963219Y-38199377D03*
X59963219Y-43599377D03*
X61233219Y-43599377D03*
X62503219Y-43599377D03*
X63773219Y-43599377D03*
X65043219Y-43599377D03*
X66313219Y-43599377D03*
X67583219Y-43599377D03*
X67583219Y-96619377D03*
X66313219Y-96619377D03*
X65043219Y-96619377D03*
X63773219Y-96619377D03*
X62503219Y-96619377D03*
X61233219Y-96619377D03*
X59963219Y-96619377D03*
X59963219Y-102019377D03*
X61233219Y-102019377D03*
X62503219Y-102019377D03*
X63773219Y-102019377D03*
X65043219Y-102019377D03*
X66313219Y-102019377D03*
X67583219Y-102019377D03*
D12*
X25673219Y-155834377D03*
D13*
X25673219Y-153294377D03*
X28213219Y-155834377D03*
X28213219Y-153294377D03*
X30753219Y-155834377D03*
X30753219Y-153294377D03*
X33293219Y-155834377D03*
X33293219Y-153294377D03*
X35833219Y-155834377D03*
X35833219Y-153294377D03*
X38373219Y-155834377D03*
X38373219Y-153294377D03*
X40913219Y-155834377D03*
X40913219Y-153294377D03*
X43453219Y-155834377D03*
X43453219Y-153294377D03*
X45993219Y-155834377D03*
X45993219Y-153294377D03*
X48533219Y-155834377D03*
X48533219Y-153294377D03*
X51073219Y-155834377D03*
X51073219Y-153294377D03*
X53613219Y-155834377D03*
X53613219Y-153294377D03*
X56153219Y-155834377D03*
X56153219Y-153294377D03*
D11*
X67583219Y-76934377D03*
X66313219Y-76934377D03*
X65043219Y-76934377D03*
X63773219Y-76934377D03*
X62503219Y-76934377D03*
X61233219Y-76934377D03*
X59963219Y-76934377D03*
X59963219Y-82334377D03*
X61233219Y-82334377D03*
X62503219Y-82334377D03*
X63773219Y-82334377D03*
X65043219Y-82334377D03*
X66313219Y-82334377D03*
X67583219Y-82334377D03*
X67583219Y-136149377D03*
X66313219Y-136149377D03*
X65043219Y-136149377D03*
X63773219Y-136149377D03*
X62503219Y-136149377D03*
X61233219Y-136149377D03*
X59963219Y-136149377D03*
X59963219Y-141549377D03*
X61233219Y-141549377D03*
X62503219Y-141549377D03*
X63773219Y-141549377D03*
X65043219Y-141549377D03*
X66313219Y-141549377D03*
X67583219Y-141549377D03*
X67583219Y-116304377D03*
X66313219Y-116304377D03*
X65043219Y-116304377D03*
X63773219Y-116304377D03*
X62503219Y-116304377D03*
X61233219Y-116304377D03*
X59963219Y-116304377D03*
X59963219Y-121704377D03*
X61233219Y-121704377D03*
X62503219Y-121704377D03*
X63773219Y-121704377D03*
X65043219Y-121704377D03*
X66313219Y-121704377D03*
X67583219Y-121704377D03*
D14*
X41233219Y-141333477D03*
X43133219Y-141333477D03*
X42183219Y-138333477D03*
X53933219Y-141333477D03*
X55833219Y-141333477D03*
X54883219Y-138333477D03*
D15*
X46723219Y-134753477D03*
X42723219Y-134753477D03*
D16*
X33548219Y-18674377D03*
X36848219Y-18674377D03*
X33038219Y-26294377D03*
X29738219Y-26294377D03*
D15*
X28943219Y-134753477D03*
X24943219Y-134753477D03*
D16*
X22118219Y-18674377D03*
X25418219Y-18674377D03*
D15*
X37833219Y-134753477D03*
X33833219Y-134753477D03*
D16*
X30498219Y-18674377D03*
X27198219Y-18674377D03*
D15*
X55613219Y-134753477D03*
X51613219Y-134753477D03*
D16*
X41928219Y-18674377D03*
X38628219Y-18674377D03*
D15*
X28943219Y-115194377D03*
X24943219Y-115194377D03*
D16*
X24658219Y-21214377D03*
X27958219Y-21214377D03*
D15*
X37833219Y-115194377D03*
X33833219Y-115194377D03*
D16*
X33038219Y-21214377D03*
X29738219Y-21214377D03*
D15*
X46723219Y-115194377D03*
X42723219Y-115194377D03*
D16*
X36088219Y-21214377D03*
X39388219Y-21214377D03*
D15*
X55613219Y-115194377D03*
X51613219Y-115194377D03*
D16*
X44468219Y-21214377D03*
X41168219Y-21214377D03*
D15*
X28943219Y-95509377D03*
X24943219Y-95509377D03*
D16*
X22118219Y-23754377D03*
X25418219Y-23754377D03*
D15*
X37833219Y-95509377D03*
X33833219Y-95509377D03*
D16*
X30498219Y-23754377D03*
X27198219Y-23754377D03*
D15*
X46723219Y-95509377D03*
X42723219Y-95509377D03*
D16*
X33548219Y-23754377D03*
X36848219Y-23754377D03*
D15*
X55613219Y-95509377D03*
X51613219Y-95509377D03*
D16*
X41928219Y-23754377D03*
X38628219Y-23754377D03*
D15*
X28943219Y-75824377D03*
X24943219Y-75824377D03*
D16*
X24658219Y-26294377D03*
X27958219Y-26294377D03*
D15*
X37833219Y-75824377D03*
X33833219Y-75824377D03*
X46723219Y-75824377D03*
X42723219Y-75824377D03*
D16*
X36088219Y-26294377D03*
X39388219Y-26294377D03*
D15*
X55613219Y-75824377D03*
X51613219Y-75824377D03*
D16*
X44468219Y-26294377D03*
X41168219Y-26294377D03*
D15*
X28943219Y-56774377D03*
X24943219Y-56774377D03*
D16*
X22118219Y-28834377D03*
X25418219Y-28834377D03*
D15*
X37833219Y-56774377D03*
X33833219Y-56774377D03*
D16*
X30498219Y-28834377D03*
X27198219Y-28834377D03*
D15*
X46723219Y-56774377D03*
X42723219Y-56774377D03*
D16*
X33548219Y-28834377D03*
X36848219Y-28834377D03*
D15*
X55613219Y-56774377D03*
X51613219Y-56774377D03*
D16*
X41928219Y-28834377D03*
X38628219Y-28834377D03*
D15*
X28943219Y-37089377D03*
X24943219Y-37089377D03*
D16*
X24658219Y-31374377D03*
X27958219Y-31374377D03*
D15*
X37833219Y-37089377D03*
X33833219Y-37089377D03*
D16*
X33038219Y-31374377D03*
X29738219Y-31374377D03*
D15*
X46723219Y-37089377D03*
X42723219Y-37089377D03*
D16*
X36088219Y-31374377D03*
X39388219Y-31374377D03*
D15*
X55613219Y-37089377D03*
X51613219Y-37089377D03*
D16*
X44468219Y-31374377D03*
X41168219Y-31374377D03*
D12*
X65678219Y-19944377D03*
D13*
X65678219Y-22484377D03*
D14*
X23453219Y-141333477D03*
X25353219Y-141333477D03*
X24403219Y-138333477D03*
X27263219Y-141333477D03*
X29163219Y-141333477D03*
X28213219Y-138333477D03*
X32343219Y-141333477D03*
X34243219Y-141333477D03*
X33293219Y-138333477D03*
X36153219Y-141333477D03*
X38053219Y-141333477D03*
X37103219Y-138333477D03*
X45043219Y-141333477D03*
X46943219Y-141333477D03*
X45993219Y-138333477D03*
X50123219Y-141333477D03*
X52023219Y-141333477D03*
X51073219Y-138333477D03*
X23453219Y-121774377D03*
X25353219Y-121774377D03*
X24403219Y-118774377D03*
X27263219Y-121774377D03*
X29163219Y-121774377D03*
X28213219Y-118774377D03*
X32343219Y-121774377D03*
X34243219Y-121774377D03*
X33293219Y-118774377D03*
X36153219Y-121774377D03*
X38053219Y-121774377D03*
X37103219Y-118774377D03*
X41233219Y-121774377D03*
X43133219Y-121774377D03*
X42183219Y-118774377D03*
X45043219Y-121774377D03*
X46943219Y-121774377D03*
X45993219Y-118774377D03*
X50123219Y-121774377D03*
X52023219Y-121774377D03*
X51073219Y-118774377D03*
X53933219Y-121774377D03*
X55833219Y-121774377D03*
X54883219Y-118774377D03*
X23453219Y-102089377D03*
X25353219Y-102089377D03*
X24403219Y-99089377D03*
X27263219Y-102089377D03*
X29163219Y-102089377D03*
X28213219Y-99089377D03*
X32343219Y-102089377D03*
X34243219Y-102089377D03*
X33293219Y-99089377D03*
X36153219Y-102089377D03*
X38053219Y-102089377D03*
X37103219Y-99089377D03*
X41233219Y-102089377D03*
X43133219Y-102089377D03*
X42183219Y-99089377D03*
X45043219Y-102089377D03*
X46943219Y-102089377D03*
X45993219Y-99089377D03*
X50123219Y-102089377D03*
X52023219Y-102089377D03*
X51073219Y-99089377D03*
X53933219Y-102089377D03*
X55833219Y-102089377D03*
X54883219Y-99089377D03*
X23453219Y-82404377D03*
X25353219Y-82404377D03*
X24403219Y-79404377D03*
X27263219Y-82404377D03*
X29163219Y-82404377D03*
X28213219Y-79404377D03*
X32343219Y-82404377D03*
X34243219Y-82404377D03*
X33293219Y-79404377D03*
X36153219Y-82404377D03*
X38053219Y-82404377D03*
X37103219Y-79404377D03*
X41233219Y-82404377D03*
X43133219Y-82404377D03*
X42183219Y-79404377D03*
X45043219Y-82404377D03*
X46943219Y-82404377D03*
X45993219Y-79404377D03*
X50123219Y-82404377D03*
X52023219Y-82404377D03*
X51073219Y-79404377D03*
X53933219Y-82404377D03*
X55833219Y-82404377D03*
X54883219Y-79404377D03*
X23453219Y-63354377D03*
X25353219Y-63354377D03*
X24403219Y-60354377D03*
X27263219Y-63354377D03*
X29163219Y-63354377D03*
X28213219Y-60354377D03*
X32343219Y-63354377D03*
X34243219Y-63354377D03*
X33293219Y-60354377D03*
X36153219Y-63354377D03*
X38053219Y-63354377D03*
X37103219Y-60354377D03*
X41233219Y-63354377D03*
X43133219Y-63354377D03*
X42183219Y-60354377D03*
X45043219Y-63354377D03*
X46943219Y-63354377D03*
X45993219Y-60354377D03*
X50123219Y-63354377D03*
X52023219Y-63354377D03*
X51073219Y-60354377D03*
X53933219Y-63354377D03*
X55833219Y-63354377D03*
X54883219Y-60354377D03*
X23453219Y-43669377D03*
X25353219Y-43669377D03*
X24403219Y-40669377D03*
X27263219Y-43669377D03*
X29163219Y-43669377D03*
X28213219Y-40669377D03*
X32343219Y-43669377D03*
X34243219Y-43669377D03*
X33293219Y-40669377D03*
X36153219Y-43669377D03*
X38053219Y-43669377D03*
X37103219Y-40669377D03*
X41233219Y-43669377D03*
X43133219Y-43669377D03*
X42183219Y-40669377D03*
X45043219Y-43669377D03*
X46943219Y-43669377D03*
X45993219Y-40669377D03*
X50123219Y-43669377D03*
X52023219Y-43669377D03*
X51073219Y-40669377D03*
X53933219Y-43669377D03*
X55833219Y-43669377D03*
X54883219Y-40669377D03*
D17*
X61233219Y-21214377D03*
D18*
X61233219Y-18674377D03*
D17*
X61233219Y-26929377D03*
D18*
X61233219Y-24389377D03*
D19*
X24403219Y-145453477D03*
X24403219Y-149453477D03*
X28213219Y-145453477D03*
X28213219Y-149453477D03*
X33293219Y-145453477D03*
X33293219Y-149453477D03*
X37103219Y-145453477D03*
X37103219Y-149453477D03*
X42183219Y-145453477D03*
X42183219Y-149453477D03*
X45993219Y-145453477D03*
X45993219Y-149453477D03*
X51073219Y-145453477D03*
X51073219Y-149453477D03*
X54883219Y-145453477D03*
X54883219Y-149453477D03*
X24403219Y-125894377D03*
X24403219Y-129894377D03*
X28213219Y-125894377D03*
X28213219Y-129894377D03*
X33293219Y-125894377D03*
X33293219Y-129894377D03*
X37103219Y-125894377D03*
X37103219Y-129894377D03*
X42183219Y-125894377D03*
X42183219Y-129894377D03*
X45993219Y-125894377D03*
X45993219Y-129894377D03*
X51073219Y-125894377D03*
X51073219Y-129894377D03*
X54883219Y-125894377D03*
X54883219Y-129894377D03*
X24403219Y-106209377D03*
X24403219Y-110209377D03*
X28213219Y-106209377D03*
X28213219Y-110209377D03*
X33293219Y-106209377D03*
X33293219Y-110209377D03*
X37103219Y-106209377D03*
X37103219Y-110209377D03*
X42183219Y-106209377D03*
X42183219Y-110209377D03*
X45993219Y-106209377D03*
X45993219Y-110209377D03*
X51073219Y-106209377D03*
X51073219Y-110209377D03*
X54883219Y-106209377D03*
X54883219Y-110209377D03*
X24403219Y-86524377D03*
X24403219Y-90524377D03*
X28213219Y-86524377D03*
X28213219Y-90524377D03*
X33293219Y-86524377D03*
X33293219Y-90524377D03*
X37103219Y-86524377D03*
X37103219Y-90524377D03*
X42183219Y-86524377D03*
X42183219Y-90524377D03*
X45993219Y-86524377D03*
X45993219Y-90524377D03*
X51073219Y-86524377D03*
X51073219Y-90524377D03*
X54883219Y-86524377D03*
X54883219Y-90524377D03*
X24403219Y-67474377D03*
X24403219Y-71474377D03*
X28213219Y-67474377D03*
X28213219Y-71474377D03*
X33293219Y-67474377D03*
X33293219Y-71474377D03*
X37103219Y-67474377D03*
X37103219Y-71474377D03*
X42183219Y-67474377D03*
X42183219Y-71474377D03*
X45993219Y-67474377D03*
X45993219Y-71474377D03*
X51073219Y-67474377D03*
X51073219Y-71474377D03*
X54883219Y-67474377D03*
X54883219Y-71474377D03*
X24403219Y-47789377D03*
X24403219Y-51789377D03*
X28213219Y-47789377D03*
X28213219Y-51789377D03*
X33293219Y-47789377D03*
X33293219Y-51789377D03*
X37103219Y-47789377D03*
X37103219Y-51789377D03*
X42183219Y-47789377D03*
X42183219Y-51789377D03*
X45993219Y-47789377D03*
X45993219Y-51789377D03*
X51073219Y-47789377D03*
X51073219Y-51789377D03*
X54883219Y-47789377D03*
X54883219Y-51789377D03*
D11*
X67583219Y-57884377D03*
X66313219Y-57884377D03*
X65043219Y-57884377D03*
X63773219Y-57884377D03*
X62503219Y-57884377D03*
X61233219Y-57884377D03*
X59963219Y-57884377D03*
X59963219Y-63284377D03*
X61233219Y-63284377D03*
X62503219Y-63284377D03*
X63773219Y-63284377D03*
X65043219Y-63284377D03*
X66313219Y-63284377D03*
X67583219Y-63284377D03*
D20*
X63138219Y-33914377D03*
X63138219Y-52329377D03*
X64408219Y-40264377D03*
X63773219Y-59949377D03*
X61868219Y-72649377D03*
X62318219Y-132974377D03*
X63859831Y-118917765D03*
X62503219Y-113289377D03*
X63773219Y-98684377D03*
X53613219Y-134879377D03*
X44723219Y-134879377D03*
X35833219Y-134879377D03*
X26943219Y-134879377D03*
X63773219Y-78999377D03*
X61233219Y-89794377D03*
X26943219Y-115194377D03*
X35833219Y-115194377D03*
X44723219Y-115194377D03*
X53613219Y-115194377D03*
X26943219Y-95509377D03*
X35833219Y-95509377D03*
X44723219Y-95509377D03*
X53613219Y-95509377D03*
X26943219Y-75824377D03*
X35833219Y-75824377D03*
X44723219Y-75824377D03*
X53613219Y-75824377D03*
X53613219Y-56774377D03*
X44723219Y-56774377D03*
X35833219Y-56774377D03*
X26943219Y-56774377D03*
X26943219Y-37089377D03*
X35833219Y-37089377D03*
X44723219Y-37089377D03*
X53613219Y-37089377D03*
X30118219Y-137419377D03*
X63773219Y-137419377D03*
X38373219Y-137419377D03*
X61233219Y-137419377D03*
X47898219Y-138054377D03*
X62503219Y-139959377D03*
X29483219Y-117099377D03*
X63773219Y-117734377D03*
X38373219Y-117734377D03*
X61233219Y-117734377D03*
X62503219Y-120274377D03*
X47898219Y-118369377D03*
X29483219Y-98049377D03*
X58058219Y-97414377D03*
X39008219Y-98049377D03*
X61233219Y-98049377D03*
X47898219Y-99954377D03*
X62503219Y-100589377D03*
X57423219Y-77729377D03*
X30753219Y-77729377D03*
X61233219Y-78364377D03*
X39643219Y-78999377D03*
X62503219Y-80904377D03*
X47898219Y-80269377D03*
X63773219Y-56139377D03*
X30753219Y-58679377D03*
X39643219Y-59314377D03*
X61233219Y-59314377D03*
X47898219Y-60584377D03*
X62503219Y-61854377D03*
X63773219Y-36454377D03*
X30118219Y-38994377D03*
X39643219Y-40264377D03*
X61233219Y-39629377D03*
X62503219Y-42169377D03*
X47898219Y-40899377D03*
X56153219Y-41534377D03*
X59963219Y-41534377D03*
X63773219Y-138257580D03*
X64712472Y-146689830D03*
X63697019Y-145826777D03*
X64408219Y-139324377D03*
X67583219Y-117734377D03*
X67583219Y-120274377D03*
X67583219Y-98049377D03*
X66440219Y-100563977D03*
X67659419Y-99649577D03*
X67507019Y-103459577D03*
X67583219Y-78364377D03*
X66897419Y-74503577D03*
X69031019Y-74478177D03*
X67507019Y-83799977D03*
X66897419Y-70388777D03*
X68726219Y-71150777D03*
X67583219Y-59314377D03*
X66745019Y-61549577D03*
X69183419Y-61701977D03*
X67507019Y-64749977D03*
X67659419Y-39451577D03*
X67659419Y-44937977D03*
X61233219Y-131704377D03*
X59328219Y-50424377D03*
X61868219Y-50424377D03*
X65043219Y-139959377D03*
X65043219Y-120274377D03*
X59328219Y-112019377D03*
X65043219Y-100589377D03*
X59328219Y-92334377D03*
X65043219Y-80904377D03*
X65043219Y-70744377D03*
X65043219Y-54869377D03*
X65043219Y-61854377D03*
X59328219Y-134244377D03*
X58693219Y-114559377D03*
X62503219Y-92334377D03*
X58058219Y-56774377D03*
X60598219Y-53599377D03*
X59963219Y-28834377D03*
X58693219Y-110114377D03*
X59963219Y-130434377D03*
X62503219Y-88524377D03*
X63773219Y-84714377D03*
X62503219Y-98049377D03*
X63773219Y-68839377D03*
X62503219Y-75189377D03*
X31388219Y-132974377D03*
X28848219Y-18039377D03*
X19958219Y-18674377D03*
X35198219Y-18674377D03*
X49168219Y-132339377D03*
X40278219Y-18674377D03*
X31388219Y-113289377D03*
X31388219Y-20579377D03*
X23040407Y-21307189D03*
X37738219Y-21214377D03*
X49168219Y-112654377D03*
X42818219Y-21214377D03*
X31388219Y-92969377D03*
X28848219Y-23119377D03*
X20593219Y-23754377D03*
X35198219Y-23754377D03*
X49168219Y-92334377D03*
X40278219Y-23754377D03*
X31388219Y-25659377D03*
X31388219Y-73919377D03*
X37738219Y-26294377D03*
X22498219Y-26294377D03*
X49803219Y-73284377D03*
X42818219Y-26294377D03*
X31388219Y-54234377D03*
X28848219Y-28834377D03*
X35198219Y-28834377D03*
X40913219Y-55504377D03*
X49168219Y-52964377D03*
X40278219Y-28834377D03*
D21*
X55518219Y-138689377D02*
X55511820Y-138682978D01*
D22*
X27578219Y-16134377D02*
X27198219Y-16514377D01*
X27198219Y-16514377D02*
X27198219Y-18674377D01*
X30118219Y-16134377D02*
X27578219Y-16134377D01*
X31388219Y-17404377D02*
X30118219Y-16134377D01*
X37738219Y-17467876D02*
X31388219Y-17467876D01*
D21*
X31388219Y-17467876D02*
X31388219Y-17404377D01*
D22*
X61094589Y-17404377D02*
X38995819Y-17404377D01*
X38995819Y-17404377D02*
X38628219Y-17771977D01*
X38628219Y-17771977D02*
X38628219Y-18674377D01*
X61233219Y-18674377D02*
X61233219Y-17543007D01*
X61233219Y-17543007D02*
X61094589Y-17404377D01*
X65678219Y-19944377D02*
X65678219Y-18941977D01*
X65678219Y-18941977D02*
X65410619Y-18674377D01*
X65410619Y-18674377D02*
X62364589Y-18674377D01*
X62364589Y-18674377D02*
X61233219Y-18674377D01*
X65043219Y-35819377D02*
X63138219Y-33914377D01*
X65043219Y-38199377D02*
X65043219Y-35819377D01*
X38324118Y-17467876D02*
X37738219Y-17467876D01*
X27958219Y-21214377D02*
X27958219Y-19434377D01*
X27958219Y-19434377D02*
X27198219Y-18674377D01*
X27198219Y-23754377D02*
X27198219Y-21974377D01*
X27198219Y-21974377D02*
X27958219Y-21214377D01*
X27958219Y-26294377D02*
X27958219Y-24514377D01*
X27958219Y-24514377D02*
X27198219Y-23754377D01*
X27198219Y-28834377D02*
X27198219Y-27054377D01*
X27198219Y-27054377D02*
X27958219Y-26294377D01*
X27958219Y-31374377D02*
X27958219Y-29594377D01*
X27958219Y-29594377D02*
X27198219Y-28834377D01*
X27958219Y-31374377D02*
X29738219Y-31374377D01*
X27198219Y-28834377D02*
X25418219Y-28834377D01*
X27958219Y-26294377D02*
X29738219Y-26294377D01*
X27198219Y-23754377D02*
X25418219Y-23754377D01*
X27958219Y-21214377D02*
X29738219Y-21214377D01*
X27198219Y-18674377D02*
X25418219Y-18674377D01*
X38628219Y-17771977D02*
X38324118Y-17467876D01*
X39388219Y-31374377D02*
X41168219Y-31374377D01*
X38628219Y-28834377D02*
X36848219Y-28834377D01*
X39388219Y-26294377D02*
X41168219Y-26294377D01*
X38628219Y-23754377D02*
X36848219Y-23754377D01*
X39388219Y-21214377D02*
X41168219Y-21214377D01*
X38628219Y-18674377D02*
X36848219Y-18674377D01*
X39388219Y-21214377D02*
X39388219Y-19434377D01*
X39388219Y-19434377D02*
X38628219Y-18674377D01*
X38628219Y-23754377D02*
X38628219Y-21974377D01*
X38628219Y-21974377D02*
X39388219Y-21214377D01*
X39388219Y-26294377D02*
X39388219Y-24514377D01*
X39388219Y-24514377D02*
X38628219Y-23754377D01*
X38628219Y-28834377D02*
X38628219Y-27054377D01*
X38628219Y-27054377D02*
X39388219Y-26294377D01*
X39388219Y-31374377D02*
X39388219Y-29594377D01*
X39388219Y-29594377D02*
X38628219Y-28834377D01*
X42723219Y-37089377D02*
X42573219Y-37089377D01*
X42573219Y-37089377D02*
X41168219Y-35684377D01*
X41168219Y-35684377D02*
X41168219Y-32276777D01*
X41168219Y-32276777D02*
X41168219Y-31374377D01*
X64408219Y-40264377D02*
X65043219Y-39629377D01*
X63138219Y-54869377D02*
X63138219Y-52329377D01*
X65043219Y-39629377D02*
X65043219Y-38199377D01*
X63138219Y-54869377D02*
X53518219Y-54869377D01*
X53518219Y-54869377D02*
X51613219Y-56774377D01*
X63773219Y-54869377D02*
X63138219Y-54869377D01*
X63773219Y-59949377D02*
X65043219Y-58679377D01*
X65043219Y-58679377D02*
X65043219Y-57884377D01*
X61868219Y-73919377D02*
X53518219Y-73919377D01*
X63773219Y-73919377D02*
X61868219Y-73919377D01*
X61868219Y-73919377D02*
X61868219Y-72649377D01*
X65043219Y-116304377D02*
X65043219Y-117734377D01*
X65043219Y-117734377D02*
X63859831Y-118917765D01*
X65043219Y-96619377D02*
X65043219Y-97069377D01*
X65043219Y-97069377D02*
X63773219Y-98339377D01*
X63773219Y-98339377D02*
X63773219Y-98684377D01*
X62478219Y-113289377D02*
X54670619Y-113289377D01*
X54670619Y-113289377D02*
X52765619Y-115194377D01*
X52765619Y-115194377D02*
X51613219Y-115194377D01*
X65043219Y-116304377D02*
X65043219Y-115854377D01*
X65043219Y-115854377D02*
X62478219Y-113289377D01*
X65043219Y-135699377D02*
X62318219Y-132974377D01*
X62318219Y-132974377D02*
X54544719Y-132974377D01*
X54544719Y-132974377D02*
X52765619Y-134753477D01*
X52765619Y-134753477D02*
X51613219Y-134753477D01*
X65043219Y-136149377D02*
X65043219Y-135699377D01*
X53613219Y-134879377D02*
X51739119Y-134879377D01*
X51739119Y-134879377D02*
X51613219Y-134753477D01*
X44723219Y-134879377D02*
X42849119Y-134879377D01*
X42849119Y-134879377D02*
X42723219Y-134753477D01*
X35833219Y-134879377D02*
X33959119Y-134879377D01*
X33959119Y-134879377D02*
X33833219Y-134753477D01*
X24943219Y-134753477D02*
X26817319Y-134753477D01*
X26817319Y-134753477D02*
X26943219Y-134879377D01*
X42183219Y-138333477D02*
X42183219Y-135293477D01*
X42183219Y-135293477D02*
X42723219Y-134753477D01*
X51073219Y-138333477D02*
X51073219Y-135293477D01*
X51073219Y-135293477D02*
X51613219Y-134753477D01*
X63773219Y-78999377D02*
X65043219Y-77729377D01*
X65043219Y-77729377D02*
X65043219Y-76934377D01*
X65043219Y-77094377D02*
X65043219Y-76934377D01*
X61233219Y-93604377D02*
X52343219Y-93604377D01*
X64408219Y-93604377D02*
X61233219Y-93604377D01*
X61233219Y-93604377D02*
X61233219Y-89794377D01*
X65043219Y-96619377D02*
X65043219Y-94239377D01*
X65043219Y-94239377D02*
X64408219Y-93604377D01*
X52343219Y-93604377D02*
X51613219Y-94334377D01*
X51613219Y-94334377D02*
X51613219Y-95509377D01*
X26943219Y-115194377D02*
X24943219Y-115194377D01*
X35833219Y-115194377D02*
X33833219Y-115194377D01*
X44723219Y-115194377D02*
X42723219Y-115194377D01*
X51613219Y-115194377D02*
X53613219Y-115194377D01*
X51073219Y-118774377D02*
X51073219Y-115734377D01*
X51073219Y-115734377D02*
X51613219Y-115194377D01*
X42183219Y-118774377D02*
X42183219Y-115734377D01*
X42183219Y-115734377D02*
X42723219Y-115194377D01*
X33833219Y-115194377D02*
X33833219Y-118234377D01*
X33833219Y-118234377D02*
X33293219Y-118774377D01*
X24403219Y-118774377D02*
X24403219Y-115734377D01*
X24403219Y-115734377D02*
X24943219Y-115194377D01*
X26943219Y-95509377D02*
X24943219Y-95509377D01*
X35833219Y-95509377D02*
X33833219Y-95509377D01*
X44723219Y-95509377D02*
X42723219Y-95509377D01*
X51613219Y-95509377D02*
X53613219Y-95509377D01*
X51073219Y-99089377D02*
X51073219Y-96049377D01*
X51073219Y-96049377D02*
X51613219Y-95509377D01*
X33293219Y-99089377D02*
X33293219Y-96049377D01*
X33293219Y-96049377D02*
X33833219Y-95509377D01*
X42183219Y-99089377D02*
X42183219Y-96049377D01*
X42183219Y-96049377D02*
X42723219Y-95509377D01*
X24403219Y-99089377D02*
X24403219Y-96049377D01*
X24403219Y-96049377D02*
X24943219Y-95509377D01*
X44723219Y-75824377D02*
X42723219Y-75824377D01*
X65043219Y-76934377D02*
X65043219Y-75189377D01*
X53518219Y-73919377D02*
X51613219Y-75824377D01*
X65043219Y-75189377D02*
X63773219Y-73919377D01*
X51613219Y-75824377D02*
X51613219Y-78864377D01*
X51613219Y-78864377D02*
X51073219Y-79404377D01*
X42723219Y-75824377D02*
X42723219Y-78864377D01*
X42723219Y-78864377D02*
X42183219Y-79404377D01*
X24943219Y-75824377D02*
X24943219Y-78864377D01*
X24943219Y-78864377D02*
X24403219Y-79404377D01*
X33833219Y-75824377D02*
X33833219Y-78864377D01*
X33833219Y-78864377D02*
X33293219Y-79404377D01*
X26943219Y-75824377D02*
X24943219Y-75824377D01*
X35833219Y-75824377D02*
X33833219Y-75824377D01*
X51613219Y-75824377D02*
X53613219Y-75824377D01*
X65043219Y-57884377D02*
X65043219Y-56139377D01*
X65043219Y-56139377D02*
X63773219Y-54869377D01*
X24943219Y-56774377D02*
X24943219Y-59814377D01*
X24943219Y-59814377D02*
X24403219Y-60354377D01*
X33833219Y-56774377D02*
X33833219Y-59814377D01*
X33833219Y-59814377D02*
X33293219Y-60354377D01*
X42723219Y-56774377D02*
X42723219Y-59814377D01*
X42723219Y-59814377D02*
X42183219Y-60354377D01*
X51613219Y-56774377D02*
X51613219Y-59814377D01*
X51613219Y-59814377D02*
X51073219Y-60354377D01*
X53613219Y-56774377D02*
X51613219Y-56774377D01*
X44723219Y-56774377D02*
X42723219Y-56774377D01*
X24943219Y-56774377D02*
X26943219Y-56774377D01*
X35833219Y-56774377D02*
X33833219Y-56774377D01*
X65043219Y-38199377D02*
X65043219Y-36454377D01*
X24943219Y-37089377D02*
X24943219Y-40129377D01*
X24943219Y-40129377D02*
X24403219Y-40669377D01*
X33833219Y-37089377D02*
X33833219Y-40129377D01*
X33833219Y-40129377D02*
X33293219Y-40669377D01*
X42723219Y-37089377D02*
X42723219Y-40129377D01*
X42723219Y-40129377D02*
X42183219Y-40669377D01*
X51613219Y-37089377D02*
X51613219Y-40129377D01*
X51613219Y-40129377D02*
X51073219Y-40669377D01*
X26943219Y-37089377D02*
X24943219Y-37089377D01*
X35833219Y-37089377D02*
X33833219Y-37089377D01*
X51613219Y-37089377D02*
X53613219Y-37089377D01*
X44723219Y-37089377D02*
X42723219Y-37089377D01*
X33833219Y-134753477D02*
X33833219Y-138023477D01*
X33833219Y-138023477D02*
X33293219Y-138563477D01*
X33293219Y-138563477D02*
X33293219Y-138333477D01*
X24943219Y-134753477D02*
X24943219Y-137793477D01*
X24943219Y-137793477D02*
X24403219Y-138333477D01*
D21*
X30118219Y-137419377D02*
X29204119Y-138333477D01*
X29204119Y-138333477D02*
X28213219Y-138333477D01*
X63773219Y-136149377D02*
X63773219Y-137419377D01*
X28943219Y-134753477D02*
X28943219Y-137603477D01*
X28943219Y-137603477D02*
X28213219Y-138333477D01*
X38373219Y-137419377D02*
X37459119Y-138333477D01*
X37459119Y-138333477D02*
X37103219Y-138333477D01*
X61233219Y-136149377D02*
X61233219Y-137419377D01*
X37103219Y-138333477D02*
X37103219Y-135483477D01*
X37103219Y-135483477D02*
X37833219Y-134753477D01*
X46824719Y-138054377D02*
X46545619Y-138333477D01*
X46545619Y-138333477D02*
X45993219Y-138333477D01*
X47898219Y-138054377D02*
X46824719Y-138054377D01*
X62503219Y-141549377D02*
X62503219Y-139959377D01*
X46545619Y-138333477D02*
X46723219Y-138155877D01*
X46723219Y-138155877D02*
X46723219Y-135755877D01*
X46723219Y-135755877D02*
X46723219Y-134753477D01*
X54883219Y-138333477D02*
X57197319Y-138333477D01*
X57197319Y-138333477D02*
X59963219Y-141099377D01*
X59963219Y-141099377D02*
X59963219Y-141549377D01*
X54883219Y-138333477D02*
X54883219Y-135483477D01*
X54883219Y-135483477D02*
X55613219Y-134753477D01*
X29483219Y-117099377D02*
X28213219Y-118369377D01*
X28213219Y-118369377D02*
X28213219Y-118774377D01*
X63773219Y-116304377D02*
X63773219Y-117734377D01*
X28213219Y-118774377D02*
X28213219Y-115924377D01*
X28213219Y-115924377D02*
X28943219Y-115194377D01*
X61233219Y-116304377D02*
X61233219Y-115854377D01*
X38373219Y-117734377D02*
X37333219Y-118774377D01*
X37333219Y-118774377D02*
X37103219Y-118774377D01*
X61233219Y-116304377D02*
X61233219Y-117734377D01*
X37103219Y-118774377D02*
X37103219Y-115924377D01*
X37103219Y-115924377D02*
X37833219Y-115194377D01*
X62503219Y-120274377D02*
X62503219Y-121704377D01*
X45993219Y-118774377D02*
X47493219Y-118774377D01*
X47493219Y-118774377D02*
X47898219Y-118369377D01*
X45993219Y-118774377D02*
X46545619Y-118774377D01*
X46545619Y-118774377D02*
X46723219Y-118596777D01*
X46723219Y-118596777D02*
X46723219Y-116196777D01*
X46723219Y-116196777D02*
X46723219Y-115194377D01*
X54883219Y-118774377D02*
X57483219Y-118774377D01*
X57483219Y-118774377D02*
X59963219Y-121254377D01*
X59963219Y-121254377D02*
X59963219Y-121704377D01*
X54883219Y-118774377D02*
X54883219Y-115924377D01*
X54883219Y-115924377D02*
X55613219Y-115194377D01*
X29483219Y-98049377D02*
X28443219Y-99089377D01*
X28443219Y-99089377D02*
X28213219Y-99089377D01*
X63773219Y-94874377D02*
X60246737Y-94874377D01*
X60246737Y-94874377D02*
X58058219Y-97062895D01*
X58058219Y-97062895D02*
X58058219Y-97414377D01*
X63773219Y-96619377D02*
X63773219Y-94874377D01*
X28213219Y-99089377D02*
X28213219Y-96239377D01*
X28213219Y-96239377D02*
X28943219Y-95509377D01*
X37103219Y-98539377D02*
X37103219Y-99089377D01*
X39008219Y-98049377D02*
X38143219Y-98049377D01*
X38143219Y-98049377D02*
X38080819Y-97986977D01*
X38080819Y-97986977D02*
X37655619Y-97986977D01*
X37655619Y-97986977D02*
X37103219Y-98539377D01*
X61233219Y-96619377D02*
X61233219Y-98049377D01*
X37103219Y-99089377D02*
X37103219Y-96239377D01*
X37103219Y-96239377D02*
X37833219Y-95509377D01*
X47898219Y-99954377D02*
X47033219Y-99089377D01*
X47033219Y-99089377D02*
X45993219Y-99089377D01*
X62503219Y-102019377D02*
X62503219Y-100589377D01*
X45993219Y-99089377D02*
X45993219Y-96239377D01*
X45993219Y-96239377D02*
X46723219Y-95509377D01*
X59963219Y-102019377D02*
X57813219Y-102019377D01*
X57813219Y-102019377D02*
X55985619Y-100191777D01*
X55985619Y-100191777D02*
X55435619Y-100191777D01*
X55435619Y-100191777D02*
X54883219Y-99639377D01*
X54883219Y-99639377D02*
X54883219Y-99089377D01*
X54883219Y-99089377D02*
X54883219Y-96239377D01*
X54883219Y-96239377D02*
X55613219Y-95509377D01*
X28943219Y-77729377D02*
X30753219Y-77729377D01*
X63773219Y-74554377D02*
X63773219Y-76934377D01*
X59328219Y-74554377D02*
X63773219Y-74554377D01*
X58058219Y-75824377D02*
X59328219Y-74554377D01*
X58058219Y-77094377D02*
X58058219Y-75824377D01*
X57423219Y-77729377D02*
X58058219Y-77094377D01*
X28943219Y-75824377D02*
X28943219Y-77729377D01*
X28943219Y-77729377D02*
X28943219Y-78674377D01*
X28943219Y-78674377D02*
X28213219Y-79404377D01*
X61233219Y-76934377D02*
X61233219Y-78364377D01*
X39238219Y-79404377D02*
X37103219Y-79404377D01*
X39643219Y-78999377D02*
X39238219Y-79404377D01*
X37833219Y-75824377D02*
X37833219Y-78674377D01*
X37833219Y-78674377D02*
X37103219Y-79404377D01*
X45993219Y-79404377D02*
X47033219Y-79404377D01*
X62503219Y-80904377D02*
X62503219Y-82334377D01*
X47033219Y-79404377D02*
X47898219Y-80269377D01*
X46723219Y-75824377D02*
X46723219Y-78674377D01*
X46723219Y-78674377D02*
X45993219Y-79404377D01*
X54883219Y-79404377D02*
X57033219Y-79404377D01*
X57033219Y-79404377D02*
X59963219Y-82334377D01*
X55613219Y-75824377D02*
X55613219Y-78674377D01*
X55613219Y-78674377D02*
X54883219Y-79404377D01*
X28943219Y-56774377D02*
X28943219Y-56869377D01*
X28943219Y-56869377D02*
X30753219Y-58679377D01*
X63773219Y-56139377D02*
X63773219Y-57884377D01*
X28943219Y-56774377D02*
X28943219Y-59624377D01*
X28943219Y-59624377D02*
X28213219Y-60354377D01*
X61233219Y-57884377D02*
X61233219Y-59314377D01*
X38603219Y-60354377D02*
X37103219Y-60354377D01*
X39643219Y-59314377D02*
X38603219Y-60354377D01*
X37103219Y-60354377D02*
X37103219Y-57504377D01*
X37103219Y-57504377D02*
X37833219Y-56774377D01*
X62503219Y-63284377D02*
X62503219Y-61854377D01*
X47668219Y-60354377D02*
X45993219Y-60354377D01*
X47898219Y-60584377D02*
X47668219Y-60354377D01*
X45993219Y-60354377D02*
X45993219Y-57504377D01*
X45993219Y-57504377D02*
X46723219Y-56774377D01*
X54883219Y-60354377D02*
X57033219Y-60354377D01*
X57033219Y-60354377D02*
X59963219Y-63284377D01*
X54883219Y-60354377D02*
X54883219Y-57504377D01*
X54883219Y-57504377D02*
X55613219Y-56774377D01*
X28213219Y-40669377D02*
X28443219Y-40669377D01*
X28443219Y-40669377D02*
X30118219Y-38994377D01*
X63773219Y-36454377D02*
X63773219Y-38199377D01*
X28943219Y-37089377D02*
X28943219Y-39939377D01*
X28943219Y-39939377D02*
X28213219Y-40669377D01*
X61233219Y-38199377D02*
X61233219Y-39629377D01*
X39238219Y-40669377D02*
X37103219Y-40669377D01*
X39643219Y-40264377D02*
X39238219Y-40669377D01*
X37833219Y-37089377D02*
X37833219Y-39939377D01*
X37833219Y-39939377D02*
X37103219Y-40669377D01*
X45993219Y-40669377D02*
X47668219Y-40669377D01*
X62503219Y-42169377D02*
X62503219Y-43599377D01*
X47668219Y-40669377D02*
X47898219Y-40899377D01*
X46723219Y-37089377D02*
X46723219Y-39939377D01*
X46723219Y-39939377D02*
X45993219Y-40669377D01*
X56153219Y-41534377D02*
X55288219Y-40669377D01*
X55288219Y-40669377D02*
X54883219Y-40669377D01*
X59963219Y-43599377D02*
X59963219Y-41534377D01*
X55613219Y-37089377D02*
X55613219Y-39939377D01*
X55613219Y-39939377D02*
X54883219Y-40669377D01*
X29102219Y-150825959D02*
X59768119Y-150825959D01*
X59768119Y-150825959D02*
X68111820Y-142482258D01*
X68111820Y-142482258D02*
X68111820Y-135216496D01*
X68111820Y-135216496D02*
X68066100Y-135170776D01*
X66313219Y-135699377D02*
X66313219Y-136149377D01*
X68066100Y-135170776D02*
X66841820Y-135170776D01*
X66841820Y-135170776D02*
X66313219Y-135699377D01*
X28213219Y-155834377D02*
X27134618Y-154755776D01*
X27134618Y-154755776D02*
X27134618Y-152793560D01*
X27134618Y-152793560D02*
X29102219Y-150825959D01*
X67583219Y-137419377D02*
X64611422Y-137419377D01*
X64611422Y-137419377D02*
X63773219Y-138257580D01*
X67583219Y-137419377D02*
X67583219Y-136149377D01*
X64712472Y-146689830D02*
X60271533Y-151130769D01*
X60271533Y-151130769D02*
X29711819Y-151130769D01*
X29711819Y-151130769D02*
X29407019Y-151435569D01*
X29407019Y-151435569D02*
X29407019Y-154488177D01*
X29903220Y-154984378D02*
X30753219Y-155834377D01*
X29407019Y-154488177D02*
X29903220Y-154984378D01*
X66313219Y-141549377D02*
X66313219Y-143210577D01*
X66313219Y-143210577D02*
X63697019Y-145826777D01*
X65678219Y-139324377D02*
X65549701Y-139324377D01*
X65808219Y-139324377D02*
X65678219Y-139324377D01*
X65678219Y-139324377D02*
X64408219Y-139324377D01*
X67583219Y-141549377D02*
X67583219Y-141099377D01*
X67583219Y-141099377D02*
X65808219Y-139324377D01*
X32332617Y-151435579D02*
X60812545Y-151435579D01*
X68416630Y-119413610D02*
X66313219Y-117310199D01*
X60812545Y-151435579D02*
X68416630Y-143831494D01*
X68416630Y-143831494D02*
X68416630Y-119413610D01*
X66313219Y-117310199D02*
X66313219Y-117206777D01*
X66313219Y-117206777D02*
X66313219Y-116304377D01*
X32150219Y-154691377D02*
X32150219Y-151617977D01*
X32150219Y-151617977D02*
X32332617Y-151435579D01*
X33293219Y-155834377D02*
X32150219Y-154691377D01*
X67583219Y-117734377D02*
X67583219Y-116304377D01*
X68721440Y-143957750D02*
X68721440Y-115981116D01*
X68721440Y-115981116D02*
X68066100Y-115325776D01*
X68066100Y-115325776D02*
X65830338Y-115325776D01*
X66313219Y-120801977D02*
X66313219Y-121704377D01*
X65830338Y-115325776D02*
X65784618Y-115371496D01*
X65784618Y-115371496D02*
X65784618Y-120273376D01*
X65784618Y-120273376D02*
X66313219Y-120801977D01*
X34923407Y-151740389D02*
X60938802Y-151740388D01*
X60938802Y-151740388D02*
X68721440Y-143957750D01*
X35833219Y-155834377D02*
X35833219Y-154890707D01*
X35833219Y-154890707D02*
X34754618Y-153812106D01*
X34754618Y-153812106D02*
X34754618Y-151909178D01*
X34754618Y-151909178D02*
X34923407Y-151740389D01*
X67583219Y-121704377D02*
X67583219Y-120274377D01*
X67743219Y-121544377D02*
X67583219Y-121704377D01*
X69031019Y-144079237D02*
X69031019Y-102005695D01*
X69031019Y-102005695D02*
X66313219Y-99287895D01*
X66313219Y-99287895D02*
X66313219Y-97521777D01*
X66313219Y-97521777D02*
X66313219Y-96619377D01*
X37996089Y-152075177D02*
X61035079Y-152075177D01*
X61035079Y-152075177D02*
X69031019Y-144079237D01*
X38373219Y-155834377D02*
X37294618Y-154755776D01*
X37294618Y-154755776D02*
X37294618Y-152776648D01*
X37294618Y-152776648D02*
X37996089Y-152075177D01*
X67583219Y-98049377D02*
X67583219Y-96619377D01*
X66440219Y-100563977D02*
X66440219Y-101892377D01*
X66440219Y-101892377D02*
X66313219Y-102019377D01*
X69335828Y-101879438D02*
X69335828Y-101325986D01*
X69335828Y-101325986D02*
X67659419Y-99649577D01*
X40913219Y-155834377D02*
X41763218Y-154984378D01*
X42349218Y-154372978D02*
X59168344Y-154372978D01*
X41763218Y-154984378D02*
X41763218Y-154958978D01*
X41763218Y-154958978D02*
X42349218Y-154372978D01*
X59168344Y-154372978D02*
X69335829Y-144205493D01*
X69335829Y-144205493D02*
X69335828Y-101879438D01*
X67507019Y-103459577D02*
X67507019Y-102095577D01*
X67507019Y-102095577D02*
X67583219Y-102019377D01*
X69640638Y-144331750D02*
X69640638Y-81267618D01*
X69640638Y-81267618D02*
X66313219Y-77940199D01*
X66313219Y-77940199D02*
X66313219Y-77836777D01*
X66313219Y-77836777D02*
X66313219Y-76934377D01*
X43453219Y-155834377D02*
X44609808Y-154677788D01*
X44609808Y-154677788D02*
X59294601Y-154677787D01*
X59294601Y-154677787D02*
X69640638Y-144331750D01*
X67583219Y-78364377D02*
X67583219Y-76934377D01*
X71164686Y-145038576D02*
X71164686Y-76687977D01*
X71164686Y-76687977D02*
X71164686Y-76611844D01*
X71164686Y-76611844D02*
X69031019Y-74478177D01*
X69373918Y-74821076D02*
X69031019Y-74478177D01*
X66897419Y-74503577D02*
X65784618Y-75616378D01*
X65784618Y-75616378D02*
X65784618Y-80903376D01*
X65784618Y-80903376D02*
X66313219Y-81431977D01*
X66313219Y-81431977D02*
X66313219Y-82334377D01*
X45993219Y-155834377D02*
X47986247Y-157827405D01*
X47986247Y-157827405D02*
X58375857Y-157827405D01*
X58375857Y-157827405D02*
X71164686Y-145038576D01*
X67507019Y-83799977D02*
X67507019Y-82410577D01*
X67507019Y-82410577D02*
X67583219Y-82334377D01*
X70859876Y-77653177D02*
X70859876Y-77152856D01*
X68421429Y-74630577D02*
X68421429Y-71455567D01*
X70859876Y-77152856D02*
X68421429Y-74714409D01*
X68421429Y-74714409D02*
X68421429Y-74630577D01*
X70859876Y-77653177D02*
X70859876Y-144912320D01*
X70859876Y-77551577D02*
X70859876Y-77653177D01*
X66897419Y-70388777D02*
X66897419Y-69903844D01*
X65784618Y-68791043D02*
X65784618Y-59315378D01*
X66897419Y-69903844D02*
X65784618Y-68791043D01*
X65784618Y-59315378D02*
X66313219Y-58786777D01*
X66313219Y-58786777D02*
X66313219Y-57884377D01*
X68421429Y-71455567D02*
X68726219Y-71150777D01*
X70859876Y-144912320D02*
X58249600Y-157522596D01*
X58249600Y-157522596D02*
X50221438Y-157522596D01*
X50221438Y-157522596D02*
X48533219Y-155834377D01*
X66287819Y-57858977D02*
X66313219Y-57884377D01*
X67583219Y-59314377D02*
X67583219Y-57884377D01*
X68116619Y-74630577D02*
X68116619Y-65790643D01*
X68116619Y-74630577D02*
X68116620Y-74840666D01*
X68116620Y-74840666D02*
X70555066Y-77279112D01*
X70555066Y-77279112D02*
X70555066Y-144710518D01*
X70555066Y-144710518D02*
X58047799Y-157217787D01*
X58047799Y-157217787D02*
X52456629Y-157217787D01*
X52456629Y-157217787D02*
X51073219Y-155834377D01*
X68116619Y-65790643D02*
X68878629Y-65028633D01*
X68878629Y-65028633D02*
X68878629Y-62006767D01*
X68878629Y-62006767D02*
X69183419Y-61701977D01*
X66745019Y-61549577D02*
X66313219Y-61981377D01*
X66313219Y-61981377D02*
X66313219Y-63284377D01*
X67507019Y-64749977D02*
X67507019Y-63360577D01*
X67507019Y-63360577D02*
X67583219Y-63284377D01*
X57921542Y-156912978D02*
X70250258Y-144584262D01*
X68573819Y-64191177D02*
X68573819Y-43128495D01*
X53613219Y-155834377D02*
X54691820Y-156912978D01*
X54691820Y-156912978D02*
X57921542Y-156912978D01*
X70250258Y-77653216D02*
X67786419Y-75189377D01*
X70250258Y-144584262D02*
X70250258Y-77653216D01*
X67786419Y-65316399D02*
X68573819Y-64528999D01*
X67786419Y-75189377D02*
X67786419Y-65316399D01*
X68573819Y-64528999D02*
X68573819Y-64191177D01*
X68573819Y-43128495D02*
X66313219Y-40867895D01*
X66313219Y-40867895D02*
X66313219Y-40823177D01*
X66313219Y-40823177D02*
X66313219Y-38199377D01*
X67659419Y-39451577D02*
X67659419Y-38275577D01*
X67659419Y-38275577D02*
X67583219Y-38199377D01*
X69945448Y-78516777D02*
X69945448Y-77835124D01*
X69945448Y-77835124D02*
X67468920Y-75358596D01*
X66313219Y-52583377D02*
X66313219Y-43599377D01*
X67468920Y-75358596D02*
X67468920Y-74229256D01*
X67468920Y-69817278D02*
X66935518Y-69283876D01*
X67468920Y-74229256D02*
X67202219Y-73962555D01*
X67468920Y-70663098D02*
X67468920Y-69817278D01*
X68154720Y-60985698D02*
X68154720Y-54424878D01*
X67202219Y-73962555D02*
X67202219Y-70929799D01*
X66935518Y-69283876D02*
X66935518Y-62204900D01*
X66935518Y-62204900D02*
X68154720Y-60985698D01*
X67202219Y-70929799D02*
X67468920Y-70663098D01*
X68154720Y-54424878D02*
X66313219Y-52583377D01*
X69945448Y-144458006D02*
X69945448Y-78516777D01*
X69945448Y-78516777D02*
X69945448Y-77983377D01*
X69945448Y-77881806D02*
X69945448Y-77983377D01*
X56153219Y-155834377D02*
X58569077Y-155834377D01*
X58569077Y-155834377D02*
X69945448Y-144458006D01*
X66313219Y-44501777D02*
X66313219Y-43599377D01*
X67659419Y-44937977D02*
X67659419Y-43675577D01*
X67659419Y-43675577D02*
X67583219Y-43599377D01*
D22*
X56816820Y-144404377D02*
X56816820Y-146367476D01*
X58664618Y-143134377D02*
X58086820Y-143134377D01*
X58086820Y-143134377D02*
X56816820Y-144404377D01*
X65043219Y-142499377D02*
X64408219Y-143134377D01*
X64408219Y-143134377D02*
X58664618Y-143134377D01*
X65043219Y-127259377D02*
X65043219Y-127894377D01*
X65043219Y-127894377D02*
X61233219Y-131704377D01*
X59328219Y-131704377D02*
X57518219Y-129894377D01*
X61233219Y-131704377D02*
X59328219Y-131704377D01*
X58058219Y-51694377D02*
X58058219Y-50424377D01*
X58058219Y-50424377D02*
X58058219Y-28973007D01*
X59328219Y-50424377D02*
X58058219Y-50424377D01*
X65043219Y-50424377D02*
X65043219Y-48519377D01*
X65043219Y-54869377D02*
X65043219Y-50424377D01*
X65043219Y-50424377D02*
X61868219Y-50424377D01*
X58058219Y-51694377D02*
X57963219Y-51789377D01*
X57963219Y-51789377D02*
X54883219Y-51789377D01*
X65043219Y-141549377D02*
X65043219Y-139959377D01*
X56816820Y-146367476D02*
X54883219Y-148301077D01*
X54883219Y-148301077D02*
X54883219Y-149453477D01*
X65043219Y-141549377D02*
X65043219Y-142499377D01*
X65678219Y-25659377D02*
X65678219Y-22484377D01*
X64408219Y-26929377D02*
X65678219Y-25659377D01*
X64408219Y-26929377D02*
X61233219Y-26929377D01*
X58058219Y-28973007D02*
X60101849Y-26929377D01*
X60101849Y-26929377D02*
X61233219Y-26929377D01*
X65043219Y-141549377D02*
X65043219Y-141999377D01*
X59328219Y-112019377D02*
X65043219Y-106304377D01*
X65043219Y-106304377D02*
X65043219Y-102019377D01*
X65043219Y-120274377D02*
X65043219Y-121704377D01*
X57303219Y-110209377D02*
X57518219Y-110209377D01*
X57518219Y-110209377D02*
X59328219Y-112019377D01*
X65043219Y-127259377D02*
X65043219Y-121704377D01*
X57518219Y-129894377D02*
X54883219Y-129894377D01*
X65043219Y-100589377D02*
X65043219Y-102019377D01*
X59328219Y-90429377D02*
X59233219Y-90524377D01*
X65043219Y-84714377D02*
X59328219Y-90429377D01*
X59328219Y-90429377D02*
X59328219Y-92334377D01*
X65043219Y-82334377D02*
X65043219Y-84714377D01*
X59233219Y-90524377D02*
X54883219Y-90524377D01*
X54883219Y-110209377D02*
X57303219Y-110209377D01*
X65043219Y-102469377D02*
X65043219Y-102019377D01*
X28213219Y-110209377D02*
X24403219Y-110209377D01*
X33293219Y-110209377D02*
X28213219Y-110209377D01*
X37103219Y-110209377D02*
X33293219Y-110209377D01*
X42183219Y-110209377D02*
X37103219Y-110209377D01*
X45993219Y-110209377D02*
X44990819Y-110209377D01*
X44990819Y-110209377D02*
X42183219Y-110209377D01*
X51073219Y-110209377D02*
X45993219Y-110209377D01*
X54883219Y-110209377D02*
X51073219Y-110209377D01*
X28213219Y-129894377D02*
X24403219Y-129894377D01*
X33293219Y-129894377D02*
X28213219Y-129894377D01*
X37103219Y-129894377D02*
X33293219Y-129894377D01*
X42183219Y-129894377D02*
X37103219Y-129894377D01*
X45993219Y-129894377D02*
X42183219Y-129894377D01*
X51073219Y-129894377D02*
X45993219Y-129894377D01*
X54883219Y-129894377D02*
X51073219Y-129894377D01*
X28213219Y-90524377D02*
X24403219Y-90524377D01*
X33293219Y-90524377D02*
X28213219Y-90524377D01*
X37103219Y-90524377D02*
X33293219Y-90524377D01*
X42183219Y-90524377D02*
X37103219Y-90524377D01*
X45993219Y-90524377D02*
X42183219Y-90524377D01*
X51073219Y-90524377D02*
X45993219Y-90524377D01*
X54883219Y-90524377D02*
X51073219Y-90524377D01*
X65043219Y-68839377D02*
X65043219Y-70744377D01*
X65043219Y-80904377D02*
X65043219Y-82334377D01*
X65043219Y-63284377D02*
X65043219Y-68839377D01*
X62408219Y-71474377D02*
X54883219Y-71474377D01*
X65043219Y-68839377D02*
X62408219Y-71474377D01*
X65043219Y-63284377D02*
X65043219Y-61854377D01*
X65043219Y-43599377D02*
X65043219Y-48519377D01*
X51073219Y-71474377D02*
X54883219Y-71474377D01*
X45993219Y-71474377D02*
X51073219Y-71474377D01*
X42183219Y-71474377D02*
X45993219Y-71474377D01*
X37103219Y-71474377D02*
X42183219Y-71474377D01*
X33293219Y-71474377D02*
X37103219Y-71474377D01*
X28213219Y-71474377D02*
X33293219Y-71474377D01*
X24403219Y-71474377D02*
X28213219Y-71474377D01*
X51073219Y-149453477D02*
X54883219Y-149453477D01*
X45993219Y-149453477D02*
X51073219Y-149453477D01*
X42183219Y-149453477D02*
X45993219Y-149453477D01*
X37103219Y-149453477D02*
X42723219Y-149453477D01*
X42723219Y-149453477D02*
X42183219Y-149453477D01*
X33293219Y-149453477D02*
X37103219Y-149453477D01*
X28213219Y-149453477D02*
X33293219Y-149453477D01*
X24403219Y-149453477D02*
X28213219Y-149453477D01*
X51073219Y-51789377D02*
X54883219Y-51789377D01*
X45993219Y-51789377D02*
X51073219Y-51789377D01*
X42183219Y-51789377D02*
X45993219Y-51789377D01*
X37103219Y-51789377D02*
X42183219Y-51789377D01*
X33293219Y-51789377D02*
X37103219Y-51789377D01*
X28213219Y-51789377D02*
X33293219Y-51789377D01*
X24403219Y-51789377D02*
X28213219Y-51789377D01*
D21*
X25353219Y-141333477D02*
X25353219Y-144503477D01*
X25353219Y-144503477D02*
X24403219Y-145453477D01*
X27263219Y-141333477D02*
X25353219Y-141333477D01*
X29163219Y-141333477D02*
X29163219Y-144503477D01*
X29163219Y-144503477D02*
X28213219Y-145453477D01*
X34243219Y-141333477D02*
X34243219Y-144503477D01*
X34243219Y-144503477D02*
X33293219Y-145453477D01*
X36153219Y-141333477D02*
X34243219Y-141333477D01*
X38053219Y-141333477D02*
X38053219Y-144503477D01*
X38053219Y-144503477D02*
X37103219Y-145453477D01*
X43133219Y-141333477D02*
X43133219Y-144503477D01*
X43133219Y-144503477D02*
X42183219Y-145453477D01*
X45043219Y-141333477D02*
X43133219Y-141333477D01*
X46943219Y-141333477D02*
X46943219Y-144503477D01*
X46943219Y-144503477D02*
X45993219Y-145453477D01*
X52023219Y-141333477D02*
X52023219Y-144503477D01*
X52023219Y-144503477D02*
X51073219Y-145453477D01*
X53933219Y-141333477D02*
X52023219Y-141333477D01*
X55833219Y-141333477D02*
X55833219Y-144503477D01*
X55833219Y-144503477D02*
X54883219Y-145453477D01*
X25353219Y-121774377D02*
X25353219Y-124944377D01*
X25353219Y-124944377D02*
X24403219Y-125894377D01*
X27263219Y-121774377D02*
X26710819Y-121774377D01*
X26710819Y-121774377D02*
X25353219Y-121774377D01*
X29163219Y-121774377D02*
X29163219Y-124944377D01*
X29163219Y-124944377D02*
X28213219Y-125894377D01*
X36153219Y-121774377D02*
X35600819Y-121774377D01*
X35600819Y-121774377D02*
X34243219Y-121774377D01*
X34243219Y-121774377D02*
X34243219Y-124944377D01*
X34243219Y-124944377D02*
X33293219Y-125894377D01*
X38053219Y-121774377D02*
X38053219Y-124944377D01*
X38053219Y-124944377D02*
X37103219Y-125894377D01*
X43133219Y-121774377D02*
X43133219Y-124944377D01*
X43133219Y-124944377D02*
X42183219Y-125894377D01*
X45043219Y-121774377D02*
X44490819Y-121774377D01*
X44490819Y-121774377D02*
X43133219Y-121774377D01*
X46943219Y-121774377D02*
X46943219Y-124944377D01*
X46943219Y-124944377D02*
X45993219Y-125894377D01*
X53933219Y-121774377D02*
X52023219Y-121774377D01*
X52023219Y-121774377D02*
X52023219Y-124944377D01*
X52023219Y-124944377D02*
X51073219Y-125894377D01*
X55833219Y-121774377D02*
X55833219Y-124944377D01*
X55833219Y-124944377D02*
X54883219Y-125894377D01*
X25353219Y-102089377D02*
X25353219Y-105259377D01*
X25353219Y-105259377D02*
X24403219Y-106209377D01*
X27263219Y-102089377D02*
X25353219Y-102089377D01*
X29163219Y-102089377D02*
X29163219Y-105259377D01*
X29163219Y-105259377D02*
X28213219Y-106209377D01*
X36153219Y-102089377D02*
X35600819Y-102089377D01*
X35600819Y-102089377D02*
X34243219Y-102089377D01*
X34243219Y-102089377D02*
X34243219Y-105259377D01*
X34243219Y-105259377D02*
X33293219Y-106209377D01*
X38053219Y-102089377D02*
X38053219Y-105259377D01*
X38053219Y-105259377D02*
X37103219Y-106209377D01*
X45043219Y-102089377D02*
X44490819Y-102089377D01*
X44490819Y-102089377D02*
X43133219Y-102089377D01*
X43133219Y-102089377D02*
X43133219Y-105259377D01*
X43133219Y-105259377D02*
X42183219Y-106209377D01*
X46943219Y-102089377D02*
X46943219Y-105259377D01*
X46943219Y-105259377D02*
X45993219Y-106209377D01*
X53933219Y-102089377D02*
X53380819Y-102089377D01*
X53380819Y-102089377D02*
X52023219Y-102089377D01*
X52023219Y-102089377D02*
X52023219Y-105259377D01*
X52023219Y-105259377D02*
X51073219Y-106209377D01*
X55833219Y-102089377D02*
X55833219Y-105259377D01*
X55833219Y-105259377D02*
X54883219Y-106209377D01*
X25353219Y-82404377D02*
X27263219Y-82404377D01*
X25353219Y-82404377D02*
X25353219Y-85574377D01*
X25353219Y-85574377D02*
X24403219Y-86524377D01*
X29163219Y-82404377D02*
X29163219Y-85574377D01*
X29163219Y-85574377D02*
X28213219Y-86524377D01*
X34243219Y-82404377D02*
X36153219Y-82404377D01*
X34243219Y-82404377D02*
X34243219Y-85574377D01*
X34243219Y-85574377D02*
X33293219Y-86524377D01*
X38053219Y-82404377D02*
X38053219Y-85574377D01*
X38053219Y-85574377D02*
X37103219Y-86524377D01*
X43133219Y-82404377D02*
X45043219Y-82404377D01*
X43133219Y-82404377D02*
X43133219Y-85574377D01*
X43133219Y-85574377D02*
X42183219Y-86524377D01*
X46943219Y-82404377D02*
X46943219Y-85574377D01*
X46943219Y-85574377D02*
X45993219Y-86524377D01*
X52023219Y-82404377D02*
X52023219Y-85574377D01*
X52023219Y-85574377D02*
X51073219Y-86524377D01*
X53933219Y-82404377D02*
X52023219Y-82404377D01*
X55833219Y-82404377D02*
X55833219Y-85574377D01*
X55833219Y-85574377D02*
X54883219Y-86524377D01*
X25353219Y-63354377D02*
X27263219Y-63354377D01*
X25353219Y-63354377D02*
X25353219Y-66524377D01*
X25353219Y-66524377D02*
X24403219Y-67474377D01*
X29163219Y-63354377D02*
X29163219Y-66524377D01*
X29163219Y-66524377D02*
X28213219Y-67474377D01*
X34243219Y-63354377D02*
X34243219Y-66524377D01*
X34243219Y-66524377D02*
X33293219Y-67474377D01*
X36153219Y-63354377D02*
X34243219Y-63354377D01*
X38053219Y-63354377D02*
X38053219Y-66524377D01*
X38053219Y-66524377D02*
X37103219Y-67474377D01*
X43133219Y-63354377D02*
X43133219Y-66524377D01*
X43133219Y-66524377D02*
X42183219Y-67474377D01*
X45043219Y-63354377D02*
X43133219Y-63354377D01*
X46943219Y-63354377D02*
X46943219Y-66524377D01*
X46943219Y-66524377D02*
X45993219Y-67474377D01*
X52023219Y-63354377D02*
X52023219Y-66524377D01*
X52023219Y-66524377D02*
X51073219Y-67474377D01*
X53933219Y-63354377D02*
X52023219Y-63354377D01*
X55833219Y-63354377D02*
X55833219Y-66524377D01*
X55833219Y-66524377D02*
X54883219Y-67474377D01*
X25353219Y-43669377D02*
X25353219Y-46839377D01*
X25353219Y-46839377D02*
X24403219Y-47789377D01*
X27263219Y-43669377D02*
X25353219Y-43669377D01*
X29163219Y-43669377D02*
X29163219Y-46839377D01*
X29163219Y-46839377D02*
X28213219Y-47789377D01*
X34243219Y-43669377D02*
X34243219Y-46839377D01*
X34243219Y-46839377D02*
X33293219Y-47789377D01*
X36153219Y-43669377D02*
X34333219Y-43669377D01*
X34333219Y-43669377D02*
X33928219Y-44074377D01*
X33928219Y-44074377D02*
X34243219Y-43669377D01*
X38053219Y-43669377D02*
X38053219Y-46839377D01*
X38053219Y-46839377D02*
X37103219Y-47789377D01*
X43133219Y-43669377D02*
X43133219Y-46839377D01*
X43133219Y-46839377D02*
X42183219Y-47789377D01*
X45043219Y-43669377D02*
X43133219Y-43669377D01*
X46943219Y-43669377D02*
X46943219Y-46839377D01*
X46943219Y-46839377D02*
X45993219Y-47789377D01*
X52023219Y-43669377D02*
X52023219Y-46839377D01*
X52023219Y-46839377D02*
X51073219Y-47789377D01*
X53933219Y-43669377D02*
X52113219Y-43669377D01*
X52113219Y-43669377D02*
X51708219Y-44074377D01*
X51708219Y-44074377D02*
X52023219Y-43669377D01*
X55833219Y-43669377D02*
X55833219Y-46839377D01*
X55833219Y-46839377D02*
X54883219Y-47789377D01*
X59963219Y-136149377D02*
X59963219Y-135514377D01*
X59328219Y-134879377D02*
X59963219Y-135514377D01*
X59328219Y-134244377D02*
X59328219Y-134879377D01*
X61233219Y-47249377D02*
X61233219Y-43599377D01*
X60598219Y-53599377D02*
X60598219Y-47884377D01*
X60598219Y-47884377D02*
X61233219Y-47249377D01*
X59328219Y-114559377D02*
X59963219Y-115194377D01*
X58693219Y-114559377D02*
X59328219Y-114559377D01*
X62503219Y-92334377D02*
X62503219Y-88524377D01*
X58058219Y-56774377D02*
X59303219Y-56774377D01*
X59303219Y-56774377D02*
X59963219Y-57434377D01*
X59963219Y-57434377D02*
X59963219Y-57884377D01*
X63773219Y-43599377D02*
X63773219Y-41534377D01*
X63773219Y-41534377D02*
X62503219Y-40264377D01*
X61233219Y-24389377D02*
X61233219Y-21214377D01*
X59963219Y-38199377D02*
X59963219Y-28834377D01*
X58693219Y-110114377D02*
X61233219Y-107574377D01*
X61233219Y-107574377D02*
X61233219Y-102019377D01*
X59963219Y-116304377D02*
X59963219Y-115194377D01*
X59963219Y-130434377D02*
X61233219Y-129164377D01*
X61233219Y-129164377D02*
X61233219Y-121704377D01*
X62503219Y-138054377D02*
X62503219Y-136149377D01*
X61233219Y-139324377D02*
X61233219Y-141549377D01*
X63773219Y-139324377D02*
X63773219Y-141549377D01*
X62503219Y-138054377D02*
X63773219Y-139324377D01*
X61233219Y-139324377D02*
X62503219Y-138054377D01*
X59963219Y-138054377D02*
X61233219Y-139324377D01*
X59963219Y-136149377D02*
X59963219Y-138054377D01*
X61233219Y-119639377D02*
X61233219Y-121704377D01*
X62503219Y-118369377D02*
X62503219Y-116304377D01*
X63773219Y-119639377D02*
X63773219Y-121704377D01*
X62503219Y-118369377D02*
X63773219Y-119639377D01*
X61233219Y-119639377D02*
X62503219Y-118369377D01*
X59963219Y-118369377D02*
X61233219Y-119639377D01*
X59963219Y-116304377D02*
X59963219Y-118369377D01*
X63773219Y-84714377D02*
X63773219Y-82334377D01*
X62503219Y-98684377D02*
X61233219Y-99954377D01*
X61233219Y-99954377D02*
X61233219Y-102019377D01*
X62503219Y-98684377D02*
X62503219Y-98049377D01*
X59963219Y-96619377D02*
X59963219Y-98684377D01*
X59963219Y-98684377D02*
X61233219Y-99954377D01*
X62503219Y-98684377D02*
X63773219Y-99954377D01*
X63773219Y-99954377D02*
X63773219Y-102019377D01*
X62503219Y-98049377D02*
X62503219Y-96619377D01*
X62503219Y-76934377D02*
X62503219Y-75189377D01*
X63773219Y-68839377D02*
X63773219Y-63284377D01*
X59963219Y-76934377D02*
X59963219Y-78999377D01*
X59963219Y-78999377D02*
X61233219Y-80269377D01*
X62503219Y-78999377D02*
X62503219Y-76934377D01*
X61233219Y-82334377D02*
X61233219Y-80269377D01*
X63773219Y-80269377D02*
X63773219Y-82334377D01*
X62503219Y-78999377D02*
X63773219Y-80269377D01*
X61233219Y-80269377D02*
X62503219Y-78999377D01*
X61233219Y-61219377D02*
X59963219Y-59949377D01*
X59963219Y-59949377D02*
X59963219Y-57884377D01*
X62503219Y-59949377D02*
X62503219Y-57884377D01*
X61233219Y-63284377D02*
X61233219Y-61219377D01*
X63773219Y-61219377D02*
X63773219Y-63284377D01*
X62503219Y-59949377D02*
X63773219Y-61219377D01*
X61233219Y-61219377D02*
X62503219Y-59949377D01*
X61233219Y-41534377D02*
X62503219Y-40264377D01*
X62503219Y-40264377D02*
X62503219Y-38199377D01*
X61233219Y-43599377D02*
X61233219Y-41534377D01*
X59963219Y-40264377D02*
X59963219Y-38199377D01*
X61233219Y-41534377D02*
X59963219Y-40264377D01*
X16160619Y-18051777D02*
X16148219Y-18039377D01*
D22*
X16148219Y-18039377D02*
X16148219Y-131704377D01*
D21*
X16783219Y-132339377D02*
X21863219Y-132339377D01*
X16148219Y-131704377D02*
X16783219Y-132339377D01*
X21863219Y-132339377D02*
X22498219Y-132974377D01*
X22498219Y-132974377D02*
X22498219Y-140930877D01*
X22498219Y-140930877D02*
X22900819Y-141333477D01*
X22900819Y-141333477D02*
X23453219Y-141333477D01*
X16160619Y-18051777D02*
X16148219Y-18064177D01*
X20593219Y-18051777D02*
X16160619Y-18051777D01*
X22118219Y-18674377D02*
X21215819Y-18674377D01*
X21215819Y-18674377D02*
X20593219Y-18051777D01*
X31388219Y-132974377D02*
X31388219Y-140930877D01*
X31388219Y-140930877D02*
X31790819Y-141333477D01*
X31790819Y-141333477D02*
X32343219Y-141333477D01*
X30498219Y-18674377D02*
X29483219Y-18674377D01*
X29483219Y-18674377D02*
X28848219Y-18039377D01*
X30498219Y-18674377D02*
X30118219Y-18674377D01*
X19958219Y-18674377D02*
X16783219Y-18674377D01*
D22*
X16783219Y-18674377D02*
X16783219Y-131069377D01*
D21*
X16783219Y-131069377D02*
X17418219Y-131704377D01*
X17418219Y-131704377D02*
X39643219Y-131704377D01*
X40680819Y-141333477D02*
X41233219Y-141333477D01*
X39643219Y-131704377D02*
X40278219Y-132339377D01*
X40278219Y-132339377D02*
X40278219Y-140930877D01*
X40278219Y-140930877D02*
X40680819Y-141333477D01*
X33548219Y-18674377D02*
X35198219Y-18674377D01*
X49168219Y-132339377D02*
X49168219Y-140930877D01*
X49168219Y-140930877D02*
X49570819Y-141333477D01*
X49570819Y-141333477D02*
X50123219Y-141333477D01*
X41928219Y-18674377D02*
X40278219Y-18674377D01*
X24658219Y-21214377D02*
X23755819Y-21214377D01*
X23755819Y-21214377D02*
X23133219Y-20591777D01*
X23133219Y-20591777D02*
X17430619Y-20591777D01*
X17418219Y-116464377D02*
X22728219Y-121774377D01*
X17430619Y-20591777D02*
X17418219Y-20604177D01*
D22*
X17418219Y-20604177D02*
X17418219Y-116464377D01*
D21*
X22728219Y-121774377D02*
X23453219Y-121774377D01*
X31388219Y-113289377D02*
X31388219Y-121371777D01*
X31388219Y-121371777D02*
X31790819Y-121774377D01*
X31790819Y-121774377D02*
X32343219Y-121774377D01*
X33038219Y-21214377D02*
X32023219Y-21214377D01*
X32023219Y-21214377D02*
X31388219Y-20579377D01*
X23040407Y-21307189D02*
X18146031Y-21307189D01*
X18688219Y-112019377D02*
X39643219Y-112019377D01*
X18146031Y-21307189D02*
X18053219Y-21400001D01*
D22*
X18053219Y-21400001D02*
X18053219Y-111384377D01*
D21*
X40680819Y-121774377D02*
X41233219Y-121774377D01*
X18053219Y-111384377D02*
X18688219Y-112019377D01*
X39643219Y-112019377D02*
X40278219Y-112654377D01*
X40278219Y-112654377D02*
X40278219Y-121371777D01*
X40278219Y-121371777D02*
X40680819Y-121774377D01*
X36088219Y-21214377D02*
X37738219Y-21214377D01*
X49168219Y-112654377D02*
X49168219Y-121371777D01*
X49168219Y-121371777D02*
X49570819Y-121774377D01*
X49570819Y-121774377D02*
X50123219Y-121774377D01*
X44468219Y-21214377D02*
X42818219Y-21214377D01*
X22118219Y-23754377D02*
X21863219Y-23754377D01*
X21863219Y-23754377D02*
X21228219Y-23119377D01*
X21228219Y-23119377D02*
X18688219Y-23119377D01*
D22*
X18688219Y-23119377D02*
X18688219Y-96779377D01*
D21*
X18688219Y-96779377D02*
X18693219Y-96779377D01*
X18693219Y-96779377D02*
X23453219Y-101539377D01*
X23453219Y-101539377D02*
X23453219Y-102089377D01*
X31388219Y-92969377D02*
X31388219Y-101686777D01*
X31388219Y-101686777D02*
X31790819Y-102089377D01*
X31790819Y-102089377D02*
X32343219Y-102089377D01*
X30498219Y-23754377D02*
X29595819Y-23754377D01*
X29595819Y-23754377D02*
X28960819Y-23119377D01*
X28960819Y-23119377D02*
X28848219Y-23119377D01*
X20593219Y-23754377D02*
X19323219Y-23754377D01*
D22*
X19323219Y-23754377D02*
X19323219Y-92334377D01*
D21*
X19323219Y-92334377D02*
X40278219Y-92334377D01*
X40278219Y-92334377D02*
X40278219Y-101686777D01*
X40680819Y-102089377D02*
X41233219Y-102089377D01*
X40278219Y-101686777D02*
X40680819Y-102089377D01*
X33548219Y-23754377D02*
X35198219Y-23754377D01*
X49168219Y-92334377D02*
X49168219Y-101686777D01*
X49168219Y-101686777D02*
X49570819Y-102089377D01*
X49570819Y-102089377D02*
X50123219Y-102089377D01*
X41928219Y-23754377D02*
X40278219Y-23754377D01*
D22*
X19958219Y-39629377D02*
X19958219Y-78909377D01*
D21*
X19958219Y-78909377D02*
X23453219Y-82404377D01*
X24658219Y-26294377D02*
X23768219Y-26294377D01*
D22*
X19958219Y-25659377D02*
X19958219Y-39629377D01*
D21*
X19958219Y-39629377D02*
X19958219Y-44074377D01*
X23133219Y-25659377D02*
X19958219Y-25659377D01*
X23768219Y-26294377D02*
X23133219Y-25659377D01*
X32023219Y-26294377D02*
X31388219Y-25659377D01*
X33038219Y-26294377D02*
X32023219Y-26294377D01*
X31618219Y-82404377D02*
X32343219Y-82404377D01*
X31388219Y-82174377D02*
X31618219Y-82404377D01*
X31388219Y-73919377D02*
X31388219Y-82174377D01*
X32253219Y-82404377D02*
X32343219Y-82404377D01*
D22*
X20593219Y-44074377D02*
X20593219Y-73284377D01*
D21*
X22498219Y-26294377D02*
X20593219Y-26294377D01*
D22*
X20593219Y-26294377D02*
X20593219Y-44074377D01*
D21*
X36088219Y-26294377D02*
X37738219Y-26294377D01*
X40278219Y-81539377D02*
X41143219Y-82404377D01*
X40278219Y-73284377D02*
X40278219Y-81539377D01*
X20593219Y-73284377D02*
X40278219Y-73284377D01*
X41143219Y-82404377D02*
X41233219Y-82404377D01*
X44468219Y-26294377D02*
X42818219Y-26294377D01*
X49168219Y-81449377D02*
X50123219Y-82404377D01*
X49168219Y-73919377D02*
X49168219Y-81449377D01*
X49803219Y-73284377D02*
X49168219Y-73919377D01*
D22*
X21228219Y-32644377D02*
X21228219Y-61129377D01*
D21*
X21228219Y-61129377D02*
X23453219Y-63354377D01*
X22118219Y-28834377D02*
X22118219Y-29849377D01*
D22*
X21228219Y-30739377D02*
X21228219Y-32644377D01*
D21*
X22118219Y-29849377D02*
X21228219Y-30739377D01*
X30498219Y-28834377D02*
X28848219Y-28834377D01*
X31388219Y-61854377D02*
X32343219Y-62809377D01*
X31388219Y-54234377D02*
X31388219Y-61854377D01*
X32343219Y-62809377D02*
X32343219Y-63354377D01*
X33548219Y-28834377D02*
X35198219Y-28834377D01*
X40913219Y-55504377D02*
X40913219Y-62489377D01*
X40913219Y-62489377D02*
X41233219Y-63354377D01*
X41928219Y-28834377D02*
X40278219Y-28834377D01*
X49803219Y-53599377D02*
X49803219Y-63124377D01*
X49168219Y-52964377D02*
X49803219Y-53599377D01*
X49803219Y-63124377D02*
X50123219Y-63354377D01*
X24658219Y-31374377D02*
X24658219Y-33024377D01*
X22498219Y-42714377D02*
X23453219Y-43669377D01*
X22498219Y-35184377D02*
X22498219Y-42714377D01*
X24658219Y-33024377D02*
X22498219Y-35184377D01*
X33038219Y-31374377D02*
X33038219Y-33534377D01*
X31388219Y-42714377D02*
X32343219Y-43669377D01*
X31388219Y-35184377D02*
X31388219Y-42714377D01*
X33038219Y-33534377D02*
X31388219Y-35184377D01*
X36088219Y-31374377D02*
X36468219Y-31374377D01*
X36468219Y-31374377D02*
X40278219Y-35184377D01*
X40278219Y-35184377D02*
X40278219Y-42714377D01*
X40278219Y-42714377D02*
X41233219Y-43669377D01*
X44468219Y-31374377D02*
X45358219Y-31374377D01*
X49168219Y-42714377D02*
X50123219Y-43669377D01*
X49168219Y-35184377D02*
X49168219Y-42714377D01*
X45358219Y-31374377D02*
X49168219Y-35184377D01*
M02*
